{
	"asset":{
		"generator":"Khronos glTF Blender I/O v5.1.20",
		"version":"2.0"
	},
	"extensionsUsed":[
		"KHR_texture_transform"
	],
	"extensionsRequired":[
		"KHR_texture_transform"
	],
	"scene":0,
	"scenes":[
		{
			"name":"Scene",
			"nodes":[
				0
			]
		}
	],
	"nodes":[
		{
			"mesh":0,
			"name":"belt"
		}
	],
	"materials":[
		{
			"doubleSided":true,
			"name":"BeltMat",
			"normalTexture":{
				"extensions":{
					"KHR_texture_transform":{
						"scale":[
							14,
							1
						]
					}
				},
				"index":0
			},
			"pbrMetallicRoughness":{
				"baseColorTexture":{
					"extensions":{
						"KHR_texture_transform":{
							"scale":[
								14,
								1
							]
						}
					},
					"index":1
				},
				"metallicFactor":0,
				"roughnessFactor":0.781818151473999
			}
		}
	],
	"meshes":[
		{
			"name":"Cylinder.002",
			"primitives":[
				{
					"attributes":{
						"POSITION":0,
						"NORMAL":1,
						"TEXCOORD_0":2,
						"TANGENT":3
					},
					"indices":4,
					"material":0
				}
			]
		}
	],
	"textures":[
		{
			"sampler":0,
			"source":0
		},
		{
			"sampler":0,
			"source":1
		}
	],
	"images":[
		{
			"mimeType":"image/png",
			"name":"belt_normal",
			"uri":"belt_normal.png"
		},
		{
			"mimeType":"image/png",
			"name":"belt_diffuse",
			"uri":"belt_diffuse.png"
		}
	],
	"accessors":[
		{
			"bufferView":0,
			"componentType":5126,
			"count":106,
			"max":[
				1.1820811033248901,
				0.17808811366558075,
				0.25
			],
			"min":[
				-1.1801170110702515,
				-0.25304627418518066,
				-0.25
			],
			"type":"VEC3"
		},
		{
			"bufferView":1,
			"componentType":5126,
			"count":106,
			"type":"VEC3"
		},
		{
			"bufferView":2,
			"componentType":5126,
			"count":106,
			"type":"VEC2"
		},
		{
			"bufferView":3,
			"componentType":5126,
			"count":106,
			"type":"VEC4"
		},
		{
			"bufferView":4,
			"componentType":5123,
			"count":312,
			"type":"SCALAR"
		}
	],
	"bufferViews":[
		{
			"buffer":0,
			"byteLength":1272,
			"byteOffset":0,
			"target":34962
		},
		{
			"buffer":0,
			"byteLength":1272,
			"byteOffset":1272,
			"target":34962
		},
		{
			"buffer":0,
			"byteLength":848,
			"byteOffset":2544,
			"target":34962
		},
		{
			"buffer":0,
			"byteLength":1696,
			"byteOffset":3392,
			"target":34962
		},
		{
			"buffer":0,
			"byteLength":624,
			"byteOffset":5088,
			"target":34963
		}
	],
	"samplers":[
		{
			"magFilter":9729,
			"minFilter":9987
		}
	],
	"buffers":[
		{
			"byteLength":5712,
			"uri":"sagging_belt.bin"
		}
	]
}
