# A flat washer (annulus) in the z = 0 plane: outer radius 1.0,
# inner radius 0.5, 48 segments. Generated for the P1 washer-stack
# experiment (examples/integrators/washer_stack.cc); scale per use.
v 1.000000000 0.000000000 0.0
v 0.991444861 0.130526192 0.0
v 0.965925826 0.258819045 0.0
v 0.923879533 0.382683432 0.0
v 0.866025404 0.500000000 0.0
v 0.793353340 0.608761429 0.0
v 0.707106781 0.707106781 0.0
v 0.608761429 0.793353340 0.0
v 0.500000000 0.866025404 0.0
v 0.382683432 0.923879533 0.0
v 0.258819045 0.965925826 0.0
v 0.130526192 0.991444861 0.0
v 0.000000000 1.000000000 0.0
v -0.130526192 0.991444861 0.0
v -0.258819045 0.965925826 0.0
v -0.382683432 0.923879533 0.0
v -0.500000000 0.866025404 0.0
v -0.608761429 0.793353340 0.0
v -0.707106781 0.707106781 0.0
v -0.793353340 0.608761429 0.0
v -0.866025404 0.500000000 0.0
v -0.923879533 0.382683432 0.0
v -0.965925826 0.258819045 0.0
v -0.991444861 0.130526192 0.0
v -1.000000000 0.000000000 0.0
v -0.991444861 -0.130526192 0.0
v -0.965925826 -0.258819045 0.0
v -0.923879533 -0.382683432 0.0
v -0.866025404 -0.500000000 0.0
v -0.793353340 -0.608761429 0.0
v -0.707106781 -0.707106781 0.0
v -0.608761429 -0.793353340 0.0
v -0.500000000 -0.866025404 0.0
v -0.382683432 -0.923879533 0.0
v -0.258819045 -0.965925826 0.0
v -0.130526192 -0.991444861 0.0
v -0.000000000 -1.000000000 0.0
v 0.130526192 -0.991444861 0.0
v 0.258819045 -0.965925826 0.0
v 0.382683432 -0.923879533 0.0
v 0.500000000 -0.866025404 0.0
v 0.608761429 -0.793353340 0.0
v 0.707106781 -0.707106781 0.0
v 0.793353340 -0.608761429 0.0
v 0.866025404 -0.500000000 0.0
v 0.923879533 -0.382683432 0.0
v 0.965925826 -0.258819045 0.0
v 0.991444861 -0.130526192 0.0
v 0.500000000 0.000000000 0.0
v 0.495722431 0.065263096 0.0
v 0.482962913 0.129409523 0.0
v 0.461939766 0.191341716 0.0
v 0.433012702 0.250000000 0.0
v 0.396676670 0.304380715 0.0
v 0.353553391 0.353553391 0.0
v 0.304380715 0.396676670 0.0
v 0.250000000 0.433012702 0.0
v 0.191341716 0.461939766 0.0
v 0.129409523 0.482962913 0.0
v 0.065263096 0.495722431 0.0
v 0.000000000 0.500000000 0.0
v -0.065263096 0.495722431 0.0
v -0.129409523 0.482962913 0.0
v -0.191341716 0.461939766 0.0
v -0.250000000 0.433012702 0.0
v -0.304380715 0.396676670 0.0
v -0.353553391 0.353553391 0.0
v -0.396676670 0.304380715 0.0
v -0.433012702 0.250000000 0.0
v -0.461939766 0.191341716 0.0
v -0.482962913 0.129409523 0.0
v -0.495722431 0.065263096 0.0
v -0.500000000 0.000000000 0.0
v -0.495722431 -0.065263096 0.0
v -0.482962913 -0.129409523 0.0
v -0.461939766 -0.191341716 0.0
v -0.433012702 -0.250000000 0.0
v -0.396676670 -0.304380715 0.0
v -0.353553391 -0.353553391 0.0
v -0.304380715 -0.396676670 0.0
v -0.250000000 -0.433012702 0.0
v -0.191341716 -0.461939766 0.0
v -0.129409523 -0.482962913 0.0
v -0.065263096 -0.495722431 0.0
v -0.000000000 -0.500000000 0.0
v 0.065263096 -0.495722431 0.0
v 0.129409523 -0.482962913 0.0
v 0.191341716 -0.461939766 0.0
v 0.250000000 -0.433012702 0.0
v 0.304380715 -0.396676670 0.0
v 0.353553391 -0.353553391 0.0
v 0.396676670 -0.304380715 0.0
v 0.433012702 -0.250000000 0.0
v 0.461939766 -0.191341716 0.0
v 0.482962913 -0.129409523 0.0
v 0.495722431 -0.065263096 0.0
f 1 2 50
f 1 50 49
f 2 3 51
f 2 51 50
f 3 4 52
f 3 52 51
f 4 5 53
f 4 53 52
f 5 6 54
f 5 54 53
f 6 7 55
f 6 55 54
f 7 8 56
f 7 56 55
f 8 9 57
f 8 57 56
f 9 10 58
f 9 58 57
f 10 11 59
f 10 59 58
f 11 12 60
f 11 60 59
f 12 13 61
f 12 61 60
f 13 14 62
f 13 62 61
f 14 15 63
f 14 63 62
f 15 16 64
f 15 64 63
f 16 17 65
f 16 65 64
f 17 18 66
f 17 66 65
f 18 19 67
f 18 67 66
f 19 20 68
f 19 68 67
f 20 21 69
f 20 69 68
f 21 22 70
f 21 70 69
f 22 23 71
f 22 71 70
f 23 24 72
f 23 72 71
f 24 25 73
f 24 73 72
f 25 26 74
f 25 74 73
f 26 27 75
f 26 75 74
f 27 28 76
f 27 76 75
f 28 29 77
f 28 77 76
f 29 30 78
f 29 78 77
f 30 31 79
f 30 79 78
f 31 32 80
f 31 80 79
f 32 33 81
f 32 81 80
f 33 34 82
f 33 82 81
f 34 35 83
f 34 83 82
f 35 36 84
f 35 84 83
f 36 37 85
f 36 85 84
f 37 38 86
f 37 86 85
f 38 39 87
f 38 87 86
f 39 40 88
f 39 88 87
f 40 41 89
f 40 89 88
f 41 42 90
f 41 90 89
f 42 43 91
f 42 91 90
f 43 44 92
f 43 92 91
f 44 45 93
f 44 93 92
f 45 46 94
f 45 94 93
f 46 47 95
f 46 95 94
f 47 48 96
f 47 96 95
f 48 1 49
f 48 49 96
