# Converted from Thingi10K 101187.stl
# welded vertices: 72, faces: 144
v -0.05 0.026108233 -0.000333460807
v -0.05 0.026108233 0.000333470981
v -0.0499999665 -0.0261083134 -0.000333460807
v -0.0499999665 -0.0261083134 0.000333470981
v -0.0462267909 0.00759280263 -0.000333460807
v -0.0462267909 0.00759280263 0.000333470981
v -0.0461898701 0.00812534005 -0.000333460807
v -0.0461898701 0.00812534005 0.000333470981
v -0.0461898601 -0.00876355476 -0.000333460807
v -0.0461898601 -0.00876355476 0.000333470981
v -0.0460805272 0.00863744368 -0.000333460807
v -0.0460805272 0.00863744368 0.000333470981
v -0.0460805172 -0.00927565838 -0.000333460807
v -0.0460805172 -0.00927565838 0.000333470981
v -0.0459029534 0.00910937602 -0.000333460807
v -0.0459029534 0.00910937602 0.000333470981
v -0.0459029433 -0.0097476175 -0.000333460807
v -0.04590294 -0.0097476175 0.000333470981
v -0.0456639844 0.00952308676 -0.000333460807
v -0.0456639844 0.00952308676 0.000333470981
v -0.0456639744 -0.0101612747 -0.000333460807
v -0.0456639744 -0.0101612747 0.000333470981
v -0.0453727995 0.00986258774 -0.000333460807
v -0.0453727961 0.00986258774 0.000333470981
v -0.0453727861 -0.0105007757 -0.000333460807
v -0.0453727861 -0.0105007757 0.000333470981
v -0.0450405762 0.0101148367 -0.000333460807
v -0.0450405762 0.0101148367 0.000333470981
v -0.0450405661 -0.0107530514 -0.000333460807
v -0.0450405661 -0.0107530514 0.000333470981
v -0.0446801091 0.0102701657 -0.000333460807
v -0.0446801091 0.0102701657 0.000333470981
v -0.0446800958 -0.0109083804 -0.000333460807
v -0.0446800958 -0.0109083804 0.000333470981
v -0.0443052273 0.0103226294 -0.000333460807
v -0.0443052273 0.0103226294 0.000333470981
v -0.044305224 -0.0109608173 -0.000333460807
v -0.044305224 -0.0109608173 0.000333470981
v -0.0439303522 0.0102701657 -0.000333460807
v -0.0439303522 0.0102701657 0.000333470981
v -0.0439303388 -0.0109083804 -0.000333460807
v -0.0439303388 -0.0109083804 0.000333470981
v -0.0435698818 0.0101148367 -0.000333460807
v -0.0435698818 0.0101148367 0.000333470981
v -0.0435698684 -0.0107530514 -0.000333460807
v -0.0435698684 -0.0107530514 0.000333470981
v -0.0432376618 0.00986258774 -0.000333460807
v -0.0432376618 0.00986258774 0.000333470981
v -0.0432376484 -0.0105007757 -0.000333460807
v -0.0432376484 -0.0105007757 0.000333470981
v -0.0429464769 0.00952308676 -0.000333460807
v -0.0429464769 0.00952308676 0.000333470981
v -0.0429464702 -0.0101612747 -0.000333460807
v -0.0429464702 -0.0101612747 0.000333470981
v -0.0427075046 0.00910937602 -0.000333460807
v -0.0427075046 0.00910937602 0.000333470981
v -0.0427074979 -0.00974764428 -0.000333460807
v -0.0427074979 -0.00974764428 0.000333470981
v -0.0425299341 0.00863744368 -0.000333460807
v -0.0425299341 0.00863744368 0.000333470981
v -0.042529924 -0.00927565838 -0.000333460807
v -0.042529924 -0.00927565838 0.000333470981
v -0.0424205878 0.00812534005 -0.000333460807
v -0.0424205878 0.00812534005 0.000333470981
v -0.0424205778 -0.00876355476 -0.000333460807
v -0.0424205778 -0.00876355476 0.000333470981
v -0.0423836637 0.00759280263 -0.000333460807
v -0.0423836637 0.00759280263 0.000333470981
v 0.0499999732 0.0261083134 -0.000333470981
v 0.0499999732 0.0261083134 0.000333460807
v 0.05 -0.0261082598 -0.000333470981
v 0.05 -0.0261082598 0.000333460807
f 4 3 71
f 72 4 71
f 3 4 2
f 2 1 3
f 70 69 1
f 1 2 70
f 69 70 72
f 72 71 69
f 17 21 3
f 3 13 17
f 3 9 13
f 3 5 9
f 3 1 7
f 7 5 3
f 21 25 3
f 1 11 7
f 1 15 11
f 1 19 15
f 1 23 19
f 1 27 23
f 1 31 27
f 1 35 31
f 1 39 35
f 1 43 39
f 1 47 43
f 1 51 47
f 1 69 55
f 55 51 1
f 25 29 3
f 69 59 55
f 69 63 59
f 69 67 63
f 69 65 67
f 69 61 65
f 69 57 61
f 69 53 57
f 69 49 53
f 69 45 49
f 69 3 41
f 41 45 69
f 33 37 3
f 29 33 3
f 3 37 41
f 69 71 3
f 58 54 72
f 72 62 58
f 72 66 62
f 72 68 66
f 72 64 68
f 72 60 64
f 72 56 60
f 72 52 56
f 72 48 52
f 72 44 48
f 72 2 40
f 40 44 72
f 54 50 72
f 2 36 40
f 2 32 36
f 2 28 32
f 2 24 28
f 2 20 24
f 2 16 20
f 2 12 16
f 2 8 12
f 2 6 8
f 2 4 10
f 10 6 2
f 50 46 72
f 4 14 10
f 4 18 14
f 4 22 18
f 4 26 22
f 4 30 26
f 46 42 72
f 4 34 30
f 4 72 38
f 34 4 38
f 42 38 72
f 72 70 2
f 7 8 6
f 6 5 7
f 11 12 8
f 8 7 11
f 15 16 12
f 12 11 15
f 19 20 16
f 16 15 19
f 19 23 24
f 24 20 19
f 27 28 24
f 24 23 27
f 31 32 28
f 28 27 31
f 31 35 36
f 36 32 31
f 39 40 36
f 36 35 39
f 43 44 40
f 40 39 43
f 47 48 44
f 44 43 47
f 51 52 48
f 48 47 51
f 55 56 52
f 52 51 55
f 59 60 56
f 56 55 59
f 63 64 60
f 60 59 63
f 67 68 64
f 64 63 67
f 65 66 68
f 68 67 65
f 61 62 66
f 66 65 61
f 61 57 58
f 58 62 61
f 53 54 58
f 58 57 53
f 49 50 54
f 54 53 49
f 45 46 50
f 50 49 45
f 41 42 46
f 46 45 41
f 37 38 42
f 42 41 37
f 33 34 38
f 38 37 33
f 33 29 30
f 30 34 33
f 25 26 30
f 30 29 25
f 25 21 22
f 22 26 25
f 17 18 22
f 22 21 17
f 13 14 18
f 18 17 13
f 10 9 5
f 5 6 10
f 9 10 14
f 14 13 9
