# Converted from Thingi10K 101558.stl
# welded vertices: 64, faces: 124
v -0.0498796678 -0.0412949222 -0.000453451526
v -0.0498796678 -0.0412949222 0.000453451526
v -0.0498796678 -0.00441418309 -0.000453451526
v -0.0498796678 -0.00441418309 0.000453451526
v -0.0498796678 0.00450368192 -0.000453451526
v -0.0498796678 0.00450368192 0.000453451526
v -0.0498796678 0.041201521 -0.000453451526
v -0.0498796678 0.041201521 0.000453451526
v -0.0421709919 -0.0412949222 -0.000453451526
v -0.0421709919 -0.0412949222 0.000453451526
v -0.0421709919 -0.00456534859 -0.000453451526
v -0.0421709919 -0.00456534859 0.000453451526
v -0.0421709919 0.00450368192 -0.000453451526
v -0.0421709919 0.00450368192 0.000453451526
v -0.0421709919 0.0412332555 -0.000453451526
v -0.0421709919 0.0412332555 0.000453451526
v -0.0412640888 0.0421401586 -0.000453451526
v -0.0412640888 0.0421401586 0.000453451526
v -0.0412640888 0.05 -0.000453451526
v -0.0412640888 0.05 0.000453451526
v -0.0412633866 -0.05 -0.000453451526
v -0.0412633866 -0.05 0.000453451526
v -0.0412633866 -0.0422018252 -0.000453451526
v -0.0412633866 -0.0422018252 0.000453451526
v -0.00453451526 0.0421401586 -0.000453451526
v -0.00453451526 0.0421401586 0.000453451526
v -0.00453451526 0.0498488345 -0.000453451526
v -0.00453451526 0.0498488345 0.000453451526
v -0.00453362226 -0.0422918153 -0.000453451526
v -0.00453362226 -0.0422918153 0.000453451526
v -0.00444664026 -0.05 -0.000453451526
v -0.00444664026 -0.05 0.000453451526
v 0.00446107787 0.0498484851 -0.000453451526
v 0.00446107787 0.0498484851 0.000453451526
v 0.00453451526 -0.05 -0.000453451526
v 0.00453451526 -0.05 0.000453451526
v 0.00453451526 -0.0422913241 -0.000453451526
v 0.00453451526 -0.0422913241 0.000453451526
v 0.00453451526 0.0421401586 -0.000453451526
v 0.00453451526 0.0421401586 0.000453451526
v 0.0412633866 -0.05 -0.000453451526
v 0.0412633866 -0.05 0.000453451526
v 0.0412640888 -0.0422018252 -0.000453451526
v 0.0412640888 -0.0422018252 0.000453451526
v 0.0412640888 0.0421401586 -0.000453451526
v 0.0412640888 0.0421401586 0.000453451526
v 0.0412640888 0.05 -0.000453451526
v 0.0412640888 0.05 0.000453451526
v 0.0421709919 -0.0412949222 -0.000453451526
v 0.0421709919 -0.0412949222 0.000453451526
v 0.0421709919 -0.00441418309 -0.000453451526
v 0.0421709919 -0.00441418309 0.000453451526
v 0.0421709919 0.00465484742 -0.000453451526
v 0.0421709919 0.00465484742 0.000453451526
v 0.0421709919 0.0412332555 -0.000453451526
v 0.0421709919 0.0412332555 0.000453451526
v 0.0498796505 0.0412488408 -0.000453451526
v 0.0498796505 0.0412488408 0.000453451526
v 0.0498796678 -0.0412949222 -0.000453451526
v 0.0498796678 -0.0412949222 0.000453451526
v 0.0498796678 -0.00441418309 -0.000453451526
v 0.0498796678 -0.00441418309 0.000453451526
v 0.0498796678 0.00465484742 -0.000453451526
v 0.0498796678 0.00465484742 0.000453451526
f 16 18 15
f 15 18 17
f 18 20 17
f 17 20 19
f 20 28 19
f 19 28 27
f 28 26 27
f 27 26 25
f 26 40 25
f 25 40 39
f 40 34 39
f 39 34 33
f 34 48 33
f 33 48 47
f 48 46 47
f 47 46 45
f 46 56 45
f 45 56 55
f 56 58 55
f 55 58 57
f 58 64 57
f 57 64 63
f 64 54 63
f 63 54 53
f 54 52 53
f 53 52 51
f 52 62 51
f 51 62 61
f 62 60 61
f 61 60 59
f 60 50 59
f 59 50 49
f 50 44 49
f 49 44 43
f 44 42 43
f 43 42 41
f 42 36 41
f 41 36 35
f 36 38 35
f 35 38 37
f 38 30 37
f 37 30 29
f 30 32 29
f 29 32 31
f 32 22 31
f 31 22 21
f 22 24 21
f 21 24 23
f 24 10 23
f 23 10 9
f 10 2 9
f 9 2 1
f 2 4 1
f 1 4 3
f 4 12 3
f 3 12 11
f 12 14 11
f 11 14 13
f 14 6 13
f 13 6 5
f 6 8 5
f 5 8 7
f 8 16 7
f 7 16 15
f 8 14 16
f 8 6 14
f 30 38 12
f 10 12 2
f 10 30 12
f 10 24 30
f 30 24 22
f 32 30 22
f 12 4 2
f 36 42 38
f 38 42 44
f 50 38 44
f 50 52 38
f 50 60 52
f 52 60 62
f 56 40 54
f 64 56 54
f 64 58 56
f 56 46 40
f 40 46 34
f 34 46 48
f 54 40 14
f 52 14 12
f 38 52 12
f 28 18 26
f 28 20 18
f 40 26 14
f 14 26 16
f 16 26 18
f 54 14 52
f 5 7 13
f 13 7 15
f 25 15 17
f 27 17 19
f 27 25 17
f 15 25 13
f 13 25 39
f 53 39 55
f 63 55 57
f 63 53 55
f 55 39 45
f 45 39 33
f 47 45 33
f 39 53 13
f 13 53 51
f 11 51 37
f 29 11 37
f 29 23 11
f 29 21 23
f 29 31 21
f 61 59 51
f 51 59 49
f 37 49 43
f 41 37 43
f 41 35 37
f 23 9 11
f 11 9 1
f 3 11 1
f 11 13 51
f 37 51 49
