# Converted from Thingi10K 1344041.stl
# welded vertices: 32, faces: 64
v -0.05 9.97197675e-09 0.0303836135
v -0.0402486607 9.97197675e-09 -0.0303836135
v -0.0357142882 9.97197675e-09 0.0303836135
v -0.0353553419 -0.0353553544 0.0303836135
v -0.0353553419 0.0353553544 0.0303836135
v -0.0287490444 9.97197675e-09 -0.0303836135
v -0.0284601014 -0.0284600915 -0.0303836135
v -0.0284601014 0.0284601114 -0.0303836135
v -0.0252538167 -0.0252538217 0.0303836135
v -0.0252538167 0.0252538217 0.0303836135
v -0.0203286449 -0.0203286225 -0.0303836135
v -0.0203286449 0.0203286424 -0.0303836135
v -1.55812137e-10 -0.05 0.0303836135
v -1.55812137e-10 -0.0402486433 -0.0303836135
v -1.55812137e-10 -0.0357142658 0.0303836135
v -1.55812137e-10 -0.0287490394 -0.0303836135
v -1.55812137e-10 0.0287490394 -0.0303836135
v -1.55812137e-10 0.0357142857 0.0303836135
v -1.55812137e-10 0.0402486632 -0.0303836135
v -1.55812137e-10 0.05 0.0303836135
v 0.0203286437 -0.0203286225 -0.0303836135
v 0.0203286437 0.0203286424 -0.0303836135
v 0.0252538142 -0.0252538217 0.0303836135
v 0.0252538142 0.0252538217 0.0303836135
v 0.0284601014 -0.0284600915 -0.0303836135
v 0.0284601014 0.0284601114 -0.0303836135
v 0.0287490444 9.97197675e-09 -0.0303836135
v 0.0353553419 -0.0353553544 0.0303836135
v 0.0353553419 0.0353553544 0.0303836135
v 0.0357142882 9.97197675e-09 0.0303836135
v 0.0402486607 9.97197675e-09 -0.0303836135
v 0.05 9.97197675e-09 0.0303836135
f 27 26 31
f 27 22 26
f 31 29 32
f 31 26 29
f 32 24 30
f 32 29 24
f 30 22 27
f 30 24 22
f 22 19 26
f 22 17 19
f 26 20 29
f 26 19 20
f 29 18 24
f 29 20 18
f 24 17 22
f 24 18 17
f 17 8 19
f 17 12 8
f 19 5 20
f 19 8 5
f 20 10 18
f 20 5 10
f 18 12 17
f 18 10 12
f 12 2 8
f 12 6 2
f 8 1 5
f 8 2 1
f 5 3 10
f 5 1 3
f 10 6 12
f 10 3 6
f 6 7 2
f 6 11 7
f 2 4 1
f 2 7 4
f 1 9 3
f 1 4 9
f 3 11 6
f 3 9 11
f 11 14 7
f 11 16 14
f 7 13 4
f 7 14 13
f 4 15 9
f 4 13 15
f 9 16 11
f 9 15 16
f 16 25 14
f 16 21 25
f 14 28 13
f 14 25 28
f 13 23 15
f 13 28 23
f 15 21 16
f 15 23 21
f 21 31 25
f 21 27 31
f 25 32 28
f 25 31 32
f 28 30 23
f 28 32 30
f 23 27 21
f 23 30 27
