# Converted from Thingi10K 1505020.stl
# welded vertices: 32, faces: 64
v -0.0499999502 4.44810795e-09 -0.0283582041
v -0.0499999502 4.44810795e-09 0.0283582041
v -0.0353553839 -0.0353553376 -0.0283582041
v -0.0353553839 -0.0353553376 0.0283582041
v -0.0353553839 0.0353553448 -0.0283582041
v -0.0353553839 0.0353553448 0.0283582041
v -0.0313432902 2.66886477e-09 -0.0283582041
v -0.0313432902 2.66886477e-09 0.0283582041
v -0.0221630786 -0.0221630484 -0.0283582041
v -0.0221630786 -0.0221630484 0.0283582041
v -0.0221630786 0.0221630501 -0.0283582041
v -0.0221630786 0.0221630501 0.0283582041
v -2.84678909e-08 -0.05 -0.0283582041
v -2.84678909e-08 -0.05 0.0283582041
v -2.84678909e-08 -0.0313432831 -0.0283582041
v -2.84678909e-08 -0.0313432831 0.0283582041
v -2.84678909e-08 0.0313432831 -0.0283582041
v -2.84678909e-08 0.0313432831 0.0283582041
v -2.84678909e-08 0.05 -0.0283582041
v -2.84678909e-08 0.05 0.0283582041
v 0.0221630217 -0.0221630484 -0.0283582041
v 0.0221630217 -0.0221630484 0.0283582041
v 0.0221630217 0.0221630501 -0.0283582041
v 0.0221630217 0.0221630501 0.0283582041
v 0.0313432332 0 -0.0283582041
v 0.0313432332 0 0.0283582041
v 0.035355327 -0.0353553376 -0.0283582041
v 0.035355327 -0.0353553376 0.0283582041
v 0.035355327 0.0353553376 -0.0283582041
v 0.035355327 0.0353553376 0.0283582041
v 0.0499999502 0 -0.0283582041
v 0.0499999502 0 0.0283582041
f 19 30 29
f 19 20 30
f 20 24 30
f 20 18 24
f 18 23 24
f 18 17 23
f 17 29 23
f 17 19 29
f 29 32 31
f 29 30 32
f 30 26 32
f 30 24 26
f 24 25 26
f 24 23 25
f 23 31 25
f 23 29 31
f 31 28 27
f 31 32 28
f 32 22 28
f 32 26 22
f 26 21 22
f 26 25 21
f 25 27 21
f 25 31 27
f 27 14 13
f 27 28 14
f 28 16 14
f 28 22 16
f 22 15 16
f 22 21 15
f 21 13 15
f 21 27 13
f 13 4 3
f 13 14 4
f 14 10 4
f 14 16 10
f 16 9 10
f 16 15 9
f 15 3 9
f 15 13 3
f 3 2 1
f 3 4 2
f 4 8 2
f 4 10 8
f 10 7 8
f 10 9 7
f 9 1 7
f 9 3 1
f 1 6 5
f 1 2 6
f 2 12 6
f 2 8 12
f 8 11 12
f 8 7 11
f 7 5 11
f 7 1 5
f 5 20 19
f 5 6 20
f 6 18 20
f 6 12 18
f 12 17 18
f 12 11 17
f 11 19 17
f 11 5 19
