# Converted from Thingi10K 1582414.stl
# welded vertices: 42, faces: 80
v -0.0155555556 -0.0155555556 -0.05
v -0.0155555556 -0.0155555556 0.0366666667
v -0.0155555556 -0.00666667111 -0.05
v -0.0155555556 -0.00666667111 0.0277777778
v -0.0111111111 -0.00222220889 -0.05
v -0.0111111111 -0.00222220889 0.0277777778
v -0.00666667111 -0.0155555556 -0.0455555556
v -0.00666667111 -0.0155555556 0.0366666667
v -0.00222223111 -0.0111111111 -0.0455555556
v -0.00222223111 -0.0111111111 -0.0333333333
v -0.00222223111 -0.0111111111 0.0366666667
v -0.00222223111 -0.0111111111 0.05
v -0.00222223111 -0.00222220889 -0.05
v -0.00222223111 -0.00222220889 0.0366666667
v -0.00222223111 -0.00222220889 0.05
v 0.00222220889 -0.0155555556 -0.0455555556
v 0.00222220889 -0.0155555556 -0.0333333333
v 0.00222220889 0.00222223111 -0.05
v 0.00222220889 0.00222223111 -0.00888888889
v 0.00222220889 0.00222223111 0.05
v 0.00222220889 0.0111111111 -0.05
v 0.00222220889 0.0111111111 -0.0177777778
v 0.00666667111 -0.0111111111 -0.0333333333
v 0.00666667111 -0.0111111111 0.0411111111
v 0.00666667111 0.0155555556 -0.05
v 0.00666667111 0.0155555556 -0.0177777778
v 0.0111111111 -0.0155555556 -0.05
v 0.0111111111 -0.0155555556 -0.04
v 0.0111111111 -0.00666667111 -0.0333333333
v 0.0111111111 -0.00666667111 0.0411111111
v 0.0111111111 0.00222223111 -0.0455555556
v 0.0111111111 0.00222223111 -0.0333333333
v 0.0111111111 0.00222223111 -0.00888888889
v 0.0111111111 0.00222223111 0.05
v 0.0155555556 -0.0111111111 -0.05
v 0.0155555556 -0.0111111111 -0.04
v 0.0155555556 -0.00222220889 -0.0455555556
v 0.0155555556 -0.00222220889 -0.0333333333
v 0.0155555556 0.00666667111 -0.0455555556
v 0.0155555556 0.00666667111 -0.00888888889
v 0.0155555556 0.0155555556 -0.05
v 0.0155555556 0.0155555556 -0.00888888889
f 10 23 11
f 11 23 24
f 12 11 24
f 32 33 29
f 29 33 30
f 30 33 34
f 9 7 16
f 16 17 9
f 9 17 10
f 39 31 37
f 5 6 13
f 13 6 14
f 31 32 37
f 37 32 38
f 42 19 40
f 40 19 33
f 31 39 32
f 32 39 40
f 33 32 40
f 41 39 35
f 41 42 39
f 39 42 40
f 39 37 35
f 35 37 36
f 36 37 38
f 21 22 25
f 25 22 26
f 19 22 18
f 18 22 21
f 42 26 19
f 19 26 22
f 25 26 41
f 41 26 42
f 35 36 27
f 27 36 28
f 36 29 28
f 36 38 29
f 29 23 28
f 28 23 17
f 12 34 15
f 15 34 20
f 15 20 14
f 14 20 19
f 13 19 18
f 13 14 19
f 19 20 33
f 33 20 34
f 11 12 14
f 14 12 15
f 29 30 23
f 23 30 24
f 12 24 34
f 34 24 30
f 14 2 11
f 11 2 8
f 9 10 7
f 7 10 8
f 8 10 11
f 7 27 16
f 7 1 27
f 7 2 1
f 7 8 2
f 27 28 16
f 16 28 17
f 3 4 5
f 5 4 6
f 3 1 4
f 4 1 2
f 14 6 2
f 2 6 4
f 32 29 38
f 35 27 13
f 18 35 13
f 18 41 35
f 18 21 41
f 41 21 25
f 27 1 13
f 13 1 3
f 5 13 3
f 23 10 17
