# Converted from Thingi10K 271872.stl
# welded vertices: 56, faces: 108
v -0.0339941567 0.00329394111 -0.0475459869
v -0.0339941567 0.0183356062 -0.0475459869
v -0.0339680817 0.00314221595 -0.0474530278
v -0.0339528956 0.0184036716 -0.0476003876
v -0.0321334964 0.00478336775 -0.05
v -0.0321334964 0.0178251015 -0.05
v -0.0314568095 0.0208677618 -0.0476003876
v -0.0313430205 0.0209367119 -0.0475141174
v -0.0313258899 0.000533906141 -0.0474530278
v -0.0312560065 0.000547711712 -0.0475141174
v -0.0309938757 0.00365835957 -0.05
v -0.0309938757 0.0189501097 -0.05
v -0.0183028812 0.00365835957 -0.05
v -0.0183028812 0.0189501097 -0.05
v -0.0181776783 0.00558055196 0.00887114619
v -0.0181516227 -0.00961283833 0.00896411261
v -0.0168417463 0.00488804703 -0.05
v -0.0168417463 0.0177204222 -0.05
v -0.0156436949 0.000547711712 -0.0475141174
v -0.0156436949 0.0209367119 -0.0475141174
v -0.0156288199 0.0209139521 -0.0475425938
v -0.0154761225 0.000949035764 -0.0478348344
v -0.0154599642 0.00625721937 0.0128609197
v -0.0154284642 -0.0120979188 0.0129732345
v -0.0141367877 0.00706089803 0.013860302
v -0.0141017488 -0.0133563452 0.0139852339
v -0.0128376446 0.00334123978 -0.047907863
v -0.0128376446 0.017938453 -0.047907863
v -0.0127868363 0.00321237158 -0.0478348344
v -0.0125835249 0.0183510062 -0.0475425938
v -0.00697109376 0.00583121056 0.0192993724
v -0.00693607428 -0.0145860424 0.0194243049
v -0.00664724618 -0.0183095798 0.047451375
v -0.00664724618 -0.0119694687 0.0194082942
v -0.00664724618 -0.00314648401 0.047451375
v -0.00664724618 0.00321463686 0.0193153837
v -0.00409862116 -0.0209367119 0.047514115
v -0.00409862116 -0.0189501097 0.05
v -0.00409862116 -0.0145860424 0.0194243049
v -0.00409862116 -0.00365835957 0.05
v -0.00409862116 -0.000547711712 0.047514115
v -0.00409862116 0.00583121056 0.0192993724
v 0.0111931289 -0.0209367119 0.047514115
v 0.0111931289 -0.0189501097 0.05
v 0.0111931289 -0.0145860424 0.0194243049
v 0.0111931289 -0.00365835957 0.05
v 0.0111931289 -0.000547711712 0.047514115
v 0.0111931289 0.00583121056 0.0192993724
v 0.013741754 -0.0183095798 0.047451375
v 0.013741754 -0.0119694687 0.0194082942
v 0.013741754 -0.00314648401 0.047451375
v 0.013741754 0.00321463686 0.0193153837
v 0.0308382811 0.00583121056 0.0192993724
v 0.0309251978 -0.0145860424 0.0194243049
v 0.0339293289 0.00323547161 0.0193152561
v 0.0339941567 -0.0119903034 0.0194084218
f 38 33 37
f 41 35 40
f 44 43 49
f 47 46 51
f 48 47 52
f 52 47 51
f 44 49 46
f 46 49 51
f 40 46 41
f 41 46 47
f 50 49 45
f 45 49 43
f 37 43 38
f 38 43 44
f 38 40 33
f 33 40 35
f 42 36 41
f 41 36 35
f 34 39 33
f 33 39 37
f 53 20 48
f 48 20 42
f 41 48 42
f 41 47 48
f 8 25 20
f 20 25 42
f 42 25 31
f 36 34 35
f 35 34 33
f 44 46 38
f 38 46 40
f 19 10 22
f 22 10 13
f 13 10 11
f 6 4 12
f 12 4 7
f 12 7 14
f 14 7 21
f 21 7 8
f 20 21 8
f 21 30 14
f 14 30 18
f 18 30 28
f 27 17 28
f 28 17 18
f 6 5 4
f 4 5 1
f 2 4 1
f 29 22 27
f 27 22 13
f 17 27 13
f 5 11 1
f 1 11 10
f 3 10 9
f 3 1 10
f 3 9 16
f 16 9 26
f 24 16 26
f 2 1 15
f 15 1 3
f 16 15 3
f 7 4 8
f 8 4 2
f 25 2 15
f 23 25 15
f 8 2 25
f 5 6 13
f 11 5 13
f 6 12 13
f 13 12 14
f 17 14 18
f 17 13 14
f 21 20 30
f 30 20 53
f 55 30 53
f 53 52 55
f 53 48 52
f 52 50 55
f 55 50 56
f 56 50 54
f 54 50 45
f 22 29 19
f 19 29 56
f 54 19 56
f 54 45 19
f 19 45 39
f 26 39 32
f 26 19 39
f 26 9 19
f 19 9 10
f 45 43 39
f 39 43 37
f 15 16 23
f 23 16 24
f 23 24 25
f 25 24 26
f 31 26 32
f 31 25 26
f 32 34 31
f 32 39 34
f 34 36 31
f 31 36 42
f 56 29 55
f 55 29 27
f 28 55 27
f 28 30 55
f 52 51 50
f 50 51 49
