# Converted from Thingi10K 43748.stl
# welded vertices: 52, faces: 100
v -0.05 -0.00245901639 -0.0102459016
v -0.05 -0.00245901639 0.0102459016
v -0.05 0.00245901639 -0.0102459016
v -0.05 0.00245901639 0.0102459016
v -0.0425504487 -0.00990856773 -0.0102459016
v -0.0425504487 -0.00990856773 0.0102459016
v -0.0425504487 0.00990856773 -0.0102459016
v -0.0425504487 0.00990856773 0.0102459016
v -0.0396815962 -0.0127774202 -0.00737704918
v -0.0396815962 -0.0127774202 0.00737704918
v -0.0396815962 0.0127774202 -0.00737704918
v -0.0396815962 0.0127774202 0.00737704918
v -0.037704918 -0.0147540984 0
v -0.037704918 0.0147540984 0
v -0.0319672131 -0.0147540984 0
v -0.0319672131 -0.0127774202 -0.00737704918
v -0.0319672131 -0.0127774202 0.00737704918
v -0.0319672131 -0.0116933175 -0.0037993874
v -0.0319672131 -0.0116933175 0.0037993874
v -0.0319672131 -0.00990856773 -0.0102459016
v -0.0319672131 -0.00990856773 0.0102459016
v -0.0319672131 -0.00722686799 -0.00994692839
v -0.0319672131 -0.00722686799 0.00994692839
v -0.0319672131 -0.00630672994 -0.0102459016
v -0.0319672131 -0.00630672994 0.0102459016
v -0.0319672131 0.00630672994 -0.0102459016
v -0.0319672131 0.00630672994 0.0102459016
v -0.0319672131 0.00722686799 -0.00994692839
v -0.0319672131 0.00722686799 0.00994692839
v -0.0319672131 0.00990856773 -0.0102459016
v -0.0319672131 0.00990856773 0.0102459016
v -0.0319672131 0.0116933175 -0.0037993874
v -0.0319672131 0.0116933175 0.0037993874
v -0.0319672131 0.0127774202 -0.00737704918
v -0.0319672131 0.0127774202 0.00737704918
v -0.0319672131 0.0147540984 0
v 0.00901639344 -0.00245901639 -0.0102459016
v 0.00901639344 -0.00245901639 0.0102459016
v 0.00901639344 0.00245901639 -0.0102459016
v 0.00901639344 0.00245901639 0.0102459016
v 0.05 -0.0116933175 -0.0037993874
v 0.05 -0.0116933175 0.0037993874
v 0.05 -0.00722686799 -0.00994692839
v 0.05 -0.00722686799 0.00994692839
v 0.05 -0.00630672994 -0.0102459016
v 0.05 -0.00630672994 0.0102459016
v 0.05 0.00630672994 -0.0102459016
v 0.05 0.00630672994 0.0102459016
v 0.05 0.00722686799 -0.00994692839
v 0.05 0.00722686799 0.00994692839
v 0.05 0.0116933175 -0.0037993874
v 0.05 0.0116933175 0.0037993874
f 38 37 2
f 2 37 1
f 9 13 5
f 5 13 10
f 5 10 6
f 5 6 2
f 5 2 1
f 26 7 30
f 26 3 7
f 39 3 26
f 47 39 26
f 39 47 37
f 47 45 37
f 37 45 24
f 24 20 5
f 24 5 1
f 37 24 1
f 6 21 25
f 40 38 48
f 25 2 6
f 38 2 25
f 48 27 40
f 46 38 25
f 46 48 38
f 4 31 8
f 4 27 31
f 4 40 27
f 40 39 38
f 38 39 37
f 9 5 20
f 16 9 20
f 21 6 10
f 17 21 10
f 17 10 13
f 15 17 13
f 13 9 16
f 15 13 16
f 23 21 17
f 19 23 17
f 18 19 15
f 24 22 20
f 16 18 15
f 15 19 17
f 25 21 23
f 22 16 20
f 22 18 16
f 22 24 43
f 43 24 45
f 48 46 44
f 41 48 42
f 42 48 44
f 43 48 41
f 45 48 43
f 47 48 45
f 49 48 47
f 51 48 49
f 52 48 51
f 50 48 52
f 28 49 26
f 26 49 47
f 33 36 31
f 31 27 29
f 32 34 33
f 33 31 29
f 28 30 32
f 26 30 28
f 30 34 32
f 34 36 33
f 36 35 31
f 7 11 30
f 30 11 34
f 8 12 4
f 4 12 14
f 4 14 11
f 4 11 7
f 4 7 3
f 39 40 4
f 3 39 4
f 8 31 12
f 12 31 35
f 29 27 48
f 50 29 48
f 46 25 23
f 44 46 23
f 44 23 19
f 42 44 19
f 42 19 18
f 41 42 18
f 41 18 22
f 43 41 22
f 29 50 33
f 33 50 52
f 33 52 32
f 32 52 51
f 32 51 28
f 28 51 49
f 12 35 14
f 14 35 36
f 11 14 34
f 34 14 36
