# Converted from Thingi10K 49375.stl
# welded vertices: 70, faces: 136
v -0.05 -0.00719664006 0.00256849315
v -0.05 0.0297896667 0.00256849315
v -0.0498988135 -0.00848239996 0.00256849315
v -0.0498988135 0.0310754288 0.00256849315
v -0.0495977241 -0.00973650523 0.00256849315
v -0.0495977241 0.0323295222 0.00256849315
v -0.0491041635 -0.010928066 0.00256849315
v -0.0491041635 0.0335210873 0.00256849315
v -0.0486235573 -0.00719664006 -0.00256849315
v -0.0486235573 0.0297896667 -0.00256849315
v -0.0485393054 -0.00826707583 -0.00256849315
v -0.0485393054 0.0308601014 -0.00256849315
v -0.0484302772 -0.0120277532 0.00256849315
v -0.0484302772 0.0346207745 0.00256849315
v -0.048288642 -0.00931115737 -0.00256849315
v -0.048288642 0.0319041851 -0.00256849315
v -0.047877737 -0.0103031723 -0.00256849315
v -0.047877737 0.0328961924 -0.00256849315
v -0.0475926653 -0.013008478 0.00256849315
v -0.0475926653 0.0356014993 0.00256849315
v -0.047316708 -0.0112186927 -0.00256849315
v -0.047316708 0.0338117139 -0.00256849315
v -0.0466193614 -0.0120351742 -0.00256849315
v -0.0466193614 0.0346281954 -0.00256849315
v -0.0466119405 -0.0138461007 0.00256849315
v -0.0466119405 0.0364391112 0.00256849315
v -0.0458028799 -0.0127325208 -0.00256849315
v -0.0458028799 0.035325542 -0.00256849315
v -0.0455122533 -0.0145199763 0.00256849315
v -0.0455122533 0.0371129975 0.00256849315
v -0.0448873584 -0.0132935606 -0.00256849315
v -0.0448873584 0.035886571 -0.00256849315
v -0.0443206882 -0.0150135476 0.00256849315
v -0.0443206882 0.0376065689 0.00256849315
v -0.0438953403 -0.0137044548 -0.00256849315
v -0.0438953403 0.036297476 -0.00256849315
v -0.043066584 -0.0153146263 0.00256849315
v -0.043066584 0.0379076475 0.00256849315
v -0.0428512674 -0.0139551181 -0.00256849315
v -0.0428512674 0.0365481394 -0.00256849315
v -0.0417808219 -0.0154158127 0.00256849315
v -0.0417808219 -0.0140393701 -0.00256849315
v -0.0417808219 0.0366323913 -0.00256849315
v -0.0417808219 0.0380088448 0.00256849315
v 0.021478244 -0.0154158127 0.00256849315
v 0.0220959228 -0.0176440837 0.00256849315
v 0.0225902384 -0.0140393701 -0.00256849315
v 0.0234068062 -0.0172243339 -0.00256849315
v 0.0234410743 -0.0210822889 0.00256849315
v 0.0246887714 -0.0205010139 -0.00256849315
v 0.0252079387 -0.0243240319 0.00256849315
v 0.0263726351 -0.0235904757 -0.00256849315
v 0.0273684392 -0.0273178514 0.00256849315
v 0.0284316363 -0.0264436415 -0.00256849315
v 0.0298882861 -0.0300162011 0.00256849315
v 0.0308331032 -0.0290152303 -0.00256849315
v 0.0327274728 -0.0323762485 0.00256849315
v 0.0335389063 -0.0312644051 -0.00256849315
v 0.0358409017 -0.0343605005 0.00256849315
v 0.0365060727 -0.0331554417 -0.00256849315
v 0.03917915 -0.0359374609 0.00256849315
v 0.0396874879 -0.0346583216 -0.00256849315
v 0.0426892137 -0.0370820947 0.00256849315
v 0.043032661 -0.0357491856 -0.00256849315
v 0.0463153489 -0.0377762269 0.00256849315
v 0.0464884478 -0.0364107108 -0.00256849315
v 0.05 -0.0380088448 0.00256849315
v 0.05 -0.0366323913 -0.00256849315
v 0.05 0.0366323913 -0.00256849315
v 0.05 0.0380088448 0.00256849315
f 70 67 69
f 69 67 68
f 45 47 46
f 46 47 48
f 46 48 49
f 49 48 50
f 49 50 51
f 51 50 52
f 51 52 53
f 53 52 54
f 53 54 55
f 55 54 56
f 55 56 57
f 57 56 58
f 57 58 59
f 59 58 60
f 59 60 61
f 61 60 62
f 61 62 63
f 63 62 64
f 63 64 65
f 65 64 66
f 65 66 67
f 67 66 68
f 42 47 41
f 41 47 45
f 1 9 3
f 3 9 11
f 3 11 5
f 5 11 15
f 5 15 7
f 7 15 17
f 7 17 13
f 13 17 21
f 13 21 19
f 19 21 23
f 19 23 25
f 25 23 27
f 25 27 29
f 29 27 31
f 29 31 33
f 33 31 35
f 33 35 37
f 37 35 39
f 37 39 41
f 41 39 42
f 10 9 2
f 2 9 1
f 44 43 38
f 38 43 40
f 38 40 34
f 34 40 36
f 34 36 30
f 30 36 32
f 30 32 26
f 26 32 28
f 26 28 20
f 20 28 24
f 20 24 14
f 14 24 22
f 14 22 8
f 8 22 18
f 8 18 6
f 6 18 16
f 6 16 4
f 4 16 12
f 4 12 2
f 2 12 10
f 69 43 70
f 70 43 44
f 42 43 47
f 47 43 69
f 47 69 48
f 48 69 68
f 48 68 50
f 50 68 66
f 50 66 52
f 52 66 64
f 52 64 54
f 54 64 62
f 54 62 56
f 56 62 60
f 56 60 58
f 10 43 9
f 9 43 42
f 9 42 11
f 11 42 39
f 11 39 15
f 15 39 35
f 15 35 17
f 17 35 31
f 17 31 21
f 21 31 27
f 21 27 23
f 22 24 28
f 10 12 43
f 43 12 36
f 43 36 40
f 18 22 16
f 16 22 28
f 16 28 12
f 12 28 32
f 12 32 36
f 6 4 2
f 70 2 45
f 45 2 1
f 45 1 41
f 41 1 3
f 41 3 37
f 37 3 5
f 37 5 33
f 33 5 7
f 33 7 29
f 29 7 13
f 29 13 25
f 25 13 19
f 2 30 26
f 45 46 70
f 70 46 49
f 70 49 51
f 34 30 38
f 38 30 2
f 38 2 44
f 44 2 70
f 51 53 70
f 70 53 55
f 70 55 57
f 8 6 14
f 14 6 2
f 14 2 20
f 20 2 26
f 65 67 63
f 63 67 70
f 63 70 61
f 61 70 57
f 61 57 59
