# Converted from Thingi10K 62860.stl
# welded vertices: 40, faces: 96
v -0.05 -0.05 -0.05
v -0.05 -0.05 0.05
v -0.05 -0.0365384615 -0.0365384615
v -0.05 -0.0365384615 0.0365384615
v -0.05 0.0365384615 -0.0365384615
v -0.05 0.0365384615 0.0365384615
v -0.05 0.05 -0.05
v -0.05 0.05 0.05
v -0.0365384615 -0.05 -0.0365384615
v -0.0365384615 -0.05 0.0365384615
v -0.0365384615 -0.0365384615 -0.05
v -0.0365384615 -0.0365384615 -0.0365384615
v -0.0365384615 -0.0365384615 0.0365384615
v -0.0365384615 -0.0365384615 0.05
v -0.0365384615 0.0365384615 -0.05
v -0.0365384615 0.0365384615 -0.0365384615
v -0.0365384615 0.0365384615 0.0365384615
v -0.0365384615 0.0365384615 0.05
v -0.0365384615 0.05 -0.0365384615
v -0.0365384615 0.05 0.0365384615
v 0.0365384615 -0.05 -0.0365384615
v 0.0365384615 -0.05 0.0365384615
v 0.0365384615 -0.0365384615 -0.05
v 0.0365384615 -0.0365384615 -0.0365384615
v 0.0365384615 -0.0365384615 0.0365384615
v 0.0365384615 -0.0365384615 0.05
v 0.0365384615 0.0365384615 -0.05
v 0.0365384615 0.0365384615 -0.0365384615
v 0.0365384615 0.0365384615 0.0365384615
v 0.0365384615 0.0365384615 0.05
v 0.0365384615 0.05 -0.0365384615
v 0.0365384615 0.05 0.0365384615
v 0.05 -0.05 -0.05
v 0.05 -0.05 0.05
v 0.05 -0.0365384615 -0.0365384615
v 0.05 -0.0365384615 0.0365384615
v 0.05 0.0365384615 -0.0365384615
v 0.05 0.0365384615 0.0365384615
v 0.05 0.05 -0.05
v 0.05 0.05 0.05
f 8 20 19
f 32 28 29
f 20 29 17
f 22 13 25
f 31 16 28
f 19 17 16
f 10 12 13
f 21 25 24
f 9 24 12
f 12 23 11
f 24 36 35
f 25 14 26
f 13 3 4
f 16 6 5
f 17 30 18
f 29 37 38
f 28 15 27
f 35 28 24
f 38 25 29
f 4 17 13
f 5 12 16
f 29 26 30
f 24 27 23
f 13 18 14
f 16 11 15
f 34 26 14
f 39 15 7
f 34 21 33
f 7 5 8
f 32 31 28
f 20 32 29
f 22 10 13
f 31 19 16
f 19 20 17
f 10 9 12
f 21 22 25
f 9 21 24
f 12 24 23
f 24 25 36
f 25 13 14
f 13 12 3
f 16 17 6
f 17 29 30
f 29 28 37
f 28 16 15
f 35 37 28
f 38 36 25
f 4 6 17
f 5 3 12
f 29 25 26
f 24 28 27
f 13 17 18
f 16 12 11
f 26 34 30
f 40 30 34
f 30 40 18
f 8 18 40
f 18 8 14
f 2 14 8
f 14 2 34
f 1 7 15
f 1 15 11
f 1 11 23
f 1 23 33
f 39 33 23
f 39 23 27
f 39 27 15
f 1 33 21
f 1 21 9
f 1 9 10
f 1 10 2
f 34 2 10
f 34 10 22
f 34 22 21
f 5 6 8
f 4 8 6
f 8 4 2
f 3 2 4
f 2 3 1
f 7 1 3
f 7 3 5
f 20 8 32
f 40 32 8
f 32 40 31
f 39 31 40
f 31 39 19
f 7 19 39
f 19 7 8
f 38 37 39
f 35 39 37
f 39 35 33
f 36 33 35
f 33 36 34
f 40 34 36
f 40 36 38
f 40 38 39
