# Converted from Thingi10K 85659.stl
# welded vertices: 38, faces: 72
v -0.05 -0.00896534273 -0.00454545455
v -0.05 -0.00896534273 0.00448188976
v -0.05 -0.00884425469 0.00454545455
v -0.05 0.00437097795 0.00454545455
v -0.05 0.0053581791 0.00402731568
v -0.05 0.00847220916 -0.000484123121
v -0.05 0.00896534273 -0.00454545455
v -0.0432755906 0.00896534273 -0.00454545455
v -0.042782534 0.00847220916 -0.000484123121
v -0.0409090909 0.0065988262 -0.00454545455
v -0.0409090909 0.0065988262 0.00222994989
v -0.0390356478 0.00847220916 -0.000484123121
v -0.0385425913 0.00896534273 -0.00454545455
v -0.0160028919 0.00896534273 -0.00454545455
v -0.0155097495 0.00847220916 -0.000484123121
v -0.0136363636 0.0065988262 -0.00454545455
v -0.0136363636 0.0065988262 0.00222994989
v -0.0117629778 0.00847220916 -0.000484123121
v -0.0112698354 0.00896534273 -0.00454545455
v 0.0112698354 0.00896534273 -0.00454545455
v 0.0117629778 0.00847220916 -0.000484123121
v 0.0136363636 0.0065988262 -0.00454545455
v 0.0136363636 0.0065988262 0.00222994989
v 0.0155097495 0.00847220916 -0.000484123121
v 0.0160028919 0.00896534273 -0.00454545455
v 0.0385425913 0.00896534273 -0.00454545455
v 0.0390356478 0.00847220916 -0.000484123121
v 0.0409090909 0.0065988262 -0.00454545455
v 0.0409090909 0.0065988262 0.00222994989
v 0.042782534 0.00847220916 -0.000484123121
v 0.0432755906 0.00896534273 -0.00454545455
v 0.05 -0.00896534273 -0.00454545455
v 0.05 -0.00896534273 0.00448188976
v 0.05 -0.00884425469 0.00454545455
v 0.05 0.00437097795 0.00454545455
v 0.05 0.0053581791 0.00402731568
v 0.05 0.00847220916 -0.000484123121
v 0.05 0.00896534273 -0.00454545455
f 1 2 7
f 7 2 3
f 7 3 4
f 7 4 5
f 7 5 6
f 2 1 32
f 33 2 32
f 13 32 10
f 1 7 10
f 1 10 32
f 19 32 16
f 16 13 14
f 32 13 16
f 25 32 22
f 22 19 20
f 32 19 22
f 32 25 26
f 32 26 28
f 32 28 31
f 32 31 38
f 10 7 8
f 6 9 7
f 7 9 8
f 11 17 12
f 30 36 37
f 29 36 30
f 23 36 29
f 24 29 27
f 9 6 11
f 17 36 23
f 15 12 17
f 5 36 17
f 5 17 11
f 5 11 6
f 17 23 18
f 23 29 24
f 21 18 23
f 5 4 35
f 36 5 35
f 4 3 34
f 35 4 34
f 3 2 33
f 34 3 33
f 33 32 38
f 36 33 37
f 37 33 38
f 35 33 36
f 34 33 35
f 30 37 31
f 31 37 38
f 30 31 29
f 29 31 28
f 29 28 27
f 27 28 26
f 24 27 25
f 25 27 26
f 24 25 23
f 23 25 22
f 23 22 21
f 21 22 20
f 18 21 19
f 19 21 20
f 18 19 17
f 17 19 16
f 17 16 15
f 15 16 14
f 12 15 13
f 13 15 14
f 12 13 11
f 11 13 10
f 11 10 9
f 9 10 8
