# Blender 4.0.2
# www.blender.org
mtllib cup.mtl
o Circle
v 0.019214 0.000000 0.000000
v 0.018845 0.003749 0.000000
v 0.017752 0.007353 0.000000
v 0.015976 0.010675 0.000000
v 0.013587 0.013587 0.000000
v 0.010675 0.015976 0.000000
v 0.007353 0.017752 0.000000
v 0.003749 0.018845 0.000000
v 0.000000 0.019214 0.000000
v -0.003749 0.018845 0.000000
v -0.007353 0.017752 0.000000
v -0.010675 0.015976 0.000000
v -0.013587 0.013587 0.000000
v -0.015976 0.010675 0.000000
v -0.017752 0.007353 0.000000
v -0.018845 0.003749 0.000000
v -0.019214 0.000000 0.000000
v -0.018845 -0.003749 0.000000
v -0.017752 -0.007353 0.000000
v -0.015976 -0.010675 0.000000
v -0.013587 -0.013587 0.000000
v -0.010675 -0.015976 0.000000
v -0.007353 -0.017752 0.000000
v -0.003749 -0.018845 0.000000
v 0.000000 -0.019214 0.000000
v 0.003749 -0.018845 0.000000
v 0.007353 -0.017752 0.000000
v 0.010675 -0.015976 0.000000
v 0.013587 -0.013587 0.000000
v 0.015976 -0.010675 0.000000
v 0.017752 -0.007353 0.000000
v 0.018845 -0.003749 0.000000
v 0.017914 0.000163 0.000000
v 0.016259 0.004032 0.000000
v 0.013944 0.007711 0.000000
v 0.011058 0.011058 0.000000
v 0.007711 0.013944 0.000000
v 0.004032 0.016259 0.000000
v 0.000163 0.017914 0.000000
v 0.016165 -0.003559 0.000000
v 0.013917 0.000330 0.000000
v 0.011092 0.004165 0.000000
v 0.007799 0.007799 0.000000
v 0.004165 0.011092 0.000000
v 0.000330 0.013917 0.000000
v -0.003559 0.016165 0.000000
v 0.013706 -0.007233 0.000000
v 0.010884 -0.003540 0.000000
v 0.007616 0.000263 0.000000
v 0.004031 0.004031 0.000000
v 0.000263 0.007616 0.000000
v -0.003540 0.010884 0.000000
v -0.007233 0.013706 0.000000
v 0.010675 -0.010675 0.000000
v 0.007353 -0.007353 0.000000
v 0.003749 -0.003749 0.000000
v 0.000000 -0.000000 0.000000
v -0.003749 0.003749 0.000000
v -0.007353 0.007353 0.000000
v -0.010675 0.010675 0.000000
v 0.007233 -0.013706 0.000000
v 0.003540 -0.010884 0.000000
v -0.000263 -0.007616 0.000000
v -0.004031 -0.004031 0.000000
v -0.007616 -0.000263 0.000000
v -0.010884 0.003540 0.000000
v -0.013706 0.007233 0.000000
v 0.003559 -0.016165 0.000000
v -0.000330 -0.013917 0.000000
v -0.004165 -0.011092 0.000000
v -0.007799 -0.007799 0.000000
v -0.011092 -0.004165 0.000000
v -0.013917 -0.000330 0.000000
v -0.016165 0.003559 0.000000
v -0.000163 -0.017914 0.000000
v -0.004032 -0.016259 0.000000
v -0.007711 -0.013944 0.000000
v -0.011058 -0.011058 0.000000
v -0.013944 -0.007711 0.000000
v -0.016259 -0.004032 0.000000
v -0.017914 -0.000163 0.000000
v 0.030000 0.000000 0.097815
v 0.029424 0.005853 0.097815
v 0.027716 0.011481 0.097815
v 0.024944 0.016667 0.097815
v 0.021213 0.021213 0.097815
v 0.016667 0.024944 0.097815
v 0.011481 0.027716 0.097815
v 0.005853 0.029424 0.097815
v 0.000000 0.030000 0.097815
v -0.005853 0.029424 0.097815
v -0.011481 0.027716 0.097815
v -0.016667 0.024944 0.097815
v -0.021213 0.021213 0.097815
v -0.024944 0.016667 0.097815
v -0.027716 0.011481 0.097815
v -0.029424 0.005853 0.097815
v -0.030000 0.000000 0.097815
v -0.029424 -0.005853 0.097815
v -0.027716 -0.011481 0.097815
v -0.024944 -0.016667 0.097815
v -0.021213 -0.021213 0.097815
v -0.016667 -0.024944 0.097815
v -0.011481 -0.027716 0.097815
v -0.005853 -0.029424 0.097815
v 0.000000 -0.030000 0.097815
v 0.005853 -0.029424 0.097815
v 0.011481 -0.027716 0.097815
v 0.016667 -0.024944 0.097815
v 0.021213 -0.021213 0.097815
v 0.024944 -0.016667 0.097815
v 0.027716 -0.011481 0.097815
v 0.029424 -0.005853 0.097815
v 0.018219 0.003624 0.000888
v 0.018576 0.000000 0.000888
v 0.017162 0.007109 0.000888
v 0.015445 0.010320 0.000888
v 0.013135 0.013135 0.000888
v 0.010320 0.015445 0.000888
v 0.007109 0.017162 0.000888
v 0.003624 0.018219 0.000888
v 0.000000 0.018576 0.000888
v -0.003624 0.018219 0.000888
v -0.007109 0.017162 0.000888
v -0.010320 0.015445 0.000888
v -0.013135 0.013135 0.000888
v -0.015445 0.010320 0.000888
v -0.017162 0.007109 0.000888
v -0.018219 0.003624 0.000888
v -0.018576 0.000000 0.000888
v -0.018219 -0.003624 0.000888
v -0.017162 -0.007109 0.000888
v -0.015445 -0.010320 0.000888
v -0.013135 -0.013135 0.000888
v -0.010320 -0.015445 0.000888
v -0.007109 -0.017162 0.000888
v -0.003624 -0.018219 0.000888
v 0.000000 -0.018576 0.000888
v 0.003624 -0.018219 0.000888
v 0.007109 -0.017162 0.000888
v 0.010320 -0.015445 0.000888
v 0.013135 -0.013135 0.000888
v 0.015445 -0.010320 0.000888
v 0.017162 -0.007109 0.000888
v 0.018219 -0.003624 0.000888
v 0.017319 0.000157 0.000888
v 0.015628 -0.003441 0.000888
v 0.013251 -0.006993 0.000888
v 0.010320 -0.010320 0.000888
v 0.006993 -0.013251 0.000888
v 0.003441 -0.015628 0.000888
v -0.000157 -0.017319 0.000888
v 0.015719 0.003898 0.000888
v 0.013454 0.000319 0.000888
v 0.010522 -0.003422 0.000888
v 0.007109 -0.007109 0.000888
v 0.003422 -0.010522 0.000888
v -0.000319 -0.013454 0.000888
v -0.003898 -0.015719 0.000888
v 0.013481 0.007455 0.000888
v 0.010723 0.004027 0.000888
v 0.007363 0.000255 0.000888
v 0.003624 -0.003624 0.000888
v -0.000255 -0.007363 0.000888
v -0.004027 -0.010723 0.000888
v -0.007455 -0.013481 0.000888
v 0.010690 0.010690 0.000888
v 0.007540 0.007540 0.000888
v 0.003897 0.003897 0.000888
v 0.000000 -0.000000 0.000888
v -0.003897 -0.003897 0.000888
v -0.007540 -0.007540 0.000888
v -0.010690 -0.010690 0.000888
v 0.007455 0.013481 0.000888
v 0.004027 0.010723 0.000888
v 0.000255 0.007363 0.000888
v -0.003624 0.003624 0.000888
v -0.007363 -0.000255 0.000888
v -0.010723 -0.004027 0.000888
v -0.013481 -0.007455 0.000888
v 0.003898 0.015719 0.000888
v 0.000319 0.013454 0.000888
v -0.003422 0.010522 0.000888
v -0.007109 0.007109 0.000888
v -0.010522 0.003422 0.000888
v -0.013454 -0.000319 0.000888
v -0.015719 -0.003898 0.000888
v 0.000157 0.017319 0.000888
v -0.003441 0.015628 0.000888
v -0.006993 0.013251 0.000888
v -0.010320 0.010320 0.000888
v -0.013251 0.006993 0.000888
v -0.015628 0.003441 0.000888
v -0.017319 -0.000157 0.000888
v 0.028811 0.005731 0.097803
v 0.029375 0.000000 0.097803
v 0.027139 0.011241 0.097803
v 0.024424 0.016320 0.097803
v 0.020771 0.020771 0.097803
v 0.016320 0.024424 0.097803
v 0.011241 0.027139 0.097803
v 0.005731 0.028811 0.097803
v -0.000000 0.029375 0.097803
v -0.005731 0.028811 0.097803
v -0.011241 0.027139 0.097803
v -0.016320 0.024424 0.097803
v -0.020771 0.020771 0.097803
v -0.024424 0.016320 0.097803
v -0.027139 0.011241 0.097803
v -0.028811 0.005731 0.097803
v -0.029375 0.000000 0.097803
v -0.028811 -0.005731 0.097803
v -0.027139 -0.011241 0.097803
v -0.024424 -0.016320 0.097803
v -0.020771 -0.020771 0.097803
v -0.016320 -0.024424 0.097803
v -0.011241 -0.027139 0.097803
v -0.005731 -0.028811 0.097803
v -0.000000 -0.029375 0.097803
v 0.005731 -0.028811 0.097803
v 0.011241 -0.027139 0.097803
v 0.016320 -0.024424 0.097803
v 0.020771 -0.020771 0.097803
v 0.024424 -0.016320 0.097803
v 0.027139 -0.011241 0.097803
v 0.028811 -0.005731 0.097803
vn -0.0000 -0.0000 -1.0000
vn -0.2886 -0.9512 -0.1091
vn -0.2886 0.9512 -0.1091
vn -0.0974 -0.9892 -0.1091
vn -0.4686 0.8767 -0.1091
vn 0.0974 -0.9892 -0.1091
vn -0.6306 0.7684 -0.1091
vn 0.2886 -0.9512 -0.1091
vn -0.7684 0.6306 -0.1091
vn 0.4686 -0.8767 -0.1091
vn -0.8767 0.4686 -0.1091
vn 0.9892 0.0974 -0.1091
vn 0.6306 -0.7684 -0.1091
vn -0.9512 0.2886 -0.1091
vn 0.9512 0.2886 -0.1091
vn 0.7684 -0.6306 -0.1091
vn -0.9892 0.0974 -0.1091
vn 0.8767 0.4686 -0.1091
vn 0.8767 -0.4686 -0.1091
vn -0.9892 -0.0974 -0.1091
vn 0.7684 0.6306 -0.1091
vn 0.9512 -0.2886 -0.1091
vn -0.9512 -0.2886 -0.1091
vn 0.6306 0.7684 -0.1091
vn 0.9892 -0.0974 -0.1091
vn -0.8767 -0.4686 -0.1091
vn 0.4686 0.8767 -0.1091
vn -0.7684 -0.6306 -0.1091
vn 0.2886 0.9512 -0.1091
vn -0.6306 -0.7684 -0.1091
vn 0.0974 0.9892 -0.1091
vn -0.4686 -0.8767 -0.1091
vn -0.0974 0.9892 -0.1091
vn -0.0000 -0.0000 1.0000
vn 0.2885 0.9511 0.1102
vn 0.2885 -0.9511 0.1102
vn 0.0974 0.9891 0.1102
vn 0.4685 -0.8765 0.1102
vn -0.0974 0.9891 0.1102
vn 0.6305 -0.7683 0.1102
vn -0.2885 0.9511 0.1102
vn 0.7683 -0.6305 0.1102
vn -0.4685 0.8765 0.1102
vn 0.8765 -0.4685 0.1102
vn -0.9891 -0.0974 0.1102
vn -0.6305 0.7683 0.1102
vn 0.9511 -0.2885 0.1102
vn -0.9511 -0.2885 0.1102
vn -0.7683 0.6305 0.1102
vn 0.9891 -0.0974 0.1102
vn -0.8765 -0.4685 0.1102
vn -0.8765 0.4685 0.1102
vn 0.9891 0.0974 0.1102
vn -0.7683 -0.6305 0.1102
vn -0.9511 0.2885 0.1102
vn 0.9511 0.2885 0.1102
vn -0.6305 -0.7683 0.1102
vn -0.9891 0.0974 0.1102
vn 0.8765 0.4685 0.1102
vn -0.4685 -0.8765 0.1102
vn 0.7683 0.6305 0.1102
vn -0.2885 -0.9511 0.1102
vn 0.6305 0.7683 0.1102
vn -0.0974 -0.9891 0.1102
vn 0.4685 0.8765 0.1102
vn 0.0974 -0.9891 0.1102
vn 0.0118 0.0144 0.9998
vn -0.0018 -0.0185 0.9998
vn 0.0088 0.0164 0.9998
vn 0.0018 -0.0185 0.9998
vn 0.0054 0.0178 0.9998
vn 0.0054 -0.0178 0.9998
vn 0.0018 0.0185 0.9998
vn 0.0088 -0.0164 0.9998
vn -0.0018 0.0185 0.9998
vn 0.0118 -0.0144 0.9998
vn -0.0054 0.0178 0.9998
vn 0.0144 -0.0118 0.9998
vn -0.0088 0.0164 0.9998
vn 0.0164 -0.0088 0.9998
vn -0.0185 -0.0018 0.9998
vn -0.0118 0.0144 0.9998
vn 0.0178 -0.0054 0.9998
vn -0.0178 -0.0054 0.9998
vn -0.0144 0.0118 0.9998
vn 0.0185 -0.0018 0.9998
vn -0.0164 -0.0088 0.9998
vn -0.0164 0.0088 0.9998
vn 0.0185 0.0018 0.9998
vn -0.0144 -0.0118 0.9998
vn -0.0178 0.0054 0.9998
vn 0.0178 0.0054 0.9998
vn -0.0118 -0.0144 0.9998
vn -0.0185 0.0018 0.9998
vn 0.0164 0.0088 0.9998
vn -0.0088 -0.0164 0.9998
vn 0.0144 0.0118 0.9998
vn -0.0054 -0.0178 0.9998
vt 0.000000 0.000000
s 0
f 1/1/1 33/1/1 2/1/1
f 32/1/1 40/1/1 33/1/1
f 31/1/1 47/1/1 40/1/1
f 30/1/1 54/1/1 47/1/1
f 54/1/1 28/1/1 61/1/1
f 61/1/1 27/1/1 68/1/1
f 68/1/1 26/1/1 75/1/1
f 75/1/1 25/1/1 24/1/1
f 2/1/1 34/1/1 3/1/1
f 33/1/1 41/1/1 34/1/1
f 40/1/1 48/1/1 41/1/1
f 47/1/1 55/1/1 48/1/1
f 55/1/1 61/1/1 62/1/1
f 62/1/1 68/1/1 69/1/1
f 69/1/1 75/1/1 76/1/1
f 76/1/1 24/1/1 23/1/1
f 3/1/1 35/1/1 4/1/1
f 34/1/1 42/1/1 35/1/1
f 41/1/1 49/1/1 42/1/1
f 48/1/1 56/1/1 49/1/1
f 56/1/1 62/1/1 63/1/1
f 63/1/1 69/1/1 70/1/1
f 70/1/1 76/1/1 77/1/1
f 77/1/1 23/1/1 22/1/1
f 4/1/1 36/1/1 5/1/1
f 35/1/1 43/1/1 36/1/1
f 42/1/1 50/1/1 43/1/1
f 49/1/1 57/1/1 50/1/1
f 57/1/1 63/1/1 64/1/1
f 64/1/1 70/1/1 71/1/1
f 71/1/1 77/1/1 78/1/1
f 78/1/1 22/1/1 21/1/1
f 6/1/1 36/1/1 37/1/1
f 37/1/1 43/1/1 44/1/1
f 44/1/1 50/1/1 51/1/1
f 51/1/1 57/1/1 58/1/1
f 57/1/1 65/1/1 58/1/1
f 64/1/1 72/1/1 65/1/1
f 71/1/1 79/1/1 72/1/1
f 78/1/1 20/1/1 79/1/1
f 7/1/1 37/1/1 38/1/1
f 38/1/1 44/1/1 45/1/1
f 45/1/1 51/1/1 52/1/1
f 52/1/1 58/1/1 59/1/1
f 58/1/1 66/1/1 59/1/1
f 65/1/1 73/1/1 66/1/1
f 72/1/1 80/1/1 73/1/1
f 79/1/1 19/1/1 80/1/1
f 8/1/1 38/1/1 39/1/1
f 39/1/1 45/1/1 46/1/1
f 46/1/1 52/1/1 53/1/1
f 53/1/1 59/1/1 60/1/1
f 59/1/1 67/1/1 60/1/1
f 66/1/1 74/1/1 67/1/1
f 73/1/1 81/1/1 74/1/1
f 80/1/1 18/1/1 81/1/1
f 9/1/1 39/1/1 10/1/1
f 10/1/1 46/1/1 11/1/1
f 11/1/1 53/1/1 12/1/1
f 12/1/1 60/1/1 13/1/1
f 60/1/1 14/1/1 13/1/1
f 67/1/1 15/1/1 14/1/1
f 74/1/1 16/1/1 15/1/1
f 81/1/1 17/1/1 16/1/1
f 24/1/2 104/1/2 23/1/2
f 11/1/3 91/1/3 10/1/3
f 24/1/4 106/1/4 105/1/4
f 12/1/5 92/1/5 11/1/5
f 26/1/6 106/1/6 25/1/6
f 13/1/7 93/1/7 12/1/7
f 27/1/8 107/1/8 26/1/8
f 14/1/9 94/1/9 13/1/9
f 27/1/10 109/1/10 108/1/10
f 14/1/11 96/1/11 95/1/11
f 2/1/12 82/1/12 1/1/12
f 29/1/13 109/1/13 28/1/13
f 16/1/14 96/1/14 15/1/14
f 3/1/15 83/1/15 2/1/15
f 29/1/16 111/1/16 110/1/16
f 16/1/17 98/1/17 97/1/17
f 4/1/18 84/1/18 3/1/18
f 31/1/19 111/1/19 30/1/19
f 18/1/20 98/1/20 17/1/20
f 5/1/21 85/1/21 4/1/21
f 32/1/22 112/1/22 31/1/22
f 19/1/23 99/1/23 18/1/23
f 5/1/24 87/1/24 86/1/24
f 32/1/25 82/1/25 113/1/25
f 20/1/26 100/1/26 19/1/26
f 7/1/27 87/1/27 6/1/27
f 21/1/28 101/1/28 20/1/28
f 8/1/29 88/1/29 7/1/29
f 21/1/30 103/1/30 102/1/30
f 9/1/31 89/1/31 8/1/31
f 23/1/32 103/1/32 22/1/32
f 10/1/33 90/1/33 9/1/33
f 1/1/1 32/1/1 33/1/1
f 32/1/1 31/1/1 40/1/1
f 31/1/1 30/1/1 47/1/1
f 30/1/1 29/1/1 54/1/1
f 54/1/1 29/1/1 28/1/1
f 61/1/1 28/1/1 27/1/1
f 68/1/1 27/1/1 26/1/1
f 75/1/1 26/1/1 25/1/1
f 2/1/1 33/1/1 34/1/1
f 33/1/1 40/1/1 41/1/1
f 40/1/1 47/1/1 48/1/1
f 47/1/1 54/1/1 55/1/1
f 55/1/1 54/1/1 61/1/1
f 62/1/1 61/1/1 68/1/1
f 69/1/1 68/1/1 75/1/1
f 76/1/1 75/1/1 24/1/1
f 3/1/1 34/1/1 35/1/1
f 34/1/1 41/1/1 42/1/1
f 41/1/1 48/1/1 49/1/1
f 48/1/1 55/1/1 56/1/1
f 56/1/1 55/1/1 62/1/1
f 63/1/1 62/1/1 69/1/1
f 70/1/1 69/1/1 76/1/1
f 77/1/1 76/1/1 23/1/1
f 4/1/1 35/1/1 36/1/1
f 35/1/1 42/1/1 43/1/1
f 42/1/1 49/1/1 50/1/1
f 49/1/1 56/1/1 57/1/1
f 57/1/1 56/1/1 63/1/1
f 64/1/1 63/1/1 70/1/1
f 71/1/1 70/1/1 77/1/1
f 78/1/1 77/1/1 22/1/1
f 6/1/1 5/1/1 36/1/1
f 37/1/1 36/1/1 43/1/1
f 44/1/1 43/1/1 50/1/1
f 51/1/1 50/1/1 57/1/1
f 57/1/1 64/1/1 65/1/1
f 64/1/1 71/1/1 72/1/1
f 71/1/1 78/1/1 79/1/1
f 78/1/1 21/1/1 20/1/1
f 7/1/1 6/1/1 37/1/1
f 38/1/1 37/1/1 44/1/1
f 45/1/1 44/1/1 51/1/1
f 52/1/1 51/1/1 58/1/1
f 58/1/1 65/1/1 66/1/1
f 65/1/1 72/1/1 73/1/1
f 72/1/1 79/1/1 80/1/1
f 79/1/1 20/1/1 19/1/1
f 8/1/1 7/1/1 38/1/1
f 39/1/1 38/1/1 45/1/1
f 46/1/1 45/1/1 52/1/1
f 53/1/1 52/1/1 59/1/1
f 59/1/1 66/1/1 67/1/1
f 66/1/1 73/1/1 74/1/1
f 73/1/1 80/1/1 81/1/1
f 80/1/1 19/1/1 18/1/1
f 9/1/1 8/1/1 39/1/1
f 10/1/1 39/1/1 46/1/1
f 11/1/1 46/1/1 53/1/1
f 12/1/1 53/1/1 60/1/1
f 60/1/1 67/1/1 14/1/1
f 67/1/1 74/1/1 15/1/1
f 74/1/1 81/1/1 16/1/1
f 81/1/1 18/1/1 17/1/1
f 24/1/2 105/1/2 104/1/2
f 11/1/3 92/1/3 91/1/3
f 24/1/4 25/1/4 106/1/4
f 12/1/5 93/1/5 92/1/5
f 26/1/6 107/1/6 106/1/6
f 13/1/7 94/1/7 93/1/7
f 27/1/8 108/1/8 107/1/8
f 14/1/9 95/1/9 94/1/9
f 27/1/10 28/1/10 109/1/10
f 14/1/11 15/1/11 96/1/11
f 2/1/12 83/1/12 82/1/12
f 29/1/13 110/1/13 109/1/13
f 16/1/14 97/1/14 96/1/14
f 3/1/15 84/1/15 83/1/15
f 29/1/16 30/1/16 111/1/16
f 16/1/17 17/1/17 98/1/17
f 4/1/18 85/1/18 84/1/18
f 31/1/19 112/1/19 111/1/19
f 18/1/20 99/1/20 98/1/20
f 5/1/21 86/1/21 85/1/21
f 32/1/22 113/1/22 112/1/22
f 19/1/23 100/1/23 99/1/23
f 5/1/24 6/1/24 87/1/24
f 32/1/25 1/1/25 82/1/25
f 20/1/26 101/1/26 100/1/26
f 7/1/27 88/1/27 87/1/27
f 21/1/28 102/1/28 101/1/28
f 8/1/29 89/1/29 88/1/29
f 21/1/30 22/1/30 103/1/30
f 9/1/31 90/1/31 89/1/31
f 23/1/32 104/1/32 103/1/32
f 10/1/33 91/1/33 90/1/33
f 115/1/34 114/1/34 146/1/34
f 145/1/34 146/1/34 147/1/34
f 144/1/34 147/1/34 148/1/34
f 143/1/34 148/1/34 149/1/34
f 149/1/34 150/1/34 141/1/34
f 150/1/34 151/1/34 140/1/34
f 151/1/34 152/1/34 139/1/34
f 152/1/34 137/1/34 138/1/34
f 114/1/34 116/1/34 153/1/34
f 146/1/34 153/1/34 154/1/34
f 147/1/34 154/1/34 155/1/34
f 148/1/34 155/1/34 156/1/34
f 156/1/34 157/1/34 150/1/34
f 157/1/34 158/1/34 151/1/34
f 158/1/34 159/1/34 152/1/34
f 159/1/34 136/1/34 137/1/34
f 116/1/34 117/1/34 160/1/34
f 153/1/34 160/1/34 161/1/34
f 154/1/34 161/1/34 162/1/34
f 155/1/34 162/1/34 163/1/34
f 163/1/34 164/1/34 157/1/34
f 164/1/34 165/1/34 158/1/34
f 165/1/34 166/1/34 159/1/34
f 166/1/34 135/1/34 136/1/34
f 117/1/34 118/1/34 167/1/34
f 160/1/34 167/1/34 168/1/34
f 161/1/34 168/1/34 169/1/34
f 162/1/34 169/1/34 170/1/34
f 170/1/34 171/1/34 164/1/34
f 171/1/34 172/1/34 165/1/34
f 172/1/34 173/1/34 166/1/34
f 173/1/34 134/1/34 135/1/34
f 119/1/34 174/1/34 167/1/34
f 174/1/34 175/1/34 168/1/34
f 175/1/34 176/1/34 169/1/34
f 176/1/34 177/1/34 170/1/34
f 170/1/34 177/1/34 178/1/34
f 171/1/34 178/1/34 179/1/34
f 172/1/34 179/1/34 180/1/34
f 173/1/34 180/1/34 133/1/34
f 120/1/34 181/1/34 174/1/34
f 181/1/34 182/1/34 175/1/34
f 182/1/34 183/1/34 176/1/34
f 183/1/34 184/1/34 177/1/34
f 177/1/34 184/1/34 185/1/34
f 178/1/34 185/1/34 186/1/34
f 179/1/34 186/1/34 187/1/34
f 180/1/34 187/1/34 132/1/34
f 121/1/34 188/1/34 181/1/34
f 188/1/34 189/1/34 182/1/34
f 189/1/34 190/1/34 183/1/34
f 190/1/34 191/1/34 184/1/34
f 184/1/34 191/1/34 192/1/34
f 185/1/34 192/1/34 193/1/34
f 186/1/34 193/1/34 194/1/34
f 187/1/34 194/1/34 131/1/34
f 122/1/34 123/1/34 188/1/34
f 123/1/34 124/1/34 189/1/34
f 124/1/34 125/1/34 190/1/34
f 125/1/34 126/1/34 191/1/34
f 191/1/34 126/1/34 127/1/34
f 192/1/34 127/1/34 128/1/34
f 193/1/34 128/1/34 129/1/34
f 194/1/34 129/1/34 130/1/34
f 137/1/35 136/1/35 217/1/35
f 124/1/36 123/1/36 204/1/36
f 137/1/37 218/1/37 219/1/37
f 125/1/38 124/1/38 205/1/38
f 139/1/39 138/1/39 219/1/39
f 126/1/40 125/1/40 206/1/40
f 140/1/41 139/1/41 220/1/41
f 127/1/42 126/1/42 207/1/42
f 140/1/43 221/1/43 222/1/43
f 127/1/44 208/1/44 209/1/44
f 114/1/45 115/1/45 196/1/45
f 142/1/46 141/1/46 222/1/46
f 129/1/47 128/1/47 209/1/47
f 116/1/48 114/1/48 195/1/48
f 142/1/49 223/1/49 224/1/49
f 129/1/50 210/1/50 211/1/50
f 117/1/51 116/1/51 197/1/51
f 144/1/52 143/1/52 224/1/52
f 131/1/53 130/1/53 211/1/53
f 118/1/54 117/1/54 198/1/54
f 145/1/55 144/1/55 225/1/55
f 132/1/56 131/1/56 212/1/56
f 118/1/57 199/1/57 200/1/57
f 145/1/58 226/1/58 196/1/58
f 133/1/59 132/1/59 213/1/59
f 120/1/60 119/1/60 200/1/60
f 134/1/61 133/1/61 214/1/61
f 121/1/62 120/1/62 201/1/62
f 134/1/63 215/1/63 216/1/63
f 122/1/64 121/1/64 202/1/64
f 136/1/65 135/1/65 216/1/65
f 123/1/66 122/1/66 203/1/66
f 115/1/34 146/1/34 145/1/34
f 145/1/34 147/1/34 144/1/34
f 144/1/34 148/1/34 143/1/34
f 143/1/34 149/1/34 142/1/34
f 149/1/34 141/1/34 142/1/34
f 150/1/34 140/1/34 141/1/34
f 151/1/34 139/1/34 140/1/34
f 152/1/34 138/1/34 139/1/34
f 114/1/34 153/1/34 146/1/34
f 146/1/34 154/1/34 147/1/34
f 147/1/34 155/1/34 148/1/34
f 148/1/34 156/1/34 149/1/34
f 156/1/34 150/1/34 149/1/34
f 157/1/34 151/1/34 150/1/34
f 158/1/34 152/1/34 151/1/34
f 159/1/34 137/1/34 152/1/34
f 116/1/34 160/1/34 153/1/34
f 153/1/34 161/1/34 154/1/34
f 154/1/34 162/1/34 155/1/34
f 155/1/34 163/1/34 156/1/34
f 163/1/34 157/1/34 156/1/34
f 164/1/34 158/1/34 157/1/34
f 165/1/34 159/1/34 158/1/34
f 166/1/34 136/1/34 159/1/34
f 117/1/34 167/1/34 160/1/34
f 160/1/34 168/1/34 161/1/34
f 161/1/34 169/1/34 162/1/34
f 162/1/34 170/1/34 163/1/34
f 170/1/34 164/1/34 163/1/34
f 171/1/34 165/1/34 164/1/34
f 172/1/34 166/1/34 165/1/34
f 173/1/34 135/1/34 166/1/34
f 119/1/34 167/1/34 118/1/34
f 174/1/34 168/1/34 167/1/34
f 175/1/34 169/1/34 168/1/34
f 176/1/34 170/1/34 169/1/34
f 170/1/34 178/1/34 171/1/34
f 171/1/34 179/1/34 172/1/34
f 172/1/34 180/1/34 173/1/34
f 173/1/34 133/1/34 134/1/34
f 120/1/34 174/1/34 119/1/34
f 181/1/34 175/1/34 174/1/34
f 182/1/34 176/1/34 175/1/34
f 183/1/34 177/1/34 176/1/34
f 177/1/34 185/1/34 178/1/34
f 178/1/34 186/1/34 179/1/34
f 179/1/34 187/1/34 180/1/34
f 180/1/34 132/1/34 133/1/34
f 121/1/34 181/1/34 120/1/34
f 188/1/34 182/1/34 181/1/34
f 189/1/34 183/1/34 182/1/34
f 190/1/34 184/1/34 183/1/34
f 184/1/34 192/1/34 185/1/34
f 185/1/34 193/1/34 186/1/34
f 186/1/34 194/1/34 187/1/34
f 187/1/34 131/1/34 132/1/34
f 122/1/34 188/1/34 121/1/34
f 123/1/34 189/1/34 188/1/34
f 124/1/34 190/1/34 189/1/34
f 125/1/34 191/1/34 190/1/34
f 191/1/34 127/1/34 192/1/34
f 192/1/34 128/1/34 193/1/34
f 193/1/34 129/1/34 194/1/34
f 194/1/34 130/1/34 131/1/34
f 137/1/35 217/1/35 218/1/35
f 124/1/36 204/1/36 205/1/36
f 137/1/37 219/1/37 138/1/37
f 125/1/38 205/1/38 206/1/38
f 139/1/39 219/1/39 220/1/39
f 126/1/40 206/1/40 207/1/40
f 140/1/41 220/1/41 221/1/41
f 127/1/42 207/1/42 208/1/42
f 140/1/43 222/1/43 141/1/43
f 127/1/44 209/1/44 128/1/44
f 114/1/45 196/1/45 195/1/45
f 142/1/46 222/1/46 223/1/46
f 129/1/47 209/1/47 210/1/47
f 116/1/48 195/1/48 197/1/48
f 142/1/49 224/1/49 143/1/49
f 129/1/50 211/1/50 130/1/50
f 117/1/51 197/1/51 198/1/51
f 144/1/52 224/1/52 225/1/52
f 131/1/53 211/1/53 212/1/53
f 118/1/54 198/1/54 199/1/54
f 145/1/55 225/1/55 226/1/55
f 132/1/56 212/1/56 213/1/56
f 118/1/57 200/1/57 119/1/57
f 145/1/58 196/1/58 115/1/58
f 133/1/59 213/1/59 214/1/59
f 120/1/60 200/1/60 201/1/60
f 134/1/61 214/1/61 215/1/61
f 121/1/62 201/1/62 202/1/62
f 134/1/63 216/1/63 135/1/63
f 122/1/64 202/1/64 203/1/64
f 136/1/65 216/1/65 217/1/65
f 123/1/66 203/1/66 204/1/66
f 103/1/67 216/1/67 215/1/67 102/1/67
f 90/1/68 203/1/68 202/1/68 89/1/68
f 104/1/69 217/1/69 216/1/69 103/1/69
f 91/1/70 204/1/70 203/1/70 90/1/70
f 105/1/71 218/1/71 217/1/71 104/1/71
f 92/1/72 205/1/72 204/1/72 91/1/72
f 106/1/73 219/1/73 218/1/73 105/1/73
f 93/1/74 206/1/74 205/1/74 92/1/74
f 107/1/75 220/1/75 219/1/75 106/1/75
f 94/1/76 207/1/76 206/1/76 93/1/76
f 108/1/77 221/1/77 220/1/77 107/1/77
f 95/1/78 208/1/78 207/1/78 94/1/78
f 109/1/79 222/1/79 221/1/79 108/1/79
f 96/1/80 209/1/80 208/1/80 95/1/80
f 83/1/81 195/1/81 196/1/81 82/1/81
f 110/1/82 223/1/82 222/1/82 109/1/82
f 97/1/83 210/1/83 209/1/83 96/1/83
f 84/1/84 197/1/84 195/1/84 83/1/84
f 111/1/85 224/1/85 223/1/85 110/1/85
f 98/1/86 211/1/86 210/1/86 97/1/86
f 85/1/87 198/1/87 197/1/87 84/1/87
f 112/1/88 225/1/88 224/1/88 111/1/88
f 99/1/89 212/1/89 211/1/89 98/1/89
f 86/1/90 199/1/90 198/1/90 85/1/90
f 113/1/91 226/1/91 225/1/91 112/1/91
f 100/1/92 213/1/92 212/1/92 99/1/92
f 87/1/93 200/1/93 199/1/93 86/1/93
f 82/1/94 196/1/94 226/1/94 113/1/94
f 101/1/95 214/1/95 213/1/95 100/1/95
f 88/1/96 201/1/96 200/1/96 87/1/96
f 102/1/97 215/1/97 214/1/97 101/1/97
f 89/1/98 202/1/98 201/1/98 88/1/98
