# Blender 4.0.2
# www.blender.org
mtllib cup_codim.mtl
o Circle
v 0.019214 0.000000 0.000000
v 0.018845 0.003749 0.000000
v 0.017752 0.007353 0.000000
v 0.015976 0.010675 0.000000
v 0.013587 0.013587 0.000000
v 0.010675 0.015976 0.000000
v 0.007353 0.017752 0.000000
v 0.003749 0.018845 0.000000
v 0.000000 0.019214 0.000000
v -0.003749 0.018845 0.000000
v -0.007353 0.017752 0.000000
v -0.010675 0.015976 0.000000
v -0.013587 0.013587 0.000000
v -0.015976 0.010675 0.000000
v -0.017752 0.007353 0.000000
v -0.018845 0.003749 0.000000
v -0.019214 0.000000 0.000000
v -0.018845 -0.003749 0.000000
v -0.017752 -0.007353 0.000000
v -0.015976 -0.010675 0.000000
v -0.013587 -0.013587 0.000000
v -0.010675 -0.015976 0.000000
v -0.007353 -0.017752 0.000000
v -0.003749 -0.018845 0.000000
v 0.000000 -0.019214 0.000000
v 0.003749 -0.018845 0.000000
v 0.007353 -0.017752 0.000000
v 0.010675 -0.015976 0.000000
v 0.013587 -0.013587 0.000000
v 0.015976 -0.010675 0.000000
v 0.017752 -0.007353 0.000000
v 0.018845 -0.003749 0.000000
v 0.017914 0.000163 0.000000
v 0.016259 0.004032 0.000000
v 0.013944 0.007711 0.000000
v 0.011058 0.011058 0.000000
v 0.007711 0.013944 0.000000
v 0.004032 0.016259 0.000000
v 0.000163 0.017914 0.000000
v 0.016165 -0.003559 0.000000
v 0.013917 0.000330 0.000000
v 0.011092 0.004165 0.000000
v 0.007799 0.007799 0.000000
v 0.004165 0.011092 0.000000
v 0.000330 0.013917 0.000000
v -0.003559 0.016165 0.000000
v 0.013706 -0.007233 0.000000
v 0.010884 -0.003540 0.000000
v 0.007616 0.000263 0.000000
v 0.004031 0.004031 0.000000
v 0.000263 0.007616 0.000000
v -0.003540 0.010884 0.000000
v -0.007233 0.013706 0.000000
v 0.010675 -0.010675 0.000000
v 0.007353 -0.007353 0.000000
v 0.003749 -0.003749 0.000000
v 0.000000 -0.000000 0.000000
v -0.003749 0.003749 0.000000
v -0.007353 0.007353 0.000000
v -0.010675 0.010675 0.000000
v 0.007233 -0.013706 0.000000
v 0.003540 -0.010884 0.000000
v -0.000263 -0.007616 0.000000
v -0.004031 -0.004031 0.000000
v -0.007616 -0.000263 0.000000
v -0.010884 0.003540 0.000000
v -0.013706 0.007233 0.000000
v 0.003559 -0.016165 0.000000
v -0.000330 -0.013917 0.000000
v -0.004165 -0.011092 0.000000
v -0.007799 -0.007799 0.000000
v -0.011092 -0.004165 0.000000
v -0.013917 -0.000330 0.000000
v -0.016165 0.003559 0.000000
v -0.000163 -0.017914 0.000000
v -0.004032 -0.016259 0.000000
v -0.007711 -0.013944 0.000000
v -0.011058 -0.011058 0.000000
v -0.013944 -0.007711 0.000000
v -0.016259 -0.004032 0.000000
v -0.017914 -0.000163 0.000000
v 0.030000 0.000000 0.097815
v 0.029424 0.005853 0.097815
v 0.027716 0.011481 0.097815
v 0.024944 0.016667 0.097815
v 0.021213 0.021213 0.097815
v 0.016667 0.024944 0.097815
v 0.011481 0.027716 0.097815
v 0.005853 0.029424 0.097815
v 0.000000 0.030000 0.097815
v -0.005853 0.029424 0.097815
v -0.011481 0.027716 0.097815
v -0.016667 0.024944 0.097815
v -0.021213 0.021213 0.097815
v -0.024944 0.016667 0.097815
v -0.027716 0.011481 0.097815
v -0.029424 0.005853 0.097815
v -0.030000 0.000000 0.097815
v -0.029424 -0.005853 0.097815
v -0.027716 -0.011481 0.097815
v -0.024944 -0.016667 0.097815
v -0.021213 -0.021213 0.097815
v -0.016667 -0.024944 0.097815
v -0.011481 -0.027716 0.097815
v -0.005853 -0.029424 0.097815
v 0.000000 -0.030000 0.097815
v 0.005853 -0.029424 0.097815
v 0.011481 -0.027716 0.097815
v 0.016667 -0.024944 0.097815
v 0.021213 -0.021213 0.097815
v 0.024944 -0.016667 0.097815
v 0.027716 -0.011481 0.097815
v 0.029424 -0.005853 0.097815
vn -0.0000 -0.0000 -1.0000
vn -0.2886 -0.9512 -0.1091
vn -0.2886 0.9512 -0.1091
vn -0.0974 -0.9892 -0.1091
vn -0.4686 0.8767 -0.1091
vn 0.0974 -0.9892 -0.1091
vn -0.6306 0.7684 -0.1091
vn 0.2886 -0.9512 -0.1091
vn -0.7684 0.6306 -0.1091
vn 0.4686 -0.8767 -0.1091
vn -0.8767 0.4686 -0.1091
vn 0.9892 0.0974 -0.1091
vn 0.6306 -0.7684 -0.1091
vn -0.9512 0.2886 -0.1091
vn 0.9512 0.2886 -0.1091
vn 0.7684 -0.6306 -0.1091
vn -0.9892 0.0974 -0.1091
vn 0.8767 0.4686 -0.1091
vn 0.8767 -0.4686 -0.1091
vn -0.9892 -0.0974 -0.1091
vn 0.7684 0.6306 -0.1091
vn 0.9512 -0.2886 -0.1091
vn -0.9512 -0.2886 -0.1091
vn 0.6306 0.7684 -0.1091
vn 0.9892 -0.0974 -0.1091
vn -0.8767 -0.4686 -0.1091
vn 0.4686 0.8767 -0.1091
vn -0.7684 -0.6306 -0.1091
vn 0.2886 0.9512 -0.1091
vn -0.6306 -0.7684 -0.1091
vn 0.0974 0.9892 -0.1091
vn -0.4686 -0.8767 -0.1091
vn -0.0974 0.9892 -0.1091
vt 0.000000 0.000000
s 0
f 1/1/1 33/1/1 2/1/1
f 32/1/1 40/1/1 33/1/1
f 31/1/1 47/1/1 40/1/1
f 30/1/1 54/1/1 47/1/1
f 54/1/1 28/1/1 61/1/1
f 61/1/1 27/1/1 68/1/1
f 68/1/1 26/1/1 75/1/1
f 75/1/1 25/1/1 24/1/1
f 2/1/1 34/1/1 3/1/1
f 33/1/1 41/1/1 34/1/1
f 40/1/1 48/1/1 41/1/1
f 47/1/1 55/1/1 48/1/1
f 55/1/1 61/1/1 62/1/1
f 62/1/1 68/1/1 69/1/1
f 69/1/1 75/1/1 76/1/1
f 76/1/1 24/1/1 23/1/1
f 3/1/1 35/1/1 4/1/1
f 34/1/1 42/1/1 35/1/1
f 41/1/1 49/1/1 42/1/1
f 48/1/1 56/1/1 49/1/1
f 56/1/1 62/1/1 63/1/1
f 63/1/1 69/1/1 70/1/1
f 70/1/1 76/1/1 77/1/1
f 77/1/1 23/1/1 22/1/1
f 4/1/1 36/1/1 5/1/1
f 35/1/1 43/1/1 36/1/1
f 42/1/1 50/1/1 43/1/1
f 49/1/1 57/1/1 50/1/1
f 57/1/1 63/1/1 64/1/1
f 64/1/1 70/1/1 71/1/1
f 71/1/1 77/1/1 78/1/1
f 78/1/1 22/1/1 21/1/1
f 6/1/1 36/1/1 37/1/1
f 37/1/1 43/1/1 44/1/1
f 44/1/1 50/1/1 51/1/1
f 51/1/1 57/1/1 58/1/1
f 57/1/1 65/1/1 58/1/1
f 64/1/1 72/1/1 65/1/1
f 71/1/1 79/1/1 72/1/1
f 78/1/1 20/1/1 79/1/1
f 7/1/1 37/1/1 38/1/1
f 38/1/1 44/1/1 45/1/1
f 45/1/1 51/1/1 52/1/1
f 52/1/1 58/1/1 59/1/1
f 58/1/1 66/1/1 59/1/1
f 65/1/1 73/1/1 66/1/1
f 72/1/1 80/1/1 73/1/1
f 79/1/1 19/1/1 80/1/1
f 8/1/1 38/1/1 39/1/1
f 39/1/1 45/1/1 46/1/1
f 46/1/1 52/1/1 53/1/1
f 53/1/1 59/1/1 60/1/1
f 59/1/1 67/1/1 60/1/1
f 66/1/1 74/1/1 67/1/1
f 73/1/1 81/1/1 74/1/1
f 80/1/1 18/1/1 81/1/1
f 9/1/1 39/1/1 10/1/1
f 10/1/1 46/1/1 11/1/1
f 11/1/1 53/1/1 12/1/1
f 12/1/1 60/1/1 13/1/1
f 60/1/1 14/1/1 13/1/1
f 67/1/1 15/1/1 14/1/1
f 74/1/1 16/1/1 15/1/1
f 81/1/1 17/1/1 16/1/1
f 24/1/2 104/1/2 23/1/2
f 11/1/3 91/1/3 10/1/3
f 24/1/4 106/1/4 105/1/4
f 12/1/5 92/1/5 11/1/5
f 26/1/6 106/1/6 25/1/6
f 13/1/7 93/1/7 12/1/7
f 27/1/8 107/1/8 26/1/8
f 14/1/9 94/1/9 13/1/9
f 27/1/10 109/1/10 108/1/10
f 14/1/11 96/1/11 95/1/11
f 2/1/12 82/1/12 1/1/12
f 29/1/13 109/1/13 28/1/13
f 16/1/14 96/1/14 15/1/14
f 3/1/15 83/1/15 2/1/15
f 29/1/16 111/1/16 110/1/16
f 16/1/17 98/1/17 97/1/17
f 4/1/18 84/1/18 3/1/18
f 31/1/19 111/1/19 30/1/19
f 18/1/20 98/1/20 17/1/20
f 5/1/21 85/1/21 4/1/21
f 32/1/22 112/1/22 31/1/22
f 19/1/23 99/1/23 18/1/23
f 5/1/24 87/1/24 86/1/24
f 32/1/25 82/1/25 113/1/25
f 20/1/26 100/1/26 19/1/26
f 7/1/27 87/1/27 6/1/27
f 21/1/28 101/1/28 20/1/28
f 8/1/29 88/1/29 7/1/29
f 21/1/30 103/1/30 102/1/30
f 9/1/31 89/1/31 8/1/31
f 23/1/32 103/1/32 22/1/32
f 10/1/33 90/1/33 9/1/33
f 1/1/1 32/1/1 33/1/1
f 32/1/1 31/1/1 40/1/1
f 31/1/1 30/1/1 47/1/1
f 30/1/1 29/1/1 54/1/1
f 54/1/1 29/1/1 28/1/1
f 61/1/1 28/1/1 27/1/1
f 68/1/1 27/1/1 26/1/1
f 75/1/1 26/1/1 25/1/1
f 2/1/1 33/1/1 34/1/1
f 33/1/1 40/1/1 41/1/1
f 40/1/1 47/1/1 48/1/1
f 47/1/1 54/1/1 55/1/1
f 55/1/1 54/1/1 61/1/1
f 62/1/1 61/1/1 68/1/1
f 69/1/1 68/1/1 75/1/1
f 76/1/1 75/1/1 24/1/1
f 3/1/1 34/1/1 35/1/1
f 34/1/1 41/1/1 42/1/1
f 41/1/1 48/1/1 49/1/1
f 48/1/1 55/1/1 56/1/1
f 56/1/1 55/1/1 62/1/1
f 63/1/1 62/1/1 69/1/1
f 70/1/1 69/1/1 76/1/1
f 77/1/1 76/1/1 23/1/1
f 4/1/1 35/1/1 36/1/1
f 35/1/1 42/1/1 43/1/1
f 42/1/1 49/1/1 50/1/1
f 49/1/1 56/1/1 57/1/1
f 57/1/1 56/1/1 63/1/1
f 64/1/1 63/1/1 70/1/1
f 71/1/1 70/1/1 77/1/1
f 78/1/1 77/1/1 22/1/1
f 6/1/1 5/1/1 36/1/1
f 37/1/1 36/1/1 43/1/1
f 44/1/1 43/1/1 50/1/1
f 51/1/1 50/1/1 57/1/1
f 57/1/1 64/1/1 65/1/1
f 64/1/1 71/1/1 72/1/1
f 71/1/1 78/1/1 79/1/1
f 78/1/1 21/1/1 20/1/1
f 7/1/1 6/1/1 37/1/1
f 38/1/1 37/1/1 44/1/1
f 45/1/1 44/1/1 51/1/1
f 52/1/1 51/1/1 58/1/1
f 58/1/1 65/1/1 66/1/1
f 65/1/1 72/1/1 73/1/1
f 72/1/1 79/1/1 80/1/1
f 79/1/1 20/1/1 19/1/1
f 8/1/1 7/1/1 38/1/1
f 39/1/1 38/1/1 45/1/1
f 46/1/1 45/1/1 52/1/1
f 53/1/1 52/1/1 59/1/1
f 59/1/1 66/1/1 67/1/1
f 66/1/1 73/1/1 74/1/1
f 73/1/1 80/1/1 81/1/1
f 80/1/1 19/1/1 18/1/1
f 9/1/1 8/1/1 39/1/1
f 10/1/1 39/1/1 46/1/1
f 11/1/1 46/1/1 53/1/1
f 12/1/1 53/1/1 60/1/1
f 60/1/1 67/1/1 14/1/1
f 67/1/1 74/1/1 15/1/1
f 74/1/1 81/1/1 16/1/1
f 81/1/1 18/1/1 17/1/1
f 24/1/2 105/1/2 104/1/2
f 11/1/3 92/1/3 91/1/3
f 24/1/4 25/1/4 106/1/4
f 12/1/5 93/1/5 92/1/5
f 26/1/6 107/1/6 106/1/6
f 13/1/7 94/1/7 93/1/7
f 27/1/8 108/1/8 107/1/8
f 14/1/9 95/1/9 94/1/9
f 27/1/10 28/1/10 109/1/10
f 14/1/11 15/1/11 96/1/11
f 2/1/12 83/1/12 82/1/12
f 29/1/13 110/1/13 109/1/13
f 16/1/14 97/1/14 96/1/14
f 3/1/15 84/1/15 83/1/15
f 29/1/16 30/1/16 111/1/16
f 16/1/17 17/1/17 98/1/17
f 4/1/18 85/1/18 84/1/18
f 31/1/19 112/1/19 111/1/19
f 18/1/20 99/1/20 98/1/20
f 5/1/21 86/1/21 85/1/21
f 32/1/22 113/1/22 112/1/22
f 19/1/23 100/1/23 99/1/23
f 5/1/24 6/1/24 87/1/24
f 32/1/25 1/1/25 82/1/25
f 20/1/26 101/1/26 100/1/26
f 7/1/27 88/1/27 87/1/27
f 21/1/28 102/1/28 101/1/28
f 8/1/29 89/1/29 88/1/29
f 21/1/30 22/1/30 103/1/30
f 9/1/31 90/1/31 89/1/31
f 23/1/32 104/1/32 103/1/32
f 10/1/33 91/1/33 90/1/33
