# Converted from Thingi10K 196123.stl
# welded vertices: 486, faces: 976
v -0.05 -0.00551336124 -0.0205269304
v -0.05 -0.00551336124 -0.0198426987
v -0.05 0.00311633663 -0.0205269304
v -0.05 0.00311633663 -0.0198426987
v -0.0499678118 -0.00587546034 -0.0205269304
v -0.0499678118 -0.00587546034 -0.0198426987
v -0.0499667886 0.00348411538 -0.0205269304
v -0.0499667886 0.00348411538 -0.0198426987
v -0.0498722495 -0.00622620012 -0.0205269304
v -0.0498722495 -0.00622620012 -0.0198426987
v -0.049868209 0.00383999191 -0.0205269304
v -0.049868209 0.00383999191 -0.0198426987
v -0.0497163199 -0.00655457624 -0.0205269304
v -0.0497163199 -0.00655457624 -0.0198426987
v -0.0497074663 0.00417243985 -0.0205269304
v -0.0497074663 0.00417243985 -0.0198426987
v -0.0495049092 -0.00685031522 -0.0205269304
v -0.0495049092 -0.00685031522 -0.0198426987
v -0.04948976 0.00447072632 -0.0205269304
v -0.04948976 0.00447072632 -0.0198426987
v -0.0492446472 -0.00710410406 -0.0205269304
v -0.0492446472 -0.00710410406 -0.0198426987
v -0.0492221374 0.00472518336 -0.0205269304
v -0.0492221374 0.00472518336 -0.0198426987
v -0.048943688 -0.00730800797 -0.0205269304
v -0.048943688 -0.00730800797 -0.0198426987
v -0.0489132538 0.00492754207 -0.0205269304
v -0.0489132538 0.00492754207 -0.0198426987
v -0.0486114906 -0.00745563733 -0.0205269304
v -0.0486114906 -0.00745563733 -0.0198426987
v -0.0485731111 0.00507130842 -0.0205269304
v -0.0485731111 0.00507130842 -0.0198426987
v -0.0482584539 -0.00754233564 -0.0205269304
v -0.0482584539 -0.00754233564 -0.0198426987
v -0.0482127034 0.00515180505 -0.0205269304
v -0.0482127034 0.00515180505 -0.0198426987
v -0.0478956657 -0.00756540925 -0.0205269304
v -0.0478956657 -0.00756540925 -0.0198426987
v -0.0436953078 -0.0013793426 -0.0205269533
v -0.0436953078 -0.0013793426 -0.0205269304
v -0.0436953078 -0.0013793426 -0.0198426987
v -0.0436953078 -0.0013793426 0.0205269533
v -0.0436952974 -0.0011968627 -0.0205269533
v -0.0436952974 -0.0011968627 -0.0205269304
v -0.0436952974 -0.0011968627 -0.0198426987
v -0.0436952974 -0.0011968627 0.0205269533
v -0.0436952661 -0.00156180163 -0.0205269533
v -0.0436952661 -0.00156180163 -0.0205269304
v -0.0436952661 -0.00156180163 -0.0198426987
v -0.0436952661 -0.00156180163 0.0205269533
v -0.0436952243 -0.00101440368 -0.0205269533
v -0.0436952243 -0.00101440368 -0.0205269304
v -0.0436952243 -0.00101440368 -0.0198426987
v -0.0436952243 -0.00101440368 0.0205269533
v -0.0435185285 -0.00155269747 -0.0205269533
v -0.0435185285 -0.00155269747 -0.0205269304
v -0.0435185285 -0.00155269747 -0.0198426987
v -0.0435185285 -0.00155269747 0.0205269533
v -0.0433418431 -0.00154269542 -0.0205269533
v -0.0433418431 -0.00154269542 -0.0205269304
v -0.0433418431 -0.00154269542 -0.0198426987
v -0.0433418431 -0.00154269542 0.0205269533
v -0.0432668382 -0.000942134201 -0.0205269533
v -0.0432668382 -0.000942134201 -0.0205269304
v -0.0432668382 -0.000942134201 -0.0198426987
v -0.0432668382 -0.000942134201 0.0205269533
v -0.0431652099 -0.00153179549 -0.0205269533
v -0.0431652099 -0.00153179549 -0.0205269304
v -0.0431652099 -0.00153179549 -0.0198426987
v -0.0431652099 -0.00153179549 0.0205269533
v -0.0428392455 -0.000865354408 -0.0205269533
v -0.0428392455 -0.000865354408 -0.0205269304
v -0.0428392455 -0.000865354408 -0.0198426987
v -0.0428392455 -0.000865354408 0.0205269533
v -0.0424124777 -0.000784064299 -0.0205269533
v -0.0424124777 -0.000784064299 -0.0205269304
v -0.0424124777 -0.000784064299 -0.0198426987
v -0.0424124777 -0.000784064299 0.0205269533
v -0.0423006907 -0.00146952806 -0.0205269304
v -0.0423006907 -0.00146952806 -0.0198426987
v -0.0419594936 -0.00144760291 -0.0205269533
v -0.0419594936 -0.00144760291 0.0205269533
v -0.0417980096 -0.000662682484 -0.0205269304
v -0.0417980096 -0.000662682484 -0.0198426987
v -0.0414355347 -0.00141686593 -0.0205269304
v -0.0414355347 -0.00141686593 -0.0198426987
v -0.0411838026 -0.000540026922 -0.0205269304
v -0.0411838026 -0.000540026922 -0.0198426987
v -0.0407526184 -0.00138209891 -0.0205269533
v -0.0407526184 -0.00138209891 0.0205269533
v -0.0405698462 -0.00205872996 -0.0205269304
v -0.0405698462 -0.00205872996 -0.0198426987
v -0.0405698462 -0.00137382999 -0.0205269304
v -0.0405698462 -0.00137382999 -0.0198426987
v -0.0405698462 -0.000416076732 -0.0205269304
v -0.0405698462 -0.000416076732 -0.0198426987
v -0.0405698462 0.000282145378 -0.0205269304
v -0.0405698462 0.000282145378 -0.0198426987
v -0.0404809867 -0.000398014584 -0.0205269533
v -0.0404809867 -0.000398014584 0.0205269533
v -0.0402195031 -0.00204390439 -0.0205269304
v -0.0402195031 -0.00204390439 -0.0198426987
v -0.040023012 0.00039394277 -0.0205269304
v -0.040023012 0.00039394277 -0.0198426987
v -0.039869087 -0.00203068665 -0.0205269304
v -0.039869087 -0.00203068665 -0.0198426987
v -0.0395448767 -0.00133530437 -0.0205269533
v -0.0395448767 -0.00133530437 0.0205269533
v -0.0395186187 -0.00201905588 -0.0205269304
v -0.0395186187 -0.00201905588 -0.0198426987
v -0.0394763867 0.000506763335 -0.0205269304
v -0.0394763867 0.000506763335 -0.0198426987
v -0.0393224095 -0.00201016053 -0.0205269304
v -0.0393224095 -0.00201016053 -0.0198426987
v -0.0391261898 -0.00200149488 -0.0205269304
v -0.0391261898 -0.00200149488 -0.0198426987
v -0.0389299701 -0.00733976812 -0.0205269304
v -0.0389299701 -0.00733976812 -0.0198426987
v -0.0389299701 -0.00199303803 -0.0205269304
v -0.0389299701 -0.00199303803 -0.0198426987
v -0.0389299701 0.000620607074 -0.0205269304
v -0.0389299701 0.000620607074 -0.0198426987
v -0.0389299701 0.00636215694 -0.0205269304
v -0.0389299701 0.00636215694 -0.0198426987
v -0.0385520849 7.5171948e-07 -0.0205269533
v -0.0385520849 7.5171948e-07 0.0205269533
v -0.0375675412 -0.00125576827 -0.0205269533
v -0.0375675412 -0.00125576827 0.0205269533
v -0.0366258455 0.00041223461 -0.0205269533
v -0.0366258455 0.00041223461 0.0205269533
v -0.0355894436 -0.00119838702 -0.0205269533
v -0.0355894436 -0.00119838702 0.0205269533
v -0.033610824 -0.00116313973 -0.0205269533
v -0.033610824 -0.00116313973 0.0205269533
v -0.0333387642 -0.00115796122 -0.0205269533
v -0.0333387642 -0.00115796122 0.0205269533
v -0.0330667044 -0.00115290799 -0.0205269533
v -0.0330667044 -0.00115290799 0.0205269533
v -0.0327477665 0.00124236261 -0.0205269533
v -0.0327477665 0.00124236261 0.0205269533
v -0.0325225847 -0.00114330269 -0.0205269533
v -0.0325225847 -0.00114330269 0.0205269533
v -0.0314343037 -0.00112595049 -0.0205269533
v -0.0314343037 -0.00112595049 0.0205269533
v -0.0296503064 -0.00110289776 -0.0205269533
v -0.0296503064 -0.00110289776 0.0205269533
v -0.0288594035 0.00202291888 -0.0205269533
v -0.0288594035 0.00202291888 0.0205269533
v -0.0256894233 -0.00107560617 -0.0205269533
v -0.0256894233 -0.00107560617 0.0205269533
v -0.0256460951 0.000856981088 -0.0205269533
v -0.0256460951 0.000856981088 0.0205269533
v -0.0256100752 0.000537249736 -0.0205269533
v -0.0256100752 0.000537249736 0.0205269533
v -0.0256100752 0.00117671244 -0.0205269533
v -0.0256100752 0.00117671244 0.0205269533
v -0.0255038008 0.000233534185 -0.0205269533
v -0.0255038008 0.000233534185 0.0205269533
v -0.0255038008 0.00148042799 -0.0205269533
v -0.0255038008 0.00148042799 0.0205269533
v -0.0253326176 -3.89014831e-05 -0.0205269533
v -0.0253326176 -3.89014831e-05 0.0205269533
v -0.0253326176 0.00175286366 -0.0205269533
v -0.0253326176 0.00175286366 0.0205269533
v -0.0251050972 -0.000266421912 -0.0205269533
v -0.0251050972 -0.000266421912 0.0205269533
v -0.0251050972 0.00198038409 -0.0205269533
v -0.0251050972 0.00198038409 0.0205269533
v -0.0249613935 0.00275375727 -0.0205269533
v -0.0249613935 0.00275375727 0.0205269533
v -0.0248326511 -0.000437605143 -0.0205269533
v -0.0248326511 -0.000437605143 0.0205269533
v -0.0248326511 0.00215156732 -0.0205269533
v -0.0248326511 0.00215156732 0.0205269533
v -0.024528946 -0.000543869044 -0.0205269533
v -0.024528946 -0.000543869044 0.0205269533
v -0.024528946 0.0022578521 -0.0205269533
v -0.024528946 0.0022578521 0.0205269533
v -0.0242092042 -0.000579909817 -0.0205269533
v -0.0242092042 -0.000579909817 0.0205269533
v -0.0242092042 0.00229387199 -0.0205269533
v -0.0242092042 0.00229387199 0.0205269533
v -0.0238894728 -0.000543869044 -0.0205269533
v -0.0238894728 -0.000543869044 0.0205269533
v -0.0238894728 0.0022578521 -0.0205269533
v -0.0238894728 0.0022578521 0.0205269533
v -0.0235857677 -0.000437605143 -0.0205269533
v -0.0235857677 -0.000437605143 0.0205269533
v -0.0235857677 0.00215156732 -0.0205269533
v -0.0235857677 0.00215156732 0.0205269533
v -0.0233133216 -0.000266421912 -0.0205269533
v -0.0233133216 -0.000266421912 0.0205269533
v -0.0233133216 0.00198038409 -0.0205269533
v -0.0233133216 0.00198038409 0.0205269533
v -0.0230858012 -3.89014831e-05 -0.0205269533
v -0.0230858012 -3.89014831e-05 0.0205269533
v -0.0230858012 0.00175286366 -0.0205269533
v -0.0230858012 0.00175286366 0.0205269533
v -0.0229146179 0.000233534185 -0.0205269533
v -0.0229146179 0.000233534185 0.0205269533
v -0.0229146179 0.00148042799 -0.0205269533
v -0.0229146179 0.00148042799 0.0205269533
v -0.0228083436 0.000537249736 -0.0205269533
v -0.0228083436 0.000537249736 0.0205269533
v -0.0228083436 0.00117671244 -0.0205269533
v -0.0228083436 0.00117671244 0.0205269533
v -0.0227723237 0.000856981088 -0.0205269533
v -0.0227723237 0.000856981088 0.0205269533
v -0.0217284463 -0.00108124407 -0.0205269533
v -0.0217284463 -0.00108124407 0.0205269533
v -0.0210543628 0.00343477335 -0.0205269533
v -0.0210543628 0.00343477335 0.0205269533
v -0.0171389588 0.00406584186 -0.0205269533
v -0.0171389588 0.00406584186 0.0205269533
v -0.0157850807 -0.00113066962 -0.0205269533
v -0.0157850807 -0.00113066962 0.0205269533
v -0.0132158183 0.00464687925 -0.0205269533
v -0.0132158183 0.00464687925 0.0205269533
v -0.00997576122 0.00510716127 -0.0205269533
v -0.00997576122 0.00510716127 0.0205269533
v -0.00984190295 -0.00119909698 -0.0205269533
v -0.00984190295 -0.00119909698 0.0205269533
v -0.00957037561 0.00516201591 -0.0205269533
v -0.00957037561 0.00516201591 0.0205269533
v -0.00936766193 0.00518922398 -0.0205269533
v -0.00936766193 0.00518922398 0.0205269533
v -0.00926629464 0.00520277581 -0.0205269533
v -0.00926629464 0.00520277581 0.0205269533
v -0.00916491692 0.00521628588 -0.0205269533
v -0.00916491692 0.00521628588 0.0205269533
v -0.00510610155 0.00572620226 -0.0205269533
v -0.00510610155 0.00572620226 0.0205269533
v -0.00389897579 -0.00128652613 -0.0205269533
v -0.00389897579 -0.00128652613 0.0205269533
v -0.00104023881 0.00617656575 -0.0205269533
v -0.00104023881 0.00617656575 0.0205269533
v 0.00303179429 0.00656723019 -0.0205269533
v 0.00303179429 0.00656723019 0.0205269533
v 0.00402649665 -0.00140997517 -0.0205269533
v 0.00402649665 -0.00140997517 0.0205269533
v 0.00710911031 0.00689813293 -0.0205269533
v 0.00710911031 0.00689813293 0.0205269533
v 0.0111908531 0.00716919044 -0.0205269533
v 0.0111908531 0.00716919044 0.0205269533
v 0.011952157 -0.0015201856 -0.0205269533
v 0.011952157 -0.0015201856 0.0205269533
v 0.0130484772 0.00263782542 -0.0205269533
v 0.0130484772 0.00263782542 0.0205269533
v 0.0130832651 0.0021957726 -0.0205269533
v 0.0130832651 0.0021957726 0.0205269533
v 0.0130832651 0.00307989912 -0.0205269533
v 0.0130832651 0.00307989912 0.0205269533
v 0.0131867832 0.00176457795 -0.0205269533
v 0.0131867832 0.00176457795 0.0205269533
v 0.0131867832 0.00351107288 -0.0205269533
v 0.0131867832 0.00351107288 0.0205269533
v 0.0133564839 0.00135491172 -0.0205269533
v 0.0133564839 0.00135491172 0.0205269533
v 0.0133564839 0.00392076 -0.0205269533
v 0.0133564839 0.00392076 0.0205269533
v 0.0135881701 0.000976817702 -0.0205269533
v 0.0135881701 0.000976817702 0.0205269533
v 0.0135881701 0.00429883313 -0.0205269533
v 0.0135881701 0.00429883313 0.0205269533
v 0.0138761622 0.000639629753 -0.0205269533
v 0.0138761622 0.000639629753 0.0205269533
v 0.0138761622 0.00463602108 -0.0205269533
v 0.0138761622 0.00463602108 0.0205269533
v 0.0142133501 0.000351637668 -0.0205269533
v 0.0142133501 0.000351637668 0.0205269533
v 0.0142133501 0.00492401317 -0.0205269533
v 0.0142133501 0.00492401317 0.0205269533
v 0.0145914337 0.0001199619 -0.0205269533
v 0.0145914337 0.0001199619 0.0205269533
v 0.0145914337 0.00515570982 -0.0205269533
v 0.0145914337 0.00515570982 0.0205269533
v 0.0150011104 -4.97387723e-05 -0.0205269533
v 0.0150011104 -4.97387723e-05 0.0205269533
v 0.0150011104 0.00532538961 -0.0205269533
v 0.0150011104 0.00532538961 0.0205269533
v 0.0152761144 0.00738036097 -0.0205269533
v 0.0152761144 0.00738036097 0.0205269533
v 0.0154322841 -0.000153246368 -0.0205269533
v 0.0154322841 -0.000153246368 0.0205269533
v 0.0154322841 0.00542891808 -0.0205269533
v 0.0154322841 0.00542891808 0.0205269533
v 0.0158743578 -0.000188055157 -0.0205269533
v 0.0158743578 -0.000188055157 0.0205269533
v 0.0158743578 0.00546370599 -0.0205269533
v 0.0158743578 0.00546370599 0.0205269533
v 0.0163164106 -0.000153246368 -0.0205269533
v 0.0163164106 -0.000153246368 0.0205269533
v 0.0163164106 0.00542891808 -0.0205269533
v 0.0163164106 0.00542891808 0.0205269533
v 0.0167476053 -4.97387723e-05 -0.0205269533
v 0.0167476053 -4.97387723e-05 0.0205269533
v 0.0167476053 0.00532538961 -0.0205269533
v 0.0167476053 0.00532538961 0.0205269533
v 0.0171572715 0.0001199619 -0.0205269533
v 0.0171572715 0.0001199619 0.0205269533
v 0.0171572715 0.00515570982 -0.0205269533
v 0.0171572715 0.00515570982 0.0205269533
v 0.0175353655 0.000351637668 -0.0205269533
v 0.0175353655 0.000351637668 0.0205269533
v 0.0175353655 0.00492401317 -0.0205269533
v 0.0175353655 0.00492401317 0.0205269533
v 0.0178725535 0.000639629753 -0.0205269533
v 0.0178725535 0.000639629753 0.0205269533
v 0.0178725535 0.00463602108 -0.0205269533
v 0.0178725535 0.00463602108 0.0205269533
v 0.0181605456 0.000976817702 -0.0205269533
v 0.0181605456 0.000976817702 0.0205269533
v 0.0181605456 0.00429883313 -0.0205269533
v 0.0181605456 0.00429883313 0.0205269533
v 0.0183922213 0.00135491172 -0.0205269533
v 0.0183922213 0.00135491172 0.0205269533
v 0.0183922213 0.00392076 -0.0205269533
v 0.0183922213 0.00392076 0.0205269533
v 0.018561922 0.00176457795 -0.0205269533
v 0.018561922 0.00176457795 0.0205269533
v 0.018561922 0.00351107288 -0.0205269533
v 0.018561922 0.00351107288 0.0205269533
v 0.0186654505 0.0021957726 -0.0205269533
v 0.0186654505 0.0021957726 0.0205269533
v 0.0186654505 0.00307989912 -0.0205269533
v 0.0186654505 0.00307989912 0.0205269533
v 0.0187002384 0.00263782542 -0.0205269533
v 0.0187002384 0.00263782542 0.0205269533
v 0.0193640485 0.00753158188 -0.0205269533
v 0.0193640485 0.00753158188 0.0205269533
v 0.0198779949 -0.00161715741 -0.0205269533
v 0.0198779949 -0.00161715741 0.0205269533
v 0.0213496111 0.00756540925 -0.0205269533
v 0.0213496111 0.00756540925 0.0205269533
v 0.0233354451 0.00756540925 -0.0205269533
v 0.0233354451 0.00756540925 0.0205269533
v 0.0238426887 -0.0016413586 -0.0205269533
v 0.0238426887 -0.0016413586 0.0205269533
v 0.0253210077 0.00753160276 -0.0205269533
v 0.0253210077 0.00753160276 0.0205269533
v 0.0273051086 0.00746062791 -0.0205269533
v 0.0273051086 0.00746062791 0.0205269533
v 0.0278074661 -0.00164785262 -0.0205269533
v 0.0278074661 -0.00164785262 0.0205269533
v 0.0292879776 0.00736133829 -0.0205269533
v 0.0292879776 0.00736133829 0.0205269533
v 0.0296320563 0.00734120892 -0.0205269533
v 0.0296320563 0.00734120892 0.0205269533
v 0.0304508041 0.00728988318 -0.0205269533
v 0.0304508041 0.00728988318 0.0205269533
v 0.0308600736 0.00726240366 -0.0205269533
v 0.0308600736 0.00726240366 0.0205269533
v 0.0310646666 0.00724820451 -0.0205269533
v 0.0310646666 0.00724820451 0.0205269533
v 0.0312692387 0.00723371303 -0.0205269533
v 0.0312692387 0.00723371303 0.0205269533
v 0.0317722225 -0.00163661859 -0.0205269533
v 0.0317722225 -0.00163661859 0.0205269533
v 0.0327565574 0.00712110128 -0.0205269533
v 0.0327565574 0.00712110128 0.0205269533
v 0.0337547782 -0.00161477697 -0.0205269533
v 0.0337547782 -0.00161477697 0.0205269533
v 0.034241099 0.00697675026 -0.0205269533
v 0.034241099 0.00697675026 0.0205269533
v 0.0357222369 0.00680072261 -0.0205269533
v 0.0357222369 0.00680072261 0.0205269533
v 0.0357370834 -0.00157535346 -0.0205269533
v 0.0357370834 -0.00157535346 0.0205269533
v 0.0376887769 0.00650274936 -0.0205269533
v 0.0376887769 0.00650274936 0.0205269533
v 0.0377189292 -0.00151836894 -0.0205269533
v 0.0377189292 -0.00151836894 0.0205269533
v 0.0379174457 -0.00151206285 -0.0205269533
v 0.0379174457 -0.00151206285 0.0205269533
v 0.0381159415 -0.00150540178 -0.0205269533
v 0.0381159415 -0.00150540178 0.0205269533
v 0.0385128911 -0.00149101471 -0.0205269533
v 0.0385128911 -0.00149101471 0.0205269533
v 0.0393066442 -0.00145795993 -0.0205269533
v 0.0393066442 -0.00145795993 0.0205269533
v 0.0396470061 0.00615441091 -0.0205269533
v 0.0396470061 0.00615441091 0.0205269533
v 0.0397034059 -0.00143927135 -0.0205269533
v 0.0397034059 -0.00143927135 0.0205269533
v 0.0405408214 0.00597811181 -0.0205269533
v 0.0405408214 0.00597811181 0.0205269533
v 0.0410686329 0.00586886191 -0.0205269533
v 0.0410686329 0.00586886191 0.0205269533
v 0.0413322359 0.00581287969 -0.0205269533
v 0.0413322359 0.00581287969 0.0205269533
v 0.0414639747 0.00578452316 -0.0205269533
v 0.0414639747 0.00578452316 0.0205269533
v 0.0415956509 0.00575595782 -0.0205269533
v 0.0415956509 0.00575595782 0.0205269533
v 0.0416861287 -0.00132438356 -0.0205269533
v 0.0416861287 -0.00132438356 0.0205269533
v 0.0425486224 0.00552751862 -0.0205269533
v 0.0425486224 0.00552751862 0.0205269533
v 0.043489984 0.00525518736 -0.0205269533
v 0.043489984 0.00525518736 0.0205269533
v 0.0436277366 0.00521133706 -0.0205269533
v 0.0436277366 0.00521133706 0.0205269533
v 0.043666471 -0.00117372644 -0.0205269533
v 0.043666471 -0.00117372644 0.0205269533
v 0.0440240598 0.00507934765 -0.0205269533
v 0.0440240598 0.00507934765 0.0205269533
v 0.0442212191 0.00501041915 -0.0205269533
v 0.0442212191 0.00501041915 0.0205269533
v 0.0443195482 0.00497521362 -0.0205269533
v 0.0443195482 0.00497521362 0.0205269533
v 0.0444083973 -0.00108694461 -0.0205269533
v 0.0444083973 -0.00108694461 0.0205269533
v 0.0444177103 0.0049395487 -0.0205269533
v 0.0444177103 0.0049395487 0.0205269533
v 0.0451337022 0.00468630276 -0.0205269533
v 0.0451337022 0.00468630276 0.0205269533
v 0.0451503027 -0.0010000166 -0.0205269533
v 0.0451503027 -0.0010000166 0.0205269533
v 0.0458398591 0.00440683016 -0.0205269533
v 0.0458398591 0.00440683016 0.0205269533
v 0.045892208 -0.000912942427 -0.0205269533
v 0.045892208 -0.000912942427 0.0205269533
v 0.0463912036 -0.000831192934 -0.0205269533
v 0.0463912036 -0.000831192934 0.0205269533
v 0.0465352414 0.00410148589 -0.0205269533
v 0.0465352414 0.00410148589 0.0205269533
v 0.0468890298 -0.00074257356 -0.0205269533
v 0.0468890298 -0.00074257356 0.0205269533
v 0.0469944794 0.0038670747 -0.0205269533
v 0.0469944794 0.0038670747 0.0205269533
v 0.0473855823 -0.000647105186 -0.0205269533
v 0.0473855823 -0.000647105186 0.0205269533
v 0.0474487685 0.00362314173 -0.0205269533
v 0.0474487685 0.00362314173 0.0205269533
v 0.0478716942 -0.000536456254 -0.0205269533
v 0.0478716942 -0.000536456254 0.0205269533
v 0.0478978582 0.00336979138 -0.0205269533
v 0.0478978582 0.00336979138 0.0205269533
v 0.0483517715 -0.000401898468 -0.0205269533
v 0.0483517715 -0.000401898468 0.0205269533
v 0.0483680588 -0.000396887004 -0.0205269533
v 0.0483680588 -0.000396887004 0.0205269533
v 0.0483775806 0.00306714077 -0.0205269533
v 0.0483775806 0.00306714077 0.0205269533
v 0.0483843251 -0.000391833779 -0.0205269533
v 0.0483843251 -0.000391833779 0.0205269533
v 0.0483857868 0.00306137758 -0.0205269533
v 0.0483857868 0.00306137758 0.0205269533
v 0.0483898795 0.00305847511 -0.0205269533
v 0.0483898795 0.00305847511 0.0205269533
v 0.0483919259 0.00305703431 -0.0205269533
v 0.0483919259 0.00305703431 0.0205269533
v 0.0483939722 0.00305557264 -0.0205269533
v 0.0483939722 0.00305557264 0.0205269533
v 0.048416837 -0.000381664685 -0.0205269533
v 0.048416837 -0.000381664685 0.0205269533
v 0.0484817772 -0.00036101328 -0.0205269533
v 0.0484817772 -0.00036101328 0.0205269533
v 0.0488246031 -0.000243786804 -0.0205269533
v 0.0488246031 -0.000243786804 0.0205269533
v 0.048854651 0.00269142719 -0.0205269533
v 0.048854651 0.00269142719 0.0205269533
v 0.0491305529 -0.000121903842 -0.0205269533
v 0.0491305529 -0.000121903842 0.0205269533
v 0.0492749457 0.00228130157 -0.0205269533
v 0.0492749457 0.00228130157 0.0205269533
v 0.0494122598 4.87364796e-05 -0.0205269533
v 0.0494122598 4.87364796e-05 0.0205269533
v 0.0496502416 0.00182964345 -0.0205269533
v 0.0496502416 0.00182964345 0.0205269533
v 0.0496619977 0.000263456797 -0.0205269533
v 0.0496619977 0.000263456797 0.0205269533
v 0.0497711849 0.00164952311 -0.0205269533
v 0.0497711849 0.00164952311 0.0205269533
v 0.0498720824 0.00145747967 -0.0205269533
v 0.0498720824 0.00145747967 0.0205269533
v 0.0498729385 0.000516389521 -0.0205269533
v 0.0498729385 0.000516389521 0.0205269533
v 0.0499518064 0.00125570563 -0.0205269533
v 0.0499518064 0.00125570563 0.0205269533
v 0.0499575278 0.000689117952 -0.0205269533
v 0.0499575278 0.000689117952 0.0205269533
v 0.0499980581 0.00106900774 -0.0205269533
v 0.0499980581 0.00106900774 0.0205269533
v 0.05 0.000876692844 -0.0205269533
v 0.05 0.000876692844 0.0205269533
f 206 208 262
f 206 262 258
f 206 258 202
f 200 266 204
f 266 200 270
f 192 274 196
f 274 192 278
f 184 234 188
f 184 180 234
f 176 150 180
f 150 176 146
f 166 144 172
f 144 166 126
f 144 126 142
f 158 130 162
f 158 154 130
f 154 152 130
f 130 152 140
f 152 156 140
f 164 148 160
f 164 168 148
f 168 174 148
f 174 178 148
f 148 178 170
f 178 182 170
f 190 212 186
f 194 250 190
f 194 198 250
f 250 198 254
f 324 462 328
f 462 324 466
f 316 474 320
f 312 484 316
f 308 478 312
f 304 468 308
f 300 432 304
f 300 296 432
f 296 292 432
f 292 288 432
f 284 234 288
f 284 278 234
f 274 270 196
f 196 270 200
f 266 262 204
f 258 254 202
f 202 254 198
f 250 248 190
f 190 248 212
f 256 214 252
f 214 256 218
f 264 220 260
f 268 230 264
f 230 268 232
f 268 272 232
f 280 236 276
f 280 286 236
f 236 286 238
f 294 348 290
f 298 370 294
f 302 386 298
f 306 394 302
f 310 400 306
f 314 414 310
f 318 420 314
f 420 318 426
f 326 434 322
f 328 444 326
f 74 128 78
f 128 74 108
f 74 66 108
f 46 90 54
f 90 46 82
f 50 58 42
f 58 62 42
f 62 70 42
f 70 82 42
f 42 82 46
f 90 108 54
f 128 132 78
f 78 132 100
f 132 134 100
f 134 136 100
f 136 138 100
f 144 146 172
f 172 146 176
f 150 210 180
f 210 216 180
f 216 222 180
f 222 234 180
f 234 240 288
f 240 246 288
f 246 332 288
f 332 338 288
f 338 344 288
f 344 358 288
f 358 362 288
f 362 368 288
f 368 372 288
f 374 378 372
f 374 376 378
f 372 378 428
f 372 428 288
f 378 380 428
f 380 384 428
f 404 412 396
f 412 418 396
f 422 424 418
f 424 428 418
f 428 432 288
f 432 436 304
f 436 440 304
f 440 442 304
f 442 446 304
f 446 456 304
f 456 458 304
f 458 460 304
f 460 464 304
f 464 468 304
f 468 472 308
f 472 478 308
f 478 482 312
f 482 486 312
f 486 484 312
f 484 480 316
f 480 476 316
f 476 474 316
f 474 470 320
f 470 466 320
f 320 466 324
f 462 454 328
f 454 452 328
f 452 450 328
f 450 448 328
f 448 444 328
f 444 438 326
f 438 434 326
f 434 430 322
f 430 426 322
f 322 426 318
f 420 416 314
f 416 414 314
f 414 410 310
f 410 408 310
f 408 406 310
f 406 402 310
f 402 400 310
f 400 398 306
f 398 394 306
f 394 392 302
f 392 390 302
f 390 388 302
f 388 386 302
f 386 382 298
f 382 370 298
f 370 366 294
f 366 364 294
f 364 360 294
f 360 356 294
f 356 354 294
f 354 352 294
f 352 350 294
f 350 348 294
f 348 346 290
f 346 342 290
f 342 340 290
f 340 336 290
f 336 334 290
f 334 330 290
f 330 282 290
f 282 244 290
f 244 242 290
f 242 238 290
f 290 238 286
f 236 232 276
f 230 228 264
f 228 226 264
f 226 224 264
f 224 220 264
f 220 218 260
f 260 218 256
f 214 212 252
f 212 170 186
f 148 140 160
f 130 126 162
f 126 100 142
f 100 138 142
f 192 188 278
f 278 188 234
f 204 262 208
f 252 212 248
f 384 396 428
f 428 396 418
f 162 126 166
f 140 156 160
f 170 182 186
f 232 272 276
f 54 108 66
f 76 83 75
f 83 87 75
f 75 87 99
f 87 95 99
f 88 100 96
f 100 88 78
f 77 78 84
f 84 78 88
f 126 125 100
f 126 130 125
f 130 129 125
f 125 99 100
f 95 96 99
f 99 96 100
f 50 49 58
f 49 57 58
f 69 70 61
f 70 62 61
f 62 58 61
f 58 57 61
f 54 53 46
f 53 45 46
f 49 50 41
f 50 42 41
f 42 46 41
f 46 45 41
f 47 48 39
f 48 40 39
f 52 51 44
f 51 43 44
f 43 39 44
f 39 40 44
f 78 77 74
f 77 73 74
f 53 54 65
f 54 66 65
f 66 74 65
f 74 73 65
f 51 52 63
f 52 64 63
f 76 75 72
f 75 71 72
f 71 63 72
f 63 64 72
f 206 205 208
f 205 206 201
f 198 197 202
f 197 198 193
f 190 189 194
f 189 190 185
f 182 181 186
f 181 182 177
f 174 173 178
f 173 174 167
f 164 163 168
f 163 164 159
f 156 155 160
f 155 156 151
f 154 153 152
f 153 154 157
f 162 161 158
f 161 162 165
f 172 171 166
f 171 172 175
f 180 179 176
f 179 180 183
f 188 187 184
f 187 188 191
f 196 195 192
f 195 196 199
f 204 203 200
f 203 204 207
f 203 199 200
f 200 199 196
f 195 191 192
f 192 191 188
f 187 183 184
f 184 183 180
f 179 175 176
f 176 175 172
f 171 165 166
f 166 165 162
f 161 157 158
f 158 157 154
f 153 151 152
f 152 151 156
f 155 159 160
f 160 159 164
f 163 167 168
f 168 167 174
f 173 177 178
f 178 177 182
f 181 185 186
f 186 185 190
f 189 193 194
f 194 193 198
f 197 201 202
f 202 201 206
f 205 207 208
f 208 207 204
f 326 325 328
f 325 326 321
f 318 317 322
f 317 318 313
f 310 309 314
f 309 310 305
f 302 301 306
f 301 302 297
f 294 293 298
f 293 294 289
f 286 285 290
f 285 286 279
f 276 275 280
f 275 276 271
f 268 267 272
f 267 268 263
f 260 259 264
f 259 260 255
f 252 251 256
f 251 252 247
f 250 249 248
f 249 250 253
f 258 257 254
f 257 258 261
f 266 265 262
f 265 266 269
f 274 273 270
f 273 274 277
f 284 283 278
f 283 284 287
f 292 291 288
f 291 292 295
f 300 299 296
f 299 300 303
f 308 307 304
f 307 308 311
f 316 315 312
f 315 316 319
f 324 323 320
f 323 324 327
f 323 319 320
f 320 319 316
f 315 311 312
f 312 311 308
f 307 303 304
f 304 303 300
f 299 295 296
f 296 295 292
f 291 287 288
f 288 287 284
f 283 277 278
f 278 277 274
f 273 269 270
f 270 269 266
f 265 261 262
f 262 261 258
f 257 253 254
f 254 253 250
f 249 247 248
f 248 247 252
f 251 255 256
f 256 255 260
f 259 263 264
f 264 263 268
f 267 271 272
f 272 271 276
f 275 279 280
f 280 279 286
f 285 289 290
f 290 289 294
f 293 297 298
f 298 297 302
f 301 305 306
f 306 305 310
f 309 313 314
f 314 313 318
f 317 321 322
f 322 321 326
f 325 327 328
f 328 327 324
f 67 68 59
f 68 60 59
f 48 47 56
f 47 55 56
f 55 59 56
f 59 60 56
f 85 89 93
f 89 85 81
f 68 67 79
f 67 81 79
f 79 81 85
f 89 107 93
f 93 107 94
f 107 108 94
f 82 86 90
f 86 82 80
f 69 80 70
f 70 80 82
f 86 94 90
f 90 94 108
f 108 107 128
f 107 127 128
f 127 131 128
f 133 134 131
f 134 132 131
f 132 128 131
f 134 133 136
f 133 135 136
f 136 135 138
f 141 142 137
f 142 141 144
f 141 143 144
f 149 150 145
f 149 209 150
f 209 210 150
f 150 146 145
f 146 144 145
f 142 138 137
f 137 138 135
f 144 143 145
f 210 209 216
f 209 215 216
f 215 221 216
f 233 234 221
f 234 222 221
f 222 216 221
f 234 233 240
f 233 239 240
f 239 245 240
f 331 332 245
f 332 246 245
f 246 240 245
f 332 331 338
f 331 337 338
f 337 343 338
f 357 358 343
f 358 344 343
f 344 338 343
f 357 361 358
f 367 368 361
f 367 371 368
f 371 372 368
f 368 362 361
f 362 358 361
f 372 371 374
f 371 373 374
f 374 373 376
f 377 378 375
f 378 377 380
f 383 384 379
f 384 383 396
f 383 395 396
f 404 396 403
f 384 380 379
f 379 380 377
f 378 376 375
f 375 376 373
f 403 396 395
f 404 403 412
f 403 411 412
f 412 411 418
f 421 422 417
f 422 418 417
f 417 418 411
f 422 421 424
f 421 423 424
f 424 423 428
f 431 432 427
f 432 428 427
f 427 428 423
f 432 431 436
f 431 435 436
f 435 439 436
f 441 442 439
f 442 441 446
f 455 456 445
f 456 455 458
f 459 460 457
f 460 458 457
f 457 458 455
f 456 446 445
f 445 446 441
f 442 440 439
f 440 436 439
f 459 463 460
f 460 463 464
f 471 468 467
f 468 471 472
f 478 472 477
f 477 472 471
f 468 464 467
f 467 464 463
f 477 481 478
f 485 486 481
f 486 485 484
f 485 483 484
f 480 484 479
f 486 482 481
f 482 478 481
f 479 484 483
f 479 475 480
f 473 474 475
f 473 469 474
f 469 470 474
f 474 476 475
f 476 480 475
f 469 465 470
f 461 462 465
f 462 461 454
f 451 452 453
f 452 451 450
f 447 448 449
f 448 447 444
f 447 443 444
f 438 444 437
f 448 450 449
f 449 450 451
f 452 454 453
f 453 454 461
f 462 466 465
f 466 470 465
f 437 444 443
f 438 437 434
f 437 433 434
f 433 429 434
f 425 426 429
f 426 430 429
f 430 434 429
f 426 425 420
f 425 419 420
f 419 415 420
f 413 414 415
f 414 416 415
f 416 420 415
f 414 413 410
f 413 409 410
f 410 409 408
f 409 407 408
f 401 402 405
f 402 401 400
f 401 399 400
f 393 398 397
f 393 394 398
f 398 400 397
f 402 406 405
f 406 408 405
f 405 408 407
f 397 400 399
f 394 393 392
f 393 391 392
f 392 391 390
f 387 388 389
f 388 387 386
f 387 385 386
f 369 370 381
f 369 365 370
f 365 366 370
f 370 382 381
f 382 386 381
f 388 390 389
f 389 390 391
f 381 386 385
f 365 363 366
f 359 360 363
f 359 355 360
f 355 356 360
f 360 364 363
f 364 366 363
f 356 355 354
f 355 353 354
f 354 353 352
f 349 350 351
f 349 347 350
f 345 346 347
f 346 345 342
f 345 341 342
f 340 342 339
f 346 348 347
f 348 350 347
f 350 352 351
f 351 352 353
f 339 342 341
f 339 335 340
f 340 335 336
f 329 334 333
f 329 330 334
f 334 336 333
f 333 336 335
f 329 281 330
f 330 281 282
f 241 244 243
f 244 241 242
f 235 238 237
f 238 235 236
f 229 232 231
f 227 228 229
f 228 227 226
f 223 224 225
f 224 223 220
f 223 219 220
f 218 220 217
f 224 226 225
f 225 226 227
f 228 230 229
f 230 232 229
f 232 236 231
f 231 236 235
f 238 242 237
f 237 242 241
f 244 282 243
f 243 282 281
f 217 220 219
f 218 217 214
f 217 213 214
f 213 211 214
f 214 211 212
f 147 170 169
f 170 147 148
f 129 130 139
f 130 140 139
f 140 148 139
f 139 148 147
f 170 212 169
f 169 212 211
f 203 207 261
f 203 261 265
f 203 265 199
f 201 257 205
f 257 201 253
f 193 249 197
f 193 189 249
f 185 211 189
f 211 185 169
f 185 181 169
f 173 147 177
f 173 167 147
f 167 163 147
f 163 159 147
f 147 159 139
f 159 155 139
f 153 129 151
f 153 157 129
f 157 161 129
f 129 161 125
f 171 143 165
f 143 171 145
f 179 149 175
f 183 221 179
f 183 187 221
f 187 191 221
f 191 195 221
f 195 199 221
f 325 443 327
f 321 433 325
f 317 425 321
f 425 317 419
f 309 413 313
f 305 399 309
f 301 393 305
f 297 385 301
f 293 369 297
f 289 347 293
f 285 237 289
f 237 285 235
f 285 279 235
f 271 231 275
f 271 267 231
f 231 267 229
f 259 219 263
f 219 259 217
f 251 213 255
f 213 251 211
f 249 189 247
f 249 253 197
f 197 253 201
f 257 261 205
f 265 269 199
f 199 269 221
f 269 273 221
f 273 277 221
f 277 283 221
f 291 431 287
f 291 295 431
f 295 299 431
f 299 303 431
f 307 467 303
f 311 477 307
f 315 483 311
f 319 473 315
f 323 465 319
f 465 323 461
f 99 131 75
f 125 141 99
f 129 139 151
f 147 169 177
f 213 217 255
f 255 217 259
f 219 223 263
f 223 225 263
f 225 227 263
f 227 229 263
f 263 229 267
f 231 235 275
f 237 241 289
f 241 243 289
f 243 281 289
f 281 329 289
f 329 333 289
f 333 335 289
f 335 339 289
f 339 341 289
f 341 345 289
f 345 347 289
f 347 349 293
f 349 351 293
f 351 353 293
f 353 355 293
f 355 359 293
f 359 363 293
f 363 365 293
f 365 369 293
f 369 381 297
f 381 385 297
f 385 387 301
f 387 389 301
f 389 391 301
f 391 393 301
f 393 397 305
f 397 399 305
f 399 401 309
f 401 405 309
f 405 407 309
f 407 409 309
f 409 413 309
f 413 415 313
f 415 419 313
f 313 419 317
f 425 429 321
f 429 433 321
f 433 437 325
f 437 443 325
f 443 447 327
f 447 449 327
f 449 451 327
f 451 453 327
f 453 461 327
f 327 461 323
f 465 469 319
f 469 473 319
f 473 475 315
f 475 479 315
f 479 483 315
f 483 485 311
f 485 481 311
f 481 477 311
f 477 471 307
f 471 467 307
f 467 463 303
f 463 459 303
f 459 457 303
f 457 455 303
f 455 445 303
f 445 441 303
f 441 439 303
f 439 435 303
f 435 431 303
f 427 367 431
f 423 417 427
f 423 421 417
f 427 417 395
f 427 395 383
f 427 383 379
f 427 379 377
f 427 377 371
f 427 371 367
f 403 395 411
f 375 373 377
f 373 371 377
f 367 361 431
f 361 357 431
f 357 343 431
f 343 337 431
f 337 331 431
f 331 245 431
f 245 239 431
f 239 233 431
f 431 233 287
f 221 215 179
f 215 209 179
f 209 149 179
f 149 145 175
f 175 145 171
f 165 143 125
f 165 125 161
f 141 137 99
f 137 135 99
f 135 133 99
f 133 131 99
f 131 127 75
f 75 127 71
f 89 51 107
f 51 89 43
f 67 39 81
f 67 59 39
f 59 55 39
f 55 47 39
f 39 43 81
f 81 43 89
f 51 63 107
f 63 71 107
f 107 71 127
f 233 221 287
f 247 189 211
f 247 211 251
f 221 283 287
f 261 207 205
f 411 395 417
f 141 125 143
f 151 139 155
f 177 169 181
f 275 235 279
f 94 86 92
f 86 80 92
f 80 69 92
f 69 61 92
f 61 57 92
f 57 49 92
f 92 49 2
f 92 2 118
f 92 118 102
f 49 41 2
f 53 4 45
f 4 53 98
f 4 98 104
f 4 104 112
f 4 112 122
f 4 122 8
f 53 65 98
f 65 73 98
f 73 77 98
f 77 84 98
f 96 98 88
f 8 122 12
f 36 16 124
f 32 28 36
f 28 24 36
f 24 20 36
f 20 16 36
f 16 12 124
f 124 12 122
f 4 2 45
f 2 6 118
f 6 10 118
f 10 14 118
f 14 18 118
f 118 18 38
f 18 22 38
f 22 26 38
f 34 38 30
f 120 116 118
f 116 114 118
f 114 110 118
f 110 106 118
f 106 102 118
f 2 41 45
f 98 84 88
f 30 38 26
f 96 95 98
f 95 97 98
f 93 94 91
f 94 92 91
f 117 119 118
f 119 120 118
f 121 123 122
f 123 124 122
f 121 122 111
f 122 112 111
f 111 112 103
f 98 97 104
f 97 103 104
f 104 103 112
f 117 118 37
f 118 38 37
f 60 68 91
f 60 91 56
f 68 79 91
f 93 91 85
f 101 117 91
f 101 105 117
f 105 109 117
f 109 113 117
f 113 115 117
f 115 119 117
f 37 17 117
f 33 29 37
f 29 25 37
f 25 21 37
f 21 17 37
f 17 13 117
f 13 9 117
f 9 5 117
f 5 1 117
f 3 44 1
f 7 121 3
f 7 11 121
f 121 11 123
f 19 35 15
f 19 23 35
f 23 27 35
f 27 31 35
f 35 123 15
f 15 123 11
f 121 111 3
f 111 103 3
f 103 97 3
f 95 87 97
f 87 83 97
f 83 76 97
f 76 72 97
f 72 64 97
f 64 52 97
f 97 52 3
f 44 40 1
f 40 48 1
f 1 48 91
f 1 91 117
f 48 56 91
f 91 79 85
f 44 3 52
f 124 123 36
f 123 35 36
f 38 34 37
f 37 34 33
f 26 29 30
f 29 26 25
f 18 21 22
f 21 18 17
f 10 13 14
f 13 10 9
f 2 5 6
f 2 1 5
f 5 9 6
f 6 9 10
f 13 17 14
f 14 17 18
f 21 25 22
f 22 25 26
f 29 33 30
f 30 33 34
f 1 2 3
f 2 4 3
f 35 31 36
f 36 31 32
f 23 28 27
f 19 20 23
f 20 19 16
f 19 15 16
f 7 12 11
f 12 7 8
f 4 8 3
f 3 8 7
f 12 16 11
f 20 24 23
f 24 28 23
f 28 32 27
f 27 32 31
f 16 15 11
f 91 92 101
f 92 102 101
f 102 106 101
f 110 109 106
f 109 105 106
f 105 101 106
f 120 119 116
f 119 115 116
f 116 115 114
f 109 110 113
f 110 114 113
f 113 114 115
