# Converted from Thingi10K 238618.stl
# welded vertices: 835, faces: 1690
v -0.05 -1.79399648e-05 -0.0137500003
v -0.0498889646 -0.00334828997 0.0137500003
v -0.0498724803 0.00355077141 0.0137500003
v -0.0494415413 -0.00747005616 -0.0137500003
v -0.0494415413 0.00743417147 -0.0137500003
v -0.048955617 -0.0101839439 0.0137500003
v -0.0489064781 0.0103818835 0.0137500003
v -0.048430706 -0.0124464052 0.00637805239
v -0.0477975017 -0.0053882566 0.0137500003
v -0.0477786403 -0.0147557014 -0.0137500003
v -0.0477786403 0.014719819 -0.0137500003
v -0.0474416224 -0.00767983114 0.00573737874
v -0.0470093495 0.0170149985 0.0137500003
v -0.0462947053 -0.0189071006 0.00755294103
v -0.0456803545 -0.000949074212 0.0137500003
v -0.0454836574 -0.00320604467 0.00522683634
v -0.0450484434 -0.0217121286 -0.0137500003
v -0.0450484434 0.0216762439 -0.0137500003
v -0.044217214 0.0233238213 0.0137500003
v -0.04330127 -0.025017943 0.00875000022
v -0.0426950406 0.00294308058 0.0137500003
v -0.0426413863 0.000781692128 0.0048684789
v -0.0413119387 -0.0281839463 -0.0137500003
v -0.0413119387 0.0281480592 -0.0137500003
v -0.0405832301 0.0291882461 0.0137500003
v -0.0395058428 -0.030665755 0.0099470594
v -0.0390375815 0.00411114091 0.00467778456
v -0.0389696859 0.00612116694 0.0137500003
v -0.0368509529 0.0187320605 -0.0137500003
v -0.0368509529 0.0187320605 0.0137500003
v -0.0367018781 0.0175997248 -0.0137500003
v -0.0367018781 0.0175997248 0.0137500003
v -0.0367018781 0.0198643914 -0.0137500003
v -0.0367018781 0.0198643914 0.0137500003
v -0.0366525934 -0.0340265797 -0.0137500003
v -0.0366525934 0.0339906926 -0.0137500003
v -0.0362648139 0.0165445604 -0.0137500003
v -0.0362648139 0.0165445604 0.0137500003
v -0.0362648139 0.0209195606 -0.0137500003
v -0.0362648139 0.0209195606 0.0137500003
v -0.0361765859 0.0344966168 0.0137500003
v -0.0359392211 -0.0165305871 -0.00535138859
v -0.0355695448 0.0156384649 -0.0137500003
v -0.0355695448 0.0156384649 0.0137500003
v -0.0355695448 0.0218256513 -0.0137500003
v -0.0355695448 0.0218256513 0.0137500003
v -0.0355407998 -0.0351868425 0.0137500003
v -0.0351987705 -0.0178130859 -0.0137500003
v -0.0349787185 -0.0357459329 0.011121948
v -0.0348279092 0.00663848282 0.00466299069
v -0.0346641764 0.00844878083 0.0137500003
v -0.0346634528 0.0149431982 -0.0137500003
v -0.0346634528 0.0149431982 0.0137500003
v -0.0346634528 0.0225209181 -0.0137500003
v -0.0346634528 0.0225209181 0.0137500003
v -0.0336082861 0.014506134 -0.0137500003
v -0.0336082861 0.014506134 0.0137500003
v -0.0336082861 0.0229579822 -0.0137500003
v -0.0336082861 0.0229579822 0.0137500003
v -0.0324759528 0.0143570604 -0.0137500003
v -0.0324759528 0.0143570604 0.0137500003
v -0.0324759528 0.0231070606 -0.0137500003
v -0.0324759528 0.0231070606 0.0137500003
v -0.0315489086 -0.0145014136 0.00818021795
v -0.0313436183 0.014506134 -0.0137500003
v -0.0313436183 0.014506134 0.0137500003
v -0.0313436183 0.0229579822 -0.0137500003
v -0.0313436183 0.0229579822 0.0137500003
v -0.0313373193 -0.0161790889 0.00845505974
v -0.0313149723 -0.0128207963 0.00794420501
v -0.0311744901 -0.0391095173 -0.0137500003
v -0.0311744901 0.0390736338 -0.0137500003
v -0.031081179 0.0391478678 0.0137500003
v -0.0308953747 -0.0368808721 0.0137500003
v -0.030694625 -0.0177394933 0.00875000022
v -0.0306514546 -0.0112517683 0.00776310702
v -0.0303984889 -0.0164939993 -0.00486848605
v -0.030361373 -0.0397443449 0.0137500003
v -0.0303561994 -0.0372726499 0.0117626217
v -0.0302884527 0.0149431982 -0.0137500003
v -0.0302884527 0.0149431982 0.0137500003
v -0.0302884527 0.0225209181 -0.0137500003
v -0.0302884527 0.0225209181 0.0137500003
v -0.0301942082 0.00825454598 0.00482473385
v -0.0301869007 -0.0181716746 -0.00459364426
v -0.0301645537 -0.0148133796 -0.0051044978
v -0.0299691411 -0.0268710681 -0.00324601658
v -0.0299632998 0.00982602963 0.0137500003
v -0.0298309942 -0.00611034544 -0.00640407519
v -0.0296646233 -0.0190762848 0.0090449407
v -0.0296035715 -0.00990125339 0.00764926453
v -0.0295442053 -0.0197320766 -0.00429870259
v -0.0295010348 -0.0132443516 -0.00528559579
v -0.0293823596 0.0156384649 -0.0137500003
v -0.0293823596 0.0156384649 0.0137500003
v -0.0293823596 0.0218256513 -0.0137500003
v -0.0293823596 0.0218256513 0.0137500003
v -0.0291833516 -0.00723209534 -0.0137500003
v -0.0290430732 -0.0284750649 -0.0137500003
v -0.0286870905 0.0165445604 -0.0137500003
v -0.0286870905 0.0165445604 0.0137500003
v -0.0286870905 0.0209195606 -0.0137500003
v -0.0286870905 0.0209195606 0.0137500003
v -0.0285142036 -0.0210688681 -0.00400376091
v -0.0284531518 -0.0118938391 -0.00539943947
v -0.0283175083 -0.0200983638 0.00931978249
v -0.0282500263 0.0175997248 -0.0137500003
v -0.0282500263 0.0175997248 0.0137500003
v -0.0282500263 0.0198643914 -0.0137500003
v -0.0282500263 0.0198643914 0.0137500003
v -0.0282427331 -0.00886129536 0.00761043329
v -0.0281009527 0.0187320605 -0.0137500003
v -0.0281009527 0.0187320605 0.0137500003
v -0.0271670885 -0.0220909471 -0.00372892031
v -0.0270923133 -0.0108538787 -0.00543826951
v -0.0267450829 -0.0207360787 0.00955579543
v -0.0266616817 -0.00820275462 0.00764926453
v -0.0260157294 -0.0375772094 0.0137500003
v -0.0255946631 -0.022728662 -0.00349290737
v -0.0255112619 -0.0101953379 -0.00539943947
v -0.0255028076 -0.0378138935 0.0122731641
v -0.0253940196 0.0430534408 0.0137500003
v -0.0253366322 0.00888952619 0.00515603078
v -0.0250688095 0.0101937951 0.0137500003
v -0.0250545044 -0.0209459681 0.00973689342
v -0.0249999995 -0.0433192134 -0.0137500003
v -0.0249999995 0.0432833335 -0.0137500003
v -0.0249681611 -0.00797051585 0.00776310702
v -0.024603898 -0.0435454995 0.0137500003
v -0.0239040846 -0.0229385538 -0.00331180938
v -0.0238177437 -0.00996310394 -0.00528559579
v -0.0233609838 -0.0207137317 0.00985073591
v -0.023277585 -0.00818040526 0.00794420501
v -0.0231785864 0.0268156999 0.0128370098
v -0.0230946821 0.0317250485 0.0128222159
v -0.0230500526 0.0272241395 0.0137500003
v -0.0228784365 0.032121901 0.0137500003
v -0.0222612876 0.0219947664 0.0126752666
v -0.022210564 -0.0227063151 -0.00319796689
v -0.0221918959 0.0223968832 0.0137500003
v -0.0221271652 -0.010172991 -0.0051044978
v -0.0220131987 0.0365107675 0.0126315215
v -0.0217799324 -0.0200551934 0.00988956715
v -0.0217051572 -0.00881812253 0.00818021795
v -0.0216844291 0.0368794199 0.0137500003
v -0.0211118334 -0.0372458898 0.0137500003
v -0.0206295126 -0.0220477767 -0.00315913685
v -0.020628187 -0.0373462855 0.0126315215
v -0.0205547398 -0.0108107059 -0.00486848605
v -0.0204650038 0.00851599103 0.00564257159
v -0.0204190963 -0.0190152306 0.00985073591
v -0.0203824061 0.0174704924 0.0123439697
v -0.0203580421 -0.00984019916 0.00845505974
v -0.0203408903 0.017847847 0.0137500003
v -0.0201907748 0.00953629859 0.0137500003
v -0.0199808472 0.0409661147 0.0122731641
v -0.0195194119 0.0412919757 0.0137500003
v -0.0193712133 -0.017664718 0.00973689342
v -0.0193280404 -0.0111769931 0.00875000022
v -0.0192686766 -0.0210078163 -0.00319796689
v -0.0192233866 0.0461389778 0.0137500003
v -0.0192076247 -0.0118327849 -0.00459364426
v -0.0187076943 -0.0160956901 0.00955579543
v -0.0186853474 -0.012737395 0.0090449407
v -0.018473758 -0.0144150727 0.00931978249
v -0.0183779924 -0.0465179367 0.0137500003
v -0.0182670515 -0.0465616308 -0.0137500003
v -0.0182670515 0.04652575 -0.0137500003
v -0.0182207935 -0.0196573037 -0.00331180938
v -0.0181776231 -0.0131695764 -0.00429870259
v -0.0178908341 -0.0267913099 -0.00219333058
v -0.0177526872 -0.00603058488 -0.00535138859
v -0.0176231044 0.0134383048 0.0118574288
v -0.0175766866 0.0137727727 0.0137500003
v -0.0175572746 -0.0180882734 -0.00349290737
v -0.0175349276 -0.0147299808 -0.00400376091
v -0.0174999993 -1.79399648e-05 -0.0137500003
v -0.0173620074 -0.00221127174 -0.0112500003
v -0.0173620074 0.00217538704 -0.0112500003
v -0.0173233383 -0.016407656 -0.00372892031
v -0.0172774928 -0.00220059535 -0.0106029525
v -0.0172774928 0.00216471066 -0.0106029525
v -0.0170854228 0.044898648 0.0117626217
v -0.0170297115 -0.00216929576 -0.0100000003
v -0.0170297115 0.00213341106 -0.0100000003
v -0.0170122354 -0.00731308614 -0.0137500003
v -0.0169502037 -0.00437001374 -0.0137500003
v -0.0169502037 0.00433412905 -0.0137500003
v -0.0168719571 -0.0285560557 -0.0137500003
v -0.0166355484 -0.00211949966 -0.00948223317
v -0.0166355484 0.00208361496 -0.00948223317
v -0.0164765446 0.0451697014 0.0137500003
v -0.0163947003 -0.0359011708 0.0137500003
v -0.0162787502 0.0288626569 -0.0137500003
v -0.0162710874 -0.00646011981 -0.0112500003
v -0.0162710874 0.00642423988 -0.0112500003
v -0.0161918847 -0.00642876299 -0.0106029525
v -0.0161918847 0.0063928783 -0.0106029525
v -0.0161218636 -0.00205460689 -0.00908493661
v -0.0161218636 0.00201872219 -0.00908493661
v -0.0159596722 -0.00633682402 -0.0100000003
v -0.0159596722 0.00630093932 -0.0100000003
v -0.0159428971 -0.0358900224 0.0128222159
v -0.015789756 0.00715008142 0.00626333729
v -0.0155902736 -0.00619056852 -0.00948223317
v -0.0155902736 0.00615468382 -0.00948223317
v -0.0155385487 0.00788175944 0.0137500003
v -0.0155236642 -0.00197903773 -0.00883518539
v -0.0155236642 0.00194315303 -0.00883518539
v -0.015335366 -0.00844863094 -0.0137500003
v -0.015335366 0.00841274624 -0.0137500003
v -0.0151088659 -0.00599996717 -0.00908493661
v -0.0151088659 0.00596408247 -0.00908493661
v -0.0149999992 -1.79399648e-05 -0.00875000022
v -0.0145482556 -0.00577800423 -0.00883518539
v -0.0145482556 0.00574211954 -0.00883518539
v -0.014488887 -0.00390022899 -0.00875000022
v -0.014488887 0.0038643443 -0.00875000022
v -0.0142409961 0.0288626569 -0.00219333058
v -0.0141577975 -0.0103041856 -0.0112500003
v -0.0141577975 0.0102683009 -0.0112500003
v -0.0141025678 0.010072378 0.0112366631
v -0.0140888802 -0.0102541129 -0.0106029525
v -0.0140888802 0.0102182282 -0.0106029525
v -0.0140182273 0.0103470172 0.0137500003
v -0.0138868276 -0.0101073138 -0.0100000003
v -0.0138868276 0.0100714291 -0.0100000003
v -0.0135654084 -0.00987378757 -0.00948223317
v -0.0135654084 0.00983790287 -0.00948223317
v -0.0134519879 0.0481385086 0.011121948
v -0.013146526 -0.00956945101 -0.00908493661
v -0.013146526 0.00953356632 -0.00908493661
v -0.0129903809 -0.00751794015 -0.00875000022
v -0.0129903809 0.00748206022 -0.00875000022
v -0.01275695 -0.0119975178 -0.0137500003
v -0.01275695 0.0119616307 -0.0137500003
v -0.0126867596 0.0483457421 0.0137500003
v -0.0126587264 -0.00921504656 -0.00883518539
v -0.0126587264 0.00917916186 -0.00883518539
v -0.0124999992 -1.79399648e-05 -0.00825000009
v -0.0124761716 -0.000789395749 0.00776786108
v -0.0123215691 0.00208656181 0.00734232206
v -0.0120740715 -0.00325318003 -0.00825000009
v -0.0120740715 0.00321729533 -0.00825000009
v -0.0120673052 -0.0336009143 0.0137500003
v -0.0119684354 -0.00362439777 0.00824553987
v -0.0118021885 -0.0486050645 0.0137500003
v -0.0117826072 -0.0163710683 -0.00324601658
v -0.0116493217 -0.0335080097 0.0128370098
v -0.0115128342 0.00485079642 0.00699151533
v -0.011311802 0.0053011882 0.0137500003
v -0.0111549178 -0.0135019248 -0.0112500003
v -0.0111549178 0.0134660377 -0.0112500003
v -0.0111260453 -0.0487643391 -0.0137500003
v -0.0111260453 0.0487284516 -0.0137500003
v -0.0111006204 -0.0134362881 -0.0106029525
v -0.0111006204 0.0134004011 -0.0106029525
v -0.0109414211 -0.013243851 -0.0100000003
v -0.0109414211 0.0132079686 -0.0100000003
v -0.010875775 0.00614383101 0.0137500003
v -0.0108565393 -0.0179750651 -0.0137500003
v -0.010825316 -0.00626794012 -0.00825000009
v -0.010825316 -0.00626794012 0.00875000022
v -0.010825316 0.00623206019 -0.00825000009
v -0.0106881753 -0.0129377286 -0.00948223317
v -0.0106881753 0.012901844 -0.00948223317
v -0.0106066004 -0.0106245439 -0.00875000022
v -0.0106066004 0.0105886592 -0.00875000022
v -0.0103770939 0.00695098282 0.0137500003
v -0.0103581396 -0.0125387828 -0.00908493661
v -0.0103581396 0.0125028981 -0.00908493661
v -0.0101230517 0.0183626595 -0.0137500003
v -0.0101230517 0.0393626639 -0.0137500003
v -0.00999999673 -1.79399648e-05 -0.00825000009
v -0.00999999673 -1.79399648e-05 -0.00625000016
v -0.00997380407 -0.0120742004 -0.00883518539
v -0.00997380407 0.0120383157 -0.00883518539
v -0.0099728647 0.00751809958 0.0105084851
v -0.00981863171 0.00771798018 0.0137500003
v -0.00965925843 -0.00260613106 -0.00825000009
v -0.00965925843 -0.00260613106 -0.00625000016
v -0.00965925843 0.00257024636 -0.00825000009
v -0.00965925843 0.00257024636 -0.00625000016
v -0.00937696605 -0.0147936814 -0.0137500003
v -0.00937696605 0.0147577991 -0.0137500003
v -0.0091075006 -0.00857968487 0.00925446057
v -0.00883883147 -0.00885677495 -0.00825000009
v -0.00883883147 0.00882089502 -0.00825000009
v -0.00876363901 0.0288626569 -0.00315913685
v -0.00866025118 -0.00501794009 -0.00825000009
v -0.00866025118 -0.00501794009 -0.00625000016
v -0.00866025118 0.00498206016 -0.00825000009
v -0.00866025118 0.00498206016 -0.00625000016
v -0.0085434213 0.0271641581 -0.00319796689
v -0.0085434213 0.0305611557 -0.00319796689
v -0.00831585553 -0.0304440996 0.0137500003
v -0.0082709184 0.0183626595 -0.00324601658
v -0.0082709184 0.0393626639 -0.00324601658
v -0.0079833379 0.00960060009 0.0101576784
v -0.00793291714 -0.0303031382 0.0126752666
v -0.00789778854 0.0255814068 -0.00331180938
v -0.00789778854 0.0321439118 -0.00331180938
v -0.00749999667 -0.0130083244 -0.00875000022
v -0.00749999667 0.0129724397 -0.00875000022
v -0.00745113516 -0.0158524149 -0.0112500003
v -0.00745113516 0.0158165302 -0.0112500003
v -0.00741486693 -0.015775339 -0.0106029525
v -0.00741486693 0.0157394543 -0.0106029525
v -0.00730852747 -0.0155493563 -0.0100000003
v -0.00730852747 0.0155134716 -0.0100000003
v -0.00713936472 -0.0151898711 -0.00948223317
v -0.00713936472 0.0151539888 -0.00948223317
v -0.00707106733 -0.00708901081 -0.00825000009
v -0.00707106733 -0.00708901081 -0.00625000016
v -0.00707106733 0.00705312611 -0.00825000009
v -0.00707106733 0.00705312611 -0.00625000016
v -0.00691891336 -0.0147213834 -0.00908493661
v -0.00691891336 0.0146854963 -0.00908493661
v -0.0069061818 -0.0104368965 0.00973213935
v -0.00687072896 0.0242222683 -0.00349290737
v -0.00687072896 0.0335030503 -0.00349290737
v -0.00678886079 0.0495190286 0.0099470594
v -0.00666218899 -0.0141758149 -0.00883518539
v -0.00666218899 0.0141399278 -0.00883518539
v -0.00646279953 0.0288626569 0.00988956715
v -0.00624999664 -0.0108432595 -0.00825000009
v -0.00624999664 0.0108073748 -0.00825000009
v -0.00624258659 0.0271641581 0.00985073591
v -0.00624258659 0.0305611557 0.00985073591
v -0.00559694906 0.0255814068 0.00973689342
v -0.00559694906 0.0321439118 0.00973689342
v -0.00556998392 0.0111724652 0.00973213935
v -0.00553223749 0.0231793682 -0.00372892031
v -0.00553223749 0.0345459504 -0.00372892031
v -0.00540779729 -0.0166614312 -0.0137500003
v -0.00540779729 0.0166255465 -0.0137500003
v -0.00530177731 -0.0265665647 0.0137500003
v -0.00500168461 -0.0497671459 0.0137500003
v -0.00499999661 -0.00867819466 -0.00825000009
v -0.00499999661 -0.00867819466 -0.00625000016
v -0.00499999661 0.00864230996 -0.00825000009
v -0.00499999661 0.00864230996 -0.00625000016
v -0.00495422501 -0.0264138433 0.0123439697
v -0.00456988948 0.0242222683 0.00955579543
v -0.00456988948 0.0335030503 0.00955579543
v -0.00437499659 -0.0375179433 -0.0137500003
v -0.00437499659 -0.0375179433 0.0137500003
v -0.00433823245 -0.0117409866 0.0101576784
v -0.00422592299 -0.0386502766 -0.0137500003
v -0.00422592299 -0.0386502766 0.0137500003
v -0.00422592299 -0.03638561 -0.0137500003
v -0.00422592299 -0.03638561 0.0137500003
v -0.00397353307 0.0225237695 -0.00400376091
v -0.00397353307 0.0352015443 -0.00400376091
v -0.00388228551 -0.0145068305 -0.00875000022
v -0.00388228551 0.0144709434 -0.00875000022
v -0.0037888588 -0.0397054433 -0.0137500003
v -0.0037888588 -0.0397054433 0.0137500003
v -0.0037888588 -0.0353304432 -0.0137500003
v -0.0037888588 -0.0353304432 0.0137500003
v -0.00373650208 -0.0498781333 -0.0137500003
v -0.00373650208 0.0498422479 -0.0137500003
v -0.00327917232 -0.01720797 -0.0112500003
v -0.00327917232 0.0171720829 -0.0112500003
v -0.00326320781 -0.0171242922 -0.0106029525
v -0.00326320781 0.0170884075 -0.0106029525
v -0.00323523655 -0.012092015 -0.00825000009
v -0.00323523655 0.0120561303 -0.00825000009
v -0.00323139801 0.0231793682 0.00931978249
v -0.00323139801 0.0345459504 0.00931978249
v -0.00321641101 -0.0168789667 -0.0100000003
v -0.00321641101 0.0168430796 -0.0100000003
v -0.0031547655 -0.0221351595 0.0137500003
v -0.00314196719 -0.0164887064 -0.00948223317
v -0.00314196719 0.0164528217 -0.00948223317
v -0.00309359206 -0.0406115353 -0.0137500003
v -0.00309359206 -0.0406115353 0.0137500003
v -0.00309359206 -0.0344243513 -0.0137500003
v -0.00309359206 -0.0344243513 0.0137500003
v -0.00304494514 -0.0159801095 -0.00908493661
v -0.00304494514 0.0159442272 -0.00908493661
v -0.00293196334 -0.0153878372 -0.00883518539
v -0.00293196334 0.0153519525 -0.00883518539
v -0.00286093367 0.012150258 0.00925446057
v -0.00284189833 -0.0220081229 0.0118574288
v -0.00258818758 -0.00967720191 -0.00825000009
v -0.00258818758 -0.00967720191 -0.00625000016
v -0.00258818758 0.00964131721 -0.00825000009
v -0.00258818758 0.00964131721 -0.00625000016
v -0.00230083596 0.0223001568 -0.00429870259
v -0.00230083596 0.0354251619 -0.00429870259
v -0.00218749654 -0.0413068044 -0.0137500003
v -0.00218749654 -0.0413068044 0.0137500003
v -0.00218749654 -0.0337290822 -0.0137500003
v -0.00218749654 -0.0337290822 0.0137500003
v -0.00196720253 -0.0173405617 0.0137500003
v -0.00179019104 -0.012389087 0.0137500003
v -0.00168718467 -0.0172762841 0.0112366631
v -0.00167269359 0.0225237695 0.0090449407
v -0.00167269359 0.0352015443 0.0090449407
v -0.00153996596 -0.0124227207 0.0105084851
v -0.00113233217 -0.0417438686 -0.0137500003
v -0.00113233217 -0.0417438686 0.0137500003
v -0.00113233217 -0.033292018 -0.0137500003
v -0.00113233217 -0.033292018 0.0137500003
v -0.00109883436 -0.0174834102 -0.0137500003
v -0.00109883436 0.0174475279 -0.0137500003
v -0.000846716245 -0.0124892323 0.0137500003
v -0.000628138854 0.0225237695 -0.00459364426
v -0.000628138854 0.0352015443 -0.00459364426
v 3.51837153e-09 -0.0418929434 -0.0137500003
v 3.51837153e-09 -0.0418929434 0.0137500003
v 3.51837153e-09 -0.0331429432 -0.0137500003
v 3.51837153e-09 -0.0331429432 0.0137500003
v 3.51837153e-09 -0.0150179427 -0.00875000022
v 3.51837153e-09 -0.0125179427 -0.00825000009
v 3.51837153e-09 -0.0100179402 -0.00825000009
v 3.51837153e-09 -0.0100179402 -0.00625000016
v 3.51837153e-09 0.00998206029 -0.00825000009
v 3.51837153e-09 0.00998206029 -0.00625000016
v 3.51837153e-09 0.0124820603 -0.00825000009
v 3.51837153e-09 0.0124820603 0.00875000022
v 3.51837153e-09 0.0149820604 -0.00875000022
v 3.51837153e-09 0.0223001568 0.00875000022
v 3.51837153e-09 0.0354251619 0.00875000022
v 3.51837153e-09 0.0499820565 0.00875000022
v 0.000101636593 -0.0125175302 0.0137500003
v 0.00092793342 -0.0174245709 0.0137500003
v 0.000930565561 0.0231793682 -0.00486848605
v 0.000930565561 0.0345459504 -0.00486848605
v 0.00098248836 -0.0156341141 -0.00883518539
v 0.00098248836 0.0155982294 -0.00883518539
v 0.00102034923 -0.0162358778 -0.00908493661
v 0.00102034923 0.0161999931 -0.00908493661
v 0.00104940292 -0.0124738161 0.0137500003
v 0.00105285999 -0.0167526215 -0.00948223317
v 0.00105285999 0.0167167368 -0.00948223317
v 0.00107780334 -0.0171491355 -0.0100000003
v 0.00107780334 0.0171132508 -0.0100000003
v 0.00109348652 -0.0173983926 -0.0106029525
v 0.00109348652 0.0173625079 -0.0106029525
v 0.00109883663 -0.0174834102 -0.0112500003
v 0.00109883663 0.0174475279 -0.0112500003
v 0.00113233444 -0.0417438686 -0.0137500003
v 0.00113233444 -0.0417438686 0.0137500003
v 0.00113233444 -0.033292018 -0.0137500003
v 0.00113233444 -0.033292018 0.0137500003
v 0.00153996823 -0.0124227207 0.00699151533
v 0.00167269586 0.0225237695 0.00845505974
v 0.00167269586 0.0352015443 0.00845505974
v 0.00168719171 -0.0172762841 0.00626333729
v 0.00182117342 -0.0222807879 0.0137500003
v 0.00189404844 -0.0499820565 0.0137500003
v 0.00218750357 -0.0413068044 -0.0137500003
v 0.00218750357 -0.0413068044 0.0137500003
v 0.00218750357 -0.0337290822 -0.0137500003
v 0.00218750357 -0.0337290822 0.0137500003
v 0.00218834281 0.0183626595 -0.0137500003
v 0.00218834281 0.0393626639 -0.0137500003
v 0.00226905227 0.0242222683 -0.0051044978
v 0.00226905227 0.0335030503 -0.0051044978
v 0.00258818985 -0.00967720191 -0.00825000009
v 0.00258818985 -0.00967720191 -0.00625000016
v 0.00258818985 0.00964131721 -0.00825000009
v 0.00258818985 0.00964131721 -0.00625000016
v 0.0028419006 -0.0220081229 0.00564257159
v 0.00286093594 0.012150258 0.00824553987
v 0.00309359433 -0.0406115353 -0.0137500003
v 0.00309359433 -0.0406115353 0.0137500003
v 0.00309359433 -0.0344243513 -0.0137500003
v 0.00309359433 -0.0344243513 0.0137500003
v 0.00323140027 0.0231793682 0.00818021795
v 0.00323140027 0.0345459504 0.00818021795
v 0.00323523881 -0.012092015 -0.00825000009
v 0.00323523881 0.0120561303 -0.00825000009
v 0.00327917459 -0.01720797 -0.0137500003
v 0.00327917459 0.0171720829 -0.0137500003
v 0.00329611185 0.0255814068 -0.00528559579
v 0.00329611185 0.0321439118 -0.00528559579
v 0.0036692417 0.0183626595 -0.00535138859
v 0.0036692417 0.0393626639 -0.00535138859
v 0.0036907852 -0.0268340393 0.0137500003
v 0.00373650435 -0.0498781333 -0.0137500003
v 0.00373650435 0.0498422479 -0.0137500003
v 0.00378886107 -0.0397054433 -0.0137500003
v 0.00378886107 -0.0397054433 0.0137500003
v 0.00378886107 -0.0353304432 -0.0137500003
v 0.00378886107 -0.0353304432 0.0137500003
v 0.00388228778 -0.0145068305 -0.00875000022
v 0.00388228778 0.0144709434 -0.00875000022
v 0.00394174937 0.0271641581 -0.00539943947
v 0.00394174937 0.0305611557 -0.00539943947
v 0.00416196232 0.0288626569 -0.00543826951
v 0.00422592525 -0.0386502766 -0.0137500003
v 0.00422592525 -0.0386502766 0.0137500003
v 0.00422592525 -0.03638561 -0.0137500003
v 0.00422592525 -0.03638561 0.0137500003
v 0.00433823471 -0.0117409866 0.00734232206
v 0.00437500363 -0.0375179433 -0.0137500003
v 0.00437500363 -0.0375179433 0.0137500003
v 0.00456989175 0.0242222683 0.00794420501
v 0.00456989175 0.0335030503 0.00794420501
v 0.00483520395 -0.0148991697 -0.00883518539
v 0.00483520395 0.014863285 -0.00883518539
v 0.00495422728 -0.0264138433 0.00515603078
v 0.00500000364 -0.00867819466 -0.00825000009
v 0.00500000364 -0.00867819466 -0.00625000016
v 0.00500000364 0.00864230996 -0.00825000009
v 0.00500000364 0.00864230996 -0.00625000016
v 0.00502152807 -0.0154726117 -0.00908493661
v 0.00502152807 0.0154367247 -0.00908493661
v 0.00518152602 -0.0159650367 -0.00948223317
v 0.00518152602 0.0159291544 -0.00948223317
v 0.00530429728 -0.0163428873 -0.0100000003
v 0.00530429728 0.0163070049 -0.0100000003
v 0.00538147338 -0.0165804165 -0.0106029525
v 0.00538147338 0.0165445318 -0.0106029525
v 0.00540779956 -0.0166614312 -0.0112500003
v 0.00540779956 0.0166255465 -0.0112500003
v 0.00556998619 0.0111724652 0.00776786108
v 0.00559695133 0.0255814068 0.00776310702
v 0.00559695133 0.0321439118 0.00776310702
v 0.00624258886 0.0271641581 0.00764926453
v 0.00624258886 0.0305611557 0.00764926453
v 0.00625000367 -0.0108432595 -0.00825000009
v 0.00625000367 0.0108073748 -0.00825000009
v 0.00645652185 -0.0308889065 0.0137500003
v 0.0064628018 0.0288626569 0.00761043329
v 0.00678886306 0.0495190286 0.00755294103
v 0.00690618884 -0.0104368965 0.00776786108
v 0.0070710696 -0.00708901081 -0.00825000009
v 0.0070710696 -0.00708901081 -0.00625000016
v 0.0070710696 0.00705312611 -0.00825000009
v 0.0070710696 0.00705312611 -0.00625000016
v 0.00745113743 -0.0158524149 -0.0137500003
v 0.00745113743 0.0158165302 -0.0137500003
v 0.00750000371 -0.0130083244 -0.00875000022
v 0.00750000371 0.0129724397 -0.00875000022
v 0.0079329194 -0.0303031382 0.00482473385
v 0.00798334017 0.00960060009 0.00734232206
v 0.00834403888 0.0288626569 -0.0137500003
v 0.0083841075 -0.0132291811 -0.00883518539
v 0.0083841075 0.0131932964 -0.00883518539
v 0.00866025344 -0.00501794009 -0.00825000009
v 0.00866025344 -0.00501794009 -0.00625000016
v 0.00866025344 0.00498206016 -0.00825000009
v 0.00866025344 0.00498206016 -0.00625000016
v 0.00870718853 -0.0137382715 -0.00908493661
v 0.00870718853 0.0137023868 -0.00908493661
v 0.0087537183 -0.0492457045 0.0137500003
v 0.0088388385 -0.00885677495 -0.00825000009
v 0.0088388385 0.00882089502 -0.00825000009
v 0.00898462193 -0.0141754358 -0.00948223317
v 0.00898462193 0.0141395511 -0.00948223317
v 0.00910750287 -0.00857968487 0.00824553987
v 0.00919750112 -0.014510886 -0.0100000003
v 0.00919750112 0.0144750013 -0.0100000003
v 0.00933132547 -0.0147217577 -0.0106029525
v 0.00933132547 0.014685873 -0.0106029525
v 0.00937696832 -0.0147936814 -0.0112500003
v 0.00937696832 0.0147577991 -0.0112500003
v 0.00963932413 0.0288626569 -0.00640407519
v 0.00965926069 -0.00260613106 -0.00825000009
v 0.00965926069 -0.00260613106 -0.00625000016
v 0.00965926069 0.00257024636 -0.00825000009
v 0.00965926069 0.00257024636 -0.00625000016
v 0.00997287173 0.00751809958 0.00699151533
v 0.00999969382 -0.0342713628 0.0137500003
v 0.0100000038 -1.79399648e-05 -0.00825000009
v 0.0100000038 -1.79399648e-05 -0.00625000016
v 0.0102624025 0.0071188009 0.0137500003
v 0.0106066026 -0.0106245439 -0.00875000022
v 0.0106066026 0.0105886592 -0.00875000022
v 0.0107741441 0.00631986976 0.0137500003
v 0.0108253183 -0.00626794012 -0.00825000009
v 0.0108253183 -0.00626794012 0.00875000022
v 0.0108253183 0.00623206019 -0.00825000009
v 0.01112605 -0.0487643391 -0.0137500003
v 0.01112605 0.0487284516 -0.0137500003
v 0.0111549225 -0.0135019248 -0.0137500003
v 0.0111549225 0.0134660377 -0.0137500003
v 0.0112238159 0.00548442242 0.0137500003
v 0.0114062061 -0.0107290832 -0.00883518539
v 0.0114062061 0.0106932009 -0.00883518539
v 0.0115128364 0.00485079642 0.0105084851
v 0.0116088238 0.00461727973 0.0137500003
v 0.0116493216 -0.0335080097 0.00466299069
v 0.0118457403 -0.0111418335 -0.00908493661
v 0.0118457403 0.0111059464 -0.00908493661
v 0.0119684401 -0.00362439777 0.00925446057
v 0.0120740738 -0.00325318003 -0.00825000009
v 0.0120740738 0.00321729533 -0.00825000009
v 0.012223176 -0.011496269 -0.00948223317
v 0.012223176 0.0114603843 -0.00948223317
v 0.0123215714 0.00208656181 0.0101576784
v 0.0124761715 -0.000789395749 0.00973213935
v 0.0125000038 -1.79399648e-05 -0.00825000009
v 0.0125127926 -0.0117682378 -0.0100000003
v 0.0125127926 0.0117323531 -0.0100000003
v 0.0126948538 -0.011939203 -0.0106029525
v 0.0126948538 0.0119033183 -0.0106029525
v 0.0127569523 -0.0119975178 -0.0112500003
v 0.0127569523 0.0119616307 -0.0112500003
v 0.0129903832 -0.00751794015 -0.00875000022
v 0.0129903832 0.00748206022 -0.00875000022
v 0.0134519902 0.0481385086 0.00637805239
v 0.0137116137 -0.00755596315 -0.00883518539
v 0.0137116137 0.00752007845 -0.00883518539
v 0.0140834466 -0.0123858993 -0.00535138859
v 0.0141025677 0.010072378 0.00626333729
v 0.0141577998 -0.0103041856 -0.0137500003
v 0.0141577998 0.0102683009 -0.0137500003
v 0.0141682187 -0.0368362354 0.0137500003
v 0.0142399874 -0.00784643805 -0.00908493661
v 0.0142399874 0.00781055335 -0.00908493661
v 0.0144888869 -0.00390022899 -0.00875000022
v 0.0144888869 0.0038643443 -0.00875000022
v 0.0146106187 0.00948898681 0.0137500003
v 0.0146937075 -0.00809587634 -0.00948223317
v 0.0146937075 0.00805999164 -0.00948223317
v 0.0148238984 -0.0111034004 -0.0137500003
v 0.0150000039 -1.79399648e-05 -0.00875000022
v 0.0150418607 -0.00828727401 -0.0100000003
v 0.0150418607 0.00825138931 -0.0100000003
v 0.0151554671 -0.00390920307 -0.00883518539
v 0.0151554671 0.00387331837 -0.00883518539
v 0.0152607194 -0.00840759433 -0.0106029525
v 0.0152607194 0.00837170964 -0.0106029525
v 0.0153353682 -0.00844863094 -0.0112500003
v 0.0153353682 0.00841274624 -0.0112500003
v 0.0154467288 -0.0475721093 0.0137500003
v 0.0156470481 -1.79399648e-05 -0.00883518539
v 0.0156737939 0.0474618672 0.0137500003
v 0.0157394782 -0.00405915406 -0.00908493661
v 0.0157394782 0.00402326936 -0.00908493661
v 0.0157897559 0.00715008142 0.0112366631
v 0.0159429017 -0.0358900224 0.00467778456
v 0.0159854308 0.00693971993 0.0137500003
v 0.0162409774 -0.0041879144 -0.00948223317
v 0.0162409774 0.0041520297 -0.00948223317
v 0.0162500039 -1.79399648e-05 -0.00908493661
v 0.0162710897 -0.00646011981 -0.0137500003
v 0.0162710897 0.00642423988 -0.0137500003
v 0.0166257945 -0.00428671983 -0.0100000003
v 0.0166257945 0.00425083513 -0.0100000003
v 0.016767768 -1.79399648e-05 -0.00948223317
v 0.0168676988 -0.00434883264 -0.0106029525
v 0.0168676988 0.00431294794 -0.0106029525
v 0.0169502059 -0.00437001374 -0.0112500003
v 0.0169502059 0.00433412905 -0.0112500003
v 0.0170854226 0.044898648 0.00573737874
v 0.017165064 -1.79399648e-05 -0.0100000003
v 0.0173620073 -0.00221127174 -0.0137500003
v 0.0173620073 0.00217538704 -0.0137500003
v 0.017414817 -1.79399648e-05 -0.0106029525
v 0.017500004 -1.79399648e-05 -0.0112500003
v 0.017623109 0.0134383048 0.00564257159
v 0.0182670538 -0.0465616308 -0.0137500003
v 0.0182670538 0.04652575 -0.0137500003
v 0.0183696024 0.0126906623 0.0137500003
v 0.0184737579 -0.0144150727 0.00818021795
v 0.0186853496 -0.012737395 0.00845505974
v 0.0187076942 -0.0160956901 0.00794420501
v 0.0187832014 -0.0384734451 0.0137500003
v 0.0192479221 0.0440610645 0.0137500003
v 0.0193280451 -0.0111769931 0.00875000022
v 0.0193712131 -0.017664718 0.00776310702
v 0.01962418 -0.012422487 -0.00486848605
v 0.019835767 -0.0107448117 -0.00459364426
v 0.0198581164 -0.0141031044 -0.0051044978
v 0.0199808495 0.0409661147 0.00522683634
v 0.020053529 -0.00204541823 -0.00324601658
v 0.0201916735 -0.0228061409 -0.00640407519
v 0.0203580467 -0.00984019916 0.0090449407
v 0.0203824084 0.0174704924 0.00515603078
v 0.0204190962 -0.0190152306 0.00764926453
v 0.0204650061 0.00851599103 0.0118574288
v 0.0204784624 -0.00918440977 -0.00429870259
v 0.0205216353 -0.0156721347 -0.00528559579
v 0.0206281893 -0.0373462855 0.0048684789
v 0.0207314579 0.00830855732 0.0137500003
v 0.0208393185 -0.021684391 -0.0137500003
v 0.0209795945 -0.000441419056 -0.0137500003
v 0.0213780301 0.0165864172 0.0137500003
v 0.0215084641 -0.00784761583 -0.00400376091
v 0.0215695183 -0.0170226472 -0.00539943947
v 0.0217051594 -0.00881812253 0.00931978249
v 0.021779937 -0.0200551934 0.00761043329
v 0.0218456452 -0.0449931342 0.0137500003
v 0.022013201 0.0365107675 0.0048684789
v 0.0220337956 0.0400079771 0.0137500003
v 0.0220603173 0.0448523471 0.0137500003
v 0.0222612899 0.0219947664 0.00482473385
v 0.0228555816 -0.0068255392 -0.00372892031
v 0.0229303544 -0.0180626077 -0.00543826951
v 0.0230946868 0.0317250485 0.00467778456
v 0.0231785911 0.0268156999 0.00466299069
v 0.0232775872 -0.00818040526 0.00955579543
v 0.023360986 -0.0207137317 0.00764926453
v 0.023506779 0.0210090534 0.0137500003
v 0.0236465638 -0.0391127252 0.0137500003
v 0.0239118426 0.0354765363 0.0137500003
v 0.0244280046 -0.00618782194 -0.00349290737
v 0.0245114082 -0.018721146 -0.00539943947
v 0.0246644872 0.0257687562 0.0137500003
v 0.0248014682 0.0306612438 0.0137500003
v 0.0249681657 -0.00797051585 0.00973689342
v 0.0250000041 -0.0433192134 -0.0137500003
v 0.0250000041 0.0432833335 -0.0137500003
v 0.0250545066 -0.0209459681 0.00776310702
v 0.0253366321 0.00888952619 0.0123439697
v 0.0255028099 -0.0378138935 0.00522683634
v 0.025642671 0.00866489297 0.0137500003
v 0.0261185831 -0.00597793252 -0.00331180938
v 0.026204924 -0.0189533848 -0.00528559579
v 0.0266616863 -0.00820275462 0.00985073591
v 0.0267450851 -0.0207360787 0.00794420501
v 0.0278121037 -0.0062101713 -0.00319796689
v 0.0278286499 -0.04155788 0.0137500003
v 0.0278955025 -0.018743493 -0.0051044978
v 0.0280268378 0.0413885352 0.0137500003
v 0.0281009526 0.0187320605 -0.0137500003
v 0.0281009526 0.0187320605 0.0137500003
v 0.0282427353 -0.00886129536 0.00988956715
v 0.0282500309 0.0175997248 -0.0137500003
v 0.0282500309 0.0175997248 0.0137500003
v 0.0282500309 0.0198643914 -0.0137500003
v 0.0282500309 0.0198643914 0.0137500003
v 0.0283175082 -0.0200983638 0.00818021795
v 0.02854958 -0.0387266361 0.0137500003
v 0.0286870951 0.0165445604 -0.0137500003
v 0.0286870951 0.0165445604 0.0137500003
v 0.0286870951 0.0209195606 -0.0137500003
v 0.0286870951 0.0209195606 0.0137500003
v 0.0293823619 0.0156384649 -0.0137500003
v 0.0293823619 0.0156384649 0.0137500003
v 0.0293823619 0.0218256513 -0.0137500003
v 0.0293823619 0.0218256513 0.0137500003
v 0.0293931574 -0.00686870727 -0.00315913685
v 0.0294679303 -0.0181057781 -0.00486848605
v 0.0296035714 -0.00990125339 0.00985073591
v 0.0296646256 -0.0190762848 0.00845505974
v 0.0301942057 0.00825454598 0.0126752666
v 0.0302884574 0.0149431982 -0.0137500003
v 0.0302884574 0.0149431982 0.0137500003
v 0.0302884574 0.0225209181 -0.0137500003
v 0.0302884574 0.0225209181 0.0137500003
v 0.0303562064 -0.0372726499 0.00573737874
v 0.0305077548 0.00799339179 0.0137500003
v 0.0306514544 -0.0112517683 0.00973689342
v 0.0306946273 -0.0177394933 0.00875000022
v 0.0307539935 -0.00790867007 -0.00319796689
v 0.0308150477 -0.0170836991 -0.00459364426
v 0.0311744876 -0.0391095173 -0.0137500003
v 0.0311744876 0.0390736338 -0.0137500003
v 0.0313149734 -0.0128207963 0.00955579543
v 0.031337318 -0.0161790889 0.0090449407
v 0.0313436217 0.014506134 -0.0137500003
v 0.0313436217 0.014506134 0.0137500003
v 0.0313436217 0.0229579822 -0.0137500003
v 0.0313436217 0.0229579822 0.0137500003
v 0.0315489097 -0.0145014136 0.00931978249
v 0.0318018718 -0.0092591826 -0.00331180938
v 0.0318450446 -0.0157469075 -0.00429870259
v 0.0321318336 -0.00212517879 -0.00219333058
v 0.0322699828 -0.0228858991 -0.00535138859
v 0.0324653907 -0.0108282105 -0.00349290737
v 0.0324759574 0.0143570604 -0.0137500003
v 0.0324759574 0.0143570604 0.0137500003
v 0.0324759574 0.0231070606 -0.0137500003
v 0.0324759574 0.0231070606 0.0137500003
v 0.0324877448 -0.0141865056 -0.00400376091
v 0.032699327 -0.0125088303 -0.00372892031
v 0.0330104347 -0.0216034002 -0.0137500003
v 0.0331507106 -0.000360433031 -0.0137500003
v 0.0332818218 -0.0373317515 0.0137500003
v 0.0334597583 0.0371363969 0.0137500003
v 0.0336082836 0.014506134 -0.0137500003
v 0.0336082836 0.014506134 0.0137500003
v 0.0336082836 0.0229579822 -0.0137500003
v 0.0336082836 0.0229579822 0.0137500003
v 0.0346634575 0.0149431982 -0.0137500003
v 0.0346634575 0.0149431982 0.0137500003
v 0.0346634575 0.0225209181 -0.0137500003
v 0.0346634575 0.0225209181 0.0137500003
v 0.0348279091 0.00663848282 0.0128370098
v 0.0349787232 -0.0357459329 0.00637805239
v 0.0351173588 0.00632295012 0.0137500003
v 0.0355695435 0.0156384649 -0.0137500003
v 0.0355695435 0.0156384649 0.0137500003
v 0.0355695435 0.0218256513 -0.0137500003
v 0.0355695435 0.0218256513 0.0137500003
v 0.0362648198 0.0165445604 -0.0137500003
v 0.0362648198 0.0165445604 0.0137500003
v 0.0362648198 0.0209195606 -0.0137500003
v 0.0362648198 0.0209195606 0.0137500003
v 0.0366525933 -0.0340265797 -0.0137500003
v 0.0366525933 0.0339906926 -0.0137500003
v 0.0367018792 0.0175997248 -0.0137500003
v 0.0367018792 0.0175997248 0.0137500003
v 0.0367018792 0.0198643914 -0.0137500003
v 0.0367018792 0.0198643914 0.0137500003
v 0.0368509575 0.0187320605 -0.0137500003
v 0.0368509575 0.0187320605 0.0137500003
v 0.0382400605 -0.012545418 -0.00324601658
v 0.038255634 0.0321768803 0.0137500003
v 0.0390375802 0.00411114091 0.0128222159
v 0.039166126 -0.0109414212 -0.0137500003
v 0.0392731378 0.0037254464 0.0137500003
v 0.0395058439 -0.030665755 0.00755294103
v 0.0413119409 -0.0281839463 -0.0137500003
v 0.0413119409 0.0281480592 -0.0137500003
v 0.0423231695 0.0266044085 0.0137500003
v 0.0426413916 0.000781692128 0.0126315215
v 0.0427962683 0.000312646477 0.0137500003
v 0.043301277 -0.025017943 0.00875000022
v 0.0450484465 -0.0217121286 -0.0137500003
v 0.0450484465 0.0216762439 -0.0137500003
v 0.0454836558 -0.00320604467 0.0122731641
v 0.0455351447 -0.00376859333 0.0137500003
v 0.045584917 0.0205250732 0.0137500003
v 0.0462947082 -0.0189071006 0.0099470594
v 0.0473719215 -0.00834265865 0.0137500003
v 0.0474416255 -0.00767983114 0.0117626217
v 0.0477786445 -0.0147557014 -0.0137500003
v 0.0477786445 0.014719819 -0.0137500003
v 0.0479787826 0.0140546217 0.0137500003
v 0.0482275676 -0.0132127278 0.0137500003
v 0.0484307098 -0.0124464052 0.011121948
v 0.0494415474 -0.00747005616 -0.0137500003
v 0.0494415474 0.00743417147 -0.0137500003
v 0.0494591713 0.00731624487 0.0137500003
v 0.0495847607 -0.00644846114 0.0137500003
v 0.049997921 0.000438235851 0.0137500003
v 0.05 -1.79399648e-05 -0.0137500003
f 280 274 240
f 280 240 243
f 280 243 290
f 292 244 282
f 244 292 264
f 341 288 315
f 288 341 327
f 419 368 388
f 464 475 419
f 475 464 526
f 533 552 508
f 552 533 577
f 565 592 546
f 592 565 597
f 563 591 569
f 563 544 591
f 591 544 575
f 506 551 531
f 551 506 525
f 417 474 462
f 386 367 417
f 367 386 326
f 313 287 339
f 287 313 262
f 243 262 290
f 290 262 313
f 287 326 339
f 339 326 386
f 367 416 417
f 416 474 417
f 474 525 462
f 462 525 506
f 551 575 531
f 531 575 544
f 591 597 569
f 569 597 565
f 592 577 546
f 546 577 533
f 552 526 508
f 508 526 464
f 475 421 419
f 421 368 419
f 368 327 388
f 388 327 341
f 288 264 315
f 315 264 292
f 244 240 282
f 240 274 282
f 280 281 274
f 281 280 291
f 313 314 290
f 314 313 340
f 386 387 339
f 387 386 418
f 462 463 417
f 463 462 507
f 531 532 506
f 532 531 545
f 563 564 544
f 564 563 570
f 565 566 569
f 566 565 547
f 533 534 546
f 534 533 509
f 464 465 508
f 465 464 420
f 388 389 419
f 389 388 342
f 315 316 341
f 316 315 293
f 282 283 292
f 283 282 275
f 564 545 544
f 544 545 531
f 532 507 506
f 506 507 462
f 463 418 417
f 417 418 386
f 387 340 339
f 339 340 313
f 314 291 290
f 290 291 280
f 281 275 274
f 274 275 282
f 283 293 292
f 292 293 315
f 316 342 341
f 341 342 388
f 389 420 419
f 419 420 464
f 465 509 508
f 508 509 533
f 534 547 546
f 546 547 565
f 566 570 569
f 569 570 563
f 566 283 570
f 283 566 293
f 534 316 547
f 316 534 342
f 465 389 509
f 465 420 389
f 389 342 509
f 509 342 534
f 316 293 547
f 547 293 566
f 283 275 570
f 570 275 564
f 291 545 281
f 545 291 532
f 340 507 314
f 507 340 463
f 418 463 387
f 387 463 340
f 507 532 314
f 314 532 291
f 545 564 281
f 281 564 275
f 649 647 656
f 647 649 627
f 647 627 623
f 647 623 644
f 647 644 655
f 647 655 656
f 602 600 629
f 600 602 558
f 600 558 556
f 600 556 598
f 600 598 627
f 600 627 629
f 518 516 560
f 516 518 440
f 516 440 438
f 516 438 514
f 516 514 558
f 516 558 560
f 363 365 442
f 365 363 307
f 365 307 309
f 365 309 371
f 365 371 440
f 365 440 442
f 252 256 305
f 256 252 223
f 256 223 226
f 256 226 258
f 256 258 307
f 256 307 305
f 195 197 220
f 197 195 181
f 197 181 184
f 197 184 201
f 197 201 223
f 197 223 220
f 179 182 178
f 182 179 198
f 182 198 202
f 182 202 185
f 182 185 181
f 182 181 178
f 221 224 196
f 224 221 257
f 224 257 259
f 224 259 227
f 224 227 198
f 224 198 196
f 306 308 253
f 308 306 366
f 308 366 372
f 308 372 310
f 308 310 257
f 308 257 253
f 443 441 364
f 441 443 517
f 441 517 515
f 441 515 439
f 441 439 366
f 441 366 364
f 561 559 519
f 559 561 601
f 559 601 599
f 559 599 557
f 559 557 517
f 559 517 519
f 630 628 603
f 628 630 648
f 628 648 645
f 628 645 624
f 628 624 601
f 628 601 603
f 656 655 650
f 617 626 622
f 626 617 608
f 626 608 615
f 626 615 635
f 626 635 632
f 626 632 622
f 573 584 605
f 584 573 543
f 584 543 549
f 584 549 589
f 584 589 608
f 584 608 605
f 490 504 538
f 504 490 432
f 504 432 434
f 504 434 511
f 504 511 543
f 504 543 538
f 356 383 423
f 383 356 324
f 383 324 318
f 383 318 381
f 383 381 432
f 383 432 423
f 268 277 304
f 277 268 239
f 277 239 232
f 277 232 271
f 277 271 324
f 277 324 304
f 218 216 234
f 216 218 209
f 216 209 200
f 216 200 213
f 216 213 239
f 216 239 234
f 217 208 214
f 208 217 215
f 208 215 212
f 208 212 199
f 208 199 209
f 208 209 214
f 267 238 233
f 238 267 276
f 238 276 270
f 238 270 231
f 238 231 215
f 238 215 233
f 355 323 303
f 323 355 382
f 323 382 380
f 323 380 317
f 323 317 276
f 323 276 303
f 489 431 415
f 431 489 503
f 431 503 510
f 431 510 433
f 431 433 382
f 431 382 415
f 572 542 537
f 542 572 583
f 542 583 588
f 542 588 548
f 542 548 503
f 542 503 537
f 616 607 604
f 607 616 625
f 607 625 634
f 607 634 614
f 607 614 583
f 607 583 604
f 622 632 625
f 622 625 616
f 645 648 652
f 645 652 646
f 645 646 640
f 645 640 624
f 655 644 652
f 655 652 648
f 655 648 650
f 646 641 640
f 646 652 639
f 646 639 634
f 646 634 641
f 640 641 635
f 640 635 620
f 640 620 624
f 634 625 641
f 629 627 649
f 560 558 602
f 442 440 518
f 305 307 363
f 220 223 252
f 178 181 195
f 196 198 179
f 253 257 221
f 364 366 306
f 519 517 443
f 603 601 561
f 650 648 630
f 652 644 639
f 614 634 639
f 614 639 619
f 614 619 588
f 614 588 583
f 639 644 619
f 635 641 632
f 641 625 632
f 644 623 619
f 627 598 623
f 619 623 593
f 619 593 588
f 623 598 593
f 548 588 593
f 548 593 553
f 548 553 510
f 548 510 503
f 593 598 553
f 572 604 583
f 598 556 553
f 558 514 556
f 553 556 512
f 553 512 510
f 556 514 512
f 433 510 512
f 433 512 436
f 433 436 380
f 433 380 382
f 512 514 436
f 489 537 503
f 514 438 436
f 440 371 438
f 436 438 374
f 436 374 380
f 438 371 374
f 317 380 374
f 317 374 311
f 317 311 270
f 317 270 276
f 374 371 311
f 355 415 382
f 371 309 311
f 307 258 309
f 311 309 265
f 311 265 270
f 309 258 265
f 231 270 265
f 231 265 228
f 231 228 212
f 231 212 215
f 265 258 228
f 267 303 276
f 258 226 228
f 223 201 226
f 228 226 205
f 228 205 212
f 226 201 205
f 199 212 205
f 199 205 190
f 199 190 200
f 199 200 209
f 205 201 190
f 217 233 215
f 201 184 190
f 181 185 184
f 190 184 191
f 190 191 200
f 184 185 191
f 213 200 191
f 213 191 206
f 213 206 232
f 213 232 239
f 191 185 206
f 218 214 209
f 185 202 206
f 198 227 202
f 206 202 229
f 206 229 232
f 202 227 229
f 271 232 229
f 271 229 266
f 271 266 318
f 271 318 324
f 229 227 266
f 268 234 239
f 227 259 266
f 257 310 259
f 266 259 312
f 266 312 318
f 259 310 312
f 381 318 312
f 381 312 375
f 381 375 434
f 381 434 432
f 312 310 375
f 356 304 324
f 310 372 375
f 366 439 372
f 375 372 437
f 375 437 434
f 372 439 437
f 511 434 437
f 511 437 513
f 511 513 549
f 511 549 543
f 437 439 513
f 490 423 432
f 439 515 513
f 517 557 515
f 513 515 554
f 513 554 549
f 515 557 554
f 589 549 554
f 589 554 594
f 589 594 615
f 589 615 608
f 554 557 594
f 573 538 543
f 557 599 594
f 601 624 599
f 624 620 599
f 594 599 620
f 594 620 615
f 635 615 620
f 617 605 608
f 188 179 177
f 179 188 196
f 236 221 211
f 221 236 253
f 336 306 285
f 306 336 364
f 477 443 407
f 443 477 519
f 581 561 536
f 561 581 603
f 643 630 612
f 630 643 650
f 653 656 654
f 656 653 649
f 611 629 642
f 629 611 602
f 535 560 580
f 560 535 518
f 406 442 476
f 442 406 363
f 284 305 335
f 305 284 252
f 210 220 235
f 220 210 195
f 177 178 187
f 656 650 654
f 654 650 643
f 630 603 612
f 612 603 581
f 561 519 536
f 536 519 477
f 443 364 407
f 407 364 336
f 306 253 285
f 285 253 236
f 221 196 211
f 211 196 188
f 179 178 177
f 178 195 187
f 187 195 210
f 220 252 235
f 235 252 284
f 305 363 335
f 335 363 406
f 442 518 476
f 476 518 535
f 560 602 580
f 580 602 611
f 629 649 642
f 642 649 653
f 616 217 622
f 217 616 233
f 572 267 604
f 267 572 303
f 489 355 537
f 489 415 355
f 355 303 537
f 537 303 572
f 267 233 604
f 604 233 616
f 217 214 622
f 622 214 617
f 234 605 218
f 605 234 573
f 304 538 268
f 538 304 490
f 423 490 356
f 356 490 304
f 538 573 268
f 268 573 234
f 605 617 218
f 218 617 214
f 188 177 98
f 188 98 65
f 188 65 80
f 188 80 94
f 188 94 211
f 210 186 187
f 210 235 186
f 186 235 261
f 235 284 261
f 406 404 335
f 404 406 413
f 535 456 476
f 580 682 535
f 682 580 621
f 580 611 621
f 653 683 642
f 653 654 683
f 654 643 683
f 612 731 643
f 581 722 612
f 536 541 581
f 541 536 458
f 536 477 458
f 336 272 407
f 336 285 272
f 285 236 272
f 211 107 236
f 683 621 642
f 774 797 682
f 808 817 774
f 775 830 808
f 683 744 775
f 722 725 612
f 725 731 612
f 731 735 643
f 735 744 643
f 744 758 775
f 758 768 775
f 768 778 775
f 778 782 775
f 775 782 831
f 775 831 835
f 775 835 830
f 793 826 789
f 793 799 826
f 826 799 818
f 799 803 818
f 803 801 818
f 791 812 795
f 791 784 812
f 784 780 812
f 812 780 798
f 780 770 798
f 746 755 760
f 746 737 755
f 755 737 541
f 755 541 709
f 737 733 541
f 722 581 727
f 349 167 346
f 167 349 254
f 349 357 254
f 392 361 376
f 392 402 361
f 402 411 361
f 361 411 483
f 411 444 483
f 444 454 483
f 485 578 468
f 485 494 578
f 578 494 658
f 494 499 658
f 487 682 496
f 487 470 682
f 682 470 535
f 456 446 476
f 446 413 476
f 476 413 406
f 404 394 335
f 378 189 394
f 378 359 189
f 359 351 189
f 351 346 189
f 186 98 187
f 48 10 98
f 99 23 48
f 189 71 99
f 189 261 394
f 33 29 18
f 33 18 39
f 37 11 31
f 37 43 11
f 11 43 5
f 43 52 5
f 60 98 56
f 60 65 98
f 94 100 211
f 100 107 211
f 107 112 236
f 109 194 112
f 109 102 194
f 102 96 194
f 96 82 194
f 194 82 72
f 194 72 127
f 194 127 168
f 194 168 273
f 62 36 67
f 62 58 36
f 36 58 24
f 58 54 24
f 54 45 24
f 272 458 407
f 459 579 541
f 273 362 459
f 194 272 112
f 4 1 98
f 4 98 10
f 11 18 31
f 18 24 39
f 36 72 67
f 168 255 273
f 255 362 273
f 362 484 459
f 484 579 459
f 579 659 541
f 659 709 541
f 755 798 760
f 812 818 795
f 826 831 789
f 830 825 808
f 825 817 808
f 817 811 774
f 811 797 774
f 797 754 682
f 754 708 682
f 682 708 496
f 578 483 468
f 361 254 376
f 346 167 189
f 167 126 189
f 71 35 99
f 35 23 99
f 23 17 48
f 17 10 48
f 468 483 454
f 284 335 261
f 643 744 683
f 733 727 541
f 187 98 177
f 376 254 357
f 189 126 71
f 394 261 335
f 1 5 98
f 52 56 5
f 5 56 98
f 31 18 29
f 39 24 45
f 499 496 658
f 658 496 708
f 456 535 470
f 621 611 642
f 789 831 782
f 818 801 795
f 541 727 581
f 458 477 407
f 236 112 272
f 67 72 82
f 798 770 760
f 774 682 766
f 682 673 766
f 621 609 682
f 609 673 682
f 683 672 621
f 672 609 621
f 48 98 42
f 98 89 42
f 186 172 98
f 172 89 98
f 261 248 186
f 248 172 186
f 459 541 481
f 541 562 481
f 458 480 541
f 480 562 541
f 272 297 458
f 297 480 458
f 726 725 723
f 725 726 731
f 736 735 732
f 735 736 744
f 759 758 745
f 758 759 768
f 779 778 769
f 778 779 782
f 790 789 783
f 789 790 793
f 800 799 794
f 799 800 803
f 802 801 804
f 801 802 795
f 792 791 796
f 791 792 784
f 781 780 785
f 780 781 770
f 761 760 771
f 760 761 746
f 738 737 747
f 737 738 733
f 728 727 734
f 727 728 722
f 727 733 734
f 734 733 738
f 737 746 747
f 747 746 761
f 760 770 771
f 771 770 781
f 780 784 785
f 785 784 792
f 791 795 796
f 796 795 802
f 801 803 804
f 804 803 800
f 799 793 794
f 794 793 790
f 789 782 783
f 783 782 779
f 778 768 769
f 769 768 759
f 758 744 745
f 745 744 736
f 735 731 732
f 732 731 726
f 725 722 723
f 723 722 728
f 350 349 347
f 349 350 357
f 377 376 358
f 376 377 392
f 403 402 393
f 402 403 411
f 445 444 412
f 444 445 454
f 469 468 455
f 468 469 485
f 495 494 486
f 494 495 499
f 497 496 500
f 496 497 487
f 471 470 488
f 470 471 456
f 447 446 457
f 446 447 413
f 405 404 414
f 404 405 394
f 379 378 395
f 378 379 359
f 352 351 360
f 351 352 346
f 351 359 360
f 360 359 379
f 378 394 395
f 395 394 405
f 404 413 414
f 414 413 447
f 446 456 457
f 457 456 471
f 470 487 488
f 488 487 497
f 496 499 500
f 500 499 495
f 494 485 486
f 486 485 469
f 468 454 455
f 455 454 445
f 444 411 412
f 412 411 403
f 402 392 393
f 393 392 377
f 376 357 358
f 358 357 350
f 349 346 347
f 347 346 352
f 32 31 30
f 31 32 37
f 44 43 38
f 43 44 52
f 57 56 53
f 56 57 60
f 66 65 61
f 65 66 80
f 95 94 81
f 94 95 100
f 108 107 101
f 107 108 112
f 110 109 113
f 109 110 102
f 97 96 103
f 96 97 82
f 68 67 83
f 67 68 62
f 59 58 63
f 58 59 54
f 46 45 55
f 45 46 39
f 34 33 40
f 33 34 29
f 33 39 40
f 40 39 46
f 45 54 55
f 55 54 59
f 58 62 63
f 63 62 68
f 67 82 83
f 83 82 97
f 96 102 103
f 103 102 110
f 109 112 113
f 113 112 108
f 107 100 101
f 101 100 95
f 94 80 81
f 81 80 66
f 65 60 61
f 61 60 57
f 56 52 53
f 53 52 44
f 43 37 38
f 38 37 32
f 31 29 30
f 30 29 34
f 828 829 833
f 822 825 829
f 825 822 817
f 810 811 816
f 811 810 797
f 776 754 787
f 776 719 754
f 754 719 708
f 631 658 689
f 658 631 578
f 453 483 550
f 483 453 361
f 247 254 338
f 254 247 167
f 247 166 167
f 78 126 129
f 47 49 78
f 26 35 49
f 35 26 23
f 14 17 20
f 17 14 10
f 6 4 8
f 6 2 4
f 4 2 1
f 7 5 3
f 5 7 11
f 19 18 13
f 18 19 24
f 41 36 25
f 36 41 72
f 41 73 72
f 161 127 122
f 237 230 161
f 322 255 230
f 255 322 362
f 529 484 426
f 484 529 579
f 633 659 606
f 633 692 659
f 659 692 709
f 777 755 721
f 755 777 798
f 813 812 806
f 812 813 818
f 827 826 821
f 826 827 831
f 827 832 831
f 833 835 834
f 4 10 8
f 8 10 14
f 17 23 20
f 20 23 26
f 35 71 49
f 49 71 78
f 126 167 129
f 254 361 338
f 338 361 453
f 483 578 550
f 550 578 631
f 658 708 689
f 689 708 719
f 754 797 787
f 787 797 810
f 811 817 816
f 816 817 822
f 825 830 829
f 829 830 833
f 835 831 834
f 826 818 821
f 821 818 813
f 812 798 806
f 806 798 777
f 755 709 721
f 721 709 692
f 659 579 606
f 606 579 529
f 484 362 426
f 426 362 322
f 255 168 230
f 230 168 161
f 127 72 122
f 36 24 25
f 25 24 19
f 18 11 13
f 13 11 7
f 5 1 3
f 126 78 71
f 835 833 830
f 127 161 168
f 129 167 166
f 3 1 2
f 122 72 73
f 834 831 832
f 244 242 240
f 242 244 250
f 288 278 264
f 278 288 299
f 368 332 327
f 332 368 384
f 475 467 421
f 467 475 520
f 552 540 526
f 540 552 567
f 592 585 577
f 585 592 595
f 591 596 597
f 596 591 590
f 551 555 575
f 555 551 530
f 474 498 525
f 498 474 448
f 367 401 416
f 401 367 348
f 287 319 326
f 319 287 286
f 243 246 262
f 246 243 241
f 586 582 585
f 585 582 577
f 582 574 577
f 574 571 577
f 540 520 526
f 526 520 475
f 467 422 421
f 422 384 421
f 421 384 368
f 332 299 327
f 327 299 288
f 279 269 278
f 278 269 264
f 269 260 264
f 260 251 264
f 242 241 240
f 240 241 243
f 246 263 262
f 263 286 262
f 262 286 287
f 319 348 326
f 326 348 367
f 397 408 401
f 401 408 416
f 408 427 416
f 427 435 416
f 498 530 525
f 525 530 551
f 555 576 575
f 576 590 575
f 575 590 591
f 596 595 597
f 597 595 592
f 251 250 264
f 264 250 244
f 571 567 577
f 577 567 552
f 435 448 416
f 416 448 474
f 435 428 448
f 448 428 451
f 482 466 452
f 466 482 505
f 568 539 527
f 539 568 587
f 664 637 613
f 637 664 680
f 730 712 701
f 712 730 748
f 787 748 776
f 776 748 730
f 712 680 701
f 701 680 664
f 637 587 613
f 613 587 568
f 539 505 527
f 527 505 482
f 466 451 452
f 452 451 428
f 585 636 586
f 586 636 638
f 711 681 677
f 681 711 713
f 786 749 743
f 749 786 788
f 814 809 807
f 809 814 815
f 824 820 819
f 820 824 823
f 828 823 829
f 829 823 824
f 820 815 819
f 819 815 814
f 809 788 807
f 807 788 786
f 749 713 743
f 743 713 711
f 681 638 677
f 677 638 636
f 609 679 673
f 672 678 609
f 765 714 672
f 805 763 765
f 766 764 805
f 673 715 766
f 686 695 673
f 686 673 679
f 695 704 673
f 715 720 766
f 720 740 766
f 740 753 766
f 753 764 766
f 764 772 805
f 772 773 805
f 773 767 805
f 767 763 805
f 763 752 765
f 752 739 765
f 739 718 765
f 718 714 765
f 714 703 672
f 703 694 672
f 694 685 672
f 685 678 672
f 678 669 609
f 669 668 609
f 668 670 609
f 670 679 609
f 673 704 715
f 686 676 695
f 676 686 667
f 670 663 679
f 663 670 661
f 669 662 668
f 662 669 666
f 685 674 678
f 674 685 687
f 703 698 694
f 698 703 707
f 718 716 714
f 716 718 724
f 752 741 739
f 741 752 750
f 767 756 763
f 756 767 762
f 772 757 773
f 757 772 751
f 753 742 764
f 742 753 729
f 720 717 740
f 717 720 710
f 704 699 715
f 699 704 688
f 699 710 715
f 715 710 720
f 717 729 740
f 740 729 753
f 742 751 764
f 764 751 772
f 757 762 773
f 773 762 767
f 756 750 763
f 763 750 752
f 741 724 739
f 739 724 718
f 716 707 714
f 714 707 703
f 698 687 694
f 694 687 685
f 674 666 678
f 678 666 669
f 662 661 668
f 668 661 670
f 663 667 679
f 679 667 686
f 676 688 695
f 695 688 704
f 585 595 636
f 636 595 677
f 590 687 596
f 687 590 674
f 555 662 576
f 662 555 661
f 498 466 530
f 448 451 498
f 451 466 498
f 530 466 663
f 530 663 661
f 530 661 555
f 539 667 505
f 667 539 676
f 637 688 587
f 688 637 699
f 712 710 680
f 710 712 717
f 787 729 748
f 787 810 729
f 729 810 742
f 822 757 816
f 757 822 762
f 822 829 762
f 819 756 824
f 756 819 750
f 807 741 814
f 741 807 724
f 743 716 786
f 716 743 707
f 677 698 711
f 688 676 587
f 587 676 539
f 667 663 505
f 662 666 576
f 666 674 576
f 576 674 590
f 687 698 596
f 698 707 711
f 711 707 743
f 716 724 786
f 786 724 807
f 741 750 814
f 814 750 819
f 756 762 824
f 757 751 816
f 751 742 816
f 816 742 810
f 729 717 748
f 748 717 712
f 710 699 680
f 680 699 637
f 595 596 677
f 677 596 698
f 505 663 466
f 824 762 829
f 808 774 805
f 774 766 805
f 775 808 765
f 808 805 765
f 775 765 683
f 765 672 683
f 251 207 250
f 250 207 204
f 124 150 155
f 150 124 123
f 51 84 88
f 84 51 50
f 21 27 28
f 27 21 22
f 9 16 15
f 16 9 12
f 8 12 6
f 6 12 9
f 16 22 15
f 15 22 21
f 27 50 28
f 28 50 51
f 84 123 88
f 88 123 124
f 150 204 155
f 155 204 207
f 401 398 397
f 397 398 396
f 343 373 385
f 373 343 337
f 249 296 300
f 296 249 245
f 148 193 203
f 193 148 146
f 79 118 121
f 118 79 74
f 47 74 49
f 49 74 79
f 118 146 121
f 121 146 148
f 193 245 203
f 203 245 249
f 296 337 300
f 300 337 343
f 373 396 385
f 385 396 398
f 172 131 89
f 248 170 172
f 171 169 248
f 87 130 171
f 42 92 87
f 89 93 42
f 120 115 89
f 120 89 131
f 115 105 89
f 93 86 42
f 86 77 42
f 77 85 42
f 85 92 42
f 92 104 87
f 104 114 87
f 114 119 87
f 119 130 87
f 130 139 171
f 139 147 171
f 147 160 171
f 160 169 171
f 169 175 248
f 175 180 248
f 180 176 248
f 176 170 248
f 170 162 172
f 162 149 172
f 149 141 172
f 141 131 172
f 89 105 93
f 120 117 115
f 117 120 128
f 141 133 131
f 133 141 144
f 162 153 149
f 153 162 159
f 176 164 170
f 164 176 165
f 175 163 180
f 163 175 158
f 160 151 169
f 151 160 143
f 139 132 147
f 132 139 125
f 119 116 130
f 116 119 106
f 104 90 114
f 90 104 75
f 85 69 92
f 69 85 64
f 86 70 77
f 70 86 76
f 105 91 93
f 91 105 111
f 91 76 93
f 93 76 86
f 70 64 77
f 77 64 85
f 69 75 92
f 92 75 104
f 90 106 114
f 114 106 119
f 116 125 130
f 130 125 139
f 132 143 147
f 147 143 160
f 151 158 169
f 169 158 175
f 163 165 180
f 180 165 176
f 164 159 170
f 170 159 162
f 153 144 149
f 149 144 141
f 133 128 131
f 131 128 120
f 117 111 115
f 115 111 105
f 401 348 398
f 398 348 385
f 286 165 319
f 165 286 164
f 246 153 263
f 153 246 144
f 242 150 241
f 250 204 242
f 204 150 242
f 241 150 133
f 241 133 144
f 241 144 246
f 84 128 123
f 128 84 117
f 27 111 50
f 111 27 91
f 16 76 22
f 76 16 70
f 8 64 12
f 8 14 64
f 64 14 69
f 26 90 20
f 90 26 106
f 26 49 106
f 121 116 79
f 116 121 125
f 203 132 148
f 132 203 143
f 300 151 249
f 151 300 158
f 385 163 343
f 111 117 50
f 50 117 84
f 128 133 123
f 153 159 263
f 159 164 263
f 263 164 286
f 165 163 319
f 163 158 343
f 343 158 300
f 151 143 249
f 249 143 203
f 132 125 148
f 148 125 121
f 116 106 79
f 90 75 20
f 75 69 20
f 20 69 14
f 64 70 12
f 12 70 16
f 76 91 22
f 22 91 27
f 348 319 385
f 385 319 163
f 123 133 150
f 79 106 49
f 99 48 87
f 48 42 87
f 189 99 171
f 99 87 171
f 189 171 261
f 171 248 261
f 237 192 230
f 230 192 183
f 145 156 157
f 156 145 142
f 136 135 137
f 135 136 134
f 154 138 140
f 138 154 152
f 225 173 174
f 173 225 222
f 278 222 279
f 279 222 225
f 173 152 174
f 174 152 154
f 138 134 140
f 140 134 136
f 135 142 137
f 137 142 145
f 156 183 157
f 157 183 192
f 606 651 633
f 633 651 665
f 690 691 671
f 691 690 702
f 697 706 696
f 706 697 705
f 675 700 693
f 700 675 684
f 610 660 657
f 660 610 618
f 571 618 567
f 567 618 610
f 660 684 657
f 657 684 675
f 700 705 693
f 693 705 697
f 706 702 696
f 696 702 690
f 691 665 671
f 671 665 651
f 480 478 562
f 297 390 480
f 219 301 297
f 298 302 219
f 481 391 298
f 562 479 481
f 491 493 562
f 491 562 478
f 493 492 562
f 479 461 481
f 461 430 481
f 430 410 481
f 410 391 481
f 391 354 298
f 354 334 298
f 334 321 298
f 321 302 298
f 302 295 219
f 295 289 219
f 289 294 219
f 294 301 219
f 301 320 297
f 320 333 297
f 333 353 297
f 353 390 297
f 390 409 480
f 409 429 480
f 429 460 480
f 460 478 480
f 562 492 479
f 491 523 493
f 523 491 521
f 460 501 478
f 501 460 472
f 409 449 429
f 449 409 424
f 353 399 390
f 399 353 369
f 320 344 333
f 344 320 330
f 294 328 301
f 328 294 325
f 295 329 289
f 329 295 331
f 321 345 302
f 345 321 370
f 354 400 334
f 400 354 425
f 410 450 391
f 450 410 473
f 461 502 430
f 502 461 522
f 492 524 479
f 524 492 528
f 524 522 479
f 479 522 461
f 502 473 430
f 430 473 410
f 450 425 391
f 391 425 354
f 400 370 334
f 334 370 321
f 345 331 302
f 302 331 295
f 329 325 289
f 289 325 294
f 328 330 301
f 301 330 320
f 344 369 333
f 333 369 353
f 399 424 390
f 390 424 409
f 449 472 429
f 429 472 460
f 501 521 478
f 478 521 491
f 523 528 493
f 493 528 492
f 651 606 473
f 651 473 502
f 651 502 671
f 426 450 529
f 322 400 426
f 400 322 370
f 322 230 370
f 156 345 183
f 345 156 331
f 135 329 142
f 329 135 325
f 138 328 134
f 328 138 330
f 173 344 152
f 222 299 173
f 222 278 299
f 299 332 173
f 384 369 332
f 369 384 399
f 467 449 422
f 449 467 472
f 540 657 520
f 567 610 540
f 610 657 540
f 520 657 501
f 520 501 472
f 520 472 467
f 693 521 675
f 521 693 523
f 696 528 697
f 528 696 524
f 671 522 690
f 522 671 502
f 528 523 697
f 697 523 693
f 521 501 675
f 449 424 422
f 424 399 422
f 422 399 384
f 369 344 332
f 344 330 152
f 152 330 138
f 328 325 134
f 134 325 135
f 329 331 142
f 142 331 156
f 345 370 183
f 400 425 426
f 425 450 426
f 450 473 529
f 522 524 690
f 690 524 696
f 332 344 173
f 183 370 230
f 473 606 529
f 675 501 657
f 273 459 298
f 459 481 298
f 194 273 219
f 273 298 219
f 194 219 272
f 219 297 272
f 6 9 2
f 9 15 2
f 2 15 3
f 28 7 21
f 51 44 28
f 88 61 51
f 124 95 88
f 155 154 124
f 154 155 174
f 251 260 207
f 207 260 225
f 207 225 174
f 207 174 155
f 279 225 269
f 140 113 154
f 136 103 140
f 137 68 136
f 145 73 137
f 73 145 122
f 192 161 157
f 192 237 161
f 161 122 157
f 157 122 145
f 73 41 137
f 25 59 41
f 19 40 25
f 13 30 19
f 7 28 13
f 7 3 21
f 21 3 15
f 30 34 19
f 34 40 19
f 40 46 25
f 46 55 25
f 55 59 25
f 59 63 41
f 63 68 41
f 68 83 136
f 83 97 136
f 97 103 136
f 103 110 140
f 110 113 140
f 113 108 154
f 154 108 124
f 108 101 124
f 95 81 88
f 81 66 88
f 66 61 88
f 61 57 51
f 57 53 51
f 53 44 51
f 44 38 28
f 28 38 13
f 38 32 13
f 13 32 30
f 269 225 260
f 95 124 101
f 68 137 41
f 776 730 719
f 730 701 719
f 719 701 689
f 613 631 664
f 568 500 613
f 527 488 568
f 482 447 527
f 452 337 482
f 337 452 373
f 435 427 428
f 428 427 396
f 428 396 373
f 428 373 452
f 397 396 408
f 296 405 337
f 245 360 296
f 193 347 245
f 146 166 193
f 166 146 129
f 74 78 118
f 74 47 78
f 78 129 118
f 118 129 146
f 193 166 358
f 193 358 350
f 193 350 347
f 338 393 247
f 453 412 338
f 412 453 445
f 631 469 550
f 631 689 664
f 664 689 701
f 347 352 245
f 352 360 245
f 360 379 296
f 379 395 296
f 395 405 296
f 405 414 337
f 337 414 482
f 447 457 527
f 457 471 527
f 471 488 527
f 488 497 568
f 497 500 568
f 500 495 613
f 495 486 613
f 613 486 631
f 469 455 550
f 455 445 550
f 550 445 453
f 412 403 338
f 403 393 338
f 393 377 247
f 377 358 247
f 408 396 427
f 447 482 414
f 469 631 486
f 247 358 166
f 586 638 582
f 681 660 638
f 660 681 684
f 749 745 713
f 788 779 749
f 809 790 788
f 815 832 809
f 832 815 834
f 823 833 820
f 823 828 833
f 833 834 820
f 820 834 815
f 832 827 809
f 821 800 827
f 813 802 821
f 806 792 813
f 777 771 806
f 721 702 777
f 702 721 691
f 633 665 692
f 665 691 692
f 692 691 721
f 702 706 777
f 705 747 706
f 700 734 705
f 684 726 700
f 660 618 638
f 571 574 618
f 574 582 618
f 726 723 700
f 723 728 700
f 734 738 705
f 738 747 705
f 747 761 706
f 706 761 777
f 771 781 806
f 781 785 806
f 785 792 806
f 792 796 813
f 796 802 813
f 802 804 821
f 804 800 821
f 800 794 827
f 827 794 809
f 790 783 788
f 783 779 788
f 779 769 749
f 769 759 749
f 759 745 749
f 745 736 713
f 736 732 713
f 713 732 684
f 713 684 681
f 771 777 761
f 582 638 618
f 790 809 794
f 726 684 732
f 700 728 734
