# Converted from Thingi10K 500099.stl
# welded vertices: 176, faces: 348
v -0.05 -0.05 -0.0196850397
v -0.05 -0.05 -0.0177165357
v -0.05 0.05 -0.0196850397
v -0.05 0.05 -0.0177165357
v -0.048031496 -0.048031496 -0.0157480317
v -0.048031496 -0.048031496 0.0196850397
v -0.048031496 0.0480314958 -0.0157480317
v -0.048031496 0.0480314958 0.0196850397
v -0.0460629921 -0.0460629921 -0.0157480317
v -0.0460629921 -0.0460629921 0.0196850397
v -0.0460629921 0.0480314958 -0.0157480317
v -0.0460629921 0.0480314958 0.0196850397
v -0.0421259879 -0.0421259916 -0.0157480317
v -0.0421259879 -0.0421259916 0.0157480317
v -0.0421259879 0.0480314958 -0.0157480317
v -0.0421259879 0.0480314958 0.0157480317
v -0.0401574839 -0.0401574802 -0.0157480317
v -0.0401574839 -0.0401574802 0.0157480317
v -0.0401574839 0.0480314958 -0.0157480317
v -0.0401574839 0.0480314958 0.0157480317
v -0.036220476 -0.0362204722 -0.0157480317
v -0.036220476 -0.0362204722 0.0118110238
v -0.036220476 0.0480314958 -0.0157480317
v -0.036220476 0.0480314958 0.0118110238
v -0.0342519683 -0.0342519758 -0.0157480317
v -0.0342519683 -0.0342519758 0.0118110238
v -0.0342519683 0.0480314958 -0.0157480317
v -0.0342519683 0.0480314958 0.0118110238
v -0.0303149603 -0.0303149603 -0.0157480317
v -0.0303149603 -0.0303149603 0.00787401587
v -0.0303149603 0.0480314958 -0.0157480317
v -0.0303149603 0.0480314958 0.00787401587
v -0.0283464564 -0.0283464564 -0.0157480317
v -0.0283464564 -0.0283464564 0.00787401587
v -0.0283464564 0.0480314958 -0.0157480317
v -0.0283464564 0.0480314958 0.00787401587
v -0.0244094503 -0.0244094484 -0.0157480317
v -0.0244094503 -0.0244094484 0.00393700793
v -0.0244094503 0.0480314958 -0.0157480317
v -0.0244094503 0.0480314958 0.00393700793
v -0.0226377956 -0.0244094484 -0.0157480317
v -0.0226377956 -0.0244094484 0.00393700793
v -0.0226377956 0.0480314958 -0.0157480317
v -0.0226377956 0.0480314958 0.00393700793
v -0.0187007858 -0.0283464564 -0.0157480317
v -0.0187007858 -0.0283464564 0.00787401587
v -0.0187007858 0.0480314958 -0.0157480317
v -0.0187007858 0.0480314958 0.00787401587
v -0.0167322837 -0.0303149603 -0.0157480317
v -0.0167322837 -0.0303149603 0.00787401587
v -0.0167322837 0.0480314958 -0.0157480317
v -0.0167322837 0.0480314958 0.00787401587
v -0.0127952758 -0.0342519758 -0.0157480317
v -0.0127952758 -0.0342519758 0.0118110238
v -0.0127952758 0.0480314958 -0.0157480317
v -0.0127952758 0.0480314958 0.0118110238
v -0.0108267718 -0.0362204722 -0.0157480317
v -0.0108267718 -0.0362204722 0.0118110238
v -0.0108267718 0.0480314958 -0.0157480317
v -0.0108267718 0.0480314958 0.0118110238
v -0.00688976388 -0.0401574802 -0.0157480317
v -0.00688976388 -0.0401574802 0.0157480317
v -0.00688976388 0.0480314958 -0.0157480317
v -0.00688976388 0.0480314958 0.0157480317
v -0.00492125992 -0.0421259916 -0.0157480317
v -0.00492125992 -0.0421259916 0.0157480317
v -0.00492125992 0.0480314958 -0.0157480317
v -0.00492125992 0.0480314958 0.0157480317
v -0.000984251983 -0.0460629921 -0.0157480317
v -0.000984251983 -0.0460629921 0.0196850397
v -0.000984251983 0.0480314958 -0.0157480317
v -0.000984251983 0.0480314958 0.0196850397
v 0.000984251983 -0.0460629921 -0.0157480317
v 0.000984251983 -0.0460629921 0.0196850397
v 0.000984251983 0.0480314958 -0.0157480317
v 0.000984251983 0.0480314958 0.0196850397
v 0.00492125992 -0.0421259916 -0.0157480317
v 0.00492125992 -0.0421259916 0.0157480317
v 0.00492125992 0.0480314958 -0.0157480317
v 0.00492125992 0.0480314958 0.0157480317
v 0.00688976388 -0.0401574802 -0.0157480317
v 0.00688976388 -0.0401574802 0.0157480317
v 0.00688976388 0.0480314958 -0.0157480317
v 0.00688976388 0.0480314958 0.0157480317
v 0.0108267718 -0.0362204722 -0.0157480317
v 0.0108267718 -0.0362204722 0.0118110238
v 0.0108267718 0.0480314958 -0.0157480317
v 0.0108267718 0.0480314958 0.0118110238
v 0.0127952758 -0.0342519758 -0.0157480317
v 0.0127952758 -0.0342519758 0.0118110238
v 0.0127952758 0.0480314958 -0.0157480317
v 0.0127952758 0.0480314958 0.0118110238
v 0.0167322875 -0.0303149603 -0.0157480317
v 0.0167322875 -0.0303149603 0.00787401587
v 0.0167322875 0.0480314958 -0.0157480317
v 0.0167322875 0.0480314958 0.00787401587
v 0.0187007839 -0.0283464564 -0.0157480317
v 0.0187007839 -0.0283464564 0.00787401587
v 0.0187007839 0.0480314958 -0.0157480317
v 0.0187007839 0.0480314958 0.00787401587
v 0.0226377919 -0.0244094484 -0.0157480317
v 0.0226377919 -0.0244094484 0.00393700793
v 0.0226377919 0.0480314958 -0.0157480317
v 0.0226377919 0.0480314958 0.00393700793
v 0.0246063033 -0.0224409445 -0.0157480317
v 0.0246063033 -0.0224409445 0.00393700793
v 0.0246063033 0.0480314958 -0.0157480317
v 0.0246063033 0.0480314958 0.00393700793
v 0.0285433038 -0.0185039365 -0.0157480317
v 0.0285433038 -0.0185039365 0
v 0.0285433038 0.0480314958 -0.0157480317
v 0.0285433038 0.0480314958 0
v 0.0305118077 -0.0165354326 -0.0157480317
v 0.0305118077 -0.0165354326 0
v 0.0305118077 0.0480314958 -0.0157480317
v 0.0305118077 0.0480314958 0
v 0.0344488232 -0.0125984209 -0.0157480317
v 0.0344488232 -0.0125984209 -0.00393700793
v 0.0344488232 0.0480314958 -0.0157480317
v 0.0344488232 0.0480314958 -0.00393700793
v 0.0364173196 -0.0106299207 -0.0157480317
v 0.0364173196 -0.0106299207 -0.00393700793
v 0.0364173196 0.0480314958 -0.0157480317
v 0.0364173196 0.0480314958 -0.00393700793
v 0.0403543351 -0.00669291274 -0.0157480317
v 0.0403543351 -0.00669291274 -0.00787401587
v 0.0403543351 0.0480314958 -0.0157480317
v 0.0403543351 0.0480314958 -0.00787401587
v 0.042322839 -0.00472440877 -0.0157480317
v 0.042322839 -0.00472440877 -0.00787401587
v 0.042322839 0.0480314958 -0.0157480317
v 0.042322839 0.0480314958 -0.00787401587
v 0.046259847 -0.000787400836 -0.0157480317
v 0.046259847 -0.000787400836 -0.0118110238
v 0.046259847 0.0480314958 -0.0157480317
v 0.046259847 0.0480314958 -0.0118110238
v 0.048031496 -0.048031496 -0.0157480317
v 0.048031496 -0.048031496 0.0196850397
v 0.048031496 -0.0460629921 -0.0157480317
v 0.048031496 -0.0460629921 0.0196850397
v 0.048031496 -0.0421259916 -0.0157480317
v 0.048031496 -0.0421259916 0.0157480317
v 0.048031496 -0.0401574802 -0.0157480317
v 0.048031496 -0.0401574802 0.0157480317
v 0.048031496 -0.0362204722 -0.0157480317
v 0.048031496 -0.0362204722 0.0118110238
v 0.048031496 -0.0342519758 -0.0157480317
v 0.048031496 -0.0342519758 0.0118110238
v 0.048031496 -0.0303149603 -0.0157480317
v 0.048031496 -0.0303149603 0.00787401587
v 0.048031496 -0.0283464564 -0.0157480317
v 0.048031496 -0.0283464564 0.00787401587
v 0.048031496 -0.0244094484 -0.0157480317
v 0.048031496 -0.0244094484 0.00393700793
v 0.048031496 -0.0224409445 -0.0157480317
v 0.048031496 -0.0224409445 0.00393700793
v 0.048031496 -0.0185039365 -0.0157480317
v 0.048031496 -0.0185039365 0
v 0.048031496 -0.0165354326 -0.0157480317
v 0.048031496 -0.0165354326 0
v 0.048031496 -0.0125984209 -0.0157480317
v 0.048031496 -0.0125984209 -0.00393700793
v 0.048031496 -0.0106299207 -0.0157480317
v 0.048031496 -0.0106299207 -0.00393700793
v 0.048031496 -0.00669291274 -0.0157480317
v 0.048031496 -0.00669291274 -0.00787401587
v 0.048031496 -0.00472440877 -0.0157480317
v 0.048031496 -0.00472440877 -0.00787401587
v 0.048031496 -0.000787400836 -0.0157480317
v 0.048031496 -0.000787400836 -0.0118110238
v 0.048031496 0.0480314958 -0.0157480317
v 0.048031496 0.0480314958 -0.0118110238
v 0.05 -0.05 -0.0196850397
v 0.05 -0.05 -0.0177165357
v 0.05 0.05 -0.0196850397
v 0.05 0.05 -0.0177165357
f 135 131 133
f 133 131 129
f 133 129 169
f 169 129 167
f 127 123 125
f 125 123 121
f 125 121 165
f 165 121 163
f 119 115 117
f 117 115 113
f 117 113 161
f 161 113 159
f 111 107 109
f 109 107 105
f 109 105 157
f 157 105 155
f 103 99 101
f 101 99 97
f 101 97 153
f 153 97 151
f 39 35 37
f 37 35 33
f 37 33 41
f 41 33 45
f 41 45 43
f 43 45 47
f 95 91 93
f 93 91 89
f 93 89 149
f 149 89 147
f 31 27 29
f 29 27 25
f 29 25 49
f 49 25 53
f 49 53 51
f 51 53 55
f 87 83 85
f 85 83 81
f 85 81 145
f 145 81 143
f 23 19 21
f 21 19 17
f 21 17 57
f 57 17 61
f 57 61 59
f 59 61 63
f 79 75 77
f 77 75 73
f 77 73 141
f 141 73 139
f 15 11 13
f 13 11 9
f 13 9 65
f 65 9 69
f 65 69 67
f 67 69 71
f 174 173 176
f 176 173 175
f 176 175 4
f 4 175 3
f 4 3 2
f 2 3 1
f 2 1 174
f 174 1 173
f 1 3 173
f 173 3 175
f 39 43 4
f 4 43 47
f 4 47 51
f 7 11 4
f 4 11 15
f 15 19 4
f 4 19 23
f 4 23 27
f 27 31 4
f 4 31 35
f 4 35 39
f 51 55 4
f 4 55 59
f 4 59 176
f 176 59 63
f 176 63 67
f 67 71 176
f 176 71 75
f 176 75 79
f 79 83 176
f 176 83 87
f 176 87 91
f 91 95 176
f 176 95 99
f 176 99 103
f 103 107 176
f 176 107 111
f 176 111 115
f 115 119 176
f 176 119 123
f 176 123 127
f 127 131 176
f 176 131 135
f 176 135 171
f 2 5 4
f 4 5 7
f 167 174 169
f 169 174 176
f 169 176 171
f 167 165 174
f 174 165 163
f 174 163 161
f 161 159 174
f 174 159 157
f 174 157 155
f 155 153 174
f 174 153 151
f 174 151 149
f 149 147 174
f 174 147 145
f 174 145 143
f 143 141 174
f 174 141 139
f 174 139 137
f 174 137 2
f 2 137 5
f 140 138 139
f 139 138 137
f 74 140 73
f 73 140 139
f 76 74 75
f 75 74 73
f 72 76 71
f 71 76 75
f 70 72 69
f 69 72 71
f 10 70 9
f 9 70 69
f 12 10 11
f 11 10 9
f 8 12 7
f 7 12 11
f 6 8 5
f 5 8 7
f 138 6 137
f 137 6 5
f 6 138 74
f 74 138 140
f 12 8 10
f 10 8 6
f 10 6 70
f 70 6 74
f 70 74 72
f 72 74 76
f 14 13 66
f 66 13 65
f 66 65 68
f 68 65 67
f 68 67 64
f 64 67 63
f 64 63 62
f 62 63 61
f 62 61 18
f 18 61 17
f 18 17 20
f 20 17 19
f 20 19 16
f 16 19 15
f 16 15 14
f 14 15 13
f 142 141 144
f 144 141 143
f 144 143 82
f 82 143 81
f 82 81 84
f 84 81 83
f 84 83 80
f 80 83 79
f 80 79 78
f 78 79 77
f 78 77 142
f 142 77 141
f 22 21 58
f 58 21 57
f 58 57 60
f 60 57 59
f 60 59 56
f 56 59 55
f 56 55 54
f 54 55 53
f 54 53 26
f 26 53 25
f 26 25 28
f 28 25 27
f 28 27 24
f 24 27 23
f 24 23 22
f 22 23 21
f 146 145 148
f 148 145 147
f 148 147 90
f 90 147 89
f 90 89 92
f 92 89 91
f 92 91 88
f 88 91 87
f 88 87 86
f 86 87 85
f 86 85 146
f 146 85 145
f 30 29 50
f 50 29 49
f 50 49 52
f 52 49 51
f 52 51 48
f 48 51 47
f 48 47 46
f 46 47 45
f 46 45 34
f 34 45 33
f 34 33 36
f 36 33 35
f 36 35 32
f 32 35 31
f 32 31 30
f 30 31 29
f 150 149 152
f 152 149 151
f 152 151 98
f 98 151 97
f 98 97 100
f 100 97 99
f 100 99 96
f 96 99 95
f 96 95 94
f 94 95 93
f 94 93 150
f 150 93 149
f 38 37 42
f 42 37 41
f 42 41 44
f 44 41 43
f 44 43 40
f 40 43 39
f 40 39 38
f 38 39 37
f 154 153 156
f 156 153 155
f 156 155 106
f 106 155 105
f 106 105 108
f 108 105 107
f 108 107 104
f 104 107 103
f 104 103 102
f 102 103 101
f 102 101 154
f 154 101 153
f 158 157 160
f 160 157 159
f 160 159 114
f 114 159 113
f 114 113 116
f 116 113 115
f 116 115 112
f 112 115 111
f 112 111 110
f 110 111 109
f 110 109 158
f 158 109 157
f 162 161 164
f 164 161 163
f 164 163 122
f 122 163 121
f 122 121 124
f 124 121 123
f 124 123 120
f 120 123 119
f 120 119 118
f 118 119 117
f 118 117 162
f 162 117 161
f 166 165 168
f 168 165 167
f 168 167 130
f 130 167 129
f 130 129 132
f 132 129 131
f 132 131 128
f 128 131 127
f 128 127 126
f 126 127 125
f 126 125 166
f 166 125 165
f 170 169 172
f 172 169 171
f 172 171 136
f 136 171 135
f 136 135 134
f 134 135 133
f 134 133 170
f 170 133 169
f 20 16 18
f 18 16 14
f 18 14 62
f 62 14 66
f 62 66 64
f 64 66 68
f 84 80 82
f 82 80 78
f 82 78 144
f 144 78 142
f 28 24 26
f 26 24 22
f 26 22 54
f 54 22 58
f 54 58 56
f 56 58 60
f 92 88 90
f 90 88 86
f 90 86 148
f 148 86 146
f 36 32 34
f 34 32 30
f 34 30 46
f 46 30 50
f 46 50 48
f 48 50 52
f 100 96 98
f 98 96 94
f 98 94 152
f 152 94 150
f 38 42 40
f 40 42 44
f 108 104 106
f 106 104 102
f 106 102 156
f 156 102 154
f 116 112 114
f 114 112 110
f 114 110 160
f 160 110 158
f 124 120 122
f 122 120 118
f 122 118 164
f 164 118 162
f 132 128 130
f 130 128 126
f 130 126 168
f 168 126 166
f 134 170 136
f 136 170 172
