# Converted from Thingi10K 639930.stl
# welded vertices: 412, faces: 876
v -0.0383928571 0 -0.0107142857
v -0.0383928571 0 -0.00714285714
v -0.0383928571 0 -0.00485714286
v -0.0383928571 0 -0.00135714286
v -0.0383235 -0.000659828571 -0.00714285714
v -0.0383235 -0.000659828571 -0.00485714286
v -0.0383235 0.000659828571 -0.00714285714
v -0.0383235 0.000659828571 -0.00485714286
v -0.0382541429 -0.00131965714 -0.006
v -0.0382541429 0.00131965714 -0.006
v -0.0380175 -0.00357142857 -0.00135714286
v -0.0380175 -0.00357142857 0.0107142857
v -0.0380175 0.00357142857 -0.00135714286
v -0.0380175 0.00357142857 0.0107142857
v -0.0373002143 -0.0103955714 -0.0107142857
v -0.0373002143 -0.0103955714 0.0107142857
v -0.0373002143 0.0103955714 -0.0107142857
v -0.0373002143 0.0103955714 0.0107142857
v -0.0365877857 -0.0125883571 -0.00135714286
v -0.0365877857 -0.0125883571 0.0107142857
v -0.0365877857 0.0125883571 -0.00135714286
v -0.0365877857 0.0125883571 0.0107142857
v -0.0358918571 -0.0147301429 -0.006
v -0.0358918571 0.0147301429 -0.006
v -0.0356879286 -0.0153577143 -0.00714285714
v -0.0356879286 -0.0153577143 -0.00485714286
v -0.0356879286 0.0153577143 -0.00714285714
v -0.0356879286 0.0153577143 -0.00485714286
v -0.0352801429 -0.0166128571 -0.00714285714
v -0.0352801429 -0.0166128571 -0.00485714286
v -0.0352801429 0.0166128571 -0.00714285714
v -0.0352801429 0.0166128571 -0.00485714286
v -0.0350762143 -0.0172405 -0.006
v -0.0350762143 0.0172405 -0.006
v -0.0348214286 0 -0.0107142857
v -0.0348214286 0 -0.00714285714
v -0.0348214286 0 -0.00485714286
v -0.0348214286 0 -0.00135714286
v -0.0347520714 -0.000659828571 -0.00714285714
v -0.0347520714 -0.000659828571 -0.00485714286
v -0.0347520714 0.000659828571 -0.00714285714
v -0.0347520714 0.000659828571 -0.00485714286
v -0.0346827143 -0.00131965714 -0.006
v -0.0346827143 0.00131965714 -0.006
v -0.0344460714 -0.00357142857 -0.00135714286
v -0.0344460714 -0.00357142857 0.0107142857
v -0.0344460714 0.00357142857 -0.00135714286
v -0.0344460714 0.00357142857 0.0107142857
v -0.0343802857 -0.0193822143 -0.00135714286
v -0.0343802857 -0.0193822143 0.0107142857
v -0.0343802857 0.0193822143 -0.00135714286
v -0.0343802857 0.0193822143 0.0107142857
v -0.0340701429 -0.0203368571 -0.0107142857
v -0.0340701429 -0.0203368571 0.0107142857
v -0.0340701429 0.0203368571 -0.0107142857
v -0.0340701429 0.0203368571 0.0107142857
v -0.0338068571 -0.00965307143 -0.0107142857
v -0.0338068571 -0.00965307143 0.0107142857
v -0.0338068571 0.00965307143 -0.0107142857
v -0.0338068571 0.00965307143 0.0107142857
v -0.0332240714 -0.0114465714 -0.00135714286
v -0.0332240714 -0.0114465714 0.0107142857
v -0.0332240714 0.0114465714 -0.00135714286
v -0.0332240714 0.0114465714 0.0107142857
v -0.0325282143 -0.0135882857 -0.006
v -0.0325282143 0.0135882857 -0.006
v -0.0323242857 -0.0142159286 -0.00714285714
v -0.0323242857 -0.0142159286 -0.00485714286
v -0.0323242857 0.0142159286 -0.00714285714
v -0.0323242857 0.0142159286 -0.00485714286
v -0.0319164286 -0.0154710714 -0.00714285714
v -0.0319164286 -0.0154710714 -0.00485714286
v -0.0319164286 0.0154710714 -0.00714285714
v -0.0319164286 0.0154710714 -0.00485714286
v -0.0317125714 -0.0160986429 -0.006
v -0.0317125714 0.0160986429 -0.006
v -0.0310166429 -0.0182404286 -0.00135714286
v -0.0310166429 -0.0182404286 0.0107142857
v -0.0310166429 0.0182404286 -0.00135714286
v -0.0310166429 0.0182404286 0.0107142857
v -0.0308075 -0.0188842143 -0.0107142857
v -0.0308075 -0.0188842143 0.0107142857
v -0.0308075 0.0188842143 -0.0107142857
v -0.0308075 0.0188842143 0.0107142857
v -0.0299847857 -0.0274129286 -0.00135714286
v -0.0299847857 -0.0274129286 0.0107142857
v -0.0299847857 0.0274129286 -0.00135714286
v -0.0299847857 0.0274129286 0.0107142857
v -0.0288491429 -0.0293797857 -0.006
v -0.0288491429 0.0293797857 -0.006
v -0.0288437143 -0.0293892857 -0.0107142857
v -0.0288437143 -0.0293892857 -0.00601872143
v -0.0288437143 -0.0293892857 -0.00598127857
v -0.0288437143 -0.0293892857 -0.00135714286
v -0.0288437143 0.0293892857 -0.0107142857
v -0.0288437143 0.0293892857 -0.00601872143
v -0.0288437143 0.0293892857 -0.00598127857
v -0.0288437143 0.0293892857 -0.00135714286
v -0.0284080714 -0.0298730714 -0.00714285714
v -0.0284080714 -0.0298730714 -0.00485714286
v -0.0284080714 0.0298730714 -0.00714285714
v -0.0284080714 0.0298730714 -0.00485714286
v -0.0275223571 -0.0308567857 -0.00714285714
v -0.0275223571 -0.0308567857 -0.00485714286
v -0.0275223571 0.0308567857 -0.00714285714
v -0.0275223571 0.0308567857 -0.00485714286
v -0.0271425714 -0.025232 -0.00135714286
v -0.0271425714 -0.025232 0.0107142857
v -0.0271425714 0.025232 -0.00135714286
v -0.0271425714 0.025232 0.0107142857
v -0.0270794286 -0.0313486429 -0.006
v -0.0270794286 0.0313486429 -0.006
v -0.0260069286 -0.0271989286 -0.006
v -0.0260069286 0.0271989286 -0.006
v -0.0259543571 -0.02729 -0.0107142857
v -0.0259543571 -0.02729 -0.00618065
v -0.0259543571 -0.02729 -0.00581935
v -0.0259543571 -0.02729 -0.00135714286
v -0.0259543571 0.02729 -0.0107142857
v -0.0259543571 0.02729 -0.00618065
v -0.0259543571 0.02729 -0.00581935
v -0.0259543571 0.02729 -0.00135714286
v -0.0255815 -0.0277041429 -0.00714285714
v -0.0255815 -0.0277041429 -0.00485714286
v -0.0255815 0.0277041429 -0.00714285714
v -0.0255815 0.0277041429 -0.00485714286
v -0.0255680714 -0.0330272143 -0.00135714286
v -0.0255680714 -0.0330272143 0.0107142857
v -0.0255680714 0.0330272143 -0.00135714286
v -0.0255680714 0.0330272143 0.0107142857
v -0.0246957143 -0.0286878571 -0.00714285714
v -0.0246957143 -0.0286878571 -0.00485714286
v -0.0246957143 0.0286878571 -0.00714285714
v -0.0246957143 0.0286878571 -0.00485714286
v -0.0242528571 -0.0291797143 -0.006
v -0.0242528571 0.0291797143 -0.006
v -0.0227415 -0.0308582857 -0.00135714286
v -0.0227415 -0.0308582857 0.0107142857
v -0.0227415 0.0308582857 -0.00135714286
v -0.0227415 0.0308582857 0.0107142857
v -0.0218493571 -0.0371572143 -0.0107142857
v -0.0218493571 -0.0371572143 0.0107142857
v -0.0218493571 0.0371572143 -0.0107142857
v -0.0218493571 0.0371572143 0.0107142857
v -0.0194596429 -0.0345031429 -0.0107142857
v -0.0194596429 -0.0345031429 0.0107142857
v -0.0194596429 0.0345031429 -0.0107142857
v -0.0194596429 0.0345031429 0.0107142857
v -0.0189320714 -0.0392767857 -0.00135714286
v -0.0189320714 -0.0392767857 0.0107142857
v -0.0189320714 0.0392767857 -0.00135714286
v -0.0189320714 0.0392767857 0.0107142857
v -0.0171089286 -0.0406013571 -0.006
v -0.0171089286 0.0406013571 -0.006
v -0.0169572857 -0.0363212143 -0.00135714286
v -0.0169572857 -0.0363212143 0.0107142857
v -0.0169572857 0.0363212143 -0.00135714286
v -0.0169572857 0.0363212143 0.0107142857
v -0.0165747143 -0.0409895 -0.00714285714
v -0.0165747143 -0.0409895 -0.00485714286
v -0.0165747143 0.0409895 -0.00714285714
v -0.0165747143 0.0409895 -0.00485714286
v -0.0155062857 -0.0417657857 -0.00714285714
v -0.0155062857 -0.0417657857 -0.00485714286
v -0.0155062857 0.0417657857 -0.00714285714
v -0.0155062857 0.0417657857 -0.00485714286
v -0.0151341429 -0.0376457857 -0.006
v -0.0151341429 0.0376457857 -0.006
v -0.0149720714 -0.0421539286 -0.006
v -0.0149720714 0.0421539286 -0.006
v -0.0145999286 -0.0380339286 -0.00714285714
v -0.0145999286 -0.0380339286 -0.00485714286
v -0.0145999286 0.0380339286 -0.00714285714
v -0.0145999286 0.0380339286 -0.00485714286
v -0.0135314286 -0.0388102143 -0.00714285714
v -0.0135314286 -0.0388102143 -0.00485714286
v -0.0135314286 0.0388102143 -0.00714285714
v -0.0135314286 0.0388102143 -0.00485714286
v -0.0133928571 -0.0433012857 -0.0107142857
v -0.0133928571 -0.0433012857 -0.00135714286
v -0.0133928571 0.0433012857 -0.0107142857
v -0.0133928571 0.0433012857 -0.00135714286
v -0.0131135714 -0.0434255714 -0.00135714286
v -0.0131135714 -0.0434255714 0.0107142857
v -0.0131135714 0.0434255714 -0.00135714286
v -0.0131135714 0.0434255714 0.0107142857
v -0.0129972143 -0.0391983571 -0.006
v -0.0129972143 0.0391983571 -0.006
v -0.0116071429 -0.0402083571 -0.0107142857
v -0.0116071429 -0.0402083571 -0.00135714286
v -0.0116071429 0.0402083571 -0.0107142857
v -0.0116071429 0.0402083571 -0.00135714286
v -0.0111113571 -0.0404290714 -0.00135714286
v -0.0111113571 -0.0404290714 0.0107142857
v -0.0111113571 0.0404290714 -0.00135714286
v -0.0111113571 0.0404290714 0.0107142857
v -0.00472664286 -0.0471597143 -0.00135714286
v -0.00472664286 -0.0471597143 0.0107142857
v -0.00472664286 0.0471597143 -0.00135714286
v -0.00472664286 0.0471597143 0.0107142857
v -0.00384371429 -0.0475528571 -0.0107142857
v -0.00384371429 -0.0475528571 -0.00135714286
v -0.00384371429 0.0475528571 -0.0107142857
v -0.00384371429 0.0475528571 -0.00135714286
v -0.00379592857 -0.0436860714 -0.00135714286
v -0.00379592857 -0.0436860714 0.0107142857
v -0.00379592857 0.0436860714 -0.00135714286
v -0.00379592857 0.0436860714 0.0107142857
v -0.00274007143 -0.0441562143 -0.0107142857
v -0.00274007143 -0.0441562143 -0.00135714286
v -0.00274007143 0.0441562143 -0.0107142857
v -0.00274007143 0.0441562143 -0.00135714286
v -0.00257314286 -0.0478228571 -0.006
v -0.00257314286 0.0478228571 -0.006
v -0.00192685714 -0.0479602857 -0.00714285714
v -0.00192685714 -0.0479602857 -0.00485714286
v -0.00192685714 0.0479602857 -0.00714285714
v -0.00192685714 0.0479602857 -0.00485714286
v -0.00165264286 -0.0443873571 -0.006
v -0.00165264286 0.0443873571 -0.006
v -0.00100635714 -0.0445247143 -0.00714285714
v -0.00100635714 -0.0445247143 -0.00485714286
v -0.00100635714 0.0445247143 -0.00714285714
v -0.00100635714 0.0445247143 -0.00485714286
v -0.000634285714 -0.048235 -0.00714285714
v -0.000634285714 -0.048235 -0.00485714286
v -0.000634285714 0.048235 -0.00714285714
v -0.000634285714 0.048235 -0.00485714286
v 1.2e-05 -0.0483723571 -0.006
v 1.2e-05 0.0483723571 -0.006
v 0.000286285714 -0.0447995 -0.00714285714
v 0.000286285714 -0.0447995 -0.00485714286
v 0.000286285714 0.0447995 -0.00714285714
v 0.000286285714 0.0447995 -0.00485714286
v 0.000932571429 -0.0449368571 -0.006
v 0.000932571429 0.0449368571 -0.006
v 0.00221757143 -0.0488412143 -0.00135714286
v 0.00221757143 -0.0488412143 0.0107142857
v 0.00221757143 0.0488412143 -0.00135714286
v 0.00221757143 0.0488412143 0.0107142857
v 0.00313814286 -0.0454056429 -0.00135714286
v 0.00313814286 -0.0454056429 0.0107142857
v 0.00313814286 0.0454056429 -0.00135714286
v 0.00313814286 0.0454056429 0.0107142857
v 0.00638072143 -0.0497260714 -0.0107142857
v 0.00638072143 -0.0497260714 0.0107142857
v 0.00638072143 0.0497260714 -0.0107142857
v 0.00638072143 0.0497260714 0.0107142857
v 0.00675403571 -0.0461742143 -0.0107142857
v 0.00675403571 -0.0461742143 0.0107142857
v 0.00675403571 0.0461742143 -0.0107142857
v 0.00675403571 0.0461742143 0.0107142857
v 0.0116071429 -0.05 -0.0107142857
v 0.0116071429 -0.05 0.0107142857
v 0.0116071429 -0.0497260714 -0.0107142857
v 0.0116071429 -0.0497260714 0.0107142857
v 0.0116071429 -0.0461742143 -0.0107142857
v 0.0116071429 -0.0461742143 0.0107142857
v 0.0116071429 -0.0406053571 -0.00607142857
v 0.0116071429 -0.0399455714 -0.00721428571
v 0.0116071429 -0.0399455714 -0.00492857143
v 0.0116071429 -0.0386258571 -0.00721428571
v 0.0116071429 -0.0386258571 -0.00492857143
v 0.0116071429 -0.0379660714 -0.00607142857
v 0.0116071429 -0.0263196429 -0.00607142857
v 0.0116071429 -0.0256598571 -0.00721428571
v 0.0116071429 -0.0256598571 -0.00492857143
v 0.0116071429 -0.0243401429 -0.00721428571
v 0.0116071429 -0.0243401429 -0.00492857143
v 0.0116071429 -0.0236803571 -0.00607142857
v 0.0116071429 0.0236803571 -0.00607142857
v 0.0116071429 0.0243401429 -0.00721428571
v 0.0116071429 0.0243401429 -0.00492857143
v 0.0116071429 0.0256598571 -0.00721428571
v 0.0116071429 0.0256598571 -0.00492857143
v 0.0116071429 0.0263196429 -0.00607142857
v 0.0116071429 0.0379660714 -0.00607142857
v 0.0116071429 0.0386258571 -0.00721428571
v 0.0116071429 0.0386258571 -0.00492857143
v 0.0116071429 0.0399455714 -0.00721428571
v 0.0116071429 0.0399455714 -0.00492857143
v 0.0116071429 0.0406053571 -0.00607142857
v 0.0116071429 0.0461742143 -0.0107142857
v 0.0116071429 0.0461742143 0.0107142857
v 0.0116071429 0.0497260714 -0.0107142857
v 0.0116071429 0.0497260714 0.0107142857
v 0.0116071429 0.05 -0.0107142857
v 0.0116071429 0.05 0.0107142857
v 0.0151785714 -0.05 -0.0107142857
v 0.0151785714 -0.05 0.0107142857
v 0.0151785714 -0.0406053571 -0.00607142857
v 0.0151785714 -0.0399455714 -0.00721428571
v 0.0151785714 -0.0399455714 -0.00492857143
v 0.0151785714 -0.0386258571 -0.00721428571
v 0.0151785714 -0.0386258571 -0.00492857143
v 0.0151785714 -0.0379660714 -0.00607142857
v 0.0151785714 -0.0263196429 -0.00607142857
v 0.0151785714 -0.0256598571 -0.00721428571
v 0.0151785714 -0.0256598571 -0.00492857143
v 0.0151785714 -0.0243401429 -0.00721428571
v 0.0151785714 -0.0243401429 -0.00492857143
v 0.0151785714 -0.0236803571 -0.00607142857
v 0.0151785714 -0.0107142857 -0.0107142857
v 0.0151785714 -0.0107142857 0.0107142857
v 0.0151785714 0.0107142857 -0.0107142857
v 0.0151785714 0.0107142857 0.0107142857
v 0.0151785714 0.0236803571 -0.00607142857
v 0.0151785714 0.0243401429 -0.00721428571
v 0.0151785714 0.0243401429 -0.00492857143
v 0.0151785714 0.0256598571 -0.00721428571
v 0.0151785714 0.0256598571 -0.00492857143
v 0.0151785714 0.0263196429 -0.00607142857
v 0.0151785714 0.0379660714 -0.00607142857
v 0.0151785714 0.0386258571 -0.00721428571
v 0.0151785714 0.0386258571 -0.00492857143
v 0.0151785714 0.0399455714 -0.00721428571
v 0.0151785714 0.0399455714 -0.00492857143
v 0.0151785714 0.0406053571 -0.00607142857
v 0.0151785714 0.05 -0.0107142857
v 0.0151785714 0.05 0.0107142857
v 0.0170357143 -0.00752992857 -0.000791428571
v 0.0170357143 -0.00752992857 0.000791428571
v 0.0170357143 -0.00720085714 -0.00233971429
v 0.0170357143 -0.00720085714 0.00233971429
v 0.0170357143 -0.00655705 -0.00378571429
v 0.0170357143 -0.00655705 0.00378571429
v 0.0170357143 -0.00562666429 -0.00506627143
v 0.0170357143 -0.00562666429 0.00506628571
v 0.0170357143 -0.00445037143 -0.00612541429
v 0.0170357143 -0.00445037143 0.00612542857
v 0.0170357143 -0.00307957857 -0.00691684286
v 0.0170357143 -0.00307957857 0.00691685714
v 0.0170357143 -0.00157418571 -0.00740597143
v 0.0170357143 -0.00157418571 0.007406
v 0.0170357143 0 -0.00757142857
v 0.0170357143 0 0.00757142857
v 0.0170357143 0.00157418571 -0.00740597143
v 0.0170357143 0.00157418571 0.007406
v 0.0170357143 0.00307957857 -0.00691684286
v 0.0170357143 0.00307957857 0.00691685714
v 0.0170357143 0.00445037143 -0.00612541429
v 0.0170357143 0.00445037143 0.00612542857
v 0.0170357143 0.00562666429 -0.00506627143
v 0.0170357143 0.00562666429 0.00506628571
v 0.0170357143 0.00655705 -0.00378571429
v 0.0170357143 0.00655705 0.00378571429
v 0.0170357143 0.00720085714 -0.00233971429
v 0.0170357143 0.00720085714 0.00233971429
v 0.0170357143 0.00752992857 -0.000791428571
v 0.0170357143 0.00752992857 0.000791428571
v 0.0383928571 -0.0107142857 -0.0107142857
v 0.0383928571 -0.0107142857 0.0107142857
v 0.0383928571 -0.00816714286 -0.000858428571
v 0.0383928571 -0.00816714286 0.000858428571
v 0.0383928571 -0.00816607143 -0.000863571429
v 0.0383928571 -0.00781128571 0.0025325
v 0.0383928571 -0.00781021429 -0.00253771429
v 0.0383928571 -0.00781021429 0.00253771429
v 0.0383928571 -0.00780807143 -0.0025425
v 0.0383928571 -0.00711407143 0.00410128571
v 0.0383928571 -0.00711192143 -0.00410607143
v 0.0383928571 -0.00711192143 0.00410607143
v 0.0383928571 -0.00710882143 -0.00411034286
v 0.0383928571 -0.00610591429 0.00549071429
v 0.0383928571 -0.00610281429 -0.00549499286
v 0.0383928571 -0.00610281429 0.005495
v 0.0383928571 -0.00609889286 -0.00549852857
v 0.0383928571 -0.0048309 0.00664021429
v 0.0383928571 -0.00482697857 -0.00664376429
v 0.0383928571 -0.00482697857 0.00664378571
v 0.0383928571 -0.00482240714 -0.0066464
v 0.0383928571 -0.00334475 0.0074995
v 0.0383928571 -0.00334017857 -0.00750216429
v 0.0383928571 -0.00334017857 0.00750214286
v 0.0383928571 -0.00333516429 -0.00750379286
v 0.0383928571 -0.00171242143 0.00803107143
v 0.0383928571 -0.0017074 -0.00803268571
v 0.0383928571 -0.0017074 0.00803271429
v 0.0383928571 -0.00170215 -0.00803323571
v 0.0383928571 -5.24729286e-06 0.00821157143
v 0.0383928571 0 -0.00821214286
v 0.0383928571 0 0.00821214286
v 0.0383928571 5.24729286e-06 -0.00821159286
v 0.0383928571 0.00170215 0.00803321429
v 0.0383928571 0.0017074 -0.00803268571
v 0.0383928571 0.0017074 0.00803271429
v 0.0383928571 0.00171242143 -0.00803105714
v 0.0383928571 0.00333516429 0.00750378571
v 0.0383928571 0.00334017857 -0.00750216429
v 0.0383928571 0.00334017857 0.00750214286
v 0.0383928571 0.00334475 -0.00749952857
v 0.0383928571 0.00482240714 0.00664642857
v 0.0383928571 0.00482697857 -0.00664376429
v 0.0383928571 0.00482697857 0.00664378571
v 0.0383928571 0.0048309 -0.00664023571
v 0.0383928571 0.00609889286 0.0054985
v 0.0383928571 0.00610281429 -0.00549499286
v 0.0383928571 0.00610281429 0.005495
v 0.0383928571 0.00610591429 -0.00549072857
v 0.0383928571 0.00710882143 0.00411035714
v 0.0383928571 0.00711192143 -0.00410607143
v 0.0383928571 0.00711192143 0.00410607143
v 0.0383928571 0.00711407143 -0.00410125
v 0.0383928571 0.00780807143 0.0025425
v 0.0383928571 0.00781021429 -0.00253771429
v 0.0383928571 0.00781021429 0.00253771429
v 0.0383928571 0.00781128571 -0.0025325
v 0.0383928571 0.00816607143 0.000863571429
v 0.0383928571 0.00816714286 -0.000858428571
v 0.0383928571 0.00816714286 0.000858428571
v 0.0383928571 0.0107142857 -0.0107142857
v 0.0383928571 0.0107142857 0.0107142857
f 1 17 15
f 15 17 55
f 59 55 95
f 119 95 143
f 147 143 181
f 191 181 203
f 211 203 247
f 251 247 285
f 285 287 319
f 305 411 351
f 257 303 289
f 255 289 253
f 119 143 147
f 35 15 59
f 209 245 201
f 145 201 179
f 115 179 141
f 15 141 91
f 15 91 53
f 57 15 35
f 81 15 57
f 115 15 81
f 145 179 115
f 15 115 141
f 189 201 145
f 209 201 189
f 283 303 257
f 285 319 283
f 305 351 303
f 257 289 255
f 283 305 303
f 249 245 209
f 257 255 249
f 83 95 119
f 59 95 83
f 15 55 59
f 245 249 255
f 147 181 191
f 191 203 211
f 211 247 251
f 283 319 305
f 251 285 283
f 1 2 17
f 17 2 7
f 17 7 10
f 10 8 17
f 8 3 4
f 8 4 17
f 17 4 13
f 17 13 14
f 17 14 18
f 1 15 2
f 11 15 16
f 4 6 11
f 9 15 11
f 9 11 6
f 4 3 6
f 5 15 9
f 2 15 5
f 11 16 12
f 50 53 54
f 49 53 50
f 15 19 16
f 26 19 23
f 15 53 25
f 15 25 23
f 15 23 19
f 30 19 26
f 33 53 30
f 20 16 19
f 29 53 33
f 25 53 29
f 30 53 49
f 19 30 49
f 53 91 54
f 54 91 92
f 54 92 89
f 54 89 93
f 85 93 94
f 54 93 85
f 86 54 85
f 127 141 142
f 94 100 127
f 104 141 127
f 104 127 100
f 94 93 100
f 111 141 104
f 103 141 111
f 91 141 103
f 91 103 99
f 91 99 92
f 127 142 128
f 159 141 179
f 153 160 149
f 142 141 149
f 153 141 159
f 169 163 179
f 149 141 153
f 149 150 142
f 180 169 179
f 180 164 169
f 163 159 179
f 180 160 164
f 180 149 160
f 180 179 201
f 183 180 201
f 197 183 201
f 202 197 201
f 198 183 197
f 184 183 198
f 215 201 245
f 213 216 202
f 237 202 245
f 246 237 245
f 225 215 245
f 213 201 215
f 229 225 245
f 202 201 213
f 202 226 245
f 202 216 226
f 226 229 245
f 238 237 246
f 246 245 255
f 256 246 255
f 253 254 255
f 255 254 256
f 254 253 289
f 290 254 289
f 292 289 303
f 304 290 303
f 294 292 303
f 291 289 292
f 295 296 303
f 290 289 291
f 301 302 303
f 298 295 303
f 290 293 295
f 296 294 303
f 300 298 303
f 290 295 298
f 290 298 297
f 302 300 303
f 290 297 299
f 290 301 303
f 290 299 301
f 291 293 290
f 304 303 351
f 352 304 351
f 385 351 411
f 352 351 353
f 352 353 354
f 352 354 356
f 393 391 411
f 352 356 358
f 385 383 351
f 352 358 360
f 352 360 362
f 352 362 364
f 352 364 366
f 370 352 368
f 406 408 411
f 372 352 370
f 374 352 372
f 376 352 374
f 382 384 412
f 378 352 376
f 412 352 378
f 410 409 411
f 412 380 382
f 412 384 386
f 412 386 388
f 412 388 390
f 412 390 392
f 412 392 394
f 412 394 396
f 405 403 411
f 412 396 398
f 412 398 400
f 412 400 402
f 412 402 404
f 412 406 411
f 412 404 406
f 408 410 411
f 407 405 411
f 403 401 411
f 401 399 411
f 399 397 411
f 395 393 411
f 391 389 411
f 389 387 411
f 387 385 411
f 381 351 383
f 379 351 381
f 377 351 379
f 375 351 377
f 373 351 375
f 371 351 373
f 369 351 371
f 367 351 369
f 365 351 367
f 363 351 365
f 361 351 363
f 359 351 361
f 357 351 359
f 355 351 357
f 353 351 355
f 366 368 352
f 378 380 412
f 409 407 411
f 397 395 411
f 305 306 411
f 411 306 412
f 308 305 319
f 310 308 319
f 306 305 308
f 315 317 306
f 306 308 307
f 312 310 319
f 306 307 309
f 314 311 319
f 306 309 311
f 318 316 319
f 316 314 319
f 306 311 314
f 306 314 313
f 317 318 319
f 306 313 315
f 320 317 319
f 320 306 317
f 311 312 319
f 287 288 319
f 319 288 320
f 285 286 287
f 287 286 288
f 247 248 285
f 285 248 286
f 228 204 247
f 247 204 239
f 247 239 240
f 247 240 248
f 214 204 218
f 203 204 214
f 230 247 227
f 203 217 247
f 217 227 247
f 217 203 214
f 230 228 247
f 218 204 228
f 181 182 203
f 203 182 185
f 203 185 186
f 199 186 200
f 203 186 199
f 204 203 199
f 182 170 166
f 143 144 151
f 165 181 161
f 154 151 162
f 182 181 170
f 143 151 154
f 143 154 161
f 143 161 181
f 182 162 151
f 170 181 165
f 182 166 162
f 151 144 152
f 95 101 143
f 95 96 101
f 101 105 143
f 143 112 106
f 106 98 143
f 102 97 98
f 102 98 106
f 143 98 129
f 143 129 130
f 143 130 144
f 112 143 105
f 55 56 95
f 87 56 88
f 95 56 87
f 95 90 96
f 98 97 90
f 90 95 87
f 98 90 87
f 51 32 21
f 17 18 21
f 31 55 27
f 28 21 32
f 55 51 52
f 55 52 56
f 17 21 28
f 17 28 24
f 17 24 27
f 17 27 55
f 34 55 31
f 51 34 32
f 51 55 34
f 21 18 22
f 59 60 48
f 38 59 47
f 47 59 48
f 42 59 38
f 37 42 38
f 41 59 44
f 36 59 41
f 35 59 36
f 42 44 59
f 57 39 43
f 45 58 43
f 40 38 43
f 36 39 57
f 37 38 40
f 38 45 43
f 46 58 45
f 58 57 43
f 57 35 36
f 83 84 80
f 74 83 79
f 79 83 80
f 60 63 64
f 59 63 60
f 59 70 63
f 63 74 79
f 76 83 74
f 76 73 83
f 59 83 73
f 59 73 69
f 59 66 70
f 59 69 66
f 70 74 63
f 109 84 119
f 119 120 114
f 109 119 114
f 121 122 114
f 122 109 114
f 110 84 109
f 84 83 119
f 147 148 140
f 122 147 139
f 139 147 140
f 134 147 122
f 121 126 122
f 126 134 122
f 136 147 134
f 125 147 133
f 119 147 125
f 119 125 120
f 136 133 147
f 174 192 157
f 188 177 191
f 158 148 157
f 148 147 157
f 178 192 174
f 188 192 178
f 191 192 188
f 147 191 173
f 147 168 157
f 147 173 168
f 177 173 191
f 168 174 157
f 195 192 211
f 211 212 207
f 196 211 207
f 208 196 207
f 196 195 211
f 192 191 211
f 251 252 244
f 212 251 243
f 243 251 244
f 234 251 212
f 220 224 212
f 224 234 212
f 236 251 234
f 223 220 211
f 211 251 233
f 211 233 223
f 211 220 212
f 236 233 251
f 283 284 252
f 251 283 252
f 276 283 274
f 275 258 284
f 257 258 259
f 257 259 260
f 257 260 283
f 260 262 283
f 263 258 264
f 266 264 265
f 261 258 263
f 259 258 261
f 264 258 265
f 262 266 283
f 266 268 283
f 271 258 273
f 267 258 269
f 282 283 280
f 270 269 283
f 265 258 267
f 269 258 271
f 269 271 272
f 269 272 283
f 272 274 283
f 277 276 284
f 273 258 275
f 276 275 284
f 278 276 277
f 279 277 284
f 283 276 278
f 283 278 280
f 283 282 284
f 282 281 284
f 281 279 284
f 270 283 268
f 264 266 262
f 258 257 250
f 250 257 249
f 241 242 250
f 241 250 249
f 241 249 210
f 219 209 210
f 249 209 221
f 249 221 231
f 249 231 235
f 249 235 232
f 249 232 210
f 219 210 222
f 221 209 219
f 222 210 232
f 193 194 206
f 193 206 205
f 193 209 190
f 205 210 209
f 205 209 193
f 209 189 190
f 156 155 146
f 176 155 190
f 146 155 145
f 145 171 189
f 176 190 187
f 189 175 187
f 189 187 190
f 172 155 176
f 167 155 172
f 145 155 167
f 145 167 171
f 175 189 171
f 145 123 131
f 132 118 135
f 135 145 131
f 116 123 115
f 124 118 132
f 137 145 135
f 117 118 124
f 118 137 135
f 138 146 137
f 146 145 137
f 145 115 123
f 113 115 82
f 82 108 107
f 117 82 107
f 118 117 107
f 117 113 82
f 116 115 113
f 115 81 82
f 58 62 61
f 57 58 61
f 78 82 77
f 82 81 77
f 65 57 61
f 81 57 67
f 81 67 71
f 77 81 75
f 77 72 61
f 77 75 72
f 72 68 61
f 68 65 61
f 67 57 65
f 71 75 81
f 18 14 48
f 64 18 60
f 60 18 48
f 22 18 64
f 47 48 14
f 13 47 14
f 11 45 38
f 47 11 38
f 47 13 11
f 13 4 11
f 42 37 8
f 8 37 40
f 8 40 6
f 8 6 3
f 10 44 42
f 8 10 42
f 41 44 10
f 7 41 10
f 5 39 36
f 41 5 36
f 41 7 5
f 7 2 5
f 43 39 9
f 9 39 5
f 43 9 40
f 40 9 6
f 46 45 12
f 12 45 11
f 46 12 16
f 58 46 20
f 20 46 16
f 62 58 20
f 61 62 20
f 19 61 20
f 49 77 61
f 19 49 61
f 78 77 50
f 50 77 49
f 78 50 54
f 82 78 86
f 86 78 54
f 108 82 86
f 25 67 65
f 23 25 65
f 29 71 67
f 25 29 67
f 75 71 33
f 33 71 29
f 75 33 72
f 72 33 30
f 72 30 68
f 68 30 26
f 65 68 26
f 23 65 26
f 107 108 86
f 85 107 86
f 94 127 137
f 107 94 118
f 118 94 137
f 85 94 107
f 113 117 100
f 100 117 124
f 113 100 93
f 113 93 89
f 92 99 123
f 113 92 116
f 116 92 123
f 89 92 113
f 103 131 123
f 99 103 123
f 135 131 111
f 111 131 103
f 135 111 132
f 132 111 104
f 132 104 124
f 124 104 100
f 138 137 128
f 128 137 127
f 138 128 142
f 146 138 150
f 150 138 142
f 156 146 150
f 155 156 150
f 149 155 150
f 180 183 193
f 155 180 190
f 190 180 193
f 149 180 155
f 159 171 167
f 153 159 167
f 163 175 171
f 159 163 171
f 187 175 169
f 169 175 163
f 187 169 176
f 176 169 164
f 176 164 172
f 172 164 160
f 167 172 160
f 153 167 160
f 194 193 184
f 184 193 183
f 194 184 198
f 206 194 198
f 205 206 198
f 197 205 198
f 202 237 241
f 205 202 210
f 210 202 241
f 197 202 205
f 242 241 238
f 238 241 237
f 242 238 246
f 290 242 256
f 256 242 246
f 290 256 254
f 250 242 290
f 412 304 352
f 306 304 412
f 244 252 248
f 288 286 320
f 284 306 320
f 252 284 286
f 240 244 248
f 286 284 320
f 304 258 290
f 258 250 290
f 286 248 252
f 284 304 306
f 284 258 304
f 215 221 219
f 213 215 219
f 225 231 221
f 215 225 221
f 235 231 229
f 229 231 225
f 235 229 232
f 232 229 226
f 232 226 222
f 222 226 216
f 219 222 216
f 213 219 216
f 292 294 262
f 260 292 262
f 292 260 291
f 291 260 259
f 294 296 264
f 262 294 264
f 264 296 295
f 263 264 295
f 295 293 263
f 263 293 261
f 293 291 261
f 261 291 259
f 298 266 297
f 297 266 265
f 298 300 268
f 266 298 268
f 300 302 270
f 268 300 270
f 270 302 301
f 269 270 301
f 301 299 269
f 269 299 267
f 299 297 267
f 267 297 265
f 353 321 354
f 354 321 322
f 355 323 353
f 353 323 321
f 355 357 323
f 359 325 357
f 357 325 323
f 359 361 325
f 363 327 361
f 361 327 325
f 363 365 327
f 365 367 329
f 327 365 329
f 367 369 329
f 369 371 331
f 329 369 331
f 371 373 331
f 373 375 333
f 331 373 333
f 375 377 333
f 377 379 335
f 333 377 335
f 379 381 335
f 335 381 383
f 337 335 383
f 383 385 337
f 337 385 387
f 339 337 387
f 387 389 339
f 339 389 391
f 341 339 391
f 391 393 341
f 341 393 395
f 343 341 395
f 395 397 343
f 343 397 399
f 345 343 399
f 399 401 345
f 345 401 403
f 347 345 403
f 403 405 347
f 347 405 407
f 349 347 407
f 407 409 349
f 349 409 410
f 350 349 410
f 350 410 408
f 348 350 408
f 408 406 348
f 348 406 404
f 346 348 404
f 404 402 346
f 346 402 400
f 344 346 400
f 400 398 344
f 398 396 344
f 344 396 342
f 396 394 342
f 394 392 342
f 342 392 340
f 392 390 340
f 390 388 340
f 340 388 338
f 388 386 338
f 386 384 338
f 338 384 336
f 384 382 336
f 380 334 382
f 382 334 336
f 380 378 334
f 376 332 378
f 378 332 334
f 376 374 332
f 372 330 374
f 374 330 332
f 372 370 330
f 368 328 370
f 370 328 330
f 368 366 328
f 364 326 366
f 366 326 328
f 364 362 326
f 360 324 362
f 362 324 326
f 360 358 324
f 356 322 358
f 358 322 324
f 356 354 322
f 308 272 307
f 307 272 271
f 308 310 274
f 272 308 274
f 310 312 276
f 274 310 276
f 276 312 311
f 275 276 311
f 311 309 275
f 275 309 273
f 309 307 273
f 273 307 271
f 314 316 280
f 278 314 280
f 314 278 313
f 313 278 277
f 316 318 282
f 280 316 282
f 282 318 317
f 281 282 317
f 317 315 281
f 281 315 279
f 315 313 279
f 279 313 277
f 244 240 243
f 243 240 239
f 207 212 239
f 239 212 243
f 207 239 204
f 207 204 199
f 218 224 220
f 214 218 220
f 234 224 228
f 228 224 218
f 236 234 230
f 230 234 228
f 236 230 233
f 233 230 227
f 223 233 227
f 217 223 227
f 220 223 217
f 214 220 217
f 200 208 207
f 199 200 207
f 200 186 196
f 208 200 196
f 196 186 195
f 195 186 185
f 157 192 185
f 185 192 195
f 157 185 182
f 157 182 151
f 152 158 157
f 151 152 157
f 144 130 140
f 158 144 148
f 148 144 140
f 152 144 158
f 178 174 166
f 166 174 162
f 162 174 168
f 154 162 168
f 188 178 170
f 170 178 166
f 188 170 177
f 177 170 165
f 173 177 165
f 161 173 165
f 168 173 161
f 154 168 161
f 139 140 130
f 129 139 130
f 109 122 129
f 129 122 139
f 109 129 98
f 109 98 87
f 102 126 97
f 97 126 121
f 97 121 114
f 97 114 90
f 134 126 106
f 106 126 102
f 112 136 134
f 106 112 134
f 133 136 112
f 105 133 112
f 125 133 105
f 101 125 105
f 120 125 101
f 120 101 114
f 101 96 114
f 96 90 114
f 110 109 88
f 88 109 87
f 56 52 80
f 110 56 84
f 84 56 80
f 88 56 110
f 79 80 52
f 51 79 52
f 63 79 51
f 21 63 51
f 64 63 22
f 22 63 21
f 74 70 32
f 32 70 28
f 70 66 28
f 28 66 24
f 34 76 74
f 32 34 74
f 73 76 34
f 31 73 34
f 69 73 31
f 27 69 31
f 69 27 66
f 66 27 24
f 334 332 330
f 326 334 328
f 328 334 330
f 324 334 326
f 322 334 324
f 321 334 322
f 323 334 321
f 325 334 323
f 327 334 325
f 329 334 327
f 331 334 329
f 333 334 331
f 335 334 333
f 337 334 335
f 339 334 337
f 341 334 339
f 343 334 341
f 345 334 343
f 347 334 345
f 349 334 347
f 350 334 349
f 348 334 350
f 346 334 348
f 344 334 346
f 342 334 344
f 340 334 342
f 338 334 340
f 336 334 338
