# Converted from Thingi10K 70839.stl
# welded vertices: 336, faces: 668
v -0.05 -0.0293359529 0.00680028098
v -0.0499770574 -0.0281523526 0.00852379362
v -0.0499711265 -0.0304969514 -0.00852379362
v -0.049927425 -0.0273439374 -0.00852379362
v -0.0497812863 -0.0260031874 0.00852379362
v -0.0497759282 -0.0328526755 0.00680028098
v -0.0497614651 -0.0258730631 0.00680028098
v -0.0497465859 -0.0330955354 0.00852379362
v -0.0494448931 -0.0242231398 -0.00852379362
v -0.0494244462 -0.0241388821 0.00852379362
v -0.049207606 -0.0364094668 0.00680028098
v -0.0491210367 -0.0368424243 -0.00852379362
v -0.0489424343 -0.0224777381 0.00680028098
v -0.0488403601 -0.0381578501 0.00852379362
v -0.0484975161 -0.0212819693 -0.00852379362
v -0.0484147961 -0.0210773846 0.00852379362
v -0.0475952442 -0.043259613 -0.00852379362
v -0.0475952442 -0.043259613 -8.69437117e-05
v -0.0475952442 -0.043259613 0.00852379362
v -0.0471876795 -0.018401974 0.00852379362
v -0.0471620311 -0.0183509966 -0.00852379362
v -0.0459027634 -0.0158685302 0.00680028098
v -0.0452386631 0.00225454323 -0.00852379362
v -0.0452386631 0.00225454323 -8.69437117e-05
v -0.0452386631 0.00225454323 0.00852379362
v -0.0445662907 -0.0131062215 0.00852379362
v -0.0443445077 -0.0125978199 0.00680028098
v -0.044088961 -0.0119778367 -0.00852379362
v -0.043964933 -0.0011336423 0.00852379362
v -0.0436731243 -0.00203952033 -0.00852379362
v -0.0435449333 -0.0104543621 0.00852379362
v -0.0432582236 -0.00359272588 0.00680028098
v -0.043230806 -0.00930913431 0.00680028098
v -0.0431381489 -0.00416987531 -0.00852379362
v -0.0431304502 -0.00884574853 -0.00852379362
v -0.0430798291 -0.00449567342 0.00852379362
v -0.0430036128 -0.00809478703 0.00852379362
v -0.0429040361 -0.00617406451 0.00852379362
v -0.0429002379 -0.00631234771 -0.00852379362
v -0.0428971165 -0.00647403895 0.00680028098
v -0.0419342365 0.00214251502 0.00852379362
v -0.0419159751 0.00214130805 0.00680028098
v -0.0418209774 0.00213486748 -0.00852379362
v -0.0393672656 0.00183480951 0.00680028098
v -0.0388739118 0.00173054136 0.00852379362
v -0.038666383 0.0016805817 -0.00852379362
v -0.0375034138 0.00131514965 0.00852379362
v -0.0372608744 0.00121635378 -0.00852379362
v -0.0371222792 0.00115561834 0.00680028098
v -0.0362785874 0.000703545346 0.00852379362
v -0.0361563289 0.000623820605 0.00680028098
v -0.0359562925 0.000483396231 -0.00852379362
v -0.0353110772 -5.59910911e-05 0.00680028098
v -0.0352367855 -0.000128003503 0.00852379362
v -0.0347157022 -0.000700897855 -0.00852379362
v -0.0345783549 -0.000873975176 0.00680028098
v -0.0343745203 -0.00115034211 0.00852379362
v -0.0339469788 -0.00181630606 0.00680028098
v -0.0337289419 -0.00220854203 -0.00852379362
v -0.0331199868 -0.00354675877 0.00852379362
v -0.0329431539 -0.00401875869 0.00680028098
v -0.032817878 -0.0043809517 -0.00852379362
v -0.0322948171 -0.00620016607 0.00852379362
v -0.0322094957 -0.00655281414 0.00680028098
v -0.0321474305 -0.00682058739 -0.00852379362
v -0.0311925611 -0.0121735992 -0.00852379362
v -0.0311925611 -0.0121735992 -8.69437117e-05
v -0.0311925611 -0.0121735992 0.00852379362
v -0.0300213715 0.0117269491 -0.00852379362
v -0.0300213715 0.0117269491 0.00852379362
v -0.0282539256 -0.00851483102 0.00680028098
v -0.0276313989 -0.007653737 0.00852379362
v -0.02758774 -0.00759115361 -0.00852379362
v -0.027532915 0.00749227761 0.00852379362
v -0.0275200611 0.00746875195 -0.00852379362
v -0.0270247264 0.00656316714 0.00680028098
v -0.0270238911 0.0229932724 -0.00852379362
v -0.0270238911 0.0229932724 0.00852379362
v -0.0266139308 -0.00608557731 0.00680028098
v -0.0262116759 -0.00537359 0.00852379362
v -0.0261613174 -0.00527892476 -0.00852379362
v -0.0257917768 0.00395826192 0.00680028098
v -0.0255359778 0.00328462656 -0.00852379362
v -0.0255318693 0.00327335811 0.00852379362
v -0.0254170538 -0.00363156539 0.00680028098
v -0.0252210748 -0.00305670716 0.00852379362
v -0.025178149 -0.00291432743 -0.00852379362
v -0.0250397567 -0.00239220419 0.00680028098
v -0.0250028146 0.00138780305 0.00680028098
v -0.0249850851 0.00129781567 -0.00852379362
v -0.0249647984 0.00118664495 0.00852379362
v -0.0249345219 -0.00187888945 0.00852379362
v -0.0249012621 -0.00167372516 -0.00852379362
v -0.0248393112 -0.00114296051 0.00680028098
v -0.0248315034 0.000117132258 0.00680028098
v -0.0248120009 -0.000340278338 -0.00852379362
v -0.0248119498 -0.000560521214 0.00852379362
v -0.0246538334 0.0201262265 0.00680028098
v -0.0246424968 0.0201075594 -0.00852379362
v -0.0245816199 0.0200144284 0.00852379362
v -0.0228587056 0.0167037702 0.00680028098
v -0.0228539323 0.0166923142 -0.00852379362
v -0.0228298952 0.0166347445 0.00852379362
v -0.0223668145 0.0334287816 -0.00852379362
v -0.0223668145 0.0334287816 -8.69437117e-05
v -0.0223668145 0.0334287816 0.00852379362
v -0.0217471518 0.0313692798 -0.00852379362
v -0.0216992311 0.0311997245 0.00852379362
v -0.0215413875 0.0129536252 0.00680028098
v -0.0215395634 0.0129475221 -0.00852379362
v -0.0215303577 0.0129167853 0.00852379362
v -0.0212225294 0.0292848885 0.00680028098
v -0.0211579532 0.0289927952 -0.00852379362
v -0.0210849213 0.0286358529 0.00852379362
v -0.0206446845 0.0260077459 -0.00852379362
v -0.0205267322 0.0250637529 0.00680028098
v -0.0204629061 0.00903965289 -0.00852379362
v -0.0204629061 0.00903965289 -8.69437117e-05
v -0.0204629061 0.00903965289 0.00852379362
v -0.020310262 0.0226654473 -0.00852379362
v -0.0202821676 0.0222238296 0.00852379362
v -0.0202129203 0.0207768817 0.00680028098
v -0.0201927871 0.0156624354 0.00852379362
v -0.0201878944 0.0158867646 -0.00852379362
v -0.0201776488 0.0164420556 0.00680028098
v -0.0190374722 0.0324814814 0.00680028098
v -0.0174562745 0.0319448404 0.00852379362
v -0.0165387052 0.0315841135 0.00680028098
v -0.016160692 0.0314214966 -0.00852379362
v -0.0152111245 0.0309678092 0.00852379362
v -0.0142658358 0.0304341856 0.00680028098
v -0.0135830971 0.0299789128 -0.00852379362
v -0.0131380357 0.0296439619 0.00852379362
v -0.0123155068 0.0289234286 0.00680028098
v -0.012088467 0.0286970878 0.00852379362
v -0.0115567869 0.028119294 -0.00852379362
v -0.0110339204 0.0274753385 0.00852379362
v -0.0107068454 0.0270305328 0.00680028098
v -0.00989754537 0.0257730859 -0.00852379362
v -0.00937490048 0.0248281211 0.00680028098
v -0.00915145778 0.024389214 0.00852379362
v -0.00854425686 0.0230847157 -0.00852379362
v -0.00825052696 0.0223936065 0.00680028098
v -0.00765323069 0.0208711548 0.00852379362
v -0.00700332557 0.043259613 -0.00852379362
v -0.00700332557 0.043259613 -8.69437117e-05
v -0.00700332557 0.043259613 0.00852379362
v -0.00634760723 0.0171376994 -0.00852379362
v -0.00634760723 0.0171376994 -8.69437117e-05
v -0.00634760723 0.0171376994 0.00852379362
v -0.00600778065 0.0400761979 0.00852379362
v -0.00562170398 0.0386169757 0.00680028098
v -0.00556795294 0.0383821111 -0.00852379362
v -0.00532620112 0.0238187677 0.00852379362
v -0.00527703589 0.0369687299 0.00852379362
v -0.00527490494 0.0242251821 0.00680028098
v -0.00518895101 0.0249445561 -0.00852379362
v -0.00507585732 0.0356822679 -0.00852379362
v -0.00489481196 0.0338943682 0.00680028098
v -0.00488200923 0.0337161698 0.00852379362
v -0.00485786984 0.0288176654 -0.00852379362
v -0.00484460682 0.0290891141 0.00680028098
v -0.00481859221 0.0325394773 -0.00852379362
v -0.00480183443 0.0304391294 0.00852379362
v -0.00312943216 0.0423055789 0.00852379362
v -0.00179244114 0.0419346917 0.00680028098
v -0.000792685467 0.0416313299 -0.00852379362
v 0.000506118958 0.0411913146 0.00852379362
v 0.00193743427 0.0406227265 0.00680028098
v 0.00201641573 0.0405882733 -0.00852379362
v 0.00367517994 0.0397508448 0.00852379362
v 0.00444395787 0.03926729 -0.00852379362
v 0.00500015241 0.03886212 0.00680028098
v 0.00502367807 0.0388437939 0.00852379362
v 0.00607457651 0.0378789346 -0.00852379362
v 0.00618913628 0.0377516403 0.00680028098
v 0.00620574063 0.0377324276 0.00852379362
v 0.00648402542 0.0169406293 -0.00852379362
v 0.00648402542 0.0169406293 -8.69437117e-05
v 0.00648402542 0.0169406293 0.00852379362
v 0.00707959988 0.0365125365 -0.00852379362
v 0.00710956954 0.0364605754 0.00680028098
v 0.00735362278 0.0360008361 0.00852379362
v 0.00771019009 0.0228836905 0.00852379362
v 0.00777466406 0.0349978244 0.00680028098
v 0.0077786191 0.0349866412 -0.00852379362
v 0.00815407513 0.0336517129 0.00852379362
v 0.00815537074 0.0256464052 -0.00852379362
v 0.00816401387 0.0257099416 0.00680028098
v 0.00820995711 0.0333805881 0.00680028098
v 0.00822119147 0.0333228991 -0.00852379362
v 0.00844708903 0.0285280098 0.00852379362
v 0.00846991575 0.031168016 0.00852379362
v 0.00849192418 0.0296636859 -0.00852379362
v 0.00849339028 0.0297512764 0.00680028098
v 0.00995054973 0.0187697501 -0.00852379362
v 0.00995054973 0.0187697501 0.00852379362
v 0.012972115 0.0212662156 -0.00852379362
v 0.012972115 0.0212662156 0.00852379362
v 0.0154222963 0.0243255072 -0.00852379362
v 0.0154222963 0.0243255072 0.00852379362
v 0.0171983309 0.0278195122 -0.00852379362
v 0.0171983309 0.0278195122 0.00852379362
v 0.0178968727 0.0393927602 -0.00852379362
v 0.0178968727 0.0393927602 0.00852379362
v 0.0182259252 0.0316018941 -0.00852379362
v 0.0182259252 0.0316018941 0.00852379362
v 0.0184620684 0.0355142469 -0.00852379362
v 0.0184620684 0.0355142469 0.00852379362
v 0.0203447015 0.0381808644 -0.00852379362
v 0.0203447015 0.0381808644 0.00852379362
v 0.0224397987 0.0364283896 -0.00852379362
v 0.0224397987 0.0364283896 0.00852379362
v 0.0226302713 0.00663174957 0.00852379362
v 0.0226308339 0.00662513511 -0.00852379362
v 0.0226351129 0.00715790626 0.00680028098
v 0.0226583658 0.00613177798 0.00680028098
v 0.0227125259 0.00793261676 0.00852379362
v 0.0227152195 0.00794968139 -0.00852379362
v 0.0227508148 0.00815926441 0.00680028098
v 0.022772721 0.00528453 -0.00852379362
v 0.0228113678 0.00507956688 0.00852379362
v 0.0229940327 0.00912859014 0.00852379362
v 0.0230463688 0.00928832602 -0.00852379362
v 0.0230708662 0.00401429733 0.00680028098
v 0.0231210202 0.0213648188 -0.00852379362
v 0.0231210202 0.0213648188 0.00852379362
v 0.0232933883 0.00329362769 0.00852379362
v 0.0233627891 0.0100941484 0.00680028098
v 0.0235768726 0.00248870887 -0.00852379362
v 0.0235859249 0.0105618148 -0.00852379362
v 0.02403235 0.0113605453 0.00852379362
v 0.0240652178 0.0342332061 -0.00852379362
v 0.0240652178 0.0342332061 0.00852379362
v 0.0244089483 0.0220293337 -0.00852379362
v 0.0244089483 0.0220293337 0.00852379362
v 0.0244136364 0.0119508009 0.00680028098
v 0.0245416126 0.0236977298 -0.00852379362
v 0.0245416126 0.0236977298 0.00852379362
v 0.024757776 -0.000374271224 -0.00852379362
v 0.024757776 -0.000374271224 -8.69437117e-05
v 0.024757776 -0.000374271224 0.00852379362
v 0.0251301293 0.03171792 -0.00852379362
v 0.0251301293 0.03171792 0.00852379362
v 0.025132516 0.0129236044 -0.00852379362
v 0.0251478759 0.0016581914 -0.00852379362
v 0.0251478759 0.0016581914 0.00852379362
v 0.0253751713 0.0262988845 -0.00852379362
v 0.0253751713 0.0262988845 0.00852379362
v 0.0255750543 0.0290229865 -0.00852379362
v 0.0255750543 0.0290229865 0.00852379362
v 0.0255769636 0.0134625809 0.00852379362
v 0.0258143171 0.0223833439 -0.00852379362
v 0.0258143171 0.0223833439 0.00852379362
v 0.025821068 0.0137439172 0.00680028098
v 0.0260031021 0.00354274406 -0.00852379362
v 0.0260031021 0.00354274406 0.00852379362
v 0.0271657645 0.015159668 -0.00852379362
v 0.0272633108 0.0224083015 -0.00852379362
v 0.0272633108 0.0224083015 0.00852379362
v 0.0272760624 0.00517453898 -0.00852379362
v 0.0272760624 0.00517453898 0.00852379362
v 0.0275027271 0.0154881409 0.00680028098
v 0.027510228 0.0154953179 0.00852379362
v 0.0286800675 0.022102877 -0.00852379362
v 0.0286800675 0.022102877 0.00852379362
v 0.0288957535 0.0064627739 -0.00852379362
v 0.0288957535 0.0064627739 0.00852379362
v 0.0299901063 0.021483112 -0.00852379362
v 0.0299901063 0.021483112 0.00852379362
v 0.0307721472 0.00733578078 -0.00852379362
v 0.0307721472 0.00733578078 0.00852379362
v 0.0311247765 0.0205815163 -0.00852379362
v 0.0311247765 0.0205815163 0.00852379362
v 0.032024497 0.01944538 -0.00852379362
v 0.032024497 0.01944538 -8.69437117e-05
v 0.032024497 0.01944538 0.00852379362
v 0.0325849534 -0.00867061698 -0.00852379362
v 0.0325849534 -0.00867061698 0.00852379362
v 0.0326949956 -0.00452813373 -0.00852379362
v 0.0326949956 -0.00452813373 0.00852379362
v 0.0328008611 0.00774499103 -0.00852379362
v 0.0328008611 0.00774499103 0.00852379362
v 0.033473968 -0.0127180787 -0.00852379362
v 0.033473968 -0.0127180787 0.00852379362
v 0.0337975652 -0.000533562162 -0.00852379362
v 0.0337975652 -0.000533562162 0.00852379362
v 0.0348689719 0.00766761203 -0.00852379362
v 0.0348689719 0.00766761203 0.00852379362
v 0.0353098736 -0.0164331587 -0.00852379362
v 0.0353098736 -0.0164331587 -8.69437117e-05
v 0.0353098736 -0.0164331587 0.00852379362
v 0.0357320059 -0.0129258922 0.00680028098
v 0.035828052 0.00307884515 -0.00852379362
v 0.035828052 0.00307884515 0.00852379362
v 0.0358373089 -0.0122965481 0.00852379362
v 0.0361733339 -0.0107393654 -0.00852379362
v 0.0365423459 -0.00952166997 0.00680028098
v 0.0368614256 0.00710799093 -0.00852379362
v 0.0368614256 0.00710799093 0.00852379362
v 0.0369349859 -0.00854840965 0.00852379362
v 0.0370658773 -0.008274293 -0.00852379362
v 0.037208736 -0.00799748964 0.00680028098
v 0.0378903326 -0.00692372699 0.00852379362
v 0.0381138776 -0.00663599613 0.00680028098
v 0.0381674582 -0.00657170286 -0.00852379362
v 0.0386673786 0.00609722252 -0.00852379362
v 0.0386673786 0.00609722252 0.00852379362
v 0.0392763184 -0.00544976203 0.00680028098
v 0.0393418323 -0.00539312654 -0.00852379362
v 0.0393678298 -0.00537084023 0.00852379362
v 0.0406401594 -0.00440075417 0.00680028098
v 0.040689478 -0.00436682948 -0.00852379362
v 0.0437035594 -0.00253143353 -0.00852379362
v 0.0437035594 -0.00253143353 -8.69437117e-05
v 0.0437035594 -0.00253143353 0.00852379362
v 0.0462270794 -0.00886094134 0.00680028098
v 0.0475549841 -0.0126095214 -0.00852379362
v 0.0475549841 -0.0126095214 0.00852379362
v 0.0476874779 -0.0130178366 0.00680028098
v 0.0482375524 -0.043259613 -0.00852379362
v 0.0482375524 -0.043259613 -8.69437117e-05
v 0.0482375524 -0.043259613 0.00852379362
v 0.0488701201 -0.0172075792 0.00680028098
v 0.0489545057 -0.0175630981 -0.00852379362
v 0.0489545057 -0.0175630981 0.00852379362
v 0.0495231449 -0.0344485512 0.00680028098
v 0.0496651684 -0.0214431303 0.00680028098
v 0.0496948141 -0.0328362075 -0.00852379362
v 0.0496948141 -0.0328362075 0.00852379362
v 0.0497971508 -0.0225729829 -0.00852379362
v 0.0497971508 -0.0225729829 0.00852379362
v 0.0499107218 -0.0300731894 0.00680028098
v 0.0499920899 -0.0257340264 0.00680028098
v 0.05 -0.0276745634 -0.00852379362
v 0.05 -0.0276745634 0.00852379362
f 78 70 100
f 74 111 70
f 111 74 119
f 74 84 119
f 84 91 119
f 91 97 119
f 86 242 92
f 86 80 242
f 80 72 242
f 68 292 72
f 63 37 68
f 37 63 38
f 57 36 60
f 57 54 36
f 54 50 36
f 50 47 36
f 47 45 36
f 36 45 29
f 25 29 41
f 41 29 45
f 36 38 60
f 60 38 63
f 37 31 68
f 31 26 68
f 26 20 68
f 20 16 68
f 16 10 68
f 10 5 68
f 5 2 68
f 2 8 68
f 8 14 68
f 14 19 68
f 68 19 292
f 19 323 292
f 323 330 292
f 330 336 292
f 336 332 292
f 332 326 292
f 316 311 319
f 311 304 319
f 304 301 319
f 301 296 319
f 296 292 319
f 292 285 72
f 72 285 242
f 285 279 242
f 279 281 242
f 295 262 287
f 308 300 295
f 300 289 295
f 289 283 295
f 283 272 295
f 272 268 295
f 268 262 295
f 262 257 287
f 257 247 287
f 247 242 287
f 242 228 92
f 222 180 228
f 222 214 180
f 214 218 180
f 218 223 180
f 180 223 197
f 252 199 232
f 199 252 227
f 199 227 201
f 277 274 264
f 274 270 264
f 270 266 264
f 266 260 264
f 260 254 264
f 254 236 264
f 236 227 264
f 227 239 201
f 201 239 203
f 239 249 203
f 244 207 251
f 244 234 207
f 207 234 209
f 234 213 209
f 205 209 211
f 207 203 251
f 199 197 232
f 232 197 223
f 184 154 180
f 184 192 154
f 154 192 164
f 192 193 164
f 183 160 187
f 183 177 160
f 177 174 160
f 174 171 160
f 160 171 155
f 165 151 168
f 165 147 151
f 151 155 168
f 168 155 171
f 160 164 187
f 154 150 180
f 144 123 150
f 123 144 121
f 144 141 121
f 141 137 121
f 137 135 121
f 130 114 133
f 130 127 114
f 106 108 127
f 108 114 127
f 114 121 133
f 123 119 150
f 111 103 70
f 103 100 70
f 292 326 319
f 287 242 281
f 92 228 119
f 92 119 97
f 119 228 150
f 264 227 252
f 150 228 180
f 211 209 213
f 251 203 249
f 187 164 193
f 133 121 135
f 242 247 241
f 241 247 246
f 241 246 240
f 262 261 257
f 262 268 261
f 261 268 267
f 283 271 272
f 271 283 282
f 300 288 289
f 288 300 299
f 307 299 308
f 308 299 300
f 288 282 289
f 289 282 283
f 271 267 272
f 272 267 268
f 261 256 257
f 256 246 257
f 257 246 247
f 307 308 294
f 308 295 294
f 281 286 287
f 286 281 280
f 285 278 279
f 292 291 285
f 290 284 291
f 291 284 285
f 278 280 279
f 279 280 281
f 286 294 287
f 294 295 287
f 285 284 278
f 291 292 293
f 291 293 290
f 301 298 296
f 298 301 303
f 298 303 302
f 298 302 297
f 298 297 293
f 298 293 296
f 311 305 304
f 316 312 311
f 316 315 312
f 314 313 315
f 315 313 312
f 306 309 310
f 302 303 306
f 297 290 293
f 305 311 309
f 305 309 306
f 305 306 303
f 305 303 304
f 313 310 312
f 301 304 303
f 292 296 293
f 309 311 312
f 309 312 310
f 315 316 317
f 315 317 314
f 326 320 319
f 332 328 326
f 328 332 334
f 328 334 331
f 328 331 325
f 328 325 324
f 328 324 326
f 330 333 336
f 333 330 327
f 333 327 329
f 333 329 335
f 333 335 334
f 333 334 336
f 330 323 327
f 321 329 322
f 335 331 334
f 325 318 324
f 314 317 318
f 332 336 334
f 322 329 327
f 322 327 323
f 320 326 324
f 320 324 318
f 320 318 317
f 320 317 319
f 316 319 317
f 323 19 322
f 19 18 322
f 17 321 18
f 321 322 18
f 19 14 18
f 18 14 11
f 18 11 12
f 18 12 17
f 2 1 8
f 1 2 7
f 1 7 4
f 1 4 3
f 1 3 6
f 1 6 8
f 2 5 7
f 16 13 10
f 20 21 16
f 21 20 22
f 21 22 28
f 31 27 26
f 27 31 33
f 27 33 28
f 27 28 22
f 27 22 26
f 38 40 37
f 38 36 40
f 40 36 32
f 40 32 34
f 40 34 39
f 40 39 35
f 40 35 33
f 40 33 37
f 25 24 29
f 23 30 24
f 24 30 32
f 24 32 29
f 35 28 33
f 21 15 16
f 16 15 13
f 4 7 9
f 3 12 6
f 29 32 36
f 31 37 33
f 30 34 32
f 20 26 22
f 5 10 7
f 15 9 13
f 14 8 11
f 8 6 11
f 7 10 13
f 7 13 9
f 6 12 11
f 24 25 42
f 24 42 23
f 45 44 41
f 45 47 44
f 44 47 49
f 44 49 46
f 44 46 43
f 44 43 42
f 44 42 41
f 54 51 50
f 57 56 54
f 56 57 58
f 56 58 55
f 56 55 53
f 56 53 54
f 63 61 60
f 61 63 64
f 61 64 62
f 61 62 59
f 61 59 58
f 61 58 60
f 63 68 64
f 66 65 67
f 67 65 64
f 67 64 68
f 59 55 58
f 55 52 53
f 53 52 51
f 53 51 54
f 46 49 48
f 43 23 42
f 57 60 58
f 65 62 64
f 47 50 49
f 52 48 51
f 25 41 42
f 49 50 51
f 49 51 48
f 67 68 71
f 67 71 66
f 80 79 72
f 79 80 85
f 79 85 81
f 79 81 73
f 79 73 71
f 79 71 72
f 92 88 86
f 88 92 94
f 88 94 93
f 88 93 87
f 88 87 85
f 88 85 86
f 91 95 97
f 95 91 89
f 95 89 90
f 95 90 96
f 95 96 94
f 95 94 97
f 74 82 84
f 70 69 74
f 69 75 74
f 74 75 76
f 74 76 82
f 90 89 83
f 96 93 94
f 87 81 85
f 73 66 71
f 91 84 89
f 75 83 76
f 76 83 82
f 92 97 94
f 80 86 85
f 68 72 71
f 89 84 82
f 89 82 83
f 78 77 70
f 77 69 70
f 147 165 146
f 146 165 166
f 146 166 145
f 171 169 168
f 174 173 171
f 173 174 176
f 173 176 175
f 173 175 172
f 173 172 171
f 183 182 177
f 182 183 185
f 182 185 186
f 182 186 181
f 182 181 176
f 182 176 177
f 193 190 187
f 190 193 195
f 190 195 191
f 190 191 186
f 190 186 185
f 190 185 187
f 184 189 192
f 180 179 184
f 178 188 179
f 194 189 188
f 189 194 195
f 189 195 192
f 181 175 176
f 171 172 169
f 172 170 169
f 145 166 167
f 193 192 195
f 191 195 194
f 183 187 185
f 174 177 176
f 165 168 166
f 170 167 169
f 166 168 169
f 166 169 167
f 179 188 184
f 184 188 189
f 180 197 179
f 179 197 196
f 179 196 178
f 201 198 199
f 198 201 200
f 207 202 203
f 202 207 206
f 205 208 209
f 205 204 208
f 208 206 209
f 209 206 207
f 202 200 203
f 203 200 201
f 198 196 199
f 199 196 197
f 205 211 204
f 204 211 210
f 234 212 213
f 244 243 234
f 244 251 243
f 243 251 250
f 239 248 249
f 248 239 238
f 226 238 227
f 227 238 239
f 248 250 249
f 249 250 251
f 243 233 234
f 233 212 234
f 212 210 213
f 213 210 211
f 227 236 226
f 226 236 235
f 260 253 254
f 253 260 259
f 270 265 266
f 274 273 270
f 277 276 274
f 275 273 276
f 273 269 270
f 269 265 270
f 265 259 266
f 266 259 260
f 253 235 254
f 254 235 236
f 273 274 276
f 276 277 263
f 276 263 275
f 252 255 264
f 255 252 237
f 255 237 245
f 255 245 258
f 255 258 263
f 255 263 264
f 223 229 232
f 229 223 220
f 229 220 224
f 229 224 231
f 229 231 237
f 229 237 232
f 214 216 218
f 216 214 217
f 216 217 215
f 216 215 219
f 216 219 220
f 216 220 218
f 228 225 222
f 242 241 228
f 240 230 241
f 241 230 225
f 241 225 228
f 215 217 221
f 219 224 220
f 231 245 237
f 258 275 263
f 214 222 217
f 230 221 225
f 223 218 220
f 252 232 237
f 277 264 263
f 217 222 225
f 217 225 221
f 77 78 98
f 77 98 99
f 103 101 100
f 101 103 109
f 101 109 102
f 101 102 99
f 101 99 98
f 101 98 100
f 103 111 109
f 111 119 109
f 117 110 118
f 118 110 109
f 118 109 119
f 78 100 98
f 110 102 109
f 119 123 118
f 121 122 123
f 122 121 116
f 122 116 120
f 122 120 124
f 122 124 125
f 122 125 123
f 108 112 114
f 106 105 108
f 104 107 105
f 107 113 105
f 105 113 112
f 105 112 108
f 120 116 115
f 117 118 124
f 124 118 125
f 121 114 116
f 113 115 112
f 118 123 125
f 116 114 112
f 116 112 115
f 105 106 126
f 105 126 104
f 130 128 127
f 128 130 131
f 128 131 129
f 128 129 126
f 128 126 127
f 135 134 133
f 135 137 134
f 134 137 138
f 134 138 136
f 134 136 132
f 134 132 131
f 134 131 133
f 144 143 141
f 150 149 144
f 148 142 149
f 139 140 142
f 140 139 138
f 140 138 141
f 140 141 143
f 140 143 142
f 132 129 131
f 129 104 126
f 137 141 138
f 149 142 143
f 149 143 144
f 136 138 139
f 130 133 131
f 106 127 126
f 150 154 149
f 164 162 154
f 162 164 159
f 162 159 163
f 162 163 161
f 162 161 157
f 162 157 156
f 162 156 154
f 164 160 159
f 151 152 155
f 147 146 151
f 145 153 146
f 146 153 152
f 146 152 151
f 163 159 158
f 157 148 156
f 148 149 156
f 149 154 156
f 160 155 159
f 153 158 152
f 159 155 152
f 159 152 158
f 329 321 290
f 329 290 335
f 12 66 17
f 12 3 66
f 3 4 66
f 4 9 66
f 9 15 66
f 15 21 66
f 21 28 66
f 28 35 66
f 66 35 65
f 34 62 39
f 30 48 34
f 23 43 30
f 43 46 30
f 46 48 30
f 48 52 34
f 52 55 34
f 55 59 34
f 59 62 34
f 62 65 39
f 39 65 35
f 17 66 290
f 17 290 321
f 81 240 73
f 81 87 240
f 87 93 240
f 96 117 93
f 96 90 117
f 90 83 117
f 83 75 117
f 117 75 110
f 77 99 69
f 99 102 69
f 102 110 69
f 69 110 75
f 124 148 117
f 148 124 142
f 115 136 120
f 113 129 115
f 113 107 129
f 107 104 129
f 129 132 115
f 132 136 115
f 136 139 120
f 139 142 120
f 120 142 124
f 157 178 148
f 178 157 188
f 163 194 161
f 158 175 163
f 153 167 158
f 153 145 167
f 167 170 158
f 170 172 158
f 172 175 158
f 175 181 163
f 181 186 163
f 186 191 163
f 191 194 163
f 194 188 161
f 161 188 157
f 196 224 178
f 224 196 231
f 200 226 198
f 226 200 238
f 206 250 202
f 208 233 206
f 204 210 208
f 210 212 208
f 212 233 208
f 233 243 206
f 243 250 206
f 250 248 202
f 248 238 202
f 202 238 200
f 235 258 226
f 235 253 258
f 253 259 258
f 259 265 258
f 265 269 258
f 269 273 258
f 273 275 258
f 258 245 226
f 226 245 198
f 224 219 178
f 219 215 178
f 215 221 178
f 221 230 178
f 240 93 230
f 246 286 240
f 246 256 286
f 256 261 286
f 286 261 294
f 261 267 294
f 267 271 294
f 271 282 294
f 282 288 294
f 307 294 299
f 286 280 240
f 280 278 240
f 278 284 240
f 240 284 73
f 297 318 290
f 297 302 318
f 302 306 318
f 306 310 318
f 310 313 318
f 313 314 318
f 318 325 290
f 325 331 290
f 331 335 290
f 284 290 73
f 73 290 66
f 178 230 148
f 117 148 230
f 117 230 93
f 196 198 231
f 231 198 245
f 299 294 288
