# Converted from Thingi10K 71990.stl
# welded vertices: 794, faces: 1608
v -0.0264447377 0.00192952392 -0.049968547
v -0.0264447377 0.00192952392 -0.0463126183
v -0.0264447377 0.00192952392 -0.0442248023
v -0.0264447377 0.00192952392 -0.0406735242
v -0.0264410288 0.00189425038 -0.0463918304
v -0.0264410288 0.00189425038 -0.0441455717
v -0.0264283721 0.00208525775 -0.0459628439
v -0.0264283721 0.00208525775 -0.0445745767
v -0.0264181145 0.00218288455 -0.0455035057
v -0.0264181145 0.00218288455 -0.0450339148
v -0.0264120187 0.00161822395 -0.0467717508
v -0.0264120187 0.00161822395 -0.0437656514
v -0.0263753461 0.00126925252 -0.0470859824
v -0.0263753461 0.00126925252 -0.0434514394
v -0.0263326022 0.000862567476 -0.0473207778
v -0.0263326022 0.000862567476 -0.0432166427
v -0.0262856597 0.000415958838 -0.0474658832
v -0.0262856597 0.000415958838 -0.0430715373
v -0.0262365874 -5.10738129e-05 -0.0475149873
v -0.0262365874 -5.10738129e-05 -0.0430224344
v -0.0261875029 -0.000518097014 -0.0474658832
v -0.0261874907 -0.000518097014 -0.0430715373
v -0.0261405605 -0.000964705774 -0.0473207778
v -0.0261405605 -0.000964705774 -0.0432166427
v -0.0260978165 -0.00137139119 -0.0470859824
v -0.0260978165 -0.00137139119 -0.0434514394
v -0.0260611439 -0.00172037241 -0.0467717508
v -0.0260611439 -0.00172037241 -0.0437656514
v -0.0260321216 -0.00199639884 -0.0463918304
v -0.0260321216 -0.00199639884 -0.0441455717
v -0.0260120594 -0.00218739519 -0.0459628439
v -0.0260120594 -0.00218739519 -0.0445745767
v -0.0260017896 -0.00228503301 -0.0455035057
v -0.0260017896 -0.00228503301 -0.0450339148
v -0.0258668867 -0.00356864857 -0.049968547
v -0.0258668867 -0.00356864857 -0.0406734312
v -0.0258668622 0.00742768661 -0.049968547
v -0.0258668622 0.00742768661 -0.0406735242
v -0.0242682243 0.00192950433 -0.00651055501
v -0.0242682243 0.00192950433 -0.00477139584
v -0.0242682243 0.00192950433 -0.00252955476
v -0.0242682243 0.00192950433 0.0158883321
v -0.0242682243 0.00192950433 0.0167081417
v -0.0242682243 0.00192951412 -0.049968547
v -0.0242682243 0.00192951412 -0.0342209514
v -0.0242682243 0.00192951412 -0.0282582948
v -0.0242645154 0.00189424181 -0.00485498643
v -0.0242645154 0.00189424181 -0.00244307541
v -0.0242518587 0.00208524796 -0.00289875367
v -0.0242518465 0.00208524796 -0.00438939333
v -0.0242415889 0.00218287599 -0.00389217071
v -0.0242415889 0.00218287599 -0.0033879465
v -0.0242355054 0.00161821538 -0.00525157964
v -0.0242355054 0.00161821538 -0.00202378825
v -0.0241988327 0.00126924395 -0.00557463174
v -0.0241988327 0.00126924395 -0.00167204434
v -0.024158488 -0.00882652352 -0.049968547
v -0.024158488 -0.00882652352 -0.0406734312
v -0.0241584757 0.0126855726 -0.049968547
v -0.0241584757 0.0126855726 -0.0406735242
v -0.0241560888 0.000862558173 -0.00581001716
v -0.0241560888 0.000862558173 -0.00140321779
v -0.0241368712 0.00317919281 0.0158883076
v -0.0241091464 0.000415949412 -0.00594749057
v -0.0241091464 0.000415949412 -0.00122905951
v -0.0240600618 -5.10831524e-05 -0.00598100514
v -0.0240600618 -5.10831524e-05 -0.00115713415
v -0.0240109773 -0.000518106439 -0.00590909202
v -0.0240109773 -0.000518106439 -0.00119066096
v -0.0239640471 -0.000964715077 -0.0057349215
v -0.0239640471 -0.000964715077 -0.00132810989
v -0.0239213032 -0.00137140098 -0.00546609495
v -0.0239213032 -0.00137140098 -0.00156350755
v -0.0238963937 -0.00160839113 0.0191468962
v -0.0238846183 -0.00172038097 -0.00511435104
v -0.0238846183 -0.00172038097 -0.00188655965
v -0.0238556082 -0.0019964074 -0.00469507612
v -0.0238556082 -0.0019964074 -0.00228315287
v -0.0238355338 -0.00218740498 -0.00422658203
v -0.0238355338 -0.00218740498 -0.00273594236
v -0.0238252762 -0.00228504158 -0.00372937164
v -0.0238252762 -0.00228504158 -0.0032251352
v -0.0237379278 -0.00311614673 -0.00651055501
v -0.0237379278 -0.00311614673 0.0158883321
v -0.0237379278 -0.00311614673 0.0205149714
v -0.0237379278 -0.00311613694 -0.049968547
v -0.0237379278 -0.00311613694 -0.0342208535
v -0.0237379278 -0.00311613694 -0.0282582214
v -0.0237379033 0.00697515662 -0.00651055501
v -0.0237379033 0.00697515662 0.0133980327
v -0.0237379033 0.00697516641 -0.049968547
v -0.0237379033 0.00697516641 -0.0342209514
v -0.0237379033 0.00697516641 -0.0282582948
v -0.0221701483 -0.00794127238 -0.00651055501
v -0.0221701483 -0.00794127238 0.0158883321
v -0.0221701483 -0.00794127238 0.0250610558
v -0.0221701483 -0.00794126381 -0.049968547
v -0.0221701483 -0.00794126381 -0.0342208535
v -0.0221701483 -0.00794126381 -0.0282582214
v -0.0221701238 0.0118003006 -0.00651055501
v -0.0221701238 0.0118003006 0.0104005714
v -0.0221701238 0.0118003104 -0.049968547
v -0.0221701238 0.0118003104 -0.0342209514
v -0.0221701238 0.0118003104 -0.0282582948
v -0.0215450366 -5.10831524e-05 -0.000173582975
v -0.0215271532 -0.000518106439 -0.0002193136
v -0.0215271532 0.000415949412 -0.0002193136
v -0.0214743108 -0.000964715077 -0.000354449066
v -0.0214743108 0.000862558173 -0.000354449066
v -0.02139427 -0.0136142984 -0.0499685657
v -0.02139427 -0.0136142984 -0.0406735426
v -0.0213942455 0.0174733462 -0.049968547
v -0.0213942455 0.0174733462 -0.0406734312
v -0.0213887984 -0.00137140098 -0.000573126158
v -0.0213887984 0.00126924395 -0.000573126158
v -0.0212743495 -0.00172038097 -0.000865760541
v -0.0212743495 0.00161821538 -0.000865760541
v -0.0211359825 -0.0019964074 -0.00121958534
v -0.0211359825 0.00189424181 -0.00121958534
v -0.0209797321 -0.00218740498 -0.00161911628
v -0.0209797321 0.00208524796 -0.00161911628
v -0.0208124408 -0.00228504158 -0.00204689837
v -0.0208124408 0.00218287599 -0.00204689837
v -0.0206414038 -0.00228504158 -0.00248425256
v -0.0206414038 0.00218287599 -0.00248425256
v -0.0204741125 -0.00218740498 -0.00291203465
v -0.0204741125 0.00208524796 -0.00291203465
v -0.0203666774 0.00192950433 -0.049999944
v -0.0203589291 0.00192950433 -0.0463126562
v -0.0203553793 0.00189425038 -0.0463918304
v -0.0203545347 0.00192950433 -0.0442247459
v -0.0203506667 0.00189425038 -0.0441455717
v -0.0203418168 0.00208525775 -0.0459628439
v -0.0203388914 0.00208525775 -0.0445745767
v -0.0203318408 0.00192950433 -0.0334351093
v -0.0203305923 0.00218288455 -0.0455035057
v -0.0203296008 0.00218288455 -0.0450339148
v -0.0203271772 0.00161822395 -0.0467717508
v -0.0203208488 0.00161822395 -0.0437656514
v -0.0203178621 -0.0019964074 -0.00331156559
v -0.0203178621 0.00189424181 -0.00331156559
v -0.0202911533 0.00126925252 -0.0470859824
v -0.0202835152 0.00126925252 -0.0434514394
v -0.0202489112 0.000862567476 -0.0473207778
v -0.0202402816 0.000862567476 -0.0432166427
v -0.0202022748 0.000415958838 -0.0474658832
v -0.0201930332 0.000415958838 -0.0430715373
v -0.0201794952 -0.00172038097 -0.00366539039
v -0.0201794952 0.00161821538 -0.00366539039
v -0.0201532882 -5.10738129e-05 -0.0475149873
v -0.0201438507 -5.10738129e-05 -0.0430224344
v -0.0201041057 -0.000518097014 -0.0474658832
v -0.0200948641 -0.000518097014 -0.0430715373
v -0.0200650462 -0.00137140098 -0.00395802477
v -0.0200650462 0.00126924395 -0.00395802477
v -0.0200568573 -0.000964705774 -0.0473207778
v -0.0200482399 -0.000964705774 -0.0432166427
v -0.0200136237 -0.00137139119 -0.0470859824
v -0.0200059856 -0.00137139119 -0.0434514394
v -0.0199795338 -0.000964715077 -0.00417670186
v -0.0199795338 0.000862558173 -0.00417670186
v -0.0199762901 -0.00172037241 -0.0467717508
v -0.0199699617 -0.00172037241 -0.0437656514
v -0.0199464722 -0.00199639884 -0.0463918304
v -0.0199417596 -0.00199639884 -0.0441455717
v -0.0199266792 -0.000518106439 -0.00431184957
v -0.0199266792 0.000415949412 -0.00431184957
v -0.0199255041 -0.00218739519 -0.0459628439
v -0.0199225909 -0.00218739519 -0.0445745767
v -0.0199216361 -0.00230496182 -0.049999944
v -0.0199216116 0.00616399007 -0.0499999253
v -0.0199142796 -0.00228503301 -0.0455035057
v -0.0199132881 -0.00228503301 -0.0450339148
v -0.019908808 -5.10831524e-05 -0.00435756795
v -0.0198875707 -0.00229773256 -0.0334350113
v -0.019887534 0.00615675224 -0.0334351093
v -0.0196334206 -0.0123349915 -0.00651055501
v -0.0196334206 -0.0123349915 0.0158882464
v -0.0196334206 -0.0123349915 0.0293763572
v -0.0196334206 -0.0123349793 -0.049968547
v -0.0196334206 -0.0123349793 -0.0342209514
v -0.0196334206 -0.0123349793 -0.0282582948
v -0.0196334083 0.0161940271 -0.049968547
v -0.0196334083 0.0161940271 -0.0342208535
v -0.0196334083 0.0161940271 -0.0282582214
v -0.0196334083 0.0161940271 -0.00651055501
v -0.0196334083 0.0161940271 0.00784676813
v -0.0195658896 -0.0214121656 -0.0136518034
v -0.0195658896 -0.0214121534 -0.0211169974
v -0.0186178849 0.00189424181 -0.00264674561
v -0.0186168444 0.00192949576 -0.00256131894
v -0.0186113852 0.00161821538 -0.00305215201
v -0.0186059014 -0.00635434257 -0.049999944
v -0.0186058769 0.0102134075 -0.049999944
v -0.0185930611 0.00126924395 -0.00338237706
v -0.0185787764 0.00208524796 -0.00217082151
v -0.0185740883 -0.00634017538 -0.0334350113
v -0.0185740638 0.0101992501 -0.0334351093
v -0.0185636838 0.000862558173 -0.00362298919
v -0.0185402799 0.00218287599 -0.00166255793
v -0.0185245508 0.000415949412 -0.00376351049
v -0.0185116493 0.00218287599 -0.00114713363
v -0.0184941331 0.00208524796 -0.000647071208
v -0.0184895429 0.00192949576 -0.000269658905
v -0.0184875844 0.00192949576 0.0176237212
v -0.0184867888 0.00192949576 -0.000220109235
v -0.0184867888 0.00192949576 0.0158883321
v -0.0184847079 0.00190973465 -0.000220109235
v -0.0184830799 0.00189424181 -0.000182114625
v -0.0184773636 -5.10831524e-05 -0.00379777173
v -0.0184540699 0.00161821538 0.000237172535
v -0.018424203 -0.000518106439 -0.00372426734
v -0.0184173972 0.00126924395 0.000588916444
v -0.0183746533 0.000862558173 0.000857742993
v -0.0183673702 -0.000964715077 -0.00354622881
v -0.0183277231 0.000415949412 0.00103190127
v -0.0183093623 -0.00137140098 -0.00327142889
v -0.0182786386 -5.10831524e-05 0.00110381439
v -0.0182527254 -0.00172038097 -0.00291187552
v -0.018229554 -0.000518106439 0.00107028758
v -0.0182104466 -0.00194126259 -0.00256890807
v -0.0182087329 0.0045750418 0.0158882831
v -0.0181872752 -0.0019964074 -0.00247834038
v -0.0181826116 -0.000964715077 0.000932838653
v -0.0181398677 -0.00137140098 0.000697453235
v -0.0181168677 -0.00160839113 0.0200622921
v -0.018103195 -0.00172038097 0.000374388891
v -0.0180963893 -0.00218740498 -0.00198217044
v -0.018084822 -0.00191455375 0.0203400787
v -0.0180828268 -0.00191413267 9.60147278e-05
v -0.0180828268 -0.00191413267 0.0158883321
v -0.0180828023 0.00577313399 -0.000220109235
v -0.0180828023 0.00577313399 0.0151022819
v -0.0180560935 -0.0019964074 -1.51292967e-05
v -0.0180346113 -0.00228504158 -0.00146481214
v -0.0180269488 -0.0020861256 -0.000220109235
v -0.0180077923 -0.00218740498 -0.000456865592
v -0.0180046465 -0.00228504158 -0.000948849268
v -0.01769501 -0.0177227593 -0.049968547
v -0.01769501 -0.0177227593 -0.0406734312
v -0.0176949855 0.0215817949 -0.049968547
v -0.0176949855 0.0215817949 -0.0406735242
v -0.0168918476 -0.00559120542 0.0238038308
v -0.0168885426 -0.00558973901 -0.000220109235
v -0.0168885426 -0.00558973901 0.0158883321
v -0.0168885181 0.00944878562 -0.000220109235
v -0.0168885181 0.00944878562 0.0128189087
v -0.0164770037 -0.0100417047 -0.049999944
v -0.0164769915 0.0139007391 -0.049999944
v -0.016448826 -0.0100212251 -0.0334351093
v -0.0164488015 0.0138802729 -0.0334350113
v -0.0162386316 -0.0161053077 -0.00651055501
v -0.0162386316 -0.0161053077 0.0158883321
v -0.0162386316 -0.0161053077 0.0332722857
v -0.0162386316 -0.0161052955 -0.049968547
v -0.0162386316 -0.0161052955 -0.0342208535
v -0.0162386316 -0.0161052955 -0.0282582214
v -0.0162386194 0.0199643189 -0.00651055501
v -0.0162386194 0.0199643189 0.00584825658
v -0.0162386194 0.0199643311 -0.049968547
v -0.0162386194 0.0199643311 -0.0342209514
v -0.0162386194 0.0199643311 -0.0282582948
v -0.0161530336 -0.0238917301 -0.0136518034
v -0.0161530336 -0.0238917178 -0.0211169974
v -0.0149602795 -0.00893974721 0.0270923352
v -0.0149561544 -0.00893673971 -0.000220109235
v -0.0149561544 -0.00893673971 0.0158882464
v -0.0149561299 0.0127957741 -0.000220109235
v -0.0149561299 0.0127957741 0.010873521
v -0.0142123585 0.0214364753 0.00517889537
v -0.0136279956 -0.0132058686 -0.049999944
v -0.0136279711 0.0170649042 -0.0499999813
v -0.0136046774 -0.0131799799 -0.0334350113
v -0.0136046651 0.0170390277 -0.0334351093
v -0.0134576808 -0.0181257788 0.0355123886
v -0.0132223811 -0.0209722899 -0.049968547
v -0.0132223811 -0.0209722899 -0.0406734312
v -0.0132223688 0.0248313255 -0.0499685657
v -0.0132223566 0.0248313132 -0.0406735426
v -0.0123744305 -0.011813655 0.0300617045
v -0.0123700974 -0.0118088457 -0.000220109235
v -0.0123700974 -0.0118088457 0.0158883321
v -0.0123700851 0.0156678801 -0.000220109235
v -0.0123700851 0.0156678801 0.00935110495
v -0.0121341256 -0.0190873949 -0.00651055501
v -0.0121341256 -0.0190873949 0.0158883321
v -0.0121341256 -0.0190873949 0.037136242
v -0.0121341256 -0.0190873827 -0.049968547
v -0.0121341256 -0.0190873827 -0.0342208535
v -0.0121341256 -0.0190873827 -0.0282582214
v -0.0121341134 0.0229464061 -0.049968547
v -0.0121341134 0.0229464061 -0.0342209514
v -0.0121341134 0.0229464061 -0.0282582826
v -0.0121341134 0.0229464061 -0.00651055501
v -0.0121341134 0.0229464061 0.00466481753
v -0.0118293731 -0.0122099092 0.0305009805
v -0.0101833534 -0.0157085309 -0.0499999253
v -0.0101833277 0.019567542 -0.049999944
v -0.0101659339 -0.0156783825 -0.0334350113
v -0.0101659253 0.0195374058 -0.0334351093
v -0.00924746437 -0.0140875418 0.0336704212
v -0.00924340786 -0.014080528 -0.000220109235
v -0.00924340786 -0.014080528 0.0158883321
v -0.00924340052 0.0179395391 -0.000220109235
v -0.00924339807 0.0179395391 0.0083182122
v -0.00838044795 -0.0273523119 -0.0136517789
v -0.00838044795 -0.0273522996 -0.0211170342
v -0.00817188889 -0.0232209122 -0.0499686777
v -0.00817188889 -0.0232209122 -0.0406735242
v -0.00817187787 0.0270799478 -0.0499685657
v -0.00817187787 0.0270799478 -0.0406734496
v -0.00749930474 -0.0211509527 0.0415352564
v -0.00749930474 -0.0211509404 -0.0499686777
v -0.00749930474 -0.0211509404 -0.0342209514
v -0.00749930474 -0.0211509404 -0.0282582948
v -0.00749930474 -0.0211509404 -0.00651055501
v -0.00749930474 -0.0211509404 0.0158882464
v -0.00749929617 0.0250099516 -0.00651055501
v -0.00749929617 0.0250099516 0.00424647289
v -0.00749929617 0.0250099638 -0.049968547
v -0.00749929617 0.0250099638 -0.0342208535
v -0.00749929617 0.0250099638 -0.0282582091
v -0.00629365892 -0.017440358 -0.05
v -0.00629363811 0.0212993691 -0.0499999253
v -0.00628289092 -0.0174072229 -0.0334351093
v -0.00628288235 0.0212662462 -0.0334350113
v -0.00571571611 -0.0156616497 0.0370241555
v -0.00571273799 -0.0156524815 -0.000220109235
v -0.00571273554 -0.0156524815 0.0158882464
v -0.00571273064 0.0195114804 -0.000220109235
v -0.00571273064 0.0195114804 0.00781999809
v -0.00446611209 0.0197764634 0.00783920348
v -0.00425411465 -0.0282293949 -0.0136517789
v -0.00425411465 -0.0282293827 -0.0211170342
v -0.00412104661 0.0214364753 0.00677720274
v -0.00357183478 -0.0219857692 0.0443606648
v -0.00335222007 0.0258914657 0.00441101011
v -0.00276424247 -0.0243703593 -0.049968547
v -0.00276424247 -0.0243703593 -0.0406735242
v -0.0027642339 0.0282294071 -0.049968547
v -0.0027642339 0.0282294071 -0.0406735242
v -0.00253673139 -0.0222057927 0.0451756027
v -0.00253673139 -0.0222057805 -0.00651055501
v -0.00253673139 -0.0222057805 0.0158883321
v -0.00253673139 -0.0222057682 -0.049968547
v -0.00253673139 -0.0222057682 -0.0342209514
v -0.00253673139 -0.0222057682 -0.0282582948
v -0.00253672159 0.0260648038 -0.049968547
v -0.00253672159 0.0260648038 -0.0342209514
v -0.00253672159 0.0260648038 -0.0282582826
v -0.00253672159 0.0260648038 -0.00651055501
v -0.00253672159 0.0260648038 0.00471921445
v -0.00212890626 -0.0183255932 -0.049999944
v -0.00212889769 0.0221846288 -0.049999944
v -0.0021252647 -0.018290977 -0.0334351093
v -0.00212525491 0.0221499881 -0.0334351093
v -0.00193354371 -0.0164668686 0.0397462905
v -0.00193240411 -0.0164560357 -0.000220109235
v -0.00193240411 -0.0164560357 0.0158883321
v -0.00193239555 0.0203150346 -0.000220109235
v -0.00193239555 0.0203150346 0.00872860049
v -0.000507460237 -0.0222057805 0.0234115218
v -0.000507460237 -0.0222057805 0.0238811175
v -0.000507460237 -0.0164596589 0.0238811175
v -0.000507460237 -0.0164594386 0.0234115218
v -0.000409823149 -0.0222057805 0.0229521836
v -0.000409823149 -0.0222057805 0.0243404434
v -0.000409823149 -0.016459867 0.0243404434
v -0.000409823149 -0.0164592305 0.0229521836
v -0.000218826427 -0.0222057805 0.0225231897
v -0.000218826427 -0.0222057805 0.0247694496
v -0.000218826427 -0.0164600506 0.0247694496
v -0.000218826427 -0.0164590346 0.0225231897
v 5.72000519e-05 -0.0222057805 0.0221432681
v 5.72000519e-05 -0.0222057805 0.0251493712
v 5.72000519e-05 -0.0164602342 0.0251493712
v 5.72000519e-05 -0.0164588755 0.0221432681
v 0.000406181101 -0.0222057805 0.0218290414
v 0.000406181101 -0.0222057805 0.0254635856
v 0.000406181101 -0.0164603688 0.0254635856
v 0.000406181101 -0.0164587286 0.0218290414
v 0.000812866512 -0.0222057805 0.0215942435
v 0.000812866512 -0.0222057805 0.0256983835
v 0.000812866512 -0.0164604912 0.0256983835
v 0.000812866512 -0.0164586184 0.0215942435
v 0.00125947478 -0.0222057805 0.021449132
v 0.00125947478 -0.0222057805 0.025843495
v 0.00125947478 -0.0164605524 0.025843495
v 0.00125947478 -0.0164585572 0.021449132
v 0.00172649879 -0.0222057805 0.0214000353
v 0.00172649879 -0.0222057805 0.0258925795
v 0.00172649879 -0.0164605647 0.0258925795
v 0.00172649879 -0.0164585328 0.0214000353
v 0.00193239065 -0.0164560357 -0.000220109235
v 0.00193239065 -0.0164560357 0.0158883321
v 0.00193239065 0.0203150346 -0.000220109235
v 0.00193239065 0.0203150346 0.0106978082
v 0.00193265627 -0.016458545 0.0214217132
v 0.00193286681 -0.0164605647 0.0258708893
v 0.00193362327 -0.0164677621 0.0417176036
v 0.00212525001 -0.018290977 -0.0334351093
v 0.00212525001 0.0221499881 -0.0334351093
v 0.0021288879 -0.018325581 -0.049999944
v 0.00212889279 0.0221846411 -0.049999944
v 0.00219353137 -0.0222057805 0.021449132
v 0.00219353137 -0.0222057805 0.025843495
v 0.00219353137 -0.0164051396 0.025843495
v 0.00219353137 -0.0164030954 0.021449132
v 0.00253671792 -0.0222057927 0.0477606438
v 0.00253671792 -0.0222057805 -0.00651055501
v 0.00253671792 -0.0222057805 0.0158883321
v 0.00253671792 -0.0222057805 0.0215606433
v 0.00253671792 -0.0222057805 0.0257319838
v 0.00253671792 -0.0222057682 -0.049968547
v 0.00253671792 -0.0222057682 -0.0342209514
v 0.00253671792 -0.0222057682 -0.0282582948
v 0.00253671792 0.0260648038 -0.049968547
v 0.00253671792 0.0260648038 -0.0342209514
v 0.00253671792 0.0260648038 -0.0282582826
v 0.00253671792 0.0260648038 -0.00651055501
v 0.00253671792 0.0260648038 0.00730426778
v 0.0026401394 -0.0221837965 0.0215942435
v 0.0026401394 -0.0221837965 0.0256983835
v 0.0026401394 -0.0163101408 0.0256983835
v 0.0026401394 -0.0163082313 0.0215942435
v 0.00276422901 -0.0243703715 -0.0406735059
v 0.00276422901 0.0282293949 -0.049968547
v 0.00276422901 0.0282293949 -0.0406735242
v 0.0027642339 -0.0243703715 -0.0499685283
v 0.00304682493 -0.0220973538 0.0218290414
v 0.00304682493 -0.0220973538 0.0254635856
v 0.00304682493 -0.016223588 0.0254635856
v 0.00304682493 -0.0162218988 0.0218290414
v 0.00339579636 -0.0220231762 0.0221432681
v 0.00339579636 -0.0220231762 0.0251493712
v 0.00339579636 -0.0161492757 0.0251493712
v 0.00339579636 -0.0161478681 0.0221432681
v 0.00357183723 -0.0219857692 0.0480005459
v 0.00367182279 -0.0219645074 0.0225231897
v 0.00367182279 -0.0219645074 0.0247694496
v 0.00367182279 -0.0160904233 0.0247694496
v 0.00367182279 -0.0160893828 0.0225231897
v 0.00386282893 -0.0219239055 0.0229521836
v 0.00386282893 -0.0219239055 0.0243404434
v 0.00386282893 -0.0160496133 0.0243404434
v 0.00386282893 -0.0160489768 0.0229521836
v 0.00396045696 -0.0219031578 0.0234115218
v 0.00396045696 -0.0219031578 0.0238811175
v 0.00396045696 -0.0160286453 0.0238811175
v 0.00396045696 -0.0160284372 0.0234115218
v 0.00425410119 -0.0282294071 -0.0136518401
v 0.00425410119 -0.0282293949 -0.0211170709
v 0.00571271595 -0.0156524815 -0.000220109235
v 0.00571271595 -0.0156524815 0.0158882464
v 0.00571273064 0.0195114804 -0.000220109235
v 0.00571273064 0.0195114804 0.0132231767
v 0.00571652153 -0.015664208 0.0428516766
v 0.00628286766 -0.0174072229 -0.0334351093
v 0.00628288235 0.0212662462 -0.0334350113
v 0.00629362097 -0.017440309 -0.0499999253
v 0.00629364912 0.0212993691 -0.049999944
v 0.00749928638 -0.0211509527 0.0491774118
v 0.00749928638 -0.0211509404 -0.0499686777
v 0.00749928638 -0.0211509404 -0.0342209514
v 0.00749928638 -0.0211509404 -0.0282582948
v 0.00749928638 -0.0211509404 -0.00651055501
v 0.00749928638 -0.0211509404 0.0158882464
v 0.00749929127 0.0250099516 -0.00651055501
v 0.00749929127 0.0250099516 0.0104858389
v 0.00749929127 0.0250099638 -0.049968547
v 0.00749929127 0.0250099638 -0.0342208535
v 0.00749929127 0.0250099638 -0.0282582091
v 0.00817186073 -0.0232209 -0.0499686777
v 0.00817186073 -0.0232209 -0.0406735242
v 0.00817187542 0.02707996 -0.049968547
v 0.00817187542 0.02707996 -0.0406734312
v 0.00838042837 -0.0273523241 -0.0211170709
v 0.00838042837 -0.0273523241 -0.0136518401
v 0.00887973188 0.0181014569 0.0158882586
v 0.00924339317 -0.014080528 -0.000220109235
v 0.00924339317 -0.014080528 0.0158883321
v 0.00924339807 0.0179395391 -0.000220109235
v 0.00924339807 0.0179395391 0.0158882464
v 0.00924346784 0.0179396615 0.0161942352
v 0.00924959912 -0.0140912874 0.0430988374
v 0.0101659204 -0.0156783825 -0.0334350113
v 0.0101659204 0.0195374058 -0.0334351093
v 0.0101833191 -0.0157084942 -0.0499998506
v 0.0101833375 0.0195675665 -0.049999944
v 0.0118572864 -0.0192106449 0.0494821521
v 0.012134106 -0.0190874072 0.0496056346
v 0.012134106 -0.0190873949 -0.00651055501
v 0.012134106 -0.0190873949 0.0158883321
v 0.012134106 -0.0190873827 -0.049968547
v 0.012134106 -0.0190873827 -0.0342208535
v 0.012134106 -0.0190873827 -0.0282582214
v 0.012134106 0.0229464061 -0.00651055501
v 0.012134106 0.0229464061 0.0141248755
v 0.012134106 0.0229464183 -0.049968547
v 0.012134106 0.0229464183 -0.0342209514
v 0.012134106 0.0229464183 -0.0282582826
v 0.0123700729 -0.0118088457 -0.000220109235
v 0.0123700729 -0.0118088457 0.0158883321
v 0.0123700729 0.0156678801 -0.000220109235
v 0.0123700729 0.0156678801 0.0158882464
v 0.0123711745 0.0156690919 0.019480977
v 0.0123781884 -0.0118178584 0.0424482532
v 0.0132223566 -0.0209722776 -0.0499685657
v 0.0132223566 -0.0209722776 -0.0406734496
v 0.0132223688 0.02483135 -0.049968547
v 0.0132223688 0.02483135 -0.0406735242
v 0.0136046529 -0.0131799799 -0.0334350113
v 0.0136046529 0.0170390277 -0.0334351093
v 0.0136279588 -0.0132058808 -0.0499999813
v 0.0136279711 0.0170649164 -0.049999944
v 0.0139722972 0.0216109029 0.0158882464
v 0.0142123585 0.0214364753 0.016118552
v 0.0149561299 -0.00893673971 -0.000220109235
v 0.0149561299 -0.00893673971 0.0158882464
v 0.0149561299 0.0127957741 -0.000220109235
v 0.0149561299 0.0127957741 0.0158883321
v 0.0149587372 0.0127976591 0.0229405551
v 0.0149653838 -0.00894346466 0.0409284321
v 0.0161530336 -0.0238917301 -0.0136518156
v 0.0161530336 -0.0238917178 -0.0211170342
v 0.0162386194 -0.0161053077 -0.00651055501
v 0.0162386194 -0.0161053077 0.0158883321
v 0.0162386194 -0.0161053077 0.05
v 0.0162386194 -0.0161052955 -0.049968547
v 0.0162386194 -0.0161052955 -0.0342208535
v 0.0162386194 -0.0161052955 -0.0282582214
v 0.0162386194 0.0199643311 -0.00651055501
v 0.0162386194 0.0199643311 0.0158882464
v 0.0162386194 0.0199643311 0.0182486982
v 0.0162386194 0.0199643433 -0.049968547
v 0.0162386194 0.0199643433 -0.0342209514
v 0.0162386194 0.0199643433 -0.0282582948
v 0.0164488138 -0.0100212251 -0.0334351093
v 0.0164488138 0.0138802729 -0.0334350113
v 0.0164769915 -0.0100417145 -0.049999944
v 0.0164769915 0.0139007391 -0.049999944
v 0.0168885181 -0.00558974758 -0.000220109235
v 0.0168885181 -0.00558974758 0.0158883321
v 0.0168885181 0.00944876726 -0.000220109235
v 0.0168885181 0.00944876726 0.0158882464
v 0.0168929125 0.0094507184 0.0264217867
v 0.0168979923 -0.00559396934 0.0386060116
v 0.0176949855 -0.0177227471 -0.049968547
v 0.0176949855 -0.0177227471 -0.0406734312
v 0.0176949978 0.0215818071 -0.049968547
v 0.0176949978 0.0215818071 -0.0406735242
v 0.0179622943 -0.00228504158 0.0113488331
v 0.0179622943 -0.00228504158 0.0118530451
v 0.0179940217 -0.00218740498 0.010868025
v 0.0179940217 -0.00218740498 0.0123586647
v 0.0180560812 -0.0019964074 0.0104316623
v 0.0180560812 -0.0019964074 0.0128435734
v 0.0180828145 -0.00191411431 0.0103204938
v 0.0180828145 -0.00191411431 0.0129756487
v 0.0180828145 -0.00191411431 0.0158883321
v 0.0180828145 -0.00191410574 -0.000220109235
v 0.0180828145 0.00577311563 -0.000220109235
v 0.0180828145 0.00577313399 0.0158882464
v 0.0180890205 0.00577445107 0.0297725097
v 0.0180916032 -0.00191598222 0.0355826983
v 0.0181031828 -0.00172038097 0.0100421441
v 0.0181031828 -0.00172038097 0.0132699233
v 0.0181238081 -0.00160839113 0.035295413
v 0.0181398554 -0.00137140098 0.00971907981
v 0.0181398554 -0.00137140098 0.0136216672
v 0.0181825994 -0.000964715077 0.00948369439
v 0.0181825994 -0.000964715077 0.0138904938
v 0.0182295418 -0.000518106439 0.00934623322
v 0.0182295418 -0.000518106439 0.014064652
v 0.0182786263 -5.10831524e-05 0.00931270641
v 0.0182786263 -5.10831524e-05 0.0141365774
v 0.0183277108 0.000415949412 0.00938461953
v 0.0183277108 0.000415949412 0.0141030506
v 0.0183746533 0.000862558173 0.00955880229
v 0.0183746533 0.000862558173 0.0139656017
v 0.0184173972 0.00126924395 0.0098276166
v 0.0184173972 0.00126924395 0.0137302162
v 0.0184540699 0.00161821538 0.0101793727
v 0.0184540699 0.00161821538 0.0134071519
v 0.0184601656 0.00218287599 0.0115435432
v 0.0184601656 0.00218287599 0.0120477552
v 0.0184704232 0.00208524796 0.0110543259
v 0.0184704232 0.00208524796 0.0125449778
v 0.0184830799 0.00189424181 0.0105986599
v 0.0184830799 0.00189424181 0.0130105587
v 0.0184867888 0.00192950433 -0.000220109235
v 0.0184867888 0.00192950433 0.0106851515
v 0.0184867888 0.00192950433 0.0129269681
v 0.0184867888 0.00192950433 0.0158883321
v 0.0184945248 0.00192950433 0.0328461928
v 0.0185740638 -0.00634018517 -0.0334350113
v 0.0185740638 0.010199222 -0.0334351093
v 0.0186058769 -0.00635434257 -0.049999944
v 0.0186058769 0.010213399 -0.049999944
v 0.0195658896 -0.0214121656 -0.0136518156
v 0.0195658896 -0.0214121534 -0.0211170342
v 0.0196334083 -0.0123350038 0.048703997
v 0.0196334083 -0.0123349915 -0.00651055501
v 0.0196334083 -0.0123349915 0.0158882464
v 0.0196334083 -0.0123349793 -0.049968547
v 0.0196334083 -0.0123349793 -0.0342209514
v 0.0196334083 -0.0123349793 -0.0282582948
v 0.0196334083 0.0161940271 -0.049968547
v 0.0196334083 0.0161940271 -0.0342208535
v 0.0196334083 0.0161940271 -0.0282582214
v 0.0196334083 0.0161940271 -0.00651055501
v 0.0196334083 0.0161940271 0.0158883321
v 0.0196334083 0.0161940271 0.0227898619
v 0.0198875462 -0.00229770563 -0.0334350113
v 0.0198875462 0.00615673388 -0.0334351093
v 0.0199132758 -0.00228503301 -0.0450339148
v 0.0199142673 -0.00228503301 -0.0455035057
v 0.0199216116 -0.00230495203 -0.0499999253
v 0.0199216116 0.00616398028 -0.049999944
v 0.0199225664 -0.00218739519 -0.0445745767
v 0.0199254919 -0.00218739519 -0.0459628439
v 0.0199417351 -0.00199639884 -0.0441455717
v 0.0199464722 -0.00199639884 -0.0463918304
v 0.0199699495 -0.00172037241 -0.0437656514
v 0.0199762779 -0.00172037241 -0.0467717508
v 0.0200059734 -0.00137139119 -0.0434514394
v 0.0200136115 -0.00137139119 -0.0470859824
v 0.0200482277 -0.000964705774 -0.0432166427
v 0.020056845 -0.000964705774 -0.0473207778
v 0.0200948641 -0.000518097014 -0.0430715373
v 0.0201040935 -0.000518097014 -0.0474658832
v 0.0201438385 -5.10738129e-05 -0.0430224344
v 0.0201532882 -5.10738129e-05 -0.0475149873
v 0.0201930332 0.000415958838 -0.0430715373
v 0.0202022748 0.000415958838 -0.0474658832
v 0.0202402694 0.000862567476 -0.0432166427
v 0.020248899 0.000862567476 -0.0473207778
v 0.0202835152 0.00126925252 -0.0434514394
v 0.0202911533 0.00126925252 -0.0470859824
v 0.0203208488 0.00161822395 -0.0437656514
v 0.0203271772 0.00161822395 -0.0467717508
v 0.0203296008 0.00218288455 -0.0450339148
v 0.0203305923 0.00218288455 -0.0455035057
v 0.0203318408 0.00192951412 -0.0334351093
v 0.0203389036 0.00208525775 -0.0445745767
v 0.0203418291 0.00208525775 -0.0459628439
v 0.0203506667 0.00189425038 -0.0441455717
v 0.0203545347 0.00192951412 -0.0442247839
v 0.0203553793 0.00189425038 -0.0463918304
v 0.0203589291 0.00192951412 -0.0463126366
v 0.0203666774 0.00192951412 -0.049999944
v 0.0210728459 -0.00160839113 0.0367980239
v 0.0213942455 -0.0136142984 -0.049968547
v 0.0213942455 -0.0136142984 -0.0406735242
v 0.0213942577 0.0174733462 -0.049968547
v 0.0213942577 0.0174733462 -0.0406734312
v 0.0221701238 -0.00794129074 0.0457743115
v 0.0221701238 -0.00794128217 -0.00651055501
v 0.0221701238 -0.00794128217 0.0158883321
v 0.0221701238 -0.00794127238 -0.049968547
v 0.0221701238 -0.00794127238 -0.0342208535
v 0.0221701238 -0.00794127238 -0.0282582214
v 0.0221701238 0.0118003006 -0.00651055501
v 0.0221701238 0.0118003006 0.0158882464
v 0.0221701238 0.0118003006 0.0273586402
v 0.0221701238 0.0118003104 -0.049968547
v 0.0221701238 0.0118003104 -0.0342209514
v 0.0221701238 0.0118003104 -0.0282582948
v 0.0222877431 -5.10831524e-05 0.0157044303
v 0.0223056142 -0.000518106439 0.0156586997
v 0.0223056142 0.000415949412 0.0156586997
v 0.0223584689 -0.000964715077 0.0155235642
v 0.0223584689 0.000862558173 0.0155235642
v 0.0224439812 -0.00137140098 0.0153048994
v 0.0224439812 0.00126924395 0.0153048994
v 0.0225584179 -0.00172038097 0.015012265
v 0.0225584179 0.00161821538 0.015012265
v 0.0226967971 -0.0019964074 0.0146584157
v 0.0226967971 0.00189424181 0.0146584157
v 0.0228530475 -0.00218740498 0.0142588848
v 0.0228530475 0.00208524796 0.0142588848
v 0.0230203266 -0.00228504158 0.0138311027
v 0.0230203266 0.00218287599 0.0138311027
v 0.0231913636 -0.00228504158 0.013393773
v 0.0231913636 0.00218287599 0.013393773
v 0.0233586672 -0.00218740498 0.0129659909
v 0.0233586672 0.00208524796 0.0129659909
v 0.0235149053 -0.0019964074 0.01256646
v 0.0235149053 0.00189424181 0.01256646
v 0.0236532845 -0.00172038097 0.0122126229
v 0.0236532845 0.00161821538 0.0122126229
v 0.0237379155 -0.00311615652 0.0413389428
v 0.0237379155 -0.00311614673 -0.00651055501
v 0.0237379155 -0.00311614673 0.0158883321
v 0.0237379155 -0.00311613694 -0.049968547
v 0.0237379155 -0.00311613694 -0.0342208535
v 0.0237379155 -0.00311613694 -0.0282582214
v 0.0237379155 0.00697515662 -0.00651055501
v 0.0237379155 0.00697515662 0.0158882464
v 0.0237379155 0.00697515662 0.0317554391
v 0.0237379155 0.00697516641 -0.049968547
v 0.0237379155 0.00697516641 -0.0342209514
v 0.0237379155 0.00697516641 -0.0282582948
v 0.0237677212 -0.00137140098 0.0119199763
v 0.0237677212 0.00126924395 0.0119199763
v 0.0238252517 -0.00228504158 0.0136416805
v 0.0238252517 -0.00228504158 0.0141458924
v 0.0238355215 -0.00218740498 0.0131524754
v 0.0238355215 -0.00218740498 0.0146431028
v 0.0238532458 -0.000964715077 0.0117013237
v 0.0238532458 0.000862558173 0.0117013237
v 0.023855596 -0.0019964074 0.0126996981
v 0.023855596 -0.0019964074 0.0151115969
v 0.0238846061 -0.00172038097 0.0123030805
v 0.0238846061 -0.00172038097 0.0155308963
v 0.0238909589 0.0055190071 0.0329192321
v 0.0238963815 -0.0016083997 0.0396215473
v 0.0239060882 -0.000518106439 0.0115661637
v 0.0239060882 0.000415949412 0.0115661637
v 0.0239212909 -0.00137140098 0.0119800406
v 0.0239212909 -0.00137140098 0.015882628
v 0.0239221967 -0.0013627812 0.0158883321
v 0.0239239716 -5.10831524e-05 0.0115204454
v 0.0239640349 -0.000964715077 0.0117446429
v 0.0239640349 -0.000964715077 0.0161514545
v 0.0240109773 -0.000518106439 0.0116071818
v 0.0240109773 -0.000518106439 0.0163256128
v 0.0240600618 -5.10831524e-05 0.0115736672
v 0.0240600618 -5.10831524e-05 0.0163975382
v 0.0241091464 0.000415949412 0.0116455803
v 0.0241091464 0.000415949412 0.0163640114
v 0.0241560766 0.000862558173 0.0118197508
v 0.0241560766 0.000862558173 0.0162265624
v 0.024158488 -0.0088265431 -0.0499685657
v 0.024158488 -0.0088265431 -0.0406734496
v 0.024158488 0.0126855848 -0.049968547
v 0.024158488 0.0126855848 -0.0406735242
v 0.0241988205 0.00126924395 0.0120885651
v 0.0241988205 0.00126924395 0.015991177
v 0.0242105102 0.00138033779 0.0158883321
v 0.0242355054 0.00161821538 0.012440309
v 0.0242355054 0.00161821538 0.0156681127
v 0.0242416012 0.00218287599 0.0138044918
v 0.0242416012 0.00218287599 0.0143087038
v 0.0242518465 0.00208524796 0.0133152867
v 0.0242518465 0.00208524796 0.0148059264
v 0.0242645154 0.00189424181 0.0128596207
v 0.0242645154 0.00189424181 0.0152715072
v 0.0242682243 0.00192950433 -0.00651055501
v 0.0242682243 0.00192950433 0.0129461
v 0.0242682243 0.00192950433 0.0151879166
v 0.0242682243 0.00192950433 0.0158883321
v 0.0242682243 0.00192950433 0.0366691923
v 0.0242682243 0.00192951412 -0.049968547
v 0.0242682243 0.00192951412 -0.0342209514
v 0.0242682243 0.00192951412 -0.0282582948
v 0.0258668622 -0.00356866693 -0.049968547
v 0.0258668622 -0.00356866693 -0.0406734312
v 0.0258668622 0.00742769518 -0.049968547
v 0.0258668622 0.00742769518 -0.0406735242
v 0.0260017773 -0.00228503301 -0.0455035057
v 0.0260017773 -0.00228503301 -0.0450339148
v 0.0260120471 -0.00218739519 -0.0459628439
v 0.0260120471 -0.00218739519 -0.0445745767
v 0.0260321216 -0.00199639884 -0.0463918304
v 0.0260321216 -0.00199639884 -0.0441455717
v 0.0260611317 -0.00172037241 -0.0467717508
v 0.0260611317 -0.00172037241 -0.0437656514
v 0.0260978165 -0.00137139119 -0.0470859824
v 0.0260978165 -0.00137139119 -0.0434514394
v 0.0261405482 -0.000964705774 -0.0473207778
v 0.0261405482 -0.000964705774 -0.0432166427
v 0.0261874907 -0.000518097014 -0.0474658832
v 0.0261874907 -0.000518097014 -0.0430715373
v 0.0262365752 -5.10738129e-05 -0.0475149873
v 0.0262365752 -5.10738129e-05 -0.0430224344
v 0.0262856597 0.000415958838 -0.0474658832
v 0.0262856597 0.000415958838 -0.0430715373
v 0.0263326022 0.000862567476 -0.0473207778
v 0.0263326022 0.000862567476 -0.0432166427
v 0.0263753461 0.00126925252 -0.0470859824
v 0.0263753461 0.00126925252 -0.0434514394
v 0.0264120187 0.00161822395 -0.0467717508
v 0.0264120187 0.00161822395 -0.0437656514
v 0.0264181145 0.00218288455 -0.0455035057
v 0.0264181145 0.00218288455 -0.0450339148
v 0.0264283721 0.00208525775 -0.0459628439
v 0.0264283721 0.00208525775 -0.0445745767
v 0.0264410288 0.00189425038 -0.0463918304
v 0.0264410288 0.00189425038 -0.0441455717
v 0.0264447377 0.00192951412 -0.049968547
v 0.0264447377 0.00192951412 -0.0463126366
v 0.0264447377 0.00192951412 -0.0442247839
v 0.0264447377 0.00192951412 -0.0406735242
f 387 388 391
f 391 388 392
f 407 406 399
f 406 391 399
f 391 392 399
f 406 407 413
f 423 413 424
f 407 424 413
f 423 424 431
f 431 424 432
f 431 432 435
f 435 432 436
f 435 436 440
f 440 436 441
f 440 441 444
f 444 441 445
f 444 445 448
f 448 445 449
f 448 449 447
f 447 449 450
f 450 446 447
f 447 446 443
f 446 442 443
f 443 442 439
f 442 437 439
f 439 437 434
f 437 433 434
f 434 433 430
f 433 425 430
f 430 425 422
f 405 412 408
f 422 425 412
f 412 425 408
f 408 398 405
f 405 398 390
f 398 393 390
f 390 393 386
f 386 393 389
f 386 389 382
f 382 389 385
f 382 385 378
f 378 385 381
f 378 381 374
f 374 381 377
f 374 377 370
f 370 377 373
f 370 373 366
f 366 373 369
f 366 369 362
f 362 369 365
f 362 365 363
f 363 365 364
f 363 364 367
f 367 364 368
f 367 368 371
f 371 368 372
f 371 372 375
f 375 372 376
f 375 376 379
f 379 376 380
f 379 380 383
f 383 380 384
f 384 387 383
f 387 384 388
f 669 670 576
f 576 670 574
f 671 669 578
f 578 669 576
f 580 673 578
f 578 673 671
f 582 675 580
f 580 675 673
f 584 677 582
f 582 677 675
f 590 679 584
f 584 679 677
f 588 681 593
f 590 593 679
f 681 679 593
f 586 683 588
f 588 683 681
f 585 685 586
f 586 685 683
f 587 687 585
f 585 687 685
f 589 689 592
f 689 687 592
f 687 587 592
f 583 691 589
f 589 691 689
f 581 705 583
f 583 705 691
f 579 711 581
f 581 711 705
f 577 719 579
f 579 719 711
f 575 723 577
f 577 723 719
f 573 718 575
f 575 718 723
f 710 718 571
f 571 718 573
f 704 710 569
f 569 710 571
f 690 704 566
f 566 704 569
f 566 558 690
f 556 688 558
f 688 690 558
f 686 688 554
f 554 688 556
f 684 686 552
f 552 686 554
f 682 684 553
f 553 684 552
f 680 682 555
f 555 682 553
f 678 680 557
f 557 680 555
f 557 559 678
f 678 559 676
f 559 567 676
f 674 676 570
f 570 676 567
f 672 674 572
f 572 674 570
f 670 672 574
f 574 672 572
f 670 669 727
f 727 669 729
f 669 671 729
f 729 671 731
f 731 671 733
f 733 671 673
f 733 673 739
f 739 673 675
f 739 675 740
f 675 677 740
f 677 742 740
f 742 677 748
f 748 677 679
f 748 679 751
f 679 681 751
f 681 746 751
f 746 681 744
f 744 681 683
f 744 683 743
f 743 683 685
f 743 685 745
f 745 685 687
f 745 687 750
f 747 750 689
f 750 687 689
f 747 689 741
f 741 689 691
f 741 691 738
f 738 691 705
f 738 705 732
f 732 705 711
f 732 711 730
f 730 711 719
f 730 719 728
f 728 719 723
f 728 723 726
f 726 723 718
f 718 710 726
f 726 710 724
f 710 704 724
f 724 704 720
f 704 690 720
f 720 690 714
f 690 688 714
f 714 688 712
f 688 686 712
f 712 686 708
f 686 684 708
f 708 684 706
f 684 682 706
f 706 682 707
f 682 680 707
f 707 680 709
f 680 678 709
f 709 678 713
f 678 676 713
f 713 676 715
f 676 674 715
f 715 674 721
f 725 722 672
f 721 674 722
f 674 672 722
f 672 670 725
f 725 670 727
f 750 747 749
f 747 741 749
f 722 694 721
f 741 738 749
f 721 694 715
f 738 732 749
f 715 694 713
f 732 730 749
f 730 728 749
f 749 728 693
f 728 726 693
f 726 724 693
f 713 694 709
f 724 720 693
f 720 714 693
f 709 694 707
f 694 693 707
f 707 693 706
f 706 693 708
f 708 693 712
f 714 712 693
f 593 590 594
f 559 560 567
f 590 584 594
f 567 560 570
f 584 582 594
f 570 560 572
f 560 594 572
f 572 594 574
f 574 594 576
f 576 594 578
f 578 594 580
f 594 582 580
f 86 44 170
f 170 44 128
f 44 91 128
f 128 91 171
f 91 102 171
f 171 102 194
f 102 183 194
f 194 183 249
f 183 260 249
f 249 260 272
f 260 291 272
f 272 291 298
f 291 320 298
f 298 320 324
f 320 348 324
f 324 348 354
f 348 417 354
f 354 417 404
f 417 470 404
f 404 470 461
f 470 499 461
f 461 499 489
f 499 535 489
f 489 535 515
f 535 608 515
f 515 608 541
f 608 666 541
f 541 666 599
f 666 701 599
f 599 701 619
f 701 754 619
f 619 754 651
f 754 695 651
f 651 695 618
f 695 660 618
f 618 660 598
f 660 605 598
f 598 605 540
f 605 529 540
f 540 529 514
f 529 494 514
f 514 494 488
f 494 463 488
f 488 463 460
f 463 414 460
f 460 414 403
f 414 345 403
f 403 345 353
f 345 313 353
f 353 313 323
f 313 288 323
f 323 288 297
f 288 255 297
f 297 255 271
f 255 180 271
f 271 180 248
f 180 97 248
f 248 97 193
f 97 86 193
f 193 86 170
f 2 1 5
f 3 6 4
f 5 1 11
f 6 12 4
f 12 14 4
f 11 1 13
f 14 16 4
f 4 16 36
f 16 18 36
f 18 20 36
f 20 22 36
f 22 24 36
f 13 1 15
f 1 35 15
f 15 35 17
f 17 35 19
f 19 35 21
f 21 35 23
f 24 26 36
f 23 35 25
f 26 28 36
f 25 35 27
f 28 30 36
f 27 35 29
f 30 32 36
f 29 35 31
f 35 36 31
f 31 36 33
f 33 36 34
f 36 32 34
f 4 38 3
f 3 38 8
f 38 37 8
f 8 37 10
f 10 37 9
f 9 37 7
f 7 37 2
f 37 1 2
f 60 59 38
f 38 59 37
f 113 112 60
f 60 112 59
f 242 241 113
f 113 241 112
f 279 278 242
f 242 278 241
f 311 310 279
f 279 310 278
f 341 340 311
f 311 340 310
f 428 427 341
f 341 427 340
f 476 475 428
f 428 475 427
f 511 510 476
f 476 510 475
f 551 550 511
f 511 550 510
f 656 655 551
f 551 655 550
f 737 736 656
f 656 736 655
f 760 759 737
f 737 759 736
f 791 759 792
f 792 759 787
f 759 760 787
f 787 760 785
f 785 760 786
f 786 760 788
f 788 760 793
f 760 794 793
f 793 794 790
f 792 789 791
f 790 794 784
f 789 783 791
f 784 794 782
f 783 781 791
f 782 794 780
f 794 758 780
f 780 758 778
f 778 758 776
f 776 758 774
f 774 758 772
f 781 779 791
f 791 779 757
f 779 777 757
f 777 775 757
f 775 773 757
f 773 771 757
f 772 758 770
f 771 769 757
f 770 758 768
f 769 767 757
f 767 765 757
f 768 758 766
f 765 763 757
f 766 758 764
f 758 757 764
f 764 757 762
f 762 757 761
f 757 763 761
f 735 734 758
f 758 734 757
f 654 653 735
f 735 653 734
f 549 548 654
f 654 548 653
f 509 508 549
f 549 508 548
f 474 473 509
f 509 473 508
f 426 429 474
f 474 429 473
f 339 338 426
f 426 338 429
f 309 308 339
f 339 308 338
f 277 276 309
f 309 276 308
f 240 239 277
f 277 239 276
f 111 110 240
f 240 110 239
f 58 57 111
f 111 57 110
f 36 35 58
f 58 35 57
f 39 46 83
f 83 46 88
f 89 93 39
f 39 93 46
f 100 104 89
f 89 104 93
f 186 185 100
f 100 185 104
f 258 262 186
f 186 262 185
f 294 293 258
f 258 293 262
f 318 322 294
f 294 322 293
f 351 350 318
f 318 350 322
f 420 419 351
f 351 419 350
f 468 472 420
f 420 472 419
f 497 501 468
f 468 501 472
f 532 537 497
f 497 537 501
f 611 610 532
f 532 610 537
f 663 668 611
f 611 668 610
f 698 703 663
f 663 703 668
f 749 756 698
f 698 756 703
f 693 697 749
f 749 697 756
f 658 662 693
f 693 662 697
f 603 607 658
f 658 607 662
f 526 531 603
f 603 531 607
f 524 525 600
f 600 525 601
f 466 465 492
f 492 465 496
f 451 452 478
f 478 452 477
f 343 347 410
f 410 347 416
f 306 307 333
f 333 307 334
f 285 290 316
f 316 290 315
f 188 189 263
f 263 189 264
f 177 182 252
f 252 182 257
f 94 99 177
f 177 99 182
f 83 88 94
f 94 88 99
f 40 39 47
f 41 48 42
f 48 54 42
f 47 39 53
f 54 56 42
f 56 62 42
f 53 39 55
f 62 65 42
f 42 65 84
f 65 67 84
f 67 69 84
f 55 39 61
f 69 71 84
f 71 73 84
f 73 76 84
f 61 39 64
f 39 83 64
f 64 83 66
f 66 83 68
f 68 83 70
f 70 83 72
f 72 83 75
f 75 83 77
f 77 83 79
f 76 78 84
f 79 83 81
f 83 84 81
f 81 84 82
f 82 84 80
f 84 78 80
f 42 63 41
f 63 90 41
f 89 39 90
f 41 90 49
f 40 50 39
f 39 50 90
f 50 51 90
f 51 52 90
f 49 90 52
f 100 89 101
f 101 89 90
f 186 100 187
f 187 100 101
f 258 186 259
f 259 186 187
f 259 270 258
f 258 270 294
f 270 295 294
f 318 294 319
f 319 294 295
f 352 351 337
f 351 318 337
f 318 319 337
f 421 420 352
f 352 420 351
f 469 468 421
f 421 468 420
f 498 497 469
f 469 497 468
f 533 532 516
f 532 497 516
f 516 497 498
f 612 611 533
f 533 611 532
f 664 663 612
f 612 663 611
f 699 698 664
f 664 698 663
f 749 698 750
f 699 752 698
f 750 698 745
f 751 746 752
f 752 746 698
f 746 744 698
f 744 743 698
f 743 745 698
f 751 752 748
f 748 752 742
f 740 742 752
f 659 658 694
f 694 658 693
f 604 603 659
f 659 603 658
f 527 526 604
f 604 526 603
f 493 492 527
f 527 492 526
f 467 466 493
f 493 466 492
f 411 410 467
f 467 410 466
f 344 343 411
f 411 343 410
f 317 316 344
f 344 316 343
f 286 285 317
f 317 285 316
f 253 252 286
f 286 252 285
f 178 177 253
f 253 177 252
f 95 94 178
f 178 94 177
f 84 83 95
f 95 83 94
f 85 74 84
f 42 84 43
f 43 84 74
f 63 42 43
f 516 517 533
f 534 533 517
f 613 612 534
f 534 612 533
f 665 664 613
f 613 664 612
f 700 699 665
f 665 699 664
f 753 752 716
f 716 752 700
f 752 699 700
f 692 694 717
f 694 722 717
f 717 722 753
f 722 725 753
f 725 727 753
f 727 729 753
f 729 731 753
f 752 753 740
f 740 753 739
f 739 753 733
f 731 733 753
f 657 659 692
f 692 659 694
f 602 604 657
f 657 604 659
f 528 527 602
f 602 527 604
f 493 527 491
f 491 527 528
f 491 490 493
f 493 490 467
f 490 462 467
f 462 438 467
f 409 413 438
f 413 423 438
f 412 411 422
f 411 467 422
f 422 467 430
f 430 467 434
f 434 467 439
f 423 431 438
f 439 467 443
f 431 435 438
f 443 467 447
f 435 440 438
f 447 467 448
f 440 444 438
f 438 444 467
f 444 448 467
f 412 405 411
f 413 409 406
f 409 342 406
f 406 342 391
f 342 387 391
f 405 390 411
f 411 390 344
f 390 386 344
f 386 382 344
f 382 378 344
f 387 342 383
f 378 374 344
f 383 342 379
f 374 370 344
f 379 342 375
f 370 366 344
f 375 342 371
f 371 342 367
f 366 362 344
f 342 344 367
f 367 344 363
f 362 363 344
f 342 336 344
f 344 336 317
f 312 317 336
f 286 317 287
f 287 317 312
f 287 275 286
f 286 275 253
f 254 253 275
f 178 253 179
f 179 253 254
f 95 178 96
f 96 178 179
f 84 95 85
f 85 95 96
f 129 130 128
f 131 135 132
f 130 138 128
f 132 135 139
f 139 135 143
f 138 142 128
f 143 135 145
f 142 144 128
f 128 144 170
f 144 146 170
f 146 150 170
f 150 152 170
f 152 156 170
f 145 135 147
f 135 175 147
f 147 175 151
f 151 175 153
f 156 158 170
f 153 175 157
f 157 175 159
f 158 162 170
f 159 175 163
f 162 164 170
f 163 175 165
f 164 168 170
f 165 175 169
f 168 172 170
f 170 172 175
f 172 173 175
f 173 169 175
f 128 171 129
f 129 171 133
f 171 176 133
f 133 176 136
f 136 176 137
f 137 176 134
f 134 176 131
f 176 135 131
f 198 176 194
f 194 176 171
f 251 198 249
f 249 198 194
f 274 251 272
f 272 251 249
f 300 274 298
f 298 274 272
f 326 300 324
f 324 300 298
f 356 326 354
f 354 326 324
f 402 356 404
f 404 356 354
f 459 402 461
f 461 402 404
f 487 459 489
f 489 459 461
f 513 487 515
f 515 487 489
f 539 513 541
f 541 513 515
f 597 539 599
f 599 539 541
f 615 597 619
f 619 597 599
f 619 651 615
f 644 615 648
f 648 615 645
f 650 646 651
f 651 646 615
f 646 643 615
f 643 642 615
f 642 645 615
f 650 651 649
f 648 647 644
f 649 651 641
f 647 640 644
f 640 638 644
f 641 651 639
f 638 636 644
f 639 651 637
f 651 618 637
f 637 618 635
f 635 618 633
f 633 618 631
f 631 618 629
f 636 634 644
f 644 634 614
f 634 632 614
f 632 630 614
f 629 618 627
f 630 628 614
f 628 626 614
f 627 618 625
f 626 624 614
f 625 618 623
f 624 622 614
f 623 618 621
f 622 620 614
f 621 618 617
f 618 614 617
f 617 614 616
f 614 620 616
f 596 614 598
f 598 614 618
f 538 596 540
f 540 596 598
f 512 538 514
f 514 538 540
f 486 512 488
f 488 512 514
f 458 486 460
f 460 486 488
f 401 458 403
f 403 458 460
f 355 401 353
f 353 401 403
f 325 355 323
f 323 355 353
f 299 325 297
f 297 325 323
f 273 299 271
f 271 299 297
f 250 273 248
f 248 273 271
f 197 250 193
f 193 250 248
f 175 197 170
f 170 197 193
f 208 204 206
f 135 176 191
f 206 204 232
f 204 203 232
f 203 202 232
f 202 200 232
f 176 232 191
f 191 232 196
f 200 196 232
f 246 232 198
f 198 232 176
f 268 246 251
f 251 246 198
f 283 268 274
f 274 268 251
f 304 283 300
f 300 283 274
f 330 304 326
f 326 304 300
f 360 330 356
f 356 330 326
f 396 360 402
f 402 360 356
f 455 396 459
f 459 396 402
f 482 455 487
f 487 455 459
f 504 482 513
f 513 482 487
f 520 504 539
f 539 504 513
f 544 520 597
f 597 520 539
f 562 544 615
f 615 544 597
f 591 562 644
f 644 562 615
f 561 591 614
f 614 591 644
f 542 561 596
f 596 561 614
f 518 542 538
f 538 542 596
f 502 518 512
f 512 518 538
f 480 502 486
f 486 502 512
f 453 480 458
f 458 480 486
f 394 453 401
f 401 453 458
f 358 394 355
f 355 394 401
f 328 358 325
f 325 358 355
f 302 328 299
f 299 328 325
f 281 302 273
f 273 302 299
f 266 281 250
f 250 281 273
f 244 266 197
f 197 266 250
f 236 244 237
f 237 244 238
f 244 197 238
f 238 197 235
f 235 197 228
f 228 197 223
f 223 197 221
f 221 197 175
f 230 227 231
f 227 225 231
f 225 224 231
f 224 220 231
f 231 220 207
f 220 218 207
f 206 207 208
f 208 207 209
f 209 207 211
f 211 207 213
f 213 207 214
f 214 207 216
f 218 216 207
f 207 206 222
f 222 206 233
f 206 232 233
f 233 232 247
f 247 232 246
f 247 246 269
f 269 246 268
f 269 268 284
f 284 268 283
f 284 283 305
f 305 283 304
f 305 304 331
f 331 304 330
f 361 332 360
f 331 330 332
f 330 360 332
f 360 396 361
f 361 396 397
f 396 455 397
f 397 455 456
f 483 479 482
f 482 479 455
f 456 455 479
f 505 483 504
f 504 483 482
f 521 505 520
f 520 505 504
f 545 521 544
f 544 521 520
f 563 545 562
f 562 545 544
f 594 563 593
f 593 563 588
f 563 562 588
f 588 562 586
f 586 562 585
f 585 562 587
f 587 562 592
f 562 591 592
f 592 591 589
f 558 566 561
f 589 591 583
f 566 569 561
f 583 591 581
f 581 591 579
f 569 571 561
f 579 591 577
f 571 573 561
f 591 561 577
f 577 561 575
f 573 575 561
f 561 542 558
f 543 560 542
f 558 542 556
f 559 557 560
f 556 542 554
f 557 555 560
f 560 555 542
f 555 553 542
f 553 552 542
f 552 554 542
f 519 543 518
f 518 543 542
f 503 519 502
f 502 519 518
f 481 503 480
f 480 503 502
f 454 481 453
f 453 481 480
f 395 454 394
f 394 454 453
f 359 395 358
f 358 395 394
f 329 359 328
f 328 359 358
f 303 329 302
f 302 329 328
f 282 303 281
f 281 303 302
f 267 282 266
f 266 282 281
f 245 267 244
f 244 267 266
f 244 236 245
f 236 234 245
f 234 230 245
f 230 231 245
f 229 231 226
f 231 207 226
f 226 207 205
f 205 207 222
f 479 483 484
f 483 505 484
f 484 505 506
f 505 521 506
f 506 521 522
f 521 545 522
f 522 545 546
f 545 563 546
f 546 563 564
f 563 594 564
f 564 594 595
f 565 568 560
f 560 568 594
f 568 595 594
f 560 543 565
f 565 543 547
f 543 519 547
f 547 519 523
f 519 503 523
f 523 503 507
f 503 481 507
f 507 481 485
f 485 481 457
f 457 481 454
f 399 400 407
f 398 408 395
f 395 408 454
f 408 425 454
f 425 433 454
f 400 457 407
f 407 457 424
f 433 437 454
f 424 457 432
f 437 442 454
f 432 457 436
f 436 457 441
f 442 446 454
f 441 457 445
f 446 450 454
f 457 454 445
f 445 454 449
f 454 450 449
f 398 395 393
f 399 392 400
f 400 392 357
f 392 388 357
f 395 359 393
f 393 359 389
f 389 359 385
f 385 359 381
f 388 384 357
f 384 380 357
f 381 359 377
f 380 376 357
f 377 359 373
f 376 372 357
f 373 359 369
f 372 368 357
f 369 359 365
f 359 357 365
f 365 357 364
f 357 368 364
f 357 359 327
f 327 359 329
f 327 329 301
f 301 329 303
f 301 303 296
f 296 303 280
f 303 282 280
f 280 282 265
f 265 282 267
f 265 267 243
f 243 267 245
f 243 245 229
f 229 245 231
f 409 438 342
f 342 438 336
f 275 296 254
f 254 296 179
f 296 280 179
f 280 265 179
f 179 265 96
f 265 243 96
f 96 243 85
f 243 229 85
f 74 85 226
f 85 229 226
f 296 275 301
f 568 565 652
f 565 547 652
f 652 547 490
f 547 523 490
f 523 507 490
f 507 485 490
f 490 485 462
f 485 457 462
f 462 457 438
f 457 400 438
f 438 400 336
f 400 357 336
f 336 357 312
f 357 327 312
f 312 327 287
f 327 301 287
f 301 275 287
f 490 491 652
f 491 528 652
f 528 602 652
f 602 657 652
f 717 652 692
f 692 652 657
f 226 205 74
f 74 205 43
f 335 270 332
f 332 270 331
f 331 270 305
f 305 270 284
f 270 259 284
f 259 187 284
f 284 187 269
f 187 101 269
f 269 101 247
f 101 90 247
f 247 90 233
f 90 63 233
f 233 63 222
f 222 63 205
f 205 63 43
f 332 361 335
f 335 361 517
f 361 397 517
f 397 456 517
f 456 479 517
f 479 484 517
f 484 506 517
f 517 506 534
f 534 506 613
f 506 522 613
f 613 522 665
f 522 546 665
f 546 564 665
f 665 564 700
f 564 595 700
f 700 595 716
f 716 595 652
f 595 568 652
f 716 652 753
f 753 652 717
f 270 335 295
f 295 335 319
f 335 337 319
f 517 516 335
f 516 498 335
f 498 469 335
f 469 421 335
f 337 335 352
f 352 335 421
f 44 86 1
f 1 86 35
f 87 45 36
f 36 45 4
f 91 44 37
f 37 44 1
f 45 92 4
f 4 92 38
f 102 91 59
f 59 91 37
f 92 103 38
f 38 103 60
f 183 102 112
f 112 102 59
f 103 184 60
f 60 184 113
f 260 183 241
f 241 183 112
f 184 261 113
f 113 261 242
f 291 260 278
f 278 260 241
f 261 292 242
f 242 292 279
f 320 291 310
f 310 291 278
f 292 321 279
f 279 321 311
f 348 320 340
f 340 320 310
f 321 349 311
f 311 349 341
f 417 348 427
f 427 348 340
f 349 418 341
f 341 418 428
f 470 417 475
f 475 417 427
f 418 471 428
f 428 471 476
f 499 470 510
f 510 470 475
f 471 500 476
f 476 500 511
f 535 499 550
f 550 499 510
f 500 536 511
f 511 536 551
f 608 535 655
f 655 535 550
f 536 609 551
f 551 609 656
f 666 608 736
f 736 608 655
f 609 667 656
f 656 667 737
f 701 666 759
f 759 666 736
f 667 702 737
f 737 702 760
f 754 701 791
f 791 701 759
f 702 755 760
f 760 755 794
f 695 754 757
f 757 754 791
f 755 696 794
f 794 696 758
f 660 695 734
f 734 695 757
f 696 661 758
f 758 661 735
f 605 660 653
f 653 660 734
f 661 606 735
f 735 606 654
f 529 605 548
f 548 605 653
f 606 530 654
f 654 530 549
f 494 529 508
f 508 529 548
f 530 495 549
f 549 495 509
f 463 494 473
f 473 494 508
f 495 464 509
f 509 464 474
f 414 463 429
f 429 463 473
f 464 415 474
f 474 415 426
f 345 414 338
f 338 414 429
f 415 346 426
f 426 346 339
f 313 345 308
f 308 345 338
f 346 314 339
f 339 314 309
f 288 313 276
f 276 313 308
f 314 289 309
f 309 289 277
f 255 288 239
f 239 288 276
f 289 256 277
f 277 256 240
f 180 255 110
f 110 255 239
f 256 181 240
f 240 181 111
f 97 180 57
f 57 180 110
f 181 98 111
f 111 98 58
f 86 97 35
f 35 97 57
f 98 87 58
f 58 87 36
f 607 606 662
f 662 606 661
f 697 662 696
f 696 662 661
f 756 697 755
f 755 697 696
f 703 756 702
f 702 756 755
f 668 703 667
f 667 703 702
f 610 668 609
f 609 668 667
f 537 610 536
f 536 610 609
f 501 537 500
f 500 537 536
f 472 501 471
f 471 501 500
f 419 472 418
f 418 472 471
f 350 419 349
f 349 419 418
f 322 350 321
f 321 350 349
f 293 322 292
f 292 322 321
f 262 293 261
f 261 293 292
f 185 262 184
f 184 262 261
f 104 185 103
f 103 185 184
f 93 104 92
f 92 104 103
f 46 93 45
f 45 93 92
f 88 46 87
f 87 46 45
f 99 88 98
f 98 88 87
f 182 99 181
f 181 99 98
f 257 182 256
f 256 182 181
f 290 257 289
f 289 257 256
f 315 290 314
f 314 290 289
f 347 315 346
f 346 315 314
f 416 347 415
f 415 347 346
f 465 416 464
f 464 416 415
f 496 465 495
f 495 465 464
f 531 496 530
f 530 496 495
f 607 531 606
f 606 531 530
f 492 496 524
f 524 496 525
f 496 531 525
f 525 531 601
f 531 526 601
f 601 526 600
f 526 492 600
f 600 492 524
f 410 416 451
f 451 416 452
f 416 465 452
f 452 465 477
f 465 466 477
f 477 466 478
f 466 410 478
f 478 410 451
f 316 315 306
f 306 315 307
f 315 347 307
f 307 347 334
f 347 343 334
f 334 343 333
f 343 316 333
f 333 316 306
f 252 257 188
f 188 257 189
f 257 290 189
f 189 290 264
f 290 285 264
f 264 285 263
f 285 252 263
f 263 252 188
f 133 7 129
f 130 129 5
f 7 2 129
f 2 5 129
f 5 11 130
f 130 11 138
f 11 13 138
f 138 13 142
f 13 15 142
f 142 15 144
f 15 17 144
f 144 17 146
f 17 19 146
f 146 19 150
f 19 21 150
f 150 21 152
f 21 23 152
f 152 23 156
f 23 25 156
f 156 25 158
f 25 27 158
f 158 27 162
f 27 29 162
f 162 29 164
f 29 31 164
f 164 31 168
f 31 33 168
f 168 33 172
f 172 33 173
f 173 33 34
f 173 34 169
f 169 34 32
f 169 32 165
f 165 32 30
f 165 30 163
f 163 30 28
f 163 28 159
f 159 28 26
f 159 26 157
f 157 26 24
f 157 24 153
f 153 24 22
f 153 22 151
f 151 22 20
f 151 20 147
f 147 20 18
f 147 18 145
f 145 18 16
f 145 16 143
f 143 16 14
f 143 14 139
f 139 14 12
f 139 12 132
f 132 12 6
f 132 6 131
f 134 131 8
f 6 3 131
f 3 8 131
f 8 10 134
f 134 10 137
f 137 10 136
f 136 10 9
f 136 9 133
f 133 9 7
f 628 630 772
f 772 630 774
f 626 628 770
f 770 628 772
f 624 626 768
f 768 626 770
f 622 624 766
f 766 624 768
f 620 622 764
f 764 622 766
f 616 620 762
f 762 620 764
f 761 617 762
f 762 617 616
f 763 621 761
f 761 621 617
f 765 623 763
f 763 623 621
f 767 625 765
f 765 625 623
f 769 627 767
f 767 627 625
f 771 629 769
f 769 629 627
f 773 631 771
f 771 631 629
f 775 633 773
f 773 633 631
f 777 635 775
f 775 635 633
f 779 637 777
f 777 637 635
f 781 639 779
f 779 639 637
f 783 641 781
f 781 641 639
f 789 649 783
f 783 649 641
f 646 650 787
f 649 789 650
f 787 650 792
f 792 650 789
f 787 785 646
f 646 785 643
f 643 785 642
f 642 785 786
f 642 786 645
f 645 786 788
f 647 648 790
f 645 788 648
f 790 648 793
f 648 788 793
f 640 647 784
f 784 647 790
f 638 640 782
f 782 640 784
f 636 638 780
f 780 638 782
f 634 636 778
f 778 636 780
f 632 634 776
f 776 634 778
f 630 632 774
f 774 632 776
f 191 190 135
f 190 192 135
f 221 175 219
f 219 175 217
f 192 195 135
f 217 175 215
f 195 199 135
f 215 175 212
f 199 201 135
f 212 175 210
f 201 210 135
f 210 175 135
f 108 106 224
f 224 106 220
f 114 108 225
f 225 108 224
f 116 114 227
f 227 114 225
f 227 230 116
f 234 118 230
f 230 118 116
f 234 236 118
f 118 236 120
f 237 120 236
f 122 120 238
f 238 120 237
f 124 122 235
f 235 122 238
f 126 124 228
f 228 124 235
f 140 126 223
f 223 126 228
f 223 221 140
f 140 221 148
f 219 148 221
f 154 148 217
f 217 148 219
f 160 154 215
f 215 154 217
f 166 160 212
f 212 160 215
f 174 166 210
f 210 166 212
f 167 174 201
f 201 174 210
f 199 161 201
f 201 161 167
f 195 155 199
f 199 155 161
f 192 149 195
f 195 149 155
f 190 141 192
f 192 141 149
f 196 127 191
f 190 191 141
f 127 141 191
f 200 125 196
f 196 125 127
f 202 123 200
f 200 123 125
f 203 121 202
f 202 121 123
f 209 119 208
f 208 119 204
f 119 121 204
f 204 121 203
f 211 117 209
f 209 117 119
f 213 115 211
f 211 115 117
f 214 109 213
f 213 109 115
f 216 107 214
f 214 107 109
f 218 105 216
f 216 105 107
f 220 106 218
f 218 106 105
f 106 108 69
f 69 108 71
f 108 114 71
f 71 114 73
f 114 116 73
f 73 116 76
f 116 118 76
f 76 118 78
f 118 120 78
f 78 120 80
f 120 122 80
f 80 122 82
f 122 124 82
f 82 124 81
f 124 126 81
f 81 126 79
f 126 140 79
f 79 140 77
f 140 148 77
f 77 148 75
f 148 154 75
f 75 154 72
f 154 160 72
f 72 160 70
f 160 166 70
f 70 166 68
f 166 174 68
f 68 174 66
f 174 167 66
f 66 167 64
f 64 167 61
f 61 167 161
f 61 161 55
f 55 161 155
f 55 155 53
f 53 155 149
f 53 149 47
f 47 149 141
f 47 141 40
f 141 127 40
f 127 50 40
f 50 127 51
f 51 127 125
f 51 125 52
f 52 125 123
f 52 123 49
f 49 123 121
f 49 121 41
f 48 41 119
f 41 121 119
f 48 119 54
f 54 119 117
f 54 117 56
f 56 117 115
f 56 115 62
f 62 115 109
f 62 109 65
f 65 109 107
f 65 107 67
f 67 107 105
f 67 105 69
f 69 105 106
