# Converted from Thingi10K 93549.stl
# welded vertices: 108, faces: 212
v -0.022429681 0.021182881 -0.00259360959
v -0.022429681 0.021182881 0.00259360959
v -0.0219629143 0.0285038524 -0.00259360959
v -0.0219629143 0.0285038524 0.00259360959
v -0.0214961476 0.0358248239 -0.00259360959
v -0.0214961476 0.0358248239 0.00259360959
v -0.0210294016 0.0431457953 -0.00259360959
v -0.0210294016 0.0431457953 0.00259360959
v -0.0185358078 0.0246099937 -0.00259360959
v -0.0185358078 0.0246099937 0.00259360959
v -0.0180690494 0.0319309652 -0.00259360959
v -0.0180690494 0.0319309652 0.00259360959
v -0.0176022909 0.0392519366 -0.00259360959
v -0.0176022909 0.0392519366 0.00259360959
v -0.0155754597 0.013395147 -0.00259360959
v -0.0155754597 0.013395147 0.00259360959
v -0.0132416696 0.05 -0.00259360959
v -0.0132416696 0.05 0.00259360959
v -0.0116815948 0.0168222535 -0.00259360959
v -0.0116815948 0.0168222535 0.00259360959
v -0.00981456314 0.0461061413 -0.00259360959
v -0.00981456314 0.0461061413 0.00259360959
v -0.00825448829 0.0129283886 -0.00259360959
v -0.00825448829 0.0129283886 0.00259360959
v -0.00669441345 -0.02024936 -0.00259360959
v -0.00669441345 -0.02024936 0.00259360959
v -0.00622765502 -0.0129283886 -0.00259360959
v -0.00622765502 -0.0129283886 0.00259360959
v -0.00592069821 0.049533254 -0.00259360959
v -0.00592069821 0.049533254 0.00259360959
v -0.00576089658 -0.00560741714 -0.00259360959
v -0.00576089658 -0.00560741714 0.00259360959
v -0.00529413815 0.00171355346 -0.00259360959
v -0.00529413815 0.00171355346 0.00259360959
v -0.00482738179 0.00903452572 -0.00259360959
v -0.00482738179 0.00903452572 0.00259360959
v -0.00461886596 -0.0461614785 -0.00259360959
v -0.00461886596 -0.0461614785 0.00259360959
v -0.00436062336 0.0163554971 -0.00259360959
v -0.00436062336 0.0163554971 0.00259360959
v -0.0032821258 -0.024156278 -0.00259360959
v -0.0032821258 -0.024156278 0.00259360959
v -0.00326730695 -0.024143227 -0.00259360959
v -0.00326730695 -0.024143227 0.00259360959
v -0.00321616512 -0.0241604693 -0.00259360959
v -0.00321616512 -0.0241604693 0.00259360959
v -0.00280054852 -0.0168222535 -0.00259360959
v -0.00280054852 -0.0168222535 0.00259360959
v -0.00233379009 -0.00950128207 -0.00259360959
v -0.00233379009 -0.00950128207 0.00259360959
v -0.00186703207 -0.00218031064 -0.00259360959
v -0.00186703207 -0.00218031064 0.00259360959
v -0.00140027405 0.00514066079 -0.00259360959
v -0.00140027405 0.00514066079 0.00259360959
v -0.00124047346 -0.05 -0.00259360959
v -0.00124047346 -0.05 0.00259360959
v -0.000933516034 0.0124616322 -0.00259360959
v -0.000933516034 0.0124616322 0.00259360959
v 0.000933516034 0.0417455159 -0.00259360959
v 0.000933516034 0.0417455159 0.00259360959
v 0.00259804363 -0.0466216056 -0.00259360959
v 0.00259804363 -0.0466216056 0.00259360959
v 0.00400074654 -0.0246205964 -0.00259360959
v 0.00400074654 -0.0246205964 0.00259360959
v 0.00405366448 -0.0246099937 -0.00259360959
v 0.00405366448 -0.0246099937 0.00259360959
v 0.0040667093 -0.0246248084 -0.00259360959
v 0.0040667093 -0.0246248084 0.00259360959
v 0.00452042291 -0.0172890119 -0.00259360959
v 0.00452042291 -0.0172890119 0.00259360959
v 0.00482738179 0.0451726286 -0.00259360959
v 0.00482738179 0.0451726286 0.00259360959
v 0.00498718134 -0.00996804051 -0.00259360959
v 0.00498718134 -0.00996804051 0.00259360959
v 0.00545393978 -0.00264706908 -0.00259360959
v 0.00545393978 -0.00264706908 0.00259360959
v 0.00592069821 0.00467390235 -0.00259360959
v 0.00592069821 0.00467390235 0.00259360959
v 0.00638745457 0.0119948738 -0.00259360959
v 0.00638745457 0.0119948738 0.00259360959
v 0.006854213 0.0193158452 -0.00259360959
v 0.006854213 0.0193158452 0.00259360959
v 0.00794752941 -0.021182881 -0.00259360959
v 0.00794752941 -0.021182881 0.00259360959
v 0.00841428784 -0.0138619054 -0.00259360959
v 0.00841428784 -0.0138619054 0.00259360959
v 0.00888104627 -0.00654093401 -0.00259360959
v 0.00888104627 -0.00654093401 0.00259360959
v 0.00934780471 0.000780037215 -0.00259360959
v 0.00934780471 0.000780037215 0.00259360959
v 0.00981456314 0.00810100885 -0.00259360959
v 0.00981456314 0.00810100885 0.00259360959
v 0.0102813195 0.0154219803 -0.00259360959
v 0.0102813195 0.0154219803 0.00259360959
v 0.0107480779 0.0227429476 -0.00259360959
v 0.0107480779 0.0227429476 0.00259360959
v 0.0116815948 0.0373848904 -0.00259360959
v 0.0116815948 0.0373848904 0.00259360959
v 0.0141751844 0.0188490868 -0.00259360959
v 0.0141751844 0.0188490868 0.00259360959
v 0.0155754597 0.0408120031 -0.00259360959
v 0.0155754597 0.0408120031 0.00259360959
v 0.0185358078 0.029597173 -0.00259360959
v 0.0185358078 0.029597173 0.00259360959
v 0.0219629143 0.0257032936 -0.00259360959
v 0.0219629143 0.0257032936 0.00259360959
v 0.022429681 0.033024265 -0.00259360959
v 0.022429681 0.033024265 0.00259360959
f 55 56 37
f 37 56 38
f 56 55 61
f 62 56 61
f 55 37 61
f 61 37 45
f 45 41 43
f 45 43 25
f 45 25 47
f 45 47 61
f 47 27 49
f 47 49 61
f 49 31 51
f 49 51 61
f 51 33 53
f 51 53 61
f 53 35 57
f 53 57 61
f 23 19 39
f 19 15 1
f 19 1 39
f 39 1 9
f 39 9 3
f 39 3 11
f 39 13 57
f 11 5 13
f 11 13 39
f 13 7 17
f 13 17 57
f 57 17 21
f 57 21 29
f 57 29 59
f 57 59 61
f 61 59 71
f 81 71 97
f 95 97 101
f 103 101 107
f 99 101 103
f 99 103 105
f 63 65 67
f 95 101 99
f 81 97 95
f 63 71 81
f 63 75 73
f 63 73 69
f 85 69 73
f 63 77 75
f 63 69 65
f 83 65 69
f 87 73 75
f 89 75 77
f 63 79 77
f 63 81 79
f 93 79 81
f 61 71 63
f 91 77 79
f 46 45 38
f 38 45 37
f 38 56 62
f 70 38 64
f 64 38 62
f 66 64 68
f 84 64 66
f 70 64 84
f 74 38 70
f 74 70 86
f 76 38 74
f 76 74 88
f 78 38 76
f 78 76 90
f 80 38 78
f 80 78 92
f 82 38 80
f 82 80 94
f 72 38 82
f 102 82 96
f 106 96 100
f 104 96 106
f 102 96 104
f 102 104 108
f 98 82 102
f 72 82 98
f 46 38 72
f 32 50 52
f 12 4 10
f 8 14 18
f 16 14 12
f 2 16 10
f 14 20 18
f 18 24 22
f 30 40 60
f 54 46 58
f 40 58 60
f 42 46 44
f 44 46 48
f 52 46 54
f 48 46 50
f 34 52 54
f 50 46 52
f 26 44 48
f 58 46 60
f 28 48 50
f 36 54 58
f 60 46 72
f 20 24 18
f 12 10 16
f 16 20 14
f 14 6 12
f 24 30 22
f 24 40 30
f 63 64 62
f 61 63 62
f 68 64 67
f 67 64 63
f 68 67 65
f 66 68 65
f 66 65 83
f 84 66 83
f 84 83 69
f 70 84 69
f 70 69 85
f 86 70 85
f 86 85 73
f 74 86 73
f 74 73 87
f 88 74 87
f 88 87 75
f 76 88 75
f 76 75 89
f 90 76 89
f 90 89 77
f 78 90 77
f 78 77 91
f 92 78 91
f 92 91 79
f 80 92 79
f 80 79 93
f 94 80 93
f 94 93 81
f 82 94 81
f 82 81 95
f 96 82 95
f 99 100 95
f 95 100 96
f 100 99 105
f 106 100 105
f 106 105 103
f 104 106 103
f 104 103 107
f 108 104 107
f 108 107 101
f 102 108 101
f 102 101 98
f 98 101 97
f 98 97 71
f 72 98 71
f 59 60 71
f 71 60 72
f 60 59 29
f 30 60 29
f 21 22 29
f 29 22 30
f 22 21 17
f 18 22 17
f 7 8 17
f 17 8 18
f 13 14 7
f 7 14 8
f 5 6 13
f 13 6 14
f 11 12 5
f 5 12 6
f 3 4 11
f 11 4 12
f 9 10 3
f 3 10 4
f 1 2 9
f 9 2 10
f 15 16 1
f 1 16 2
f 16 15 19
f 20 16 19
f 23 24 19
f 19 24 20
f 24 23 39
f 40 24 39
f 57 58 39
f 39 58 40
f 35 36 57
f 57 36 58
f 53 54 35
f 35 54 36
f 33 34 53
f 53 34 54
f 51 52 33
f 33 52 34
f 31 32 51
f 51 32 52
f 49 50 31
f 31 50 32
f 27 28 49
f 49 28 50
f 47 48 27
f 27 48 28
f 25 26 47
f 47 26 48
f 43 44 25
f 25 44 26
f 41 42 43
f 43 42 44
f 46 42 45
f 45 42 41
