# Converted from Thingi10K 94150.stl
# welded vertices: 264, faces: 524
v -0.0433965989 -0.0396674595 -0.0034800803
v -0.0433965989 -0.0396674595 0.0034800803
v -0.0433965989 0.0280144695 -0.0034800803
v -0.0433965989 0.0280144695 0.0034800803
v -0.0433940301 -0.0408038781 -0.0034800803
v -0.0433940301 -0.0408038781 0.0034800803
v -0.043259729 -0.0419323381 -0.0034800803
v -0.043259729 -0.0419323381 0.0034800803
v -0.0432441967 0.0297028416 -0.0034800803
v -0.0432441967 0.0297028416 0.0034800803
v -0.042995521 -0.0430376257 -0.0034800803
v -0.042995521 -0.0430376257 0.0034800803
v -0.0429693019 0.0313756549 -0.0034800803
v -0.0429693019 0.0313756549 0.0034800803
v -0.0426049638 -0.0441048261 -0.0034800803
v -0.0426049638 -0.0441048261 0.0034800803
v -0.0425733682 0.0330240147 -0.0034800803
v -0.0425733682 0.0330240147 0.0034800803
v -0.0420933212 -0.0451195619 -0.0034800803
v -0.0420933212 -0.0451195619 0.0034800803
v -0.042058513 0.0346391727 -0.0034800803
v -0.042058513 0.0346391727 0.0034800803
v -0.0414674964 -0.0460681394 -0.0034800803
v -0.0414674964 -0.0460681394 0.0034800803
v -0.041427451 0.0362125794 -0.0034800803
v -0.041427451 0.0362125794 0.0034800803
v -0.0407359194 -0.0469377745 -0.0034800803
v -0.0407359194 -0.0469377745 0.0034800803
v -0.0406835411 0.0377358845 -0.0034800803
v -0.0406835411 0.0377358845 0.0034800803
v -0.0399084671 -0.0477167316 -0.0034800803
v -0.0399084671 -0.0477167316 0.0034800803
v -0.0398307194 0.03920099 -0.0034800803
v -0.0398307194 0.03920099 0.0034800803
v -0.0389962908 -0.0483945165 -0.0034800803
v -0.0389962908 -0.0483945165 0.0034800803
v -0.0388735194 0.0406001431 -0.0034800803
v -0.0388735194 0.0406001431 0.0034800803
v -0.0380116903 -0.0489619857 -0.0034800803
v -0.0380116903 -0.0489619857 0.0034800803
v -0.0378170191 0.0419259094 -0.0034800803
v -0.0378170191 0.0419259094 0.0034800803
v -0.036967941 -0.0494114892 -0.0034800803
v -0.036967941 -0.0494114892 0.0034800803
v -0.0366668139 0.0431712531 -0.0034800803
v -0.0366668139 0.0431712531 0.0034800803
v -0.0358791216 -0.0497369635 -0.0034800803
v -0.0358791216 -0.0497369635 0.0034800803
v -0.0354290173 0.0443295762 -0.0034800803
v -0.0354290173 0.0443295762 0.0034800803
v -0.0347599146 -0.049934021 -0.0034800803
v -0.0347599146 -0.049934021 0.0034800803
v -0.0341101874 0.0453947189 -0.0034800803
v -0.0341101874 0.0453947189 0.0034800803
v -0.0336254077 -0.05 -0.0034800803
v -0.0336254077 -0.05 0.0034800803
v -0.0327173269 0.0463610524 -0.0034800803
v -0.0327173269 0.0463610524 0.0034800803
v -0.0324909008 -0.049934021 -0.0034800803
v -0.0324909008 -0.049934021 0.0034800803
v -0.0313716872 -0.0497369635 -0.0034800803
v -0.0313716872 -0.0497369635 0.0034800803
v -0.0312578236 0.0472234258 -0.0034800803
v -0.0312578236 0.0472234258 0.0034800803
v -0.0302828677 -0.0494114892 -0.0034800803
v -0.0302828677 -0.0494114892 0.0034800803
v -0.0297394238 0.0479772856 -0.0034800803
v -0.0297394238 0.0479772856 0.0034800803
v -0.0292391251 -0.0489619857 -0.0034800803
v -0.0292391251 -0.0489619857 0.0034800803
v -0.0282545245 -0.0483945165 -0.0034800803
v -0.0282545245 -0.0483945165 0.0034800803
v -0.028170179 0.0486186228 -0.0034800803
v -0.028170179 0.0486186228 0.0034800803
v -0.0273423483 -0.0477167316 -0.0034800803
v -0.0273423483 -0.0477167316 0.0034800803
v -0.0265584062 0.0491440254 -0.0034800803
v -0.0265584062 0.0491440254 0.0034800803
v -0.0265148893 -0.0469377745 -0.0034800803
v -0.0265148893 -0.0469377745 0.0034800803
v -0.0257833189 -0.0460681394 -0.0034800803
v -0.0257833189 -0.0460681394 0.0034800803
v -0.0251574875 -0.0451195619 -0.0034800803
v -0.0251574875 -0.0451195619 0.0034800803
v -0.0249126749 0.0495507321 -0.0034800803
v -0.0249126749 0.0495507321 0.0034800803
v -0.0246458449 -0.0441048261 -0.0034800803
v -0.0246458449 -0.0441048261 0.0034800803
v -0.0242552878 -0.0430376257 -0.0034800803
v -0.0242552878 -0.0430376257 0.0034800803
v -0.0239910797 -0.0419323381 -0.0034800803
v -0.0239910797 -0.0419323381 0.0034800803
v -0.0238567852 -0.0408038781 -0.0034800803
v -0.0238567852 -0.0408038781 0.0034800803
v -0.0238542164 -0.0396674595 -0.0034800803
v -0.0238542164 -0.0396674595 0.0034800803
v -0.0238542164 0.0303136983 -0.0034800803
v -0.0238542164 0.0303136983 0.0034800803
v -0.0232417003 0.0498365526 -0.0034800803
v -0.0232417003 0.0498365526 0.0034800803
v -0.0215543571 0.05 -0.0034800803
v -0.0215543571 0.05 0.0034800803
v -0.00962759069 -0.0396674595 -0.0034800803
v -0.00962759069 -0.0396674595 0.0034800803
v -0.00962759069 0.0303136983 -0.0034800803
v -0.00962759069 0.0303136983 0.0034800803
v -0.00958135229 -0.040777294 -0.0034800803
v -0.00958135229 -0.040777294 0.0034800803
v -0.00940765627 -0.0418744305 -0.0034800803
v -0.00940765627 -0.0418744305 0.0034800803
v -0.00910881255 -0.0429442794 -0.0034800803
v -0.00910881255 -0.0429442794 0.0034800803
v -0.00868880377 -0.0439726092 -0.0034800803
v -0.00868880377 -0.0439726092 0.0034800803
v -0.00815320563 -0.0449457597 -0.0034800803
v -0.00815320563 -0.0449457597 0.0034800803
v -0.00750914704 -0.0458507738 -0.0034800803
v -0.00750914704 -0.0458507738 0.0034800803
v -0.00676517739 -0.0466756374 -0.0034800803
v -0.00676517739 -0.0466756374 0.0034800803
v -0.00593120016 -0.0474093717 -0.0034800803
v -0.00593120016 -0.0474093717 0.0034800803
v -0.00501831365 -0.0480422258 -0.0034800803
v -0.00501831365 -0.0480422258 0.0034800803
v -0.00403863834 -0.0485657798 -0.0034800803
v -0.00403863834 -0.0485657798 0.0034800803
v -0.00300519744 -0.0489730773 -0.0034800803
v -0.00300519744 -0.0489730773 0.0034800803
v -0.00193174433 -0.049258702 -0.0034800803
v -0.00193174433 -0.049258702 0.0034800803
v -0.000832550109 -0.0494188538 -0.0034800803
v -0.000832550109 -0.0494188538 0.0034800803
v 0.000277768937 -0.0494514085 -0.0034800803
v 0.000277768937 -0.0494514085 0.0034800803
v 0.00138446378 -0.0493559281 -0.0034800803
v 0.00138446378 -0.0493559281 0.0034800803
v 0.00247279868 -0.0491336838 -0.0034800803
v 0.00247279868 -0.0491336838 0.0034800803
v 0.00352831666 -0.0487876292 -0.0034800803
v 0.00352831666 -0.0487876292 0.0034800803
v 0.00453698556 -0.0483223711 -0.0034800803
v 0.00453698556 -0.0483223711 0.0034800803
v 0.00548538391 -0.0477440857 -0.0034800803
v 0.00548538391 -0.0477440857 0.0034800803
v 0.0063609133 -0.0470604729 -0.0034800803
v 0.0063609133 -0.0470604729 0.0034800803
v 0.00715193115 -0.0462806131 -0.0034800803
v 0.00715193115 -0.0462806131 0.0034800803
v 0.00784791004 -0.045414881 -0.0034800803
v 0.00784791004 -0.045414881 0.0034800803
v 0.00843959697 -0.0444747864 -0.0034800803
v 0.00843959697 -0.0444747864 0.0034800803
v 0.00891913288 -0.0434728283 -0.0034800803
v 0.00891913288 -0.0434728283 0.0034800803
v 0.00928014554 -0.0424223284 -0.0034800803
v 0.00928014554 -0.0424223284 0.0034800803
v 0.00951781597 -0.0413372526 -0.0034800803
v 0.00951781597 -0.0413372526 0.0034800803
v 0.00961221772 -0.0391213539 -0.0034800803
v 0.00961221772 -0.0391213539 0.0034800803
v 0.00962747121 0.0303136983 -0.0034800803
v 0.00962747121 0.0303136983 0.0034800803
v 0.00962899789 -0.0402320314 -0.0034800803
v 0.00962899789 -0.0402320314 0.0034800803
v 0.0215544832 0.05 -0.0034800803
v 0.0215544832 0.05 0.0034800803
v 0.0232382089 0.0499354282 -0.0034800803
v 0.0232382089 0.0499354282 0.0034800803
v 0.0238389629 -0.0391213539 -0.0034800803
v 0.0238389629 -0.0391213539 0.0034800803
v 0.0238403834 -0.0402382974 -0.0034800803
v 0.0238403834 -0.0402382974 0.0034800803
v 0.0238540837 0.0303136983 -0.0034800803
v 0.0238540837 0.0303136983 0.0034800803
v 0.0239690491 -0.0413478066 -0.0034800803
v 0.0239690491 -0.0413478066 0.0034800803
v 0.0242233138 -0.0424354246 -0.0034800803
v 0.0242233138 -0.0424354246 0.0034800803
v 0.0245998455 -0.0434869865 -0.0034800803
v 0.0245998455 -0.0434869865 0.0034800803
v 0.0249120576 0.0497420978 -0.0034800803
v 0.0249120576 0.0497420978 0.0034800803
v 0.0250937454 -0.044488792 -0.0034800803
v 0.0250937454 -0.044488792 0.0034800803
v 0.0256985883 -0.045427798 -0.0034800803
v 0.0256985883 -0.045427798 0.0034800803
v 0.0264064886 -0.0462917711 -0.0034800803
v 0.0264064886 -0.0462917711 0.0034800803
v 0.026566179 0.0494211504 -0.0034800803
v 0.026566179 0.0494211504 0.0034800803
v 0.0272082065 -0.0470694538 -0.0034800803
v 0.0272082065 -0.0470694538 0.0034800803
v 0.028093334 -0.0477507168 -0.0034800803
v 0.028093334 -0.0477507168 0.0034800803
v 0.0281908555 0.0489744713 -0.0034800803
v 0.0281908555 0.0489744713 0.0034800803
v 0.0290503216 -0.0483266922 -0.0034800803
v 0.0290503216 -0.0483266922 0.0034800803
v 0.0297765552 0.0484046756 -0.0034800803
v 0.0297765552 0.0484046756 0.0034800803
v 0.0300667035 -0.0487898661 -0.0034800803
v 0.0300667035 -0.0487898661 0.0034800803
v 0.0311292309 -0.0491342148 -0.0034800803
v 0.0311292309 -0.0491342148 0.0034800803
v 0.0313139721 0.047715122 -0.0034800803
v 0.0313139721 0.047715122 0.0034800803
v 0.0322240841 -0.0493552478 -0.0034800803
v 0.0322240841 -0.0493552478 0.0034800803
v 0.0327940524 0.0469098463 -0.0034800803
v 0.0327940524 0.0469098463 0.0034800803
v 0.0333369918 -0.0494500876 -0.0034800803
v 0.0333369918 -0.0494500876 0.0034800803
v 0.034208127 0.0459935878 -0.0034800803
v 0.034208127 0.0459935878 0.0034800803
v 0.0344534707 -0.0494174964 -0.0034800803
v 0.0344534707 -0.0494174964 0.0034800803
v 0.0355478725 0.0449717231 -0.0034800803
v 0.0355478725 0.0449717231 0.0034800803
v 0.0355589442 -0.0492579055 -0.0034800803
v 0.0355589442 -0.0492579055 0.0034800803
v 0.0366390483 -0.048973386 -0.0034800803
v 0.0366390483 -0.048973386 0.0034800803
v 0.0368054163 0.0438502527 -0.0034800803
v 0.0368054163 0.0438502527 0.0034800803
v 0.0376796845 -0.048567645 -0.0034800803
v 0.0376796845 -0.048567645 0.0034800803
v 0.0379733906 0.0426357744 -0.0034800803
v 0.0379733906 0.0426357744 0.0034800803
v 0.0386673251 -0.0480459761 -0.0034800803
v 0.0386673251 -0.0480459761 0.0034800803
v 0.0390449321 0.0413354173 -0.0034800803
v 0.0390449321 0.0413354173 0.0034800803
v 0.0395890796 -0.0474151598 -0.0034800803
v 0.0395890796 -0.0474151598 0.0034800803
v 0.0400137348 0.0399568146 -0.0034800803
v 0.0400137348 0.0399568146 0.0034800803
v 0.0404329603 -0.0466834301 -0.0034800803
v 0.0404329603 -0.0466834301 0.0034800803
v 0.0408741036 0.0385080645 -0.0034800803
v 0.0408741036 0.0385080645 0.0034800803
v 0.0411879619 -0.0458603056 -0.0034800803
v 0.0411879619 -0.0458603056 0.0034800803
v 0.0416210071 0.0369976764 -0.0034800803
v 0.0416210071 0.0369976764 0.0034800803
v 0.0418442471 -0.0449565128 -0.0034800803
v 0.0418442471 -0.0449565128 0.0034800803
v 0.0422500379 0.0354345316 -0.0034800803
v 0.0422500379 0.0354345316 0.0034800803
v 0.0423932933 -0.043983827 -0.0034800803
v 0.0423932933 -0.043983827 0.0034800803
v 0.0427575186 0.0338277903 -0.0034800803
v 0.0427575186 0.0338277903 0.0034800803
v 0.0428279184 -0.042954913 -0.0034800803
v 0.0428279184 -0.042954913 0.0034800803
v 0.0431404491 0.0321869178 -0.0034800803
v 0.0431404491 0.0321869178 0.0034800803
v 0.0431424669 -0.0418831791 -0.0034800803
v 0.0431424669 -0.0418831791 0.0034800803
v 0.0433328635 -0.0407825843 -0.0034800803
v 0.0433328635 -0.0407825843 0.0034800803
v 0.0433965989 -0.0396674595 -0.0034800803
v 0.0433965989 -0.0396674595 0.0034800803
v 0.0433965989 0.0305215255 -0.0034800803
v 0.0433965989 0.0305215255 0.0034800803
f 161 159 103
f 161 103 105
f 161 105 263
f 161 263 173
f 157 107 163
f 107 157 109
f 153 111 155
f 111 153 113
f 149 115 151
f 115 149 117
f 145 119 147
f 119 145 121
f 141 123 143
f 123 141 125
f 137 127 139
f 127 137 129
f 133 131 135
f 131 129 135
f 135 129 137
f 127 125 139
f 139 125 141
f 123 121 143
f 143 121 145
f 119 117 147
f 147 117 149
f 115 113 151
f 151 113 153
f 111 109 155
f 155 109 157
f 107 103 163
f 105 97 263
f 95 3 97
f 93 65 95
f 93 91 65
f 91 89 65
f 65 89 69
f 89 87 69
f 87 83 69
f 83 81 69
f 81 79 69
f 71 69 75
f 65 61 95
f 61 59 95
f 59 55 95
f 55 51 95
f 51 47 95
f 47 43 95
f 43 39 95
f 39 35 95
f 35 31 95
f 31 27 95
f 27 23 95
f 23 19 95
f 19 15 95
f 15 11 95
f 11 7 95
f 7 5 95
f 5 1 95
f 1 3 95
f 3 9 97
f 9 13 97
f 13 17 97
f 17 21 97
f 21 25 97
f 25 29 97
f 29 33 97
f 33 37 97
f 37 41 97
f 41 45 97
f 45 49 97
f 49 53 97
f 53 57 97
f 57 63 97
f 63 67 97
f 67 73 97
f 73 77 97
f 77 85 97
f 85 99 97
f 99 101 97
f 101 165 97
f 97 165 263
f 165 167 263
f 167 181 263
f 181 189 263
f 189 195 263
f 195 199 263
f 199 205 263
f 205 209 263
f 209 213 263
f 213 217 263
f 217 223 263
f 223 227 263
f 227 231 263
f 231 235 263
f 235 239 263
f 239 243 263
f 243 247 263
f 255 263 251
f 263 261 173
f 259 171 261
f 171 259 175
f 253 177 257
f 177 253 179
f 245 183 249
f 183 245 185
f 237 187 241
f 187 237 191
f 229 193 233
f 193 229 197
f 221 201 225
f 201 221 203
f 215 207 219
f 215 211 207
f 207 203 219
f 219 203 221
f 201 197 225
f 225 197 229
f 193 191 233
f 233 191 237
f 187 185 241
f 241 185 245
f 183 179 249
f 249 179 253
f 177 175 257
f 257 175 259
f 171 169 261
f 169 173 261
f 163 103 159
f 75 69 79
f 263 247 251
f 101 99 102
f 102 99 100
f 77 86 85
f 86 77 78
f 67 74 73
f 74 67 68
f 57 64 63
f 64 57 58
f 49 54 53
f 45 46 49
f 46 45 42
f 45 41 42
f 33 38 37
f 38 33 34
f 25 30 29
f 30 25 26
f 17 22 21
f 22 17 18
f 9 14 13
f 14 9 10
f 4 10 3
f 3 10 9
f 14 18 13
f 13 18 17
f 22 26 21
f 21 26 25
f 30 34 29
f 29 34 33
f 38 42 37
f 46 50 49
f 50 54 49
f 54 58 53
f 53 58 57
f 64 68 63
f 63 68 67
f 74 78 73
f 73 78 77
f 86 100 85
f 85 100 99
f 42 41 37
f 3 1 4
f 1 2 4
f 1 5 2
f 2 5 6
f 11 8 7
f 8 11 12
f 19 16 15
f 16 19 20
f 27 24 23
f 31 32 27
f 32 31 36
f 39 40 35
f 40 39 44
f 47 48 43
f 48 47 52
f 55 56 51
f 56 55 60
f 61 62 59
f 62 61 66
f 69 70 65
f 70 69 72
f 75 76 71
f 76 75 80
f 75 79 80
f 83 82 81
f 82 83 84
f 89 88 87
f 88 89 90
f 93 92 91
f 92 93 94
f 96 94 95
f 95 94 93
f 92 90 91
f 91 90 89
f 88 84 87
f 87 84 83
f 82 80 81
f 76 72 71
f 71 72 69
f 70 66 65
f 65 66 61
f 62 60 59
f 59 60 55
f 56 52 51
f 51 52 47
f 48 44 43
f 43 44 39
f 40 36 35
f 35 36 31
f 32 28 27
f 28 24 27
f 24 20 23
f 23 20 19
f 16 12 15
f 15 12 11
f 8 6 7
f 7 6 5
f 80 79 81
f 95 97 96
f 97 98 96
f 105 106 97
f 106 98 97
f 105 103 106
f 103 104 106
f 103 107 104
f 104 107 108
f 111 110 109
f 110 111 112
f 115 114 113
f 114 115 116
f 119 118 117
f 118 119 120
f 123 122 121
f 122 123 124
f 127 126 125
f 126 127 128
f 131 132 129
f 132 131 134
f 135 136 133
f 136 135 138
f 135 137 138
f 141 140 139
f 140 141 142
f 145 144 143
f 144 145 146
f 149 148 147
f 148 149 150
f 153 152 151
f 152 153 154
f 157 156 155
f 156 157 158
f 159 164 163
f 159 160 164
f 164 158 163
f 163 158 157
f 156 154 155
f 155 154 153
f 152 150 151
f 151 150 149
f 148 146 147
f 147 146 145
f 144 142 143
f 143 142 141
f 140 138 139
f 136 134 133
f 133 134 131
f 132 130 129
f 130 128 129
f 129 128 127
f 126 124 125
f 125 124 123
f 122 120 121
f 121 120 119
f 118 116 117
f 117 116 115
f 114 112 113
f 113 112 111
f 110 108 109
f 109 108 107
f 138 137 139
f 159 161 160
f 161 162 160
f 173 174 161
f 174 162 161
f 173 169 174
f 169 170 174
f 169 171 170
f 170 171 172
f 177 176 175
f 176 177 178
f 183 180 179
f 180 183 184
f 187 186 185
f 186 187 188
f 193 192 191
f 192 193 194
f 201 198 197
f 198 201 202
f 207 204 203
f 211 212 207
f 212 211 216
f 211 215 216
f 221 220 219
f 220 221 222
f 229 226 225
f 226 229 230
f 237 234 233
f 234 237 238
f 245 242 241
f 242 245 246
f 253 250 249
f 250 253 254
f 259 258 257
f 258 259 260
f 262 260 261
f 261 260 259
f 258 254 257
f 257 254 253
f 250 246 249
f 249 246 245
f 242 238 241
f 241 238 237
f 234 230 233
f 233 230 229
f 226 222 225
f 225 222 221
f 220 216 219
f 212 208 207
f 208 204 207
f 204 202 203
f 203 202 201
f 198 194 197
f 197 194 193
f 192 188 191
f 191 188 187
f 186 184 185
f 185 184 183
f 180 178 179
f 179 178 177
f 176 172 175
f 175 172 171
f 216 215 219
f 261 263 262
f 263 264 262
f 263 255 264
f 264 255 256
f 247 252 251
f 252 247 248
f 239 244 243
f 244 239 240
f 231 236 235
f 236 231 232
f 223 224 227
f 224 223 218
f 213 214 217
f 213 209 214
f 214 209 210
f 199 206 205
f 206 199 200
f 189 196 195
f 196 189 190
f 167 182 181
f 182 167 168
f 166 168 165
f 165 168 167
f 182 190 181
f 181 190 189
f 196 200 195
f 195 200 199
f 206 210 205
f 205 210 209
f 214 218 217
f 217 218 223
f 224 228 227
f 228 232 227
f 227 232 231
f 236 240 235
f 235 240 239
f 244 248 243
f 243 248 247
f 252 256 251
f 251 256 255
f 101 102 165
f 102 166 165
f 104 160 106
f 160 104 164
f 110 158 108
f 158 110 156
f 114 154 112
f 154 114 152
f 118 150 116
f 150 118 148
f 122 130 120
f 124 126 122
f 126 128 122
f 128 130 122
f 130 132 120
f 132 134 120
f 134 136 120
f 136 138 120
f 138 140 120
f 140 142 120
f 142 144 120
f 144 146 120
f 146 148 120
f 120 148 118
f 150 152 116
f 116 152 114
f 154 156 112
f 112 156 110
f 158 164 108
f 108 164 104
f 160 162 106
f 174 166 162
f 170 264 174
f 264 170 262
f 170 172 262
f 172 176 262
f 176 178 262
f 178 180 262
f 180 184 262
f 184 186 262
f 186 188 262
f 188 192 262
f 192 194 262
f 194 198 262
f 198 202 262
f 202 204 262
f 204 208 262
f 208 212 262
f 212 216 262
f 216 220 262
f 220 222 262
f 222 226 262
f 226 230 262
f 230 234 262
f 234 238 262
f 238 242 262
f 242 246 262
f 246 250 262
f 250 254 262
f 260 262 258
f 264 256 174
f 256 252 174
f 252 248 174
f 248 244 174
f 244 240 174
f 240 236 174
f 236 232 174
f 232 228 174
f 228 224 174
f 224 218 174
f 218 214 174
f 214 210 174
f 210 206 174
f 206 200 174
f 200 196 174
f 196 190 174
f 190 182 174
f 182 168 174
f 168 166 174
f 166 102 162
f 100 98 102
f 100 86 98
f 86 78 98
f 78 74 98
f 74 68 98
f 68 64 98
f 64 58 98
f 58 54 98
f 54 50 98
f 50 46 98
f 46 42 98
f 42 38 98
f 38 34 98
f 34 30 98
f 30 26 98
f 26 22 98
f 22 18 98
f 18 14 98
f 14 10 98
f 10 4 98
f 98 4 96
f 6 8 2
f 8 12 2
f 12 16 2
f 16 20 2
f 20 24 2
f 24 28 2
f 28 32 2
f 32 36 2
f 36 40 2
f 40 44 2
f 44 48 2
f 48 52 2
f 52 56 2
f 56 60 2
f 60 62 2
f 62 66 2
f 66 70 2
f 70 72 2
f 72 76 2
f 76 80 2
f 80 82 2
f 82 84 2
f 84 88 2
f 88 90 2
f 90 92 2
f 92 94 2
f 94 96 2
f 2 96 4
f 98 106 102
f 106 162 102
f 262 254 258
