{
	"asset":{
		"generator":"Khronos glTF Blender I/O v4.5.47",
		"version":"2.0"
	},
	"scene":0,
	"scenes":[
		{
			"name":"Scene",
			"nodes":[
				0
			]
		}
	],
	"nodes":[
		{
			"mesh":0,
			"name":"Sphere"
		}
	],
	"materials":[
		{
			"doubleSided":true,
			"name":"diffuse_map_only",
			"normalTexture":{
				"index":0
			},
			"occlusionTexture":{
				"index":1
			},
			"pbrMetallicRoughness":{
				"baseColorTexture":{
					"index":2
				},
				"metallicRoughnessTexture":{
					"index":1
				}
			}
		}
	],
	"meshes":[
		{
			"name":"Sphere",
			"primitives":[
				{
					"attributes":{
						"POSITION":0,
						"NORMAL":1,
						"TEXCOORD_0":2
					},
					"indices":3,
					"material":0
				}
			]
		}
	],
	"textures":[
		{
			"sampler":0,
			"source":0
		},
		{
			"sampler":0,
			"source":1
		},
		{
			"sampler":0,
			"source":2
		}
	],
	"images":[
		{
			"mimeType":"image/png",
			"name":"normal",
			"uri":"normal.png"
		},
		{
			"mimeType":"image/png",
			"name":"omr",
			"uri":"omr.png"
		},
		{
			"mimeType":"image/png",
			"name":"base_color",
			"uri":"base_color.png"
		}
	],
	"accessors":[
		{
			"bufferView":0,
			"componentType":5126,
			"count":2599,
			"max":[
				0.9980270266532898,
				1,
				1.0000005960464478
			],
			"min":[
				-0.9980275630950928,
				-1,
				-1.000001072883606
			],
			"type":"VEC3"
		},
		{
			"bufferView":1,
			"componentType":5126,
			"count":2599,
			"type":"VEC3"
		},
		{
			"bufferView":2,
			"componentType":5126,
			"count":2599,
			"type":"VEC2"
		},
		{
			"bufferView":3,
			"componentType":5123,
			"count":14700,
			"type":"SCALAR"
		}
	],
	"bufferViews":[
		{
			"buffer":0,
			"byteLength":31188,
			"byteOffset":0,
			"target":34962
		},
		{
			"buffer":0,
			"byteLength":31188,
			"byteOffset":31188,
			"target":34962
		},
		{
			"buffer":0,
			"byteLength":20792,
			"byteOffset":62376,
			"target":34962
		},
		{
			"buffer":0,
			"byteLength":29400,
			"byteOffset":83168,
			"target":34963
		}
	],
	"samplers":[
		{
			"magFilter":9729,
			"minFilter":9987
		}
	],
	"buffers":[
		{
			"byteLength":112568,
			"uri":"multi_texture_sphere.bin"
		}
	]
}
