# Converted from Thingi10K 110173.stl
# welded vertices: 48, faces: 100
v -0.05 -0.05 -0.00473684211
v -0.05 -0.05 0.00473684211
v -0.05 -0.0484210526 0.00210526316
v -0.05 -0.0484210526 0.00315789474
v -0.05 0.0484210526 0.00210526316
v -0.05 0.0484210526 0.00315789474
v -0.05 0.05 -0.00473684211
v -0.05 0.05 0.00473684211
v -0.0475789474 -0.0475789474 -0.00473684211
v -0.0475789474 -0.0475789474 -0.00157894737
v -0.0475789474 -0.0475789474 -0.000526315789
v -0.0475789474 -0.0475789474 0.00210526316
v -0.0475789474 -0.0475789474 0.00315789474
v -0.0475789474 -0.0475789474 0.00473684211
v -0.0475789474 0.0475789474 -0.00473684211
v -0.0475789474 0.0475789474 -0.00157894737
v -0.0475789474 0.0475789474 -0.000526315789
v -0.0475789474 0.0475789474 0.00210526316
v -0.0475789474 0.0475789474 0.00315789474
v -0.0475789474 0.0475789474 0.00473684211
v -0.0462631579 -0.0462631579 -0.00157894737
v -0.0462631579 -0.0462631579 -0.000526315789
v -0.0462631579 0.0462631579 -0.00157894737
v -0.0462631579 0.0462631579 -0.000526315789
v 0.0462631579 -0.0462631579 -0.00157894737
v 0.0462631579 -0.0462631579 -0.000526315789
v 0.0462631579 0.0462631579 -0.00157894737
v 0.0462631579 0.0462631579 -0.000526315789
v 0.0475789474 -0.0475789474 -0.00473684211
v 0.0475789474 -0.0475789474 -0.00157894737
v 0.0475789474 -0.0475789474 -0.000526315789
v 0.0475789474 -0.0475789474 0.00210526316
v 0.0475789474 -0.0475789474 0.00315789474
v 0.0475789474 -0.0475789474 0.00473684211
v 0.0475789474 0.0475789474 -0.00473684211
v 0.0475789474 0.0475789474 -0.00157894737
v 0.0475789474 0.0475789474 -0.000526315789
v 0.0475789474 0.0475789474 0.00210526316
v 0.0475789474 0.0475789474 0.00315789474
v 0.0475789474 0.0475789474 0.00473684211
v 0.0486842105 -0.0484210526 0.00210526316
v 0.0486842105 -0.0484210526 0.00315789474
v 0.0486842105 0.0484210526 0.00210526316
v 0.0486842105 0.0484210526 0.00315789474
v 0.05 -0.05 -0.00473684211
v 0.05 -0.05 0.00473684211
v 0.05 0.05 -0.00473684211
v 0.05 0.05 0.00473684211
f 5 7 3
f 6 2 8
f 1 2 4
f 1 4 3
f 1 3 7
f 7 5 8
f 5 6 8
f 4 2 6
f 2 1 45
f 46 2 45
f 9 29 45
f 15 7 47
f 1 7 15
f 35 15 47
f 1 15 9
f 1 9 45
f 45 29 47
f 29 35 47
f 7 8 47
f 47 8 48
f 14 2 46
f 20 8 14
f 34 14 46
f 8 2 14
f 48 8 20
f 48 40 46
f 48 20 40
f 40 34 46
f 13 42 4
f 33 42 13
f 6 13 4
f 39 42 33
f 44 42 39
f 44 39 6
f 39 19 6
f 13 6 19
f 42 41 4
f 4 41 3
f 43 44 6
f 5 43 6
f 18 43 5
f 38 32 41
f 38 43 18
f 41 43 38
f 3 41 32
f 3 12 5
f 3 32 12
f 12 18 5
f 46 45 47
f 48 46 47
f 15 16 10
f 9 15 10
f 35 36 16
f 15 35 16
f 36 35 30
f 30 35 29
f 30 29 10
f 10 29 9
f 19 20 14
f 13 19 14
f 34 33 14
f 14 33 13
f 40 39 34
f 34 39 33
f 39 40 20
f 19 39 20
f 44 43 42
f 42 43 41
f 17 18 12
f 11 17 12
f 37 38 18
f 17 37 18
f 32 31 12
f 12 31 11
f 38 37 32
f 32 37 31
f 21 25 30
f 23 16 36
f 10 16 23
f 27 23 36
f 10 23 21
f 10 21 30
f 30 25 36
f 25 27 36
f 22 11 31
f 24 17 22
f 26 22 31
f 17 11 22
f 37 17 24
f 37 28 31
f 37 24 28
f 28 26 31
f 23 24 22
f 21 23 22
f 27 28 24
f 23 27 24
f 28 27 26
f 26 27 25
f 26 25 22
f 22 25 21
