# Converted from Thingi10K 116891.stl
# welded vertices: 58, faces: 112
v -0.0433018899 -0.0249974991 -0.00333488867
v -0.0433018899 -0.0249974991 0.00333488867
v -0.0433018899 0.0250008336 -0.00333488867
v -0.0433018899 0.0250008336 0.00333488867
v -0.0404286509 -0.0233408869 1.66688765e-06
v -0.0404286509 -0.0233408869 0.00333488867
v -0.0404286509 -0.0164009522 1.66688765e-06
v -0.0404286509 -0.0164009522 0.00333488867
v -0.0404286509 -0.00430206616 1.66688765e-06
v -0.0404286509 -0.00430206616 0.00333488867
v -0.0404286509 0.00571730145 1.66688765e-06
v -0.0404286509 0.00571730145 0.00333488867
v -0.0404286509 0.0171095515 1.66688765e-06
v -0.0404286509 0.0171095515 0.00333488867
v -0.0404286509 0.0233408885 1.66688765e-06
v -0.0404286509 0.0233408885 0.00333488867
v -0.0354002369 -0.026243762 1.66688765e-06
v -0.0354002369 -0.026243762 0.00333488867
v -0.0344074061 0.0268174146 1.66688765e-06
v -0.0344074061 0.0268174146 0.00333488867
v -0.0215548623 0.0342381711 1.66688765e-06
v -0.0215548623 0.0342381711 0.00333488867
v -0.0208860092 -0.0346227401 1.66688765e-06
v -0.0208860092 -0.0346227401 0.00333488867
v -0.00308486387 0.0449023166 1.66688765e-06
v -0.00308486387 0.0449023166 0.00333488867
v -0.00298868088 -0.0449547606 1.66688765e-06
v -0.00298868088 -0.0449547606 0.00333488867
v -3.81829523e-10 -0.05 -0.00333488867
v -3.81829523e-10 -0.05 0.00333488867
v -3.81829523e-10 0.05 -0.00333488867
v -3.81829523e-10 0.05 0.00333488867
v 0.00273268468 0.0451056555 1.66688765e-06
v 0.00273268468 0.0451056555 0.00333488867
v 0.00281311946 -0.0450561106 1.66688765e-06
v 0.00281311946 -0.0450561106 0.00333488867
v 0.0190940863 0.0356589649 1.66688765e-06
v 0.0190940863 0.0356589649 0.00333488867
v 0.0196591624 -0.0353309914 1.66688765e-06
v 0.0196591624 -0.0353309914 0.00333488867
v 0.0399631843 -0.0236095995 1.66688765e-06
v 0.0399631843 -0.0236095995 0.00333488867
v 0.0404286509 -0.0233408869 1.66688765e-06
v 0.0404286509 -0.0233408869 0.00333488867
v 0.0404286509 -0.0135747643 1.66688765e-06
v 0.0404286509 -0.0135747643 0.00333488867
v 0.0404286509 -0.00571454224 1.66688765e-06
v 0.0404286509 -0.00571454224 0.00333488867
v 0.0404286509 0.00430486947 1.66688765e-06
v 0.0404286509 0.00430486947 0.00333488867
v 0.0404286509 0.0128670852 1.66688765e-06
v 0.0404286509 0.0128670852 0.00333488867
v 0.0404286509 0.0228908757 1.66688765e-06
v 0.0404286509 0.0228908757 0.00333488867
v 0.0433018899 -0.0249974991 -0.00333488867
v 0.0433018899 -0.0249974991 0.00333488867
v 0.0433018899 0.0250008336 -0.00333488867
v 0.0433018899 0.0250008336 0.00333488867
f 56 30 29
f 56 29 55
f 57 58 56
f 57 56 55
f 58 31 32
f 57 31 58
f 58 54 52
f 58 52 50
f 48 56 50
f 46 56 48
f 44 56 46
f 32 3 4
f 29 1 31
f 29 31 55
f 41 45 17
f 43 45 41
f 45 7 17
f 5 17 7
f 58 50 56
f 44 42 56
f 42 40 56
f 30 56 40
f 30 40 36
f 39 23 27
f 39 27 35
f 31 3 32
f 2 3 1
f 25 33 34
f 25 34 26
f 3 2 4
f 18 17 5
f 18 5 6
f 38 37 21
f 38 21 22
f 29 30 1
f 28 27 23
f 28 23 24
f 19 53 54
f 19 54 20
f 58 38 54
f 38 22 54
f 20 54 22
f 14 13 15
f 14 15 16
f 52 51 13
f 52 13 14
f 12 50 52
f 12 52 14
f 1 30 2
f 10 9 11
f 10 11 12
f 11 49 50
f 11 50 12
f 48 10 46
f 8 46 10
f 5 7 8
f 5 8 6
f 48 47 9
f 48 9 10
f 22 21 25
f 22 25 26
f 3 31 1
f 57 55 31
f 42 18 24
f 42 24 40
f 7 45 46
f 7 46 8
f 15 19 20
f 15 20 16
f 34 33 37
f 34 37 38
f 42 41 17
f 42 17 18
f 30 36 28
f 30 28 24
f 18 2 24
f 6 2 18
f 54 53 51
f 54 51 52
f 23 39 40
f 23 40 24
f 50 49 47
f 50 47 48
f 8 2 6
f 10 2 8
f 12 4 10
f 14 4 12
f 16 4 14
f 30 24 2
f 36 35 27
f 36 27 28
f 46 45 43
f 46 43 44
f 33 25 37
f 21 37 25
f 20 22 4
f 26 32 22
f 32 4 22
f 34 32 26
f 16 20 4
f 2 10 4
f 44 43 41
f 44 41 42
f 53 19 51
f 13 51 19
f 13 19 15
f 58 32 38
f 34 38 32
f 40 39 35
f 40 35 36
f 9 47 49
f 9 49 11
