# Converted from Thingi10K 1452674.stl
# welded vertices: 118, faces: 232
v -0.035547993 0.0183665888 -0.0499909835
v -0.0355460027 -0.00840003398 -0.04996909
v -0.0277314822 -0.0184087295 0.014924646
v -0.0275389912 0.00569121903 0.0140564424
v -0.023195463 0.0184043666 -0.0049275512
v -0.0184733549 0.0183878495 -0.025550369
v -0.0184710827 -0.012169266 -0.0255253751
v -0.0115747189 -0.0183788385 0.05
v -0.00747081145 0.0087209003 0.0292598665
v -0.00746914512 0.00685553657 0.0320466245
v -0.00660448546 0.0105234778 0.0265680643
v -0.00659960004 0.00505450802 0.0347384255
v -0.00574843928 0.00673684885 0.0282033629
v -0.00574699807 0.00512349153 0.0306136362
v -0.00574196141 -0.000526538294 0.0233414877
v -0.00574051975 -0.00214040813 0.025751418
v -0.00499915197 0.00829590218 0.0258752171
v -0.00499492656 0.00356577785 0.032941781
v -0.00499267414 0.00103255073 0.0210133658
v -0.00498844738 -0.00369907621 0.0280789239
v -0.00492920585 0.0121404263 0.0241546599
v -0.00492143426 0.00344055178 0.0371518276
v -0.00355019884 0.00969440462 0.0237878582
v -0.00354372061 0.0024306096 0.01892571
v -0.00354347717 0.00216986344 0.035029138
v -0.00353699681 -0.00509632189 0.0301653897
v -0.00255914014 0.0134615535 0.0221841229
v -0.002549012 0.00212365629 0.0391223615
v -0.00150032364 0.0108370505 0.0220835362
v -0.00149384461 0.00357236292 0.0172207905
v -0.00149156379 0.00103087755 0.0367334572
v -0.00148508198 -0.00623692518 0.0318686264
v 0.000344195598 0.0143968268 0.0207907419
v 0.000355990063 0.00119356582 0.0405157386
v 0.00101077802 0.0116459705 0.0208783979
v 0.00101725819 0.00438000208 0.0160147948
v 0.00102097908 0.000226440191 0.0379385922
v 0.00102746249 -0.00704315585 0.033072561
v 0.002385401 0.0152692652 0.036110218
v 0.00239073084 0.0156942277 0.0354849752
v 0.00239609241 0.0146646571 0.0366776411
v 0.00241266536 0.0159951011 0.0347221711
v 0.00242808428 0.0137519529 0.0372547752
v 0.00245793365 0.0161875562 0.0336835975
v 0.0024986023 0.0122092917 0.0379403679
v 0.002546385 0.0162438737 0.0320540162
v 0.00266719094 0.00898734641 0.038996678
v 0.00274388351 0.0160205572 0.0288518109
v 0.0031278928 0.000782948637 0.0411328724
v 0.0033222966 0.0148434221 0.0201275197
v 0.00334363988 -0.000117628311 0.0384557072
v 0.00351147138 0.0120209739 0.0203214942
v 0.0038144552 0.00928925022 0.0183958799
v 0.00381846029 0.00479848781 0.0153899096
v 0.00382689191 -0.00463568015 0.0355857026
v 0.00382941085 -0.00746007061 0.0336951474
v 0.0039869389 -0.00610534265 0.0346018633
v 0.00407165813 2.20705805e-05 0.0254479415
v 0.00415637735 0.00614948381 0.0162940196
v 0.00526866234 0.00479889441 0.0153893146
v 0.00620909807 -0.00610335982 0.0346018619
v 0.00629381729 2.40534129e-05 0.02544794
v 0.00637853652 0.00615146665 0.0162940181
v 0.00671485772 0.00929183825 0.018395878
v 0.0067188644 0.004799301 0.0153887196
v 0.00672431517 -0.00129256239 0.0378217426
v 0.00672981495 -0.00745925742 0.0336939574
v 0.00684307756 -0.000168081967 0.0385357449
v 0.00701165255 0.0120242933 0.0203211989
v 0.0070289354 0.000728636912 0.0412192089
v 0.00722408267 0.0148428834 0.0201335232
v 0.00763328705 0.00976052295 0.0388468015
v 0.00770581646 0.0160706191 0.0290786602
v 0.00781659333 0.0126298318 0.0378916133
v 0.00786171643 0.0163077632 0.032264171
v 0.00789871817 0.0140289613 0.0372574903
v 0.00792689006 0.0162646733 0.0338539533
v 0.0079407796 0.0148644316 0.0367169842
v 0.00795641705 0.0160897968 0.0348561134
v 0.00796119957 0.015420769 0.0361810575
v 0.007966228 0.0158127237 0.0355864401
v 0.00951432795 0.0116535582 0.0208783922
v 0.00952081276 0.00438238624 0.0160113061
v 0.00952452901 0.000234027907 0.0379385865
v 0.00953101705 -0.00704077169 0.0330690722
v 0.010176 0.0144055997 0.0207907353
v 0.0101877945 0.00120233873 0.040515732
v 0.0120268708 0.0108491209 0.0220835272
v 0.0120333572 0.00357615557 0.0172152407
v 0.0120356307 0.00104294787 0.0367334482
v 0.0120421199 -0.00623313253 0.0318630765
v 0.0130810021 0.0134755092 0.0221841124
v 0.0130911302 0.00213761199 0.039122351
v 0.0140787842 0.00971013496 0.0237878464
v 0.0140852721 0.00243555228 0.0189184773
v 0.0140855059 0.00218559378 0.0350291262
v 0.0140919959 -0.00509137921 0.030158157
v 0.0154534243 0.0121586137 0.0241546463
v 0.0154611959 0.0034587392 0.037151814
v 0.0155302336 0.00831422055 0.0258752034
v 0.015534459 0.00358409622 0.0329417673
v 0.0155367226 0.0010383066 0.0210049432
v 0.0155409494 -0.00369332034 0.0280705012
v 0.0162823051 0.00675650688 0.0282033481
v 0.0162837463 0.00514314956 0.0306136215
v 0.016288795 -0.000520361483 0.0233324491
v 0.0162902367 -0.00213423132 0.0257423793
v 0.0171315901 0.0105446575 0.0265680484
v 0.0171364755 0.00507568772 0.0347384096
v 0.0180011352 0.00874362892 0.0292598494
v 0.0180028015 0.00687826518 0.0320466074
v 0.0207412785 -0.0183764389 0.0499959009
v 0.0355356441 0.0183718672 -0.05
v 0.0355376345 -0.00839475562 -0.0499781065
v 0.0355413578 0.0184087295 -0.00493331666
v 0.0355466092 -0.0184040308 0.0149166196
v 0.0355478911 -0.00637003289 0.032067739
v 0.035547993 -0.0183951026 0.0258319033
f 75 98 92
f 98 75 77
f 110 80 111
f 80 110 81
f 34 45 28
f 45 34 47
f 9 42 11
f 42 9 40
f 79 110 108
f 110 79 81
f 41 10 12
f 10 41 39
f 39 9 10
f 9 39 40
f 87 74 72
f 74 87 93
f 11 44 21
f 44 11 42
f 77 108 98
f 108 77 79
f 22 41 12
f 41 22 43
f 21 46 27
f 46 21 44
f 73 92 86
f 92 73 75
f 111 78 109
f 78 111 80
f 99 78 76
f 78 99 109
f 93 76 74
f 76 93 99
f 59 62 63
f 62 59 58
f 73 86 71
f 87 72 70
f 48 50 33
f 49 47 34
f 66 62 61
f 62 66 68
f 62 68 70
f 62 70 63
f 63 70 72
f 63 72 64
f 64 72 69
f 69 72 74
f 69 74 71
f 71 74 76
f 71 76 78
f 71 78 73
f 73 78 80
f 73 80 81
f 73 81 79
f 73 79 75
f 75 79 77
f 58 55 57
f 55 58 51
f 51 58 49
f 49 58 59
f 49 59 47
f 47 59 53
f 47 53 45
f 45 53 52
f 45 52 50
f 45 50 43
f 43 50 41
f 41 50 39
f 39 50 48
f 39 48 40
f 40 48 42
f 42 48 44
f 44 48 46
f 58 61 62
f 61 58 57
f 59 54 53
f 54 59 60
f 60 59 63
f 60 63 65
f 65 63 64
f 52 36 35
f 36 52 54
f 54 52 53
f 14 15 16
f 15 14 13
f 56 57 55
f 57 56 67
f 57 67 61
f 61 67 66
f 88 83 82
f 83 88 89
f 85 90 84
f 90 85 91
f 106 105 107
f 105 106 104
f 31 26 32
f 26 31 25
f 97 90 91
f 90 97 96
f 18 16 20
f 16 18 14
f 13 19 15
f 19 13 17
f 67 68 66
f 68 67 85
f 68 85 84
f 107 101 103
f 101 107 105
f 89 94 95
f 94 89 88
f 38 51 37
f 51 38 56
f 51 56 55
f 32 37 31
f 37 32 38
f 102 104 106
f 104 102 100
f 95 100 102
f 100 95 94
f 69 65 64
f 65 69 83
f 83 69 82
f 25 20 26
f 20 25 18
f 23 30 24
f 30 23 29
f 17 24 19
f 24 17 23
f 35 30 29
f 30 35 36
f 103 96 97
f 96 103 101
f 4 60 65
f 60 4 54
f 54 4 36
f 36 4 30
f 30 4 24
f 24 4 19
f 19 4 15
f 15 4 8
f 15 8 16
f 16 8 20
f 20 8 26
f 26 8 32
f 32 8 38
f 38 8 56
f 56 8 112
f 115 89 117
f 89 115 5
f 89 5 83
f 83 5 65
f 65 5 4
f 117 89 95
f 117 95 102
f 117 102 106
f 117 106 107
f 117 107 103
f 117 103 97
f 117 97 91
f 117 91 85
f 117 85 112
f 112 85 67
f 112 67 56
f 114 118 116
f 118 114 117
f 117 114 113
f 117 113 115
f 1 115 113
f 115 1 6
f 115 6 5
f 4 3 8
f 117 112 118
f 6 2 7
f 2 6 1
f 113 2 1
f 2 113 114
f 4 7 3
f 7 4 6
f 6 4 5
f 118 3 116
f 3 118 8
f 8 118 112
f 116 2 114
f 2 116 7
f 7 116 3
f 93 84 90
f 84 93 87
f 71 82 69
f 82 71 86
f 31 22 25
f 22 31 28
f 87 68 84
f 68 87 70
f 27 23 21
f 23 27 29
f 9 17 13
f 17 9 11
f 37 28 31
f 28 37 34
f 25 12 18
f 12 25 22
f 51 34 37
f 34 51 49
f 12 14 18
f 14 12 10
f 99 90 96
f 90 99 93
f 11 23 17
f 23 11 21
f 10 13 14
f 13 10 9
f 33 29 27
f 29 33 35
f 92 94 88
f 94 92 98
f 86 88 82
f 88 86 92
f 50 35 33
f 35 50 52
f 109 96 101
f 96 109 99
f 105 109 101
f 109 105 111
f 104 111 105
f 111 104 110
f 100 110 104
f 110 100 108
f 94 108 100
f 108 94 98
f 27 48 33
f 48 27 46
f 28 43 22
f 43 28 45
