# Converted from Thingi10K 249521.stl
# welded vertices: 72, faces: 140
v -0.05 -0.02 -0.03
v -0.05 -0.02 0.01
v -0.05 0.02 -0.03
v -0.05 0.02 0.01
v -0.02 -0.05 -0.03
v -0.02 -0.05 0.01
v -0.02 -0.02 -0.03
v -0.02 -0.02 0.01
v -0.02 8.88178e-18 0.01
v -0.02 1.776356e-17 0.03
v -0.02 0.02 -0.03
v -0.02 0.02 0.01
v -0.02 0.05 -0.03
v -0.02 0.05 0.01
v -0.0193186 -0.00517638 0.01
v -0.0193186 -0.00517638 0.03
v -0.0193186 0.00517638 0.01
v -0.0193186 0.00517638 0.03
v -0.0173204 -0.01 0.01
v -0.0173204 -0.01 0.03
v -0.0173204 0.01 0.01
v -0.0173204 0.01 0.03
v -0.0141422 -0.01414214 0.01
v -0.0141422 -0.01414214 0.03
v -0.0141422 0.01414214 0.01
v -0.0141422 0.01414214 0.03
v -0.01 -0.0173205 0.01
v -0.01 -0.0173205 0.03
v -0.01 0.0173205 0.01
v -0.01 0.0173205 0.03
v -0.0051764 -0.01931852 0.01
v -0.0051764 -0.01931852 0.03
v -0.0051764 0.01931852 0.01
v -0.0051764 0.01931852 0.03
v 0 -0.02 0.01
v 0 -0.02 0.03
v 0 0.02 0.01
v 0 0.02 0.03
v 0.0051764 -0.01931852 0.01
v 0.0051764 -0.01931852 0.03
v 0.0051764 0.01931852 0.01
v 0.0051764 0.01931852 0.03
v 0.01 -0.0173205 0.01
v 0.01 -0.0173205 0.03
v 0.01 0.0173205 0.01
v 0.01 0.0173205 0.03
v 0.0141422 -0.01414214 0.01
v 0.0141422 -0.01414214 0.03
v 0.0141422 0.01414214 0.01
v 0.0141422 0.01414214 0.03
v 0.0173206 -0.01 0.01
v 0.0173206 -0.01 0.03
v 0.0173206 0.01 0.01
v 0.0173206 0.01 0.03
v 0.0193186 -0.00517638 0.01
v 0.0193186 -0.00517638 0.03
v 0.0193186 0.00517638 0.01
v 0.0193186 0.00517638 0.03
v 0.02 -0.05 -0.03
v 0.02 -0.05 0.01
v 0.02 -0.02 -0.03
v 0.02 -0.02 0.01
v 0.02 8.88178e-18 0.01
v 0.02 1.776356e-17 0.03
v 0.02 0.02 -0.03
v 0.02 0.02 0.01
v 0.02 0.05 -0.03
v 0.02 0.05 0.01
v 0.05 -0.02 -0.03
v 0.05 -0.02 0.01
v 0.05 0.02 -0.03
v 0.05 0.02 0.01
f 2 4 1
f 1 4 3
f 25 29 12
f 4 2 8
f 60 4 8
f 6 60 8
f 17 21 4
f 37 41 66
f 70 72 66
f 9 17 4
f 21 12 4
f 37 68 12
f 19 15 4
f 15 9 4
f 31 27 60
f 25 12 21
f 33 37 12
f 41 45 66
f 29 33 12
f 66 68 37
f 49 53 70
f 49 66 45
f 70 66 49
f 70 53 57
f 55 51 70
f 70 57 63
f 62 70 51
f 62 51 47
f 60 62 43
f 60 43 39
f 60 39 35
f 23 19 4
f 60 35 31
f 60 23 4
f 60 27 23
f 14 12 68
f 63 55 70
f 47 43 62
f 8 2 1
f 7 8 1
f 1 3 7
f 7 3 11
f 11 13 67
f 11 67 7
f 7 67 65
f 7 65 71
f 61 71 69
f 7 71 61
f 61 59 7
f 7 59 5
f 4 12 3
f 3 12 11
f 12 14 11
f 11 14 13
f 14 68 13
f 13 68 67
f 68 66 65
f 67 68 65
f 66 72 65
f 65 72 71
f 72 70 69
f 71 72 69
f 70 62 61
f 69 70 61
f 62 60 59
f 61 62 59
f 60 6 5
f 59 60 5
f 6 8 5
f 5 8 7
f 10 9 16
f 16 9 15
f 16 15 20
f 20 15 19
f 20 19 24
f 24 19 23
f 28 24 23
f 27 28 23
f 32 28 27
f 31 32 27
f 36 32 31
f 35 36 31
f 40 36 35
f 39 40 35
f 44 40 39
f 43 44 39
f 48 44 43
f 47 48 43
f 52 48 47
f 51 52 47
f 56 52 51
f 55 56 51
f 64 56 55
f 63 64 55
f 57 58 64
f 63 57 64
f 53 54 58
f 57 53 58
f 49 50 54
f 53 49 54
f 46 50 45
f 45 50 49
f 42 46 41
f 41 46 45
f 38 42 37
f 37 42 41
f 34 38 33
f 33 38 37
f 30 34 29
f 29 34 33
f 26 30 25
f 25 30 29
f 22 26 21
f 21 26 25
f 18 22 17
f 17 22 21
f 10 18 9
f 9 18 17
f 18 10 16
f 24 18 20
f 20 18 16
f 28 18 24
f 32 18 28
f 36 18 32
f 40 18 36
f 44 18 40
f 48 18 44
f 52 18 48
f 56 18 52
f 64 18 56
f 58 18 64
f 54 18 58
f 50 18 54
f 46 18 50
f 42 18 46
f 38 18 42
f 34 18 38
f 30 18 34
f 26 18 30
f 22 18 26
