# Converted from Thingi10K 255657.stl
# welded vertices: 122, faces: 244
v -0.05 0.0470963476 0.0141164561
v -0.0499602173 0.0470565649 0.0123436859
v -0.049842794 0.0469391416 0.0105779097
v -0.0496464469 0.0467427946 0.00882612171
v -0.0493724594 0.046468807 0.00709518752
v -0.0490227562 0.0461191039 0.00539203709
v -0.0485979792 0.0456943269 0.00372321531
v -0.0481000533 0.045196401 0.00209545958
v -0.0480942784 0.0471868213 0.0128331419
v -0.0480583456 0.0471508885 0.011221556
v -0.0479511889 0.0470437318 0.00961632242
v -0.0477728082 0.0468653511 0.00802372951
v -0.0475302618 0.0446266095 0.000515122318
v -0.0475238453 0.0466170298 0.00645019381
v -0.047206225 0.0462987679 0.00490181106
v -0.04709586 0.049999846 0.0141164561
v -0.0470567189 0.0499607049 0.0123436859
v -0.0470053863 0.0482757134 0.0128331419
v -0.0469694535 0.0482404222 0.011221556
v -0.046938654 0.04984264 0.0105779097
v -0.046891813 0.0439881607 -0.00101150825
v -0.0468622968 0.0481326238 0.00961632242
v -0.0468199474 0.0459124903 0.00338474119
v -0.0467423069 0.0496462929 0.00882612171
v -0.0466839161 0.0479542432 0.00802372951
v -0.046468961 0.049372947 0.00709518752
v -0.0464349532 0.0477059219 0.00645019381
v -0.0463669375 0.0454594804 0.00190495159
v -0.0461872735 0.0432836212 -0.0024784647
v -0.0461192579 0.0490232439 0.00539203709
v -0.0461173329 0.04738766 0.00490181106
v -0.0458491202 0.0449423048 0.000468345515
v -0.0457310553 0.0470013824 0.00338474119
v -0.0456944809 0.0485978252 0.00372321531
v -0.0454185683 0.042514916 -0.00387990797
v -0.0452780454 0.0465483725 0.00190495159
v -0.0452690622 0.0443616051 -0.000919558786
v -0.0451959133 0.0480998993 0.00209545958
v -0.0447602281 0.0460311969 0.000468345515
v -0.0446280468 0.0437205896 -0.00225311473
v -0.0446267635 0.0475307495 0.000515122318
v -0.0445889057 0.0416852533 -0.0052103198
v -0.0441801701 0.0454504972 -0.000919558786
v -0.0439883147 0.0468923007 -0.00101150825
v -0.0439292822 0.0430218251 -0.00352718906
v -0.0437021356 0.0407984832 -0.00646443859
v -0.0435391547 0.0448101234 -0.00225311473
v -0.0432831335 0.0461871195 -0.0024784647
v -0.0431753351 0.042267878 -0.00473664853
v -0.0428403901 0.0441107172 -0.00352718906
v -0.0427614663 0.0398578139 -0.00763738777
v -0.0425144283 0.0454184143 -0.00387990797
v -0.0423694138 0.0414619567 -0.00587674486
v -0.042086443 0.0433567701 -0.00473664853
v -0.0417707477 0.0388670954 -0.00872445114
v -0.0416854073 0.0445893934 -0.0052103198
v -0.0415140849 0.0406066278 -0.00694305062
v -0.0412805217 0.0425508488 -0.00587674486
v -0.0407986372 0.0437026232 -0.00646443859
v -0.0407331882 0.0378295358 -0.00972138094
v -0.0406131983 0.0397057412 -0.00793131805
v -0.0404251928 0.0416955198 -0.00694305062
v -0.0398579679 0.0427619539 -0.00763738777
v -0.0396699624 0.0387625053 -0.0088376202
v -0.039653921 0.0367502686 -0.010624231
v -0.0395243062 0.0407946333 -0.00793131805
v -0.0388666077 0.0417705937 -0.00872445114
v -0.0386888687 0.0377814116 -0.00965839588
v -0.0385810703 0.039852039 -0.0088376202
v -0.0385361543 0.0356325019 -0.0114294465
v -0.0378296898 0.0407336759 -0.00972138094
v -0.0376731255 0.0367656684 -0.0103904047
v -0.0375999766 0.0388703036 -0.00965839588
v -0.0373856631 0.0344820108 -0.0121338384
v -0.0367497809 0.039653767 -0.010624231
v -0.0366265828 0.0357191256 -0.0110307657
v -0.0365842334 0.0378545605 -0.0103904047
v -0.0362056557 0.0333020034 -0.0127346412
v -0.0356326559 0.038536642 -0.0114294465
v -0.0355537321 0.034646275 -0.0115769442
v -0.0355376907 0.0368080177 -0.0110307657
v -0.0350012653 0.032097613 -0.0132294679
v -0.0344815231 0.0373855091 -0.0121338384
v -0.03446484 0.0357351671 -0.0115769442
v -0.0344590651 0.033551608 -0.0120267907
v -0.0337769836 0.0308733312 -0.0136163736
v -0.033370173 0.0346405001 -0.0120267907
v -0.0333464317 0.0324389746 -0.0123785215
v -0.0333015157 0.0362055017 -0.0127346412
v -0.0325385854 0.029634933 -0.0138938313
v -0.0322575396 0.0335278667 -0.0123785215
v -0.0322203235 0.0313128664 -0.0126307569
v -0.0320971253 0.0350011114 -0.0132294679
v -0.0312899207 0.0283862683 -0.0140607449
v -0.0311314314 0.0324017584 -0.0126307569
v -0.0310852321 0.0301777749 -0.012782496
v -0.0308734852 0.0337774713 -0.0136163736
v -0.0300361227 0.0271324704 -0.0141164561
v -0.02999634 0.031266667 -0.012782496
v -0.0299456491 0.0290381919 -0.0128331419
v -0.0298545338 0.0309439135 -0.0128331419
v -0.0298545338 0.0309439135 -0.0127928138
v -0.0297640601 0.0310343872 -0.0127928138
v -0.0297640601 0.0310343872 0.0115498278
v -0.0296344454 0.0325384314 -0.0138938313
v -0.0289472306 0.0300366104 -0.0128331419
v -0.0289472306 0.0318512167 -0.0128331419
v -0.0289472306 0.0318512167 0.0115498278
v -0.0283857807 0.0312897667 -0.0140607449
v -0.0271326244 0.0300366104 -0.0141164561
v -0.0116151741 0.0128857578 -0.0128331419
v -0.0116151741 0.0128857578 0.0115498278
v -0.010798473 0.013702459 -0.0128331419
v -0.010798473 0.013702459 0.0115498278
v 0.0470961936 -0.049999846 -0.0141164561
v 0.0470961936 -0.049999846 0.0141164561
v 0.0480943747 -0.049001665 -0.0128331419
v 0.0480943747 -0.049001665 0.0128331419
v 0.0491833053 -0.0479127344 -0.0128331419
v 0.0491833053 -0.0479127344 0.0128331419
v 0.05 -0.0470960396 -0.0141164561
v 0.05 -0.0470960396 0.0141164561
f 98 115 116
f 2 98 1
f 1 98 116
f 3 98 2
f 4 98 3
f 5 98 4
f 6 98 5
f 7 98 6
f 8 98 7
f 13 98 8
f 21 98 13
f 29 98 21
f 35 98 29
f 42 98 35
f 46 98 42
f 51 98 46
f 55 98 51
f 60 98 55
f 65 98 60
f 70 98 65
f 74 98 70
f 78 98 74
f 82 98 78
f 86 98 82
f 90 98 86
f 94 98 90
f 117 115 121
f 119 117 121
f 116 115 117
f 122 116 118
f 122 120 121
f 122 118 120
f 120 119 121
f 117 118 116
f 115 98 121
f 121 98 110
f 98 94 109
f 98 109 110
f 94 90 109
f 109 90 105
f 90 86 105
f 105 86 97
f 86 82 97
f 97 82 93
f 82 78 93
f 93 78 89
f 78 74 89
f 89 74 83
f 74 70 83
f 83 70 79
f 70 65 79
f 79 65 75
f 65 60 75
f 75 60 71
f 60 55 71
f 71 55 67
f 55 51 67
f 67 51 63
f 51 46 63
f 63 46 59
f 46 42 59
f 59 42 56
f 42 35 56
f 56 35 52
f 35 29 52
f 52 29 48
f 29 21 48
f 48 21 44
f 21 13 44
f 44 13 41
f 13 8 41
f 41 8 38
f 8 7 38
f 38 7 34
f 7 6 34
f 34 6 30
f 6 5 30
f 30 5 26
f 5 4 26
f 26 4 24
f 4 3 24
f 24 3 20
f 3 2 20
f 20 2 17
f 2 1 17
f 17 1 16
f 1 116 122
f 16 1 122
f 114 122 113
f 107 93 89
f 107 97 93
f 107 20 108
f 107 24 20
f 107 26 24
f 107 30 26
f 107 34 30
f 107 38 34
f 107 41 38
f 107 44 41
f 107 48 44
f 107 52 48
f 107 56 52
f 107 59 56
f 107 63 59
f 107 67 63
f 107 71 67
f 107 75 71
f 107 79 75
f 108 20 17
f 122 17 16
f 121 110 113
f 121 113 122
f 108 122 114
f 107 83 79
f 107 89 83
f 122 108 17
f 113 110 109
f 113 109 105
f 113 105 97
f 113 97 107
f 107 111 113
f 101 111 107
f 119 111 101
f 106 119 101
f 100 119 106
f 117 119 100
f 96 92 100
f 100 92 88
f 100 88 85
f 100 85 80
f 100 80 76
f 100 76 72
f 100 72 68
f 100 68 64
f 100 64 61
f 100 61 57
f 100 57 53
f 100 53 49
f 100 49 45
f 100 45 40
f 100 40 37
f 100 37 32
f 100 32 28
f 100 28 23
f 100 23 15
f 100 15 14
f 100 14 12
f 100 12 11
f 100 11 10
f 100 10 9
f 100 9 118
f 100 118 117
f 104 18 19
f 112 111 120
f 120 18 104
f 119 120 111
f 104 112 120
f 103 95 99
f 103 91 95
f 103 87 91
f 103 84 87
f 103 81 84
f 103 77 81
f 103 73 77
f 103 69 73
f 103 66 69
f 103 62 66
f 103 58 62
f 103 54 58
f 103 50 54
f 103 47 50
f 103 43 47
f 103 39 43
f 103 36 39
f 103 33 36
f 103 31 33
f 103 27 31
f 103 25 27
f 103 22 25
f 103 19 22
f 103 104 19
f 18 120 9
f 9 120 118
f 114 113 112
f 112 113 111
f 107 108 104
f 102 107 103
f 103 107 104
f 101 107 102
f 108 114 104
f 104 114 112
f 100 106 102
f 99 100 102
f 103 99 102
f 99 96 100
f 102 106 101
f 19 18 9
f 10 19 9
f 22 19 10
f 11 22 10
f 25 22 11
f 12 25 11
f 27 25 12
f 14 27 12
f 31 27 14
f 15 31 14
f 33 31 15
f 23 33 15
f 36 33 23
f 28 36 23
f 39 36 28
f 32 39 28
f 43 39 32
f 37 43 32
f 47 43 37
f 40 47 37
f 50 47 40
f 45 50 40
f 54 50 45
f 49 54 45
f 58 54 49
f 53 58 49
f 62 58 53
f 57 62 53
f 66 62 57
f 61 66 57
f 69 66 61
f 64 69 61
f 73 69 64
f 68 73 64
f 77 73 68
f 72 77 68
f 81 77 72
f 76 81 72
f 84 81 76
f 80 84 76
f 87 84 80
f 85 87 80
f 91 87 85
f 88 91 85
f 95 91 88
f 92 95 88
f 99 95 92
f 96 99 92
