# Converted from Thingi10K 43780.stl
# welded vertices: 60, faces: 120
v -0.05 -0.0435233161 -0.0192715544
v -0.05 -0.0435233161 0.0131118653
v -0.05 0.0435233161 -0.0192715544
v -0.05 0.0435233161 0.0131118653
v -0.0487630674 -0.0435233161 0.0169187668
v -0.0487630674 0.0435233161 0.0169187668
v -0.0455247254 -0.0435233161 0.0192715544
v -0.0455247254 0.0435233161 0.0192715544
v -0.0415219067 -0.0435233161 0.0192715544
v -0.0415219067 0.0435233161 0.0192715544
v -0.0382835648 -0.0435233161 0.0169187668
v -0.0382835648 0.0435233161 0.0169187668
v -0.0370466321 -0.0435233161 0.00663518135
v -0.0370466321 -0.0435233161 0.0131118653
v -0.0370466321 0.0435233161 0.00663518135
v -0.0370466321 0.0435233161 0.0131118653
v -0.0329015544 -0.0352331606 -0.0192715544
v -0.0329015544 -0.0352331606 0.00249010363
v -0.0329015544 0.0352331606 -0.0192715544
v -0.0329015544 0.0352331606 0.00249010363
v -0.031865285 -0.0341968912 0.00249010363
v -0.031865285 -0.0341968912 0.00352637306
v -0.031865285 0.0341968912 0.00249010363
v -0.031865285 0.0341968912 0.00352637306
v -0.0308290155 -0.0331606218 0.00352637306
v -0.0308290155 -0.0331606218 0.00456264249
v -0.0308290155 0.0331606218 0.00352637306
v -0.0308290155 0.0331606218 0.00456264249
v -0.0297927461 -0.0321243523 0.00456264249
v -0.0297927461 -0.0321243523 0.00559891192
v -0.0297927461 0.0321243523 0.00456264249
v -0.0297927461 0.0321243523 0.00559891192
v -0.0287564767 -0.0310880829 0.00559891192
v -0.0287564767 -0.0310880829 0.00663518135
v -0.0287564767 0.0310880829 0.00559891192
v -0.0287564767 0.0310880829 0.00663518135
v 0.0417098446 -0.0310880829 0.00559891192
v 0.0417098446 -0.0310880829 0.00663518135
v 0.0417098446 0.0310880829 0.00559891192
v 0.0417098446 0.0310880829 0.00663518135
v 0.042746114 -0.0321243523 0.00456264249
v 0.042746114 -0.0321243523 0.00559891192
v 0.042746114 0.0321243523 0.00456264249
v 0.042746114 0.0321243523 0.00559891192
v 0.0437823834 -0.0331606218 0.00352637306
v 0.0437823834 -0.0331606218 0.00456264249
v 0.0437823834 0.0331606218 0.00352637306
v 0.0437823834 0.0331606218 0.00456264249
v 0.0448186528 -0.0341968912 0.00249010363
v 0.0448186528 -0.0341968912 0.00352637306
v 0.0448186528 0.0341968912 0.00249010363
v 0.0448186528 0.0341968912 0.00352637306
v 0.0458549223 -0.0352331606 -0.0192715544
v 0.0458549223 -0.0352331606 0.00249010363
v 0.0458549223 0.0352331606 -0.0192715544
v 0.0458549223 0.0352331606 0.00249010363
v 0.05 -0.0435233161 -0.0192715544
v 0.05 -0.0435233161 0.00663518135
v 0.05 0.0435233161 -0.0192715544
v 0.05 0.0435233161 0.00663518135
f 2 4 1
f 1 4 3
f 2 5 4
f 4 5 6
f 5 2 1
f 14 11 5
f 13 5 1
f 57 13 1
f 9 5 11
f 7 5 9
f 13 14 5
f 58 13 57
f 53 57 17
f 19 3 59
f 55 19 59
f 1 3 17
f 1 17 57
f 57 53 59
f 53 55 59
f 17 3 19
f 4 6 3
f 3 6 8
f 3 8 10
f 3 10 12
f 3 12 16
f 3 16 15
f 3 15 60
f 3 60 59
f 6 5 7
f 8 6 7
f 8 7 9
f 10 8 9
f 10 9 11
f 12 10 11
f 12 11 14
f 16 12 14
f 16 14 13
f 15 16 13
f 34 13 58
f 15 13 34
f 36 40 15
f 15 34 36
f 60 40 58
f 60 15 40
f 40 38 58
f 38 34 58
f 60 58 57
f 59 60 57
f 17 19 20
f 18 17 20
f 19 55 56
f 20 19 56
f 55 53 56
f 56 53 54
f 53 17 54
f 54 17 18
f 33 35 36
f 34 33 36
f 37 33 38
f 38 33 34
f 39 37 40
f 40 37 38
f 35 39 40
f 36 35 40
f 23 20 51
f 21 54 18
f 20 21 18
f 56 54 49
f 56 49 51
f 56 51 20
f 20 23 21
f 49 54 21
f 35 32 39
f 33 42 30
f 32 33 30
f 44 42 37
f 44 37 39
f 44 39 32
f 32 35 33
f 37 42 33
f 21 23 24
f 22 21 24
f 49 21 50
f 50 21 22
f 23 51 52
f 24 23 52
f 51 49 52
f 52 49 50
f 29 31 32
f 30 29 32
f 31 43 44
f 32 31 44
f 41 29 42
f 42 29 30
f 43 41 44
f 44 41 42
f 27 24 47
f 25 50 22
f 24 25 22
f 52 50 45
f 52 45 47
f 52 47 24
f 24 27 25
f 45 50 25
f 31 28 43
f 29 46 26
f 28 29 26
f 48 46 41
f 48 41 43
f 48 43 28
f 28 31 29
f 41 46 29
f 25 27 28
f 26 25 28
f 45 25 46
f 46 25 26
f 27 47 48
f 28 27 48
f 47 45 48
f 48 45 46
