# Converted from Thingi10K 472084.stl
# welded vertices: 152, faces: 300
v -0.05 -0.00258563983 -5.41612587e-05
v -0.05 -0.00258110381 0.000162389344
v -0.05 -0.00257203958 -0.000270332191
v -0.05 -0.00255846303 0.000377800936
v -0.05 -0.00254039834 -0.000484606715
v -0.05 -0.00251787658 0.000590562606
v -0.05 -0.00249093779 -0.000695482415
v -0.05 -0.00245962916 0.000799181889
v -0.05 -0.00242400544 -0.000901479449
v -0.05 -0.002384129 0.00100219545
v -0.05 -0.00234007024 -0.00110115342
v -0.05 -0.00229190596 0.00119817954
v -0.05 -0.00223972103 -0.00129310363
v -0.05 -0.00218360699 0.00138575917
v -0.05 -0.00212366192 -0.00147598351
v -0.05 -0.0020599914 0.00156361862
v -0.05 -0.00199270676 -0.00164851052
v -0.05 -0.00192192637 0.00173051036
v -0.05 -0.00184777429 -0.00180947434
v -0.05 -0.00177038057 0.0018852643
v -0.05 -0.00168988091 -0.00195774616
v -0.05 -0.00160641677 0.00202679388
v -0.05 -0.00152013436 -0.00209228564
v -0.05 -0.00143118509 0.00215410718
v -0.05 -0.00133972501 -0.00221214917
v -0.05 -0.00124591468 0.0022663104
v -0.05 -0.00114991857 -0.00231649626
v -0.05 -0.00105190517 0.00236261844
v -0.05 -0.000952046212 -0.0024045946
v -0.05 -0.000850517095 0.00244235306
v -0.05 -0.00074749588 -0.0024758266
v -0.05 -0.00064316342 0.00250495688
v -0.05 -0.00053770263 -0.00252969233
v -0.05 -0.000431298369 0.00254999052
v -0.05 -0.000324137438 -0.00256581411
v -0.05 -0.000216408216 0.00257713742
v -0.05 -0.000108299081 -0.00258393878
v -0.05 1.31808843e-10 -0.00258620726
v -0.05 1.31808843e-10 0.00258620726
v -0.05 0.000108299345 -0.00258393878
v -0.05 0.00021640848 0.00257713742
v -0.05 0.000324137702 -0.00256581411
v -0.05 0.000431298632 0.00254999052
v -0.05 0.000537702893 -0.00252969233
v -0.05 0.000643163805 0.00250495688
v -0.05 0.000747496387 -0.0024758266
v -0.05 0.000850517359 0.00244235306
v -0.05 0.000952046597 -0.0024045946
v -0.05 0.00105190567 0.00236261844
v -0.05 0.00114991884 -0.00231649626
v -0.05 0.00124591494 0.0022663104
v -0.05 0.00133972551 -0.00221214917
v -0.05 0.00143118548 0.00215410718
v -0.05 0.00152013487 -0.00209228564
v -0.05 0.00160641709 0.00202679388
v -0.05 0.00168988141 -0.00195774616
v -0.05 0.00177038071 0.0018852643
v -0.05 0.00184777467 -0.00180947434
v -0.05 0.00192192639 0.00173051036
v -0.05 0.00199270672 -0.00164851052
v -0.05 0.00205999184 0.00156361862
v -0.05 0.00212366233 -0.00147598351
v -0.05 0.00218360749 0.00138575917
v -0.05 0.00223972148 -0.00129310363
v -0.05 0.00229190622 0.00119817954
v -0.05 0.00234007044 -0.00110115342
v -0.05 0.00238412917 0.00100219545
v -0.05 0.0024240057 -0.000901479449
v -0.05 0.00245962964 0.000799181889
v -0.05 0.00249093835 -0.000695482415
v -0.05 0.00251787696 0.000590562606
v -0.05 0.00254039888 -0.000484606715
v -0.05 0.0025584638 0.000377800936
v -0.05 0.00257204017 -0.000270332191
v -0.05 0.00258110418 0.000162389344
v -0.05 0.00258563983 -5.41612587e-05
v 0.05 -0.00258563983 -5.41612587e-05
v 0.05 -0.00258110381 0.000162389344
v 0.05 -0.00257203958 -0.000270332191
v 0.05 -0.00255846303 0.000377800936
v 0.05 -0.00254039834 -0.000484606715
v 0.05 -0.00251787658 0.000590562606
v 0.05 -0.00249093779 -0.000695482415
v 0.05 -0.00245962916 0.000799181889
v 0.05 -0.00242400544 -0.000901479449
v 0.05 -0.002384129 0.00100219545
v 0.05 -0.00234007024 -0.00110115342
v 0.05 -0.00229190596 0.00119817954
v 0.05 -0.00223972103 -0.00129310363
v 0.05 -0.00218360699 0.00138575917
v 0.05 -0.00212366192 -0.00147598351
v 0.05 -0.0020599914 0.00156361862
v 0.05 -0.00199270676 -0.00164851052
v 0.05 -0.00192192637 0.00173051036
v 0.05 -0.00184777429 -0.00180947434
v 0.05 -0.00177038057 0.0018852643
v 0.05 -0.00168988091 -0.00195774616
v 0.05 -0.00160641677 0.00202679388
v 0.05 -0.00152013436 -0.00209228564
v 0.05 -0.00143118509 0.00215410718
v 0.05 -0.00133972501 -0.00221214917
v 0.05 -0.00124591468 0.0022663104
v 0.05 -0.00114991857 -0.00231649626
v 0.05 -0.00105190517 0.00236261844
v 0.05 -0.000952046212 -0.0024045946
v 0.05 -0.000850517095 0.00244235306
v 0.05 -0.00074749588 -0.0024758266
v 0.05 -0.00064316342 0.00250495688
v 0.05 -0.00053770263 -0.00252969233
v 0.05 -0.000431298369 0.00254999052
v 0.05 -0.000324137438 -0.00256581411
v 0.05 -0.000216408216 0.00257713742
v 0.05 -0.000108299081 -0.00258393878
v 0.05 1.31808843e-10 -0.00258620726
v 0.05 1.31808843e-10 0.00258620726
v 0.05 0.000108299345 -0.00258393878
v 0.05 0.00021640848 0.00257713742
v 0.05 0.000324137702 -0.00256581411
v 0.05 0.000431298632 0.00254999052
v 0.05 0.000537702893 -0.00252969233
v 0.05 0.000643163805 0.00250495688
v 0.05 0.000747496387 -0.0024758266
v 0.05 0.000850517359 0.00244235306
v 0.05 0.000952046597 -0.0024045946
v 0.05 0.00105190567 0.00236261844
v 0.05 0.00114991884 -0.00231649626
v 0.05 0.00124591494 0.0022663104
v 0.05 0.00133972551 -0.00221214917
v 0.05 0.00143118548 0.00215410718
v 0.05 0.00152013487 -0.00209228564
v 0.05 0.00160641709 0.00202679388
v 0.05 0.00168988141 -0.00195774616
v 0.05 0.00177038071 0.0018852643
v 0.05 0.00184777467 -0.00180947434
v 0.05 0.00192192639 0.00173051036
v 0.05 0.00199270672 -0.00164851052
v 0.05 0.00205999184 0.00156361862
v 0.05 0.00212366233 -0.00147598351
v 0.05 0.00218360749 0.00138575917
v 0.05 0.00223972148 -0.00129310363
v 0.05 0.00229190622 0.00119817954
v 0.05 0.00234007044 -0.00110115342
v 0.05 0.00238412917 0.00100219545
v 0.05 0.0024240057 -0.000901479449
v 0.05 0.00245962964 0.000799181889
v 0.05 0.00249093835 -0.000695482415
v 0.05 0.00251787696 0.000590562606
v 0.05 0.00254039888 -0.000484606715
v 0.05 0.0025584638 0.000377800936
v 0.05 0.00257204017 -0.000270332191
v 0.05 0.00258110418 0.000162389344
v 0.05 0.00258563983 -5.41612587e-05
f 116 114 38
f 38 114 37
f 38 40 116
f 116 40 42
f 116 42 118
f 118 42 44
f 118 44 120
f 120 44 46
f 120 46 122
f 122 46 48
f 122 48 124
f 124 48 50
f 124 50 126
f 126 50 52
f 126 52 128
f 128 52 54
f 128 54 130
f 130 54 56
f 130 56 132
f 132 56 58
f 132 58 134
f 134 58 60
f 134 60 136
f 136 60 62
f 136 62 138
f 138 62 64
f 138 64 140
f 140 64 66
f 140 66 142
f 142 66 68
f 142 68 144
f 144 68 70
f 144 70 146
f 146 70 72
f 146 72 148
f 148 72 74
f 148 74 150
f 150 74 76
f 150 76 152
f 152 76 75
f 152 75 151
f 151 75 73
f 151 73 149
f 149 73 71
f 149 71 147
f 147 71 69
f 147 69 145
f 145 69 67
f 145 67 143
f 143 67 65
f 143 65 141
f 141 65 63
f 141 63 139
f 139 63 61
f 139 61 137
f 137 61 59
f 137 59 135
f 135 59 57
f 135 57 133
f 133 57 55
f 133 55 131
f 131 55 53
f 131 53 129
f 129 53 51
f 129 51 127
f 127 51 49
f 127 49 125
f 125 49 47
f 125 47 123
f 123 47 45
f 123 45 121
f 121 45 43
f 121 43 119
f 119 43 41
f 119 41 117
f 117 41 39
f 117 39 115
f 115 39 36
f 115 36 112
f 112 36 34
f 112 34 110
f 110 34 32
f 110 32 108
f 108 32 30
f 108 30 106
f 106 30 28
f 106 28 104
f 104 28 26
f 104 26 102
f 102 26 24
f 102 24 100
f 100 24 22
f 100 22 98
f 98 22 20
f 98 20 96
f 96 20 18
f 96 18 94
f 94 18 16
f 94 16 92
f 92 16 14
f 92 14 90
f 90 14 12
f 90 12 88
f 88 12 10
f 88 10 86
f 86 10 8
f 86 8 84
f 84 8 6
f 84 6 82
f 82 6 4
f 82 4 80
f 80 4 2
f 80 2 78
f 78 2 1
f 78 1 77
f 77 1 3
f 77 3 79
f 79 3 5
f 79 5 81
f 81 5 7
f 81 7 83
f 83 7 9
f 83 9 85
f 85 9 11
f 85 11 87
f 87 11 13
f 87 13 89
f 89 13 15
f 89 15 91
f 91 15 17
f 91 17 93
f 93 17 19
f 93 19 95
f 95 19 21
f 95 21 97
f 97 21 23
f 97 23 99
f 99 23 25
f 99 25 101
f 101 25 27
f 101 27 103
f 103 27 29
f 103 29 105
f 105 29 31
f 105 31 107
f 107 31 33
f 107 33 109
f 109 33 35
f 109 35 111
f 111 35 37
f 111 37 113
f 113 37 114
f 114 115 113
f 113 115 112
f 138 140 115
f 115 140 142
f 103 88 101
f 101 88 99
f 112 110 113
f 113 110 108
f 113 108 106
f 113 94 92
f 103 105 88
f 88 105 107
f 88 107 109
f 114 116 115
f 115 116 118
f 115 118 120
f 132 134 115
f 115 134 136
f 115 136 138
f 142 144 115
f 115 144 146
f 115 146 148
f 148 150 115
f 115 150 152
f 115 152 151
f 106 104 113
f 113 104 102
f 113 102 100
f 81 99 79
f 79 99 77
f 92 90 113
f 113 90 88
f 113 88 111
f 111 88 109
f 120 122 115
f 115 122 124
f 115 124 126
f 126 128 115
f 115 128 130
f 115 130 132
f 151 149 115
f 115 149 147
f 115 147 145
f 100 98 113
f 113 98 96
f 113 96 94
f 88 86 99
f 99 86 84
f 99 84 82
f 95 89 93
f 93 89 91
f 95 97 89
f 89 97 99
f 89 99 87
f 115 139 137
f 82 80 99
f 99 80 78
f 99 78 77
f 81 83 99
f 99 83 85
f 99 85 87
f 145 143 115
f 115 143 141
f 115 141 139
f 125 123 127
f 127 123 121
f 127 121 129
f 137 135 115
f 115 135 133
f 115 133 117
f 117 133 119
f 119 133 121
f 121 133 131
f 121 131 129
f 39 38 37
f 27 39 29
f 29 39 31
f 66 64 39
f 39 64 62
f 39 62 60
f 37 35 39
f 39 35 33
f 39 33 31
f 75 76 39
f 39 76 74
f 39 74 72
f 72 70 39
f 39 70 68
f 39 68 66
f 60 58 39
f 39 58 56
f 39 56 54
f 44 39 46
f 46 39 48
f 44 42 39
f 39 42 40
f 39 40 38
f 26 28 23
f 54 52 39
f 39 52 50
f 39 50 48
f 12 19 17
f 14 23 12
f 12 23 21
f 12 21 19
f 41 71 39
f 39 71 73
f 39 73 75
f 17 15 12
f 12 15 13
f 12 13 11
f 14 16 23
f 23 16 18
f 23 18 20
f 27 25 39
f 39 25 23
f 39 23 36
f 36 23 34
f 41 43 71
f 71 43 45
f 71 45 47
f 20 22 23
f 23 22 24
f 23 24 26
f 28 30 23
f 23 30 32
f 23 32 34
f 47 49 71
f 71 49 51
f 71 51 53
f 53 55 71
f 71 55 57
f 71 57 59
f 59 61 71
f 71 61 63
f 71 63 69
f 69 63 65
f 69 65 67
f 11 9 12
f 12 9 7
f 12 7 5
f 3 8 5
f 5 8 10
f 5 10 12
f 3 1 8
f 8 1 2
f 8 2 6
f 6 2 4
