# Converted from Thingi10K 472143.stl
# welded vertices: 150, faces: 296
v -0.0288047908 -0.00815214256 -0.05
v -0.0288047908 -0.00815214256 0.05
v -0.0279441136 -0.00813082936 -0.05
v -0.0279441136 -0.00813082936 0.05
v -0.027085317 -0.00806704647 -0.05
v -0.027085317 -0.00806704647 0.05
v -0.0262309084 -0.0079607939 -0.05
v -0.0262309084 -0.0079607939 0.05
v -0.0253833952 -0.00781238507 -0.05
v -0.0253833952 -0.00781238507 0.05
v -0.0245440312 -0.00762213341 -0.05
v -0.0245440312 -0.00762213341 0.05
v -0.023714697 -0.00739066578 -0.05
v -0.023714697 -0.00739066578 0.05
v -0.0228978999 -0.00711845232 -0.05
v -0.0228978999 -0.00711845232 0.05
v -0.0220955206 -0.00680627662 -0.05
v -0.0220955206 -0.00680627662 0.05
v -0.0213106933 -0.00645476552 -0.05
v -0.0213106933 -0.00645476552 0.05
v -0.0205427912 -0.00606470261 -0.05
v -0.0205427912 -0.00606470261 0.05
v -0.0197962023 -0.00563718487 -0.05
v -0.0197962023 -0.00563718487 0.05
v -0.0190702998 -0.00517315262 -0.05
v -0.0190702998 -0.00517315262 0.05
v -0.0183694716 -0.00467401626 -0.05
v -0.0183694716 -0.00467401626 -0.0239130464
v -0.0183694716 -0.00467401626 0.0239130439
v -0.0183694716 -0.00467401626 0.05
v -0.0174674217 -0.00405985131 -0.05
v -0.0174674217 -0.00405985131 -0.0239130464
v -0.0174674217 -0.00405985131 0.0239130439
v -0.0174674217 -0.00405985131 0.05
v -0.0169797255 -0.00366085565 -0.0239130464
v -0.0169797255 -0.00366085565 0.0239130439
v -0.0165415512 -0.00348094716 -0.05
v -0.0165415512 -0.00348094716 -0.0239130464
v -0.0165415512 -0.00348094716 0.0239130439
v -0.0165415512 -0.00348094716 0.05
v -0.0155937406 -0.00293824412 -0.05
v -0.0155937406 -0.00293824412 -0.0239130464
v -0.0155937406 -0.00293824412 0.0239130439
v -0.0155937406 -0.00293824412 0.05
v -0.0155642783 -0.00268514986 -0.0239130464
v -0.0155642783 -0.00268514986 0.0239130439
v -0.0146264974 -0.00243252575 -0.05
v -0.0146264974 -0.00243252575 -0.0239130464
v -0.0146264974 -0.00243252575 0.0239130439
v -0.0146264974 -0.00243252575 0.05
v -0.0141231298 -0.0017481526 -0.0239130464
v -0.0141231298 -0.0017481526 0.0239130439
v -0.0136404485 -0.0019644189 -0.05
v -0.0136404485 -0.0019644189 -0.0239130464
v -0.0136404485 -0.0019644189 0.0239130439
v -0.0136404485 -0.0019644189 0.05
v -0.0126569069 -0.000849707164 -0.0239130464
v -0.0126569069 -0.000849707164 0.0239130439
v -0.0126374743 -0.00153439374 -0.05
v -0.0126374743 -0.00153439374 -0.0239130464
v -0.0126374743 -0.00153439374 0.0239130439
v -0.0126374743 -0.00153439374 0.05
v -0.0116182018 -0.00114354725 -0.05
v -0.0116182018 -0.00114354725 -0.0239130464
v -0.0116182018 -0.00114354725 0.0239130439
v -0.0116182018 -0.00114354725 0.05
v -0.0111668635 8.77602382e-06 -0.0239130464
v -0.0111668635 8.77602382e-06 0.0239130439
v -0.0105845116 -0.00079234958 -0.05
v -0.0105845116 -0.00079234958 -0.0239130464
v -0.0105845116 -0.00079234958 0.0239130439
v -0.0105845116 -0.00079234958 0.05
v -0.00965487992 0.000827140245 -0.0239130464
v -0.00965487992 0.000827140245 0.0239130439
v -0.00953765732 -0.000481270878 -0.05
v -0.00953765732 -0.000481270878 -0.0239130464
v -0.00953765732 -0.000481270878 0.0239130439
v -0.00953765732 -0.000481270878 0.05
v -0.00848077331 -0.000210467857 -0.05
v -0.00848077331 -0.000210467857 -0.0239130464
v -0.00848077331 -0.000210467857 0.0239130439
v -0.00848077331 -0.000210467857 0.05
v -0.00812158319 0.00160475864 -0.0239130464
v -0.00812158319 0.00160475864 0.0239130439
v -0.0074132327 1.91191948e-05 -0.05
v -0.0074132327 1.91191948e-05 -0.0239130464
v -0.0074132327 1.91191948e-05 0.0239130439
v -0.0074132327 1.91191948e-05 0.05
v -0.00656697326 0.00234084764 -0.0239130464
v -0.00656697326 0.00234084764 0.0239130439
v -0.00633816978 0.000207490278 -0.05
v -0.00633816978 0.000207490278 -0.0239130464
v -0.00633816978 0.000207490278 0.0239130439
v -0.00633816978 0.000207490278 0.05
v -0.00525621141 0.000354331962 -0.05
v -0.00525621141 0.000354331962 -0.0239130464
v -0.00525621141 0.000354331962 0.0239130439
v -0.00525621141 0.000354331962 0.05
v -0.00499355756 0.00303509381 -0.0239130464
v -0.00499355756 0.00303509381 0.0239130439
v -0.00416986503 0.000459330818 -0.05
v -0.00416986503 0.000459330818 -0.0239130464
v -0.00416986503 0.000459330818 0.0239130439
v -0.00416986503 0.000459330818 0.05
v -0.00340258981 0.00368671358 -0.0239130464
v -0.00340258981 0.00368671358 0.0239130439
v -0.00308038436 0.000522486847 -0.05
v -0.00308038436 0.000522486847 -0.0239130464
v -0.00308038436 0.000522486847 0.0239130439
v -0.00308038436 0.000522486847 0.05
v -0.00198839626 0.000543486618 -0.05
v -0.00198839626 0.000543486618 -0.0239130464
v -0.00198839626 0.000543486618 0.0239130439
v -0.00198839626 0.000543486618 0.05
v -0.00179532373 0.00429570695 -0.0239130464
v -0.00179532373 0.00429570695 0.0239130439
v -0.000171132465 0.00486113363 -0.0239130464
v -0.000171132465 0.00486113363 0.0239130439
v 0.0014668497 0.00538299361 -0.0239130464
v 0.0014668497 0.00538299361 0.0239130439
v 0.00311924961 0.00586066005 -0.0239130464
v 0.00311924961 0.00586066005 0.0239130439
v 0.00478293298 0.00629397623 -0.0239130464
v 0.00478293298 0.00629397623 0.0239130439
v 0.00645789982 0.006682472 -0.0239130464
v 0.00645789982 0.006682472 0.0239130439
v 0.00814289639 0.00702599065 -0.0239130464
v 0.00814289639 0.00702599065 0.0239130439
v 0.00983604213 0.00732406203 -0.0239130464
v 0.00983604213 0.00732406203 0.0239130439
v 0.011537337 0.00757668614 -0.0239130464
v 0.011537337 0.00757668614 0.0239130439
v 0.0132442737 0.00778370627 -0.0239130464
v 0.0132442737 0.00778370627 0.0239130439
v 0.0149555983 0.007944809 -0.0239130464
v 0.0149555983 0.007944809 0.0239130439
v 0.016671311 0.00805999431 -0.0239130464
v 0.016671311 0.00805999431 0.0239130439
v 0.0183895311 0.0081291055 -0.0239130464
v 0.0183895311 0.0081291055 0.0239130439
v 0.0201090049 0.00815214256 -0.0239130464
v 0.0201090049 0.00815214256 0.0239130439
v 0.0288047908 -0.00815214256 -0.05
v 0.0288047908 -0.00815214256 0.05
v 0.0288047908 0.000543486618 -0.05
v 0.0288047908 0.000543486618 -0.0239130464
v 0.0288047908 0.000543486618 0.0239130439
v 0.0288047908 0.000543486618 0.05
v 0.0288047908 0.00815214256 -0.0239130464
v 0.0288047908 0.00815214256 0.0239130439
f 144 2 143
f 143 2 1
f 144 143 146
f 146 143 145
f 148 144 147
f 147 144 146
f 147 146 150
f 150 146 149
f 27 28 32
f 27 32 31
f 31 32 38
f 31 38 37
f 37 38 42
f 37 42 41
f 41 42 48
f 41 48 47
f 47 48 54
f 47 54 53
f 53 54 60
f 53 60 59
f 59 60 64
f 59 64 63
f 63 64 70
f 63 70 69
f 69 70 76
f 69 76 75
f 75 76 80
f 75 80 79
f 79 80 86
f 79 86 85
f 85 86 92
f 85 92 91
f 91 92 96
f 91 96 95
f 95 96 102
f 95 102 101
f 101 102 108
f 101 108 107
f 107 108 112
f 107 112 111
f 111 112 145
f 145 112 146
f 114 113 109
f 114 109 110
f 110 109 103
f 110 103 104
f 104 103 97
f 104 97 98
f 98 97 93
f 98 93 94
f 94 93 87
f 94 87 88
f 88 87 81
f 88 81 82
f 82 81 77
f 82 77 78
f 78 77 71
f 78 71 72
f 72 71 65
f 72 65 66
f 66 65 61
f 66 61 62
f 62 61 55
f 62 55 56
f 56 55 49
f 56 49 50
f 50 49 43
f 50 43 44
f 44 43 39
f 44 39 40
f 40 39 33
f 40 33 34
f 34 33 29
f 34 29 30
f 28 29 36
f 28 36 35
f 35 36 46
f 35 46 45
f 45 46 52
f 45 52 51
f 51 52 58
f 51 58 57
f 57 58 68
f 57 68 67
f 67 68 74
f 67 74 73
f 73 74 84
f 73 84 83
f 83 84 90
f 83 90 89
f 89 90 100
f 89 100 99
f 99 100 106
f 99 106 105
f 105 106 116
f 105 116 115
f 115 116 118
f 115 118 117
f 117 118 120
f 117 120 119
f 119 120 122
f 119 122 121
f 121 122 124
f 121 124 123
f 123 124 126
f 123 126 125
f 125 126 128
f 125 128 127
f 127 128 130
f 127 130 129
f 129 130 132
f 129 132 131
f 131 132 134
f 131 134 133
f 133 134 136
f 133 136 135
f 135 136 138
f 135 138 137
f 137 138 140
f 137 140 139
f 139 140 142
f 139 142 141
f 141 142 149
f 149 142 150
f 147 113 148
f 148 113 114
f 29 33 36
f 36 33 39
f 36 39 46
f 46 39 43
f 46 43 52
f 84 87 90
f 90 87 93
f 90 93 100
f 68 71 74
f 74 71 77
f 74 77 84
f 84 77 81
f 84 81 87
f 150 142 147
f 147 142 140
f 43 49 52
f 52 49 55
f 52 55 58
f 58 55 61
f 58 61 68
f 68 61 65
f 68 65 71
f 140 138 147
f 147 138 136
f 147 136 134
f 134 132 147
f 147 132 130
f 147 130 128
f 128 126 147
f 147 126 124
f 147 124 113
f 113 124 122
f 113 122 120
f 93 97 100
f 100 97 103
f 100 103 106
f 106 103 109
f 106 109 116
f 116 109 113
f 116 113 118
f 118 113 120
f 141 149 146
f 102 96 99
f 99 96 89
f 89 96 92
f 89 92 83
f 45 51 48
f 92 86 83
f 83 86 80
f 83 80 73
f 73 80 76
f 73 76 67
f 48 42 45
f 45 42 38
f 45 38 35
f 35 38 32
f 35 32 28
f 131 133 146
f 146 133 135
f 76 70 67
f 67 70 64
f 67 64 57
f 57 64 60
f 57 60 51
f 51 60 54
f 51 54 48
f 125 127 146
f 146 127 129
f 146 129 131
f 135 137 146
f 146 137 139
f 146 139 141
f 102 99 108
f 108 99 105
f 108 105 112
f 112 105 115
f 112 115 117
f 117 119 112
f 112 119 121
f 112 121 146
f 146 121 123
f 146 123 125
f 111 145 143
f 19 21 143
f 7 9 143
f 143 9 11
f 143 11 13
f 13 15 143
f 143 15 17
f 143 17 19
f 1 3 143
f 143 3 5
f 143 5 7
f 85 27 31
f 53 59 63
f 21 23 143
f 143 23 25
f 143 25 111
f 111 25 27
f 111 27 107
f 107 27 101
f 53 63 47
f 85 91 27
f 27 91 95
f 27 95 101
f 47 63 41
f 41 63 69
f 41 69 75
f 31 37 85
f 85 37 41
f 85 41 79
f 79 41 75
f 28 27 25
f 1 2 4
f 26 30 29
f 1 4 3
f 3 4 6
f 3 6 5
f 5 6 8
f 5 8 7
f 7 8 10
f 7 10 9
f 9 10 12
f 9 12 11
f 11 12 14
f 11 14 13
f 13 14 16
f 13 16 15
f 15 16 18
f 15 18 17
f 17 18 20
f 17 20 19
f 19 20 22
f 19 22 21
f 21 22 24
f 21 24 23
f 23 24 26
f 23 26 25
f 25 26 29
f 25 29 28
f 26 24 144
f 144 24 22
f 144 22 20
f 144 148 26
f 26 148 114
f 26 114 30
f 30 114 34
f 20 18 144
f 144 18 16
f 144 16 14
f 8 6 144
f 144 6 4
f 144 4 2
f 14 12 144
f 144 12 10
f 144 10 8
f 114 110 34
f 34 110 104
f 34 104 98
f 98 94 34
f 34 94 88
f 34 88 40
f 66 62 56
f 78 72 44
f 44 72 66
f 44 66 50
f 50 66 56
f 40 88 44
f 44 88 82
f 44 82 78
