# Converted from Thingi10K 53435.stl
# welded vertices: 94, faces: 184
v -0.05 -0.0045 -0.0225
v -0.05 -0.0045 0.0225
v -0.05 -0.0015 0.0225
v -0.05 0.0015 -0.0225
v -0.05 0.0015 -0.0205
v -0.049999 0.0015 -0.0225
v -0.049999 0.0015 -0.0205
v -0.048749 0.0045 -0.0225
v -0.048 -0.0015 -0.0205
v -0.048 -0.0015 0.0225
v -0.048 0.0015 -0.0205
v -0.046999 0.0015 -0.0225
v -0.046999 0.0015 -0.0205
v -0.0435324 0.0015 -0.0225
v -0.0435324 0.0015 -0.0205
v -0.0422824 0.0045 -0.0225
v -0.0405324 0.0015 -0.0225
v -0.0405324 0.0015 -0.0205
v -0.0370658 0.0015 -0.0225
v -0.0370658 0.0015 -0.0205
v -0.0358158 0.0045 -0.0225
v -0.0340658 0.0015 -0.0225
v -0.0340658 0.0015 -0.0205
v -0.0305992 0.0015 -0.0225
v -0.0305992 0.0015 -0.0205
v -0.0293492 0.0045 -0.0225
v -0.0275992 0.0015 -0.0225
v -0.0275992 0.0015 -0.0205
v -0.0241326 0.0015 -0.0225
v -0.0241326 0.0015 -0.0205
v -0.0228826 0.0045 -0.0225
v -0.0211326 0.0015 -0.0225
v -0.0211326 0.0015 -0.0205
v -0.017666 0.0015 -0.0225
v -0.017666 0.0015 -0.0205
v -0.016416 0.0045 -0.0225
v -0.014666 0.0015 -0.0225
v -0.014666 0.0015 -0.0205
v -0.0111994 0.0015 -0.0225
v -0.0111994 0.0015 -0.0205
v -0.009949401 0.0045 -0.0225
v -0.008199397 0.0015 -0.0225
v -0.008199397 0.0015 -0.0205
v -0.004732799 0.0015 -0.0225
v -0.004732799 0.0015 -0.0205
v -0.0034828 0.0045 -0.0225
v -0.0017328 0.0015 -0.0225
v -0.0017328 0.0015 -0.0205
v 0.001733802 0.0015 -0.0225
v 0.001733802 0.0015 -0.0205
v 0.002983801 0.0045 -0.0225
v 0.004733801 0.0015 -0.0225
v 0.004733801 0.0015 -0.0205
v 0.0082004 0.0015 -0.0225
v 0.0082004 0.0015 -0.0205
v 0.009450402 0.0045 -0.0225
v 0.0112004 0.0015 -0.0225
v 0.0112004 0.0015 -0.0205
v 0.014667 0.0015 -0.0225
v 0.014667 0.0015 -0.0205
v 0.015917 0.0045 -0.0225
v 0.017667 0.0015 -0.0225
v 0.017667 0.0015 -0.0205
v 0.0211336 0.0015 -0.0225
v 0.0211336 0.0015 -0.0205
v 0.0223836 0.0045 -0.0225
v 0.0241336 0.0015 -0.0225
v 0.0241336 0.0015 -0.0205
v 0.0276002 0.0015 -0.0225
v 0.0276002 0.0015 -0.0205
v 0.0288502 0.0045 -0.0225
v 0.0306002 0.0015 -0.0225
v 0.0306002 0.0015 -0.0205
v 0.0340668 0.0015 -0.0225
v 0.0340668 0.0015 -0.0205
v 0.0353168 0.0045 -0.0225
v 0.0370668 0.0015 -0.0225
v 0.0370668 0.0015 -0.0205
v 0.0405334 0.0015 -0.0225
v 0.0405334 0.0015 -0.0205
v 0.0417834 0.0045 -0.0225
v 0.0435334 0.0015 -0.0225
v 0.0435334 0.0015 -0.0205
v 0.047 0.0015 -0.0225
v 0.047 0.0015 -0.0205
v 0.048 -0.0015 -0.0205
v 0.048 -0.0015 0.0225
v 0.048 0.0015 -0.0205
v 0.04825 0.0045 -0.0225
v 0.05 -0.0045 -0.0225
v 0.05 -0.0045 0.0225
v 0.05 -0.0015 0.0225
v 0.05 0.0015 -0.0225
v 0.05 0.0015 -0.0205
f 10 9 11
f 5 3 7
f 7 3 10
f 7 10 11
f 86 87 88
f 92 94 87
f 87 94 88
f 83 81 80
f 78 76 75
f 73 71 70
f 68 66 65
f 63 61 60
f 58 56 55
f 53 51 50
f 48 46 45
f 43 41 40
f 38 36 35
f 33 31 30
f 28 26 25
f 23 21 20
f 18 16 15
f 13 8 11
f 11 8 7
f 7 8 6
f 8 13 12
f 15 16 14
f 16 18 17
f 20 21 19
f 21 23 22
f 25 26 24
f 26 28 27
f 30 31 29
f 31 33 32
f 35 36 34
f 36 38 37
f 40 41 39
f 41 43 42
f 45 46 44
f 46 48 47
f 50 51 49
f 51 53 52
f 55 56 54
f 56 58 57
f 60 61 59
f 61 63 62
f 65 66 64
f 66 68 67
f 70 71 69
f 71 73 72
f 75 76 74
f 76 78 77
f 80 81 79
f 81 83 82
f 94 89 88
f 88 89 85
f 85 89 84
f 89 94 93
f 90 91 1
f 1 91 2
f 92 87 91
f 91 87 10
f 91 10 2
f 2 10 3
f 3 5 2
f 2 5 1
f 5 4 1
f 16 17 14
f 14 17 90
f 14 90 12
f 12 90 6
f 12 6 8
f 72 74 90
f 62 64 90
f 52 54 90
f 42 44 90
f 17 19 90
f 31 32 29
f 89 93 84
f 84 93 90
f 84 90 82
f 1 4 90
f 90 4 6
f 81 82 79
f 79 82 90
f 79 90 77
f 77 90 74
f 77 74 76
f 71 72 69
f 69 72 90
f 69 90 67
f 67 90 64
f 67 64 66
f 61 62 59
f 59 62 90
f 59 90 57
f 57 90 54
f 57 54 56
f 51 52 49
f 49 52 90
f 49 90 47
f 47 90 44
f 47 44 46
f 41 42 39
f 39 42 90
f 39 90 37
f 37 90 34
f 37 34 36
f 27 29 90
f 90 29 32
f 90 32 34
f 26 27 24
f 24 27 90
f 24 90 22
f 22 90 19
f 22 19 21
f 92 91 94
f 94 91 90
f 94 90 93
f 5 7 4
f 4 7 6
f 84 82 85
f 85 82 83
f 79 77 80
f 80 77 78
f 74 72 75
f 75 72 73
f 69 67 70
f 70 67 68
f 64 62 65
f 65 62 63
f 59 57 60
f 60 57 58
f 54 52 55
f 55 52 53
f 49 47 50
f 50 47 48
f 44 42 45
f 45 42 43
f 39 37 40
f 40 37 38
f 34 32 35
f 35 32 33
f 29 27 30
f 30 27 28
f 24 22 25
f 25 22 23
f 19 17 20
f 20 17 18
f 14 12 15
f 15 12 13
f 25 23 86
f 86 23 20
f 86 20 18
f 86 40 38
f 70 86 73
f 73 86 75
f 18 15 86
f 86 15 13
f 86 13 9
f 9 13 11
f 88 85 86
f 86 85 83
f 83 80 86
f 86 80 78
f 86 78 75
f 70 68 86
f 86 68 65
f 86 65 63
f 63 60 86
f 86 60 58
f 86 58 55
f 55 53 86
f 86 53 50
f 86 50 48
f 48 45 86
f 86 45 43
f 86 43 40
f 33 86 35
f 35 86 38
f 33 30 86
f 86 30 28
f 86 28 25
f 86 9 87
f 87 9 10
