# Converted from Thingi10K 53882.stl
# welded vertices: 92, faces: 192
v -0.05 0.0435251144 -0.0119153876
v -0.0499999802 0.00244720694 -0.0119153614
v -0.0499999802 0.00977565822 -0.0119153666
v -0.0499999802 0.0435251144 0.0119153342
v -0.0499999604 0.00244720694 0.011915354
v -0.0499999604 0.00977565822 0.011915354
v -0.0499999208 -0.0435251739 -0.0119153381
v -0.049999901 -0.0435251739 0.0119153936
v -0.0469446388 0.00922353394 -0.0119153659
v -0.0469446388 0.00977565822 -0.0119153666
v -0.0469446388 0.0395796207 -0.0119153854
v -0.0469446388 0.0395796405 0.0119153342
v -0.046944619 0.00242261508 -0.0119153614
v -0.046944619 0.00242261508 0.011915354
v -0.046944619 0.00244720694 -0.0119153614
v -0.046944619 0.00244720694 0.011915354
v -0.046944619 0.00922353394 0.011915354
v -0.046944619 0.00977565822 0.011915354
v -0.0469445794 -0.0402243299 -0.0119153404
v -0.0469445794 -0.0402243299 0.0119153936
v -0.0195709143 0.0435251343 -0.0119153936
v -0.0195709083 0.0395796405 -0.0119153914
v -0.0195708964 0.0435251343 0.0119153342
v -0.0195708885 0.0395796405 0.0119153342
v -0.0187870512 0.0395796405 -0.0119153914
v -0.0187870512 0.0395796405 0.0119153342
v -0.0176972519 -0.0435251541 -0.0119153381
v -0.0176972519 -0.0402243299 -0.0119153404
v -0.0176972202 -0.0402243101 0.0119153936
v -0.0176972143 -0.0435251541 0.0119153936
v -0.0169162276 -0.0402243299 -0.0119153404
v -0.0169162276 -0.0402243101 0.0119153936
v -0.0126779651 0.0435251343 -0.0119153936
v -0.0126779592 0.0395796405 -0.0119153914
v -0.0126779532 0.0435251343 0.0119153342
v -0.0126779473 0.0395796405 0.0119153342
v -0.0107943266 -0.0435251541 -0.0119153381
v -0.0107943266 -0.0402243299 -0.0119153404
v -0.0107942968 -0.0402243101 0.0119153936
v -0.0107942909 -0.0435251343 0.0119153936
v -0.00966627457 -0.0402243299 -0.0119153404
v -0.00966626862 -0.0435251541 -0.0119153381
v -0.00966624485 -0.0402243101 0.0119153936
v -0.00966623891 -0.0435251343 0.0119153936
v -0.00944141377 -0.0402243299 -0.0119153404
v -0.00944140783 -0.0402243101 0.0119153936
v -0.00789280612 0.0395796405 -0.0119153914
v -0.00789280612 0.0435251343 -0.0119153936
v -0.00789279423 0.0395796405 0.0119153342
v -0.00789279423 0.0435251343 0.0119153342
v -0.00291135798 -0.0402243101 -0.0119153404
v -0.00291135203 -0.0402243101 0.0119153936
v -0.00265036216 -0.0402243101 -0.0119153404
v -0.00265035622 -0.0435251541 -0.0119153381
v -0.0026503265 -0.0402243101 0.0119153936
v -0.00265032056 -0.0435251343 0.0119153936
v -0.000991400179 0.0435251343 -0.0119153936
v -0.000991394236 0.0395796405 -0.0119153914
v -0.000991382152 0.0395796603 0.0119153342
v -0.000991382152 0.0435251541 0.0119153342
v 0.0283614025 0.0395796603 -0.0119153914
v 0.0283614025 0.0395796801 0.0119153342
v 0.0283614421 -9.94987136e-05 -0.0119153659
v 0.0283614421 -9.94987136e-05 0.011915354
v 0.0326374422 0.0435251541 -0.0119153936
v 0.0326374422 0.0435251739 0.0119153342
v 0.032637462 0.00493899381 -0.0119153689
v 0.032637462 0.00493901758 0.011915354
v 0.0362602347 -0.000129993728 -0.0119153659
v 0.0362602347 -0.000129993728 0.011915354
v 0.0362602743 -0.0402242705 -0.0119153464
v 0.0362602743 -0.0402242705 0.0119153738
v 0.0409537061 -0.0121030695 -0.0119153584
v 0.0409537061 -0.00606503114 -0.0119153621
v 0.0409537061 -0.00606503114 0.0119153738
v 0.0409537259 -0.0344005918 -0.0119153501
v 0.0409537259 -0.0344005719 0.0119153738
v 0.0409537259 -0.0283625712 -0.0119153539
v 0.0409537259 -0.0283625514 0.0119153738
v 0.0409537259 -0.0121030457 0.0119153738
v 0.0469917266 -0.0344005918 -0.0119153501
v 0.0469917266 -0.0344005719 0.0119153738
v 0.0469917266 -0.0283625712 -0.0119153539
v 0.0469917266 -0.0283625514 0.0119153738
v 0.0469917266 -0.0121030457 -0.0119153584
v 0.0469917266 -0.0121030457 0.0119153738
v 0.0469917266 -0.00606503114 -0.0119153621
v 0.0469917266 -0.00606500737 0.0119153738
v 0.0499999406 0.0049378904 -0.0119153689
v 0.0499999406 0.00493791417 0.011915354
v 0.0499999604 -0.0435251343 -0.0119153441
v 0.05 -0.0435251144 0.0119153738
f 44 46 43
f 21 25 22
f 3 10 9
f 51 53 54
f 32 29 30
f 69 71 70
f 44 52 46
f 17 5 16
f 16 5 14
f 7 13 19
f 23 24 26
f 54 45 51
f 28 31 27
f 75 70 80
f 72 77 79
f 85 87 89
f 71 78 76
f 85 83 78
f 90 92 91
f 91 89 90
f 8 5 2
f 2 7 8
f 2 5 6
f 6 3 2
f 3 6 4
f 4 1 3
f 68 67 65
f 65 66 68
f 54 91 92
f 92 56 54
f 60 66 65
f 65 57 60
f 7 27 30
f 30 8 7
f 4 23 21
f 21 1 4
f 64 68 66
f 66 62 64
f 57 65 61
f 61 58 57
f 56 55 52
f 52 44 56
f 30 40 39
f 39 32 30
f 21 33 34
f 34 25 21
f 30 29 20
f 20 8 30
f 15 2 3
f 3 9 15
f 1 21 22
f 22 11 1
f 2 15 13
f 13 7 2
f 6 5 17
f 17 18 6
f 9 10 18
f 18 17 9
f 63 67 89
f 67 63 61
f 61 65 67
f 53 51 52
f 52 55 53
f 41 45 54
f 54 42 41
f 46 45 41
f 41 43 46
f 5 8 20
f 20 14 5
f 31 28 29
f 29 32 31
f 27 31 38
f 38 37 27
f 11 10 3
f 3 1 11
f 18 12 4
f 4 6 18
f 11 12 18
f 18 10 11
f 23 26 36
f 36 35 23
f 72 55 56
f 56 92 72
f 54 53 71
f 71 91 54
f 64 62 61
f 61 63 64
f 59 62 66
f 66 60 59
f 61 62 59
f 59 58 61
f 15 9 17
f 17 16 15
f 4 12 24
f 24 23 4
f 72 71 53
f 53 55 72
f 20 19 13
f 13 14 20
f 19 28 27
f 27 7 19
f 16 14 13
f 13 15 16
f 39 38 31
f 31 32 39
f 28 19 20
f 20 29 28
f 24 12 11
f 11 22 24
f 24 22 25
f 25 26 24
f 52 51 45
f 45 46 52
f 36 26 25
f 25 34 36
f 43 41 38
f 38 39 43
f 37 38 41
f 41 42 37
f 44 40 37
f 37 42 44
f 44 43 39
f 39 40 44
f 70 72 79
f 79 80 70
f 71 73 85
f 85 78 71
f 75 88 90
f 90 70 75
f 88 86 92
f 92 90 88
f 82 77 72
f 72 92 82
f 76 81 91
f 91 71 76
f 74 73 71
f 71 69 74
f 80 73 74
f 74 75 80
f 82 81 76
f 76 77 82
f 88 87 85
f 85 86 88
f 89 87 74
f 74 69 89
f 92 86 84
f 84 82 92
f 77 76 78
f 78 79 77
f 80 86 85
f 85 73 80
f 74 87 88
f 88 75 74
f 80 79 84
f 84 86 80
f 84 83 81
f 81 82 84
f 79 78 83
f 83 84 79
f 90 68 70
f 70 68 64
f 72 70 71
f 89 67 68
f 68 90 89
f 89 69 63
f 64 63 69
f 69 70 64
f 27 37 40
f 40 30 27
f 44 42 54
f 54 56 44
f 89 91 83
f 83 85 89
f 81 83 91
f 60 57 48
f 48 50 60
f 21 23 35
f 35 33 21
f 48 33 35
f 35 50 48
f 50 35 36
f 36 49 50
f 33 48 47
f 47 34 33
f 47 48 57
f 57 58 47
f 50 49 59
f 59 60 50
f 47 58 59
f 59 49 47
f 34 47 49
f 49 36 34
