# Converted from Thingi10K 59559.stl
# welded vertices: 80, faces: 160
v -0.05 0 -0.00543478261
v -0.05 0 0.00543478261
v -0.0475528261 -0.0154508478 -0.00543478261
v -0.0475528261 -0.0154508478 0.00543478261
v -0.0475528261 0.0154508478 -0.00543478261
v -0.0475528261 0.0154508478 0.00543478261
v -0.0404508478 -0.0293892609 -0.00543478261
v -0.0404508478 -0.0293892609 0.00543478261
v -0.0404508478 0.0293892609 -0.00543478261
v -0.0404508478 0.0293892609 0.00543478261
v -0.0293892609 -0.0404508478 -0.00543478261
v -0.0293892609 -0.0404508478 0.00543478261
v -0.0293892609 0.0404508478 -0.00543478261
v -0.0293892609 0.0404508478 0.00543478261
v -0.0195652174 0 -0.00543478261
v -0.0195652174 0 0.00543478261
v -0.0186076261 -0.00604598261 -0.00543478261
v -0.0186076261 -0.00604598261 0.00543478261
v -0.0186076261 0.00604598261 -0.00543478261
v -0.0186076261 0.00604598261 0.00543478261
v -0.0158285913 -0.0115001478 -0.00543478261
v -0.0158285913 -0.0115001478 0.00543478261
v -0.0158285913 0.0115001478 -0.00543478261
v -0.0158285913 0.0115001478 0.00543478261
v -0.0154508478 -0.0475528261 -0.00543478261
v -0.0154508478 -0.0475528261 0.00543478261
v -0.0154508478 0.0475528261 -0.00543478261
v -0.0154508478 0.0475528261 0.00543478261
v -0.0115001478 -0.0158285913 -0.00543478261
v -0.0115001478 -0.0158285913 0.00543478261
v -0.0115001478 0.0158285913 -0.00543478261
v -0.0115001478 0.0158285913 0.00543478261
v -0.00604598261 -0.0186076261 -0.00543478261
v -0.00604598261 -0.0186076261 0.00543478261
v -0.00604598261 0.0186076261 -0.00543478261
v -0.00604598261 0.0186076261 0.00543478261
v 0 -0.05 -0.00543478261
v 0 -0.05 0.00543478261
v 0 -0.0195652174 -0.00543478261
v 0 -0.0195652174 0.00543478261
v 0 0.0195652174 -0.00543478261
v 0 0.0195652174 0.00543478261
v 0 0.05 -0.00543478261
v 0 0.05 0.00543478261
v 0.00604598261 -0.0186076261 -0.00543478261
v 0.00604598261 -0.0186076261 0.00543478261
v 0.00604598261 0.0186076261 -0.00543478261
v 0.00604598261 0.0186076261 0.00543478261
v 0.0115001478 -0.0158285913 -0.00543478261
v 0.0115001478 -0.0158285913 0.00543478261
v 0.0115001478 0.0158285913 -0.00543478261
v 0.0115001478 0.0158285913 0.00543478261
v 0.0154508478 -0.0475528261 -0.00543478261
v 0.0154508478 -0.0475528261 0.00543478261
v 0.0154508478 0.0475528261 -0.00543478261
v 0.0154508478 0.0475528261 0.00543478261
v 0.0158285913 -0.0115001478 -0.00543478261
v 0.0158285913 -0.0115001478 0.00543478261
v 0.0158285913 0.0115001478 -0.00543478261
v 0.0158285913 0.0115001478 0.00543478261
v 0.0186076261 -0.00604598261 -0.00543478261
v 0.0186076261 -0.00604598261 0.00543478261
v 0.0186076261 0.00604598261 -0.00543478261
v 0.0186076261 0.00604598261 0.00543478261
v 0.0195652174 0 -0.00543478261
v 0.0195652174 0 0.00543478261
v 0.0293892609 -0.0404508478 -0.00543478261
v 0.0293892609 -0.0404508478 0.00543478261
v 0.0293892609 0.0404508478 -0.00543478261
v 0.0293892609 0.0404508478 0.00543478261
v 0.0404508478 -0.0293892609 -0.00543478261
v 0.0404508478 -0.0293892609 0.00543478261
v 0.0404508478 0.0293892609 -0.00543478261
v 0.0404508478 0.0293892609 0.00543478261
v 0.0475528261 -0.0154508478 -0.00543478261
v 0.0475528261 -0.0154508478 0.00543478261
v 0.0475528261 0.0154508478 -0.00543478261
v 0.0475528261 0.0154508478 0.00543478261
v 0.05 0 -0.00543478261
v 0.05 0 0.00543478261
f 1 5 3
f 3 5 9
f 3 9 13
f 3 13 27
f 3 27 43
f 3 43 55
f 41 55 69
f 51 69 73
f 59 73 77
f 65 77 79
f 57 79 75
f 45 75 71
f 3 71 67
f 3 67 53
f 3 53 37
f 3 37 25
f 3 25 11
f 3 11 7
f 17 3 15
f 21 3 17
f 29 3 21
f 45 71 39
f 3 29 33
f 3 33 71
f 33 39 71
f 49 75 45
f 57 75 49
f 61 79 57
f 65 79 61
f 63 77 65
f 51 73 59
f 47 69 51
f 41 69 47
f 35 55 41
f 31 55 35
f 3 55 31
f 3 31 23
f 15 3 19
f 19 3 23
f 59 77 63
f 1 2 5
f 5 2 6
f 1 3 2
f 2 3 4
f 3 7 4
f 4 7 8
f 8 7 11
f 12 8 11
f 12 11 25
f 26 12 25
f 26 25 37
f 38 26 37
f 38 37 53
f 54 38 53
f 54 53 67
f 68 54 67
f 68 67 71
f 72 68 71
f 72 71 75
f 76 72 75
f 76 75 79
f 80 76 79
f 79 77 78
f 80 79 78
f 77 73 74
f 78 77 74
f 69 70 73
f 73 70 74
f 55 56 69
f 69 56 70
f 43 44 55
f 55 44 56
f 27 28 43
f 43 28 44
f 13 14 27
f 27 14 28
f 9 10 13
f 13 10 14
f 5 6 9
f 9 6 10
f 16 18 17
f 15 16 17
f 19 20 16
f 15 19 16
f 23 24 20
f 19 23 20
f 31 32 24
f 23 31 24
f 35 36 32
f 31 35 32
f 41 42 36
f 35 41 36
f 47 48 42
f 41 47 42
f 51 52 48
f 47 51 48
f 59 60 52
f 51 59 52
f 64 60 63
f 63 60 59
f 66 64 65
f 65 64 63
f 66 65 62
f 62 65 61
f 62 61 58
f 58 61 57
f 58 57 50
f 50 57 49
f 50 49 46
f 46 49 45
f 46 45 40
f 40 45 39
f 40 39 34
f 34 39 33
f 34 33 30
f 30 33 29
f 30 29 22
f 22 29 21
f 18 22 21
f 17 18 21
f 6 2 4
f 12 6 8
f 8 6 4
f 26 6 12
f 38 6 26
f 54 6 38
f 30 6 54
f 64 66 80
f 70 6 74
f 56 6 70
f 44 6 56
f 28 6 44
f 14 6 28
f 10 6 14
f 16 20 6
f 46 40 68
f 62 58 76
f 42 48 74
f 58 50 72
f 36 6 32
f 74 6 36
f 74 36 42
f 74 48 78
f 48 52 78
f 78 60 80
f 60 64 80
f 80 66 76
f 24 32 6
f 66 62 76
f 52 60 78
f 76 58 72
f 72 50 68
f 50 46 68
f 68 40 54
f 40 34 54
f 22 6 30
f 18 6 22
f 34 30 54
f 18 16 6
f 20 24 6
