# Converted from Thingi10K 59560.stl
# welded vertices: 124, faces: 248
v -0.05 0 -0.0239130435
v -0.05 0 0.00217391304
v -0.0475528261 -0.0154508478 -0.0239130435
v -0.0475528261 -0.0154508478 0.00217391304
v -0.0475528261 0.0154508478 -0.0239130435
v -0.0475528261 0.0154508478 0.00217391304
v -0.0404508478 -0.0293892609 -0.0239130435
v -0.0404508478 -0.0293892609 0.00217391304
v -0.0404508478 0.0293892609 -0.0239130435
v -0.0404508478 0.0293892609 0.00217391304
v -0.0293892609 -0.0404508478 -0.0239130435
v -0.0293892609 -0.0404508478 0.00217391304
v -0.0293892609 0.0404508478 -0.0239130435
v -0.0293892609 0.0404508478 0.00217391304
v -0.0287934913 -0.000128208696 -0.0239130435
v -0.0287934913 -0.000128208696 -0.00652173913
v -0.0287934913 0.000128208696 -0.0239130435
v -0.0287934913 0.000128208696 -0.00652173913
v -0.0285714304 0 -0.0239130435
v -0.0285714304 0 -0.00652173913
v -0.0217391304 -0.0195652174 0.00217391304
v -0.0217391304 -0.0195652174 0.0239130435
v -0.0217391304 0.0195652174 0.00217391304
v -0.0217391304 0.0195652174 0.0239130435
v -0.0154508478 -0.0475528261 -0.0239130435
v -0.0154508478 -0.0475528261 0.00217391304
v -0.0154508478 0.0475528261 -0.0239130435
v -0.0154508478 0.0475528261 0.00217391304
v -0.0145077783 -0.0248717913 -0.0239130435
v -0.0145077783 -0.0248717913 -0.00652173913
v -0.0145077783 0.0248717913 -0.0239130435
v -0.0145077783 0.0248717913 -0.00652173913
v -0.014285713 -0.025 -0.0239130435
v -0.014285713 -0.025 -0.00652173913
v -0.014285713 -0.0247435826 -0.0239130435
v -0.014285713 -0.0247435826 -0.00652173913
v -0.014285713 0.0247435826 -0.0239130435
v -0.014285713 0.0247435826 -0.00652173913
v -0.014285713 0.025 -0.0239130435
v -0.014285713 0.025 -0.00652173913
v -0.0141304348 0 -0.00652173913
v -0.0141304348 0 0.0239130435
v -0.0134388435 -0.00436654348 -0.00652173913
v -0.0134388435 -0.00436654348 0.0239130435
v -0.0134388435 0.00436654348 -0.00652173913
v -0.0134388435 0.00436654348 0.0239130435
v -0.0114317609 -0.00830566087 -0.00652173913
v -0.0114317609 -0.00830566087 0.0239130435
v -0.0114317609 0.00830566087 -0.00652173913
v -0.0114317609 0.00830566087 0.0239130435
v -0.00830566087 -0.0114317609 -0.00652173913
v -0.00830566087 -0.0114317609 0.0239130435
v -0.00830566087 0.0114317609 -0.00652173913
v -0.00830566087 0.0114317609 0.0239130435
v -0.00436654348 -0.0134388435 -0.00652173913
v -0.00436654348 -0.0134388435 0.0239130435
v -0.00436654348 0.0134388435 -0.00652173913
v -0.00436654348 0.0134388435 0.0239130435
v 0 -0.05 -0.0239130435
v 0 -0.05 0.00217391304
v 0 -0.0141304348 -0.00652173913
v 0 -0.0141304348 0.0239130435
v 0 0.0141304348 -0.00652173913
v 0 0.0141304348 0.0239130435
v 0 0.05 -0.0239130435
v 0 0.05 0.00217391304
v 0.00436654348 -0.0134388435 -0.00652173913
v 0.00436654348 -0.0134388435 0.0239130435
v 0.00436654348 0.0134388435 -0.00652173913
v 0.00436654348 0.0134388435 0.0239130435
v 0.00830566087 -0.0114317609 -0.00652173913
v 0.00830566087 -0.0114317609 0.0239130435
v 0.00830566087 0.0114317609 -0.00652173913
v 0.00830566087 0.0114317609 0.0239130435
v 0.0114317609 -0.00830566087 -0.00652173913
v 0.0114317609 -0.00830566087 0.0239130435
v 0.0114317609 0.00830566087 -0.00652173913
v 0.0114317609 0.00830566087 0.0239130435
v 0.0134388435 -0.00436654348 -0.00652173913
v 0.0134388435 -0.00436654348 0.0239130435
v 0.0134388435 0.00436654348 -0.00652173913
v 0.0134388435 0.00436654348 0.0239130435
v 0.0141304348 0 -0.00652173913
v 0.0141304348 0 0.0239130435
v 0.014285713 -0.025 -0.0239130435
v 0.014285713 -0.025 -0.00652173913
v 0.014285713 -0.0247435826 -0.0239130435
v 0.014285713 -0.0247435826 -0.00652173913
v 0.014285713 0.0247435826 -0.0239130435
v 0.014285713 0.0247435826 -0.00652173913
v 0.014285713 0.025 -0.0239130435
v 0.014285713 0.025 -0.00652173913
v 0.0145077783 -0.0248717913 -0.0239130435
v 0.0145077783 -0.0248717913 -0.00652173913
v 0.0145077783 0.0248717913 -0.0239130435
v 0.0145077783 0.0248717913 -0.00652173913
v 0.0154508478 -0.0475528261 -0.0239130435
v 0.0154508478 -0.0475528261 0.00217391304
v 0.0154508478 0.0475528261 -0.0239130435
v 0.0154508478 0.0475528261 0.00217391304
v 0.0217391304 -0.0195652174 0.00217391304
v 0.0217391304 -0.0195652174 0.0239130435
v 0.0217391304 0.0195652174 0.00217391304
v 0.0217391304 0.0195652174 0.0239130435
v 0.0285714304 0 -0.0239130435
v 0.0285714304 0 -0.00652173913
v 0.0287934913 -0.000128208696 -0.0239130435
v 0.0287934913 -0.000128208696 -0.00652173913
v 0.0287934913 0.000128208696 -0.0239130435
v 0.0287934913 0.000128208696 -0.00652173913
v 0.0293892609 -0.0404508478 -0.0239130435
v 0.0293892609 -0.0404508478 0.00217391304
v 0.0293892609 0.0404508478 -0.0239130435
v 0.0293892609 0.0404508478 0.00217391304
v 0.0404508478 -0.0293892609 -0.0239130435
v 0.0404508478 -0.0293892609 0.00217391304
v 0.0404508478 0.0293892609 -0.0239130435
v 0.0404508478 0.0293892609 0.00217391304
v 0.0475528261 -0.0154508478 -0.0239130435
v 0.0475528261 -0.0154508478 0.00217391304
v 0.0475528261 0.0154508478 -0.0239130435
v 0.0475528261 0.0154508478 0.00217391304
v 0.05 0 -0.0239130435
v 0.05 0 0.00217391304
f 1 5 3
f 3 5 9
f 3 9 13
f 3 13 27
f 3 27 65
f 39 65 99
f 95 113 117
f 107 121 123
f 85 119 115
f 85 111 33
f 3 111 97
f 3 97 59
f 3 59 25
f 3 25 11
f 3 11 7
f 29 3 15
f 85 115 111
f 33 29 35
f 3 29 33
f 3 33 111
f 93 119 85
f 87 93 85
f 109 121 107
f 105 109 107
f 89 113 95
f 91 113 89
f 31 65 39
f 31 39 37
f 3 65 31
f 17 3 31
f 3 17 15
f 19 15 17
f 39 99 113
f 39 113 91
f 107 123 119
f 95 117 121
f 95 121 109
f 107 119 93
f 1 2 5
f 5 2 6
f 1 3 2
f 2 3 4
f 3 7 4
f 4 7 8
f 8 7 11
f 12 8 11
f 12 11 25
f 26 12 25
f 26 25 59
f 60 26 59
f 60 59 97
f 98 60 97
f 98 97 111
f 112 98 111
f 112 111 115
f 116 112 115
f 116 115 119
f 120 116 119
f 120 119 123
f 124 120 123
f 123 121 122
f 124 123 122
f 121 117 118
f 122 121 118
f 113 114 117
f 117 114 118
f 99 100 113
f 113 100 114
f 65 66 99
f 99 66 100
f 27 28 65
f 65 28 66
f 13 14 27
f 27 14 28
f 9 10 13
f 13 10 14
f 5 6 9
f 9 6 10
f 19 20 16
f 15 19 16
f 20 19 18
f 18 19 17
f 31 32 18
f 17 31 18
f 37 38 32
f 31 37 32
f 39 40 38
f 37 39 38
f 91 92 40
f 39 91 40
f 92 91 90
f 90 91 89
f 95 96 90
f 89 95 90
f 110 96 109
f 109 96 95
f 110 109 106
f 106 109 105
f 107 108 106
f 105 107 106
f 108 107 94
f 94 107 93
f 94 93 88
f 88 93 87
f 88 87 86
f 86 87 85
f 86 85 34
f 34 85 33
f 35 36 34
f 33 35 34
f 36 35 30
f 30 35 29
f 16 30 29
f 15 16 29
f 4 8 12
f 60 4 26
f 26 4 12
f 98 4 60
f 112 4 98
f 21 4 112
f 103 120 124
f 103 124 122
f 28 4 66
f 14 4 28
f 10 4 14
f 6 4 10
f 2 4 6
f 66 23 100
f 66 4 23
f 118 103 122
f 103 101 120
f 120 101 116
f 116 21 112
f 23 114 100
f 23 118 114
f 23 103 118
f 101 21 116
f 21 23 4
f 18 32 20
f 20 32 38
f 38 40 92
f 38 92 20
f 20 92 90
f 90 96 110
f 49 20 53
f 83 106 108
f 88 108 94
f 71 108 88
f 30 20 36
f 88 86 20
f 86 34 36
f 61 88 55
f 20 43 47
f 20 47 51
f 20 51 88
f 51 55 88
f 83 108 79
f 75 108 71
f 61 67 88
f 67 71 88
f 79 108 75
f 110 106 83
f 81 110 83
f 90 110 81
f 90 81 77
f 90 77 73
f 90 73 69
f 90 69 63
f 90 63 57
f 90 57 53
f 90 53 20
f 45 20 49
f 41 20 45
f 20 86 36
f 43 20 41
f 20 30 16
f 21 22 23
f 23 22 24
f 23 24 103
f 103 24 104
f 22 21 101
f 102 22 101
f 102 101 103
f 104 102 103
f 44 48 47
f 43 44 47
f 42 44 43
f 41 42 43
f 45 46 42
f 41 45 42
f 49 50 46
f 45 49 46
f 53 54 50
f 49 53 50
f 57 58 54
f 53 57 54
f 63 64 58
f 57 63 58
f 69 70 64
f 63 69 64
f 73 74 70
f 69 73 70
f 77 78 74
f 73 77 74
f 82 78 81
f 81 78 77
f 84 82 83
f 83 82 81
f 84 83 80
f 80 83 79
f 80 79 76
f 76 79 75
f 76 75 72
f 72 75 71
f 72 71 68
f 68 71 67
f 68 67 62
f 62 67 61
f 62 61 56
f 56 61 55
f 56 55 52
f 52 55 51
f 52 51 48
f 48 51 47
f 68 22 102
f 24 22 44
f 24 44 42
f 24 42 46
f 64 70 104
f 24 46 50
f 58 24 54
f 104 24 58
f 82 84 102
f 104 58 64
f 104 70 74
f 104 74 78
f 104 82 102
f 104 78 82
f 80 76 102
f 62 22 68
f 56 22 62
f 52 22 56
f 48 22 52
f 44 22 48
f 72 68 102
f 50 54 24
f 84 80 102
f 76 72 102
