# Converted from Thingi10K 68646.stl
# welded vertices: 123, faces: 246
v -0.0151785714 0.0122595238 -0.05
v -0.0151785714 0.0122595238 -0.0214285714
v -0.0144357143 0.00756904762 -0.05
v -0.0144357143 0.00756904762 -0.0214285714
v -0.0144357143 0.01695 -0.05
v -0.0144357143 0.01695 -0.0214285714
v -0.0141928571 0.00709047619 -0.05
v -0.0141928571 0.00709047619 -0.0214285714
v -0.0122785714 0.0211809524 -0.05
v -0.0122785714 0.0211809524 -0.0214285714
v -0.0101190476 0.0122592857 -0.05
v -0.0101190476 0.0122592857 -0.0214285714
v -0.00962378571 0.00913238095 -0.05
v -0.00962378571 0.00913238095 -0.0214285714
v -0.00962378571 0.0153861905 -0.05
v -0.00962378571 0.0153861905 -0.0214285714
v -0.00939285714 -0.0180452381 -0.05
v -0.00939285714 -0.0180452381 -0.0214285714
v -0.00939285714 -0.0180452381 0.05
v -0.00893333333 -0.020947619 -0.05
v -0.00893333333 -0.020947619 -0.0214285714
v -0.00893314286 -0.0209477857 -0.0214285714
v -0.00893314286 -0.0209477857 0.05
v -0.00893314286 -0.0151426905 -0.0214285714
v -0.00893314286 -0.0151426905 0.05
v -0.00892142857 0.0245380952 -0.05
v -0.00892142857 0.0245380952 -0.0214285714
v -0.00869545238 -0.0146761905 0.0214285714
v -0.00869545238 -0.0146761905 0.05
v -0.00818647619 0.00631142857 -0.05
v -0.00818647619 0.00631142857 -0.0214285714
v -0.00818647619 0.0182071429 -0.05
v -0.00818647619 0.0182071429 -0.0214285714
v -0.0076 -0.0235666667 -0.05
v -0.0076 -0.0235666667 -0.0214285714
v -0.00759897619 -0.0235662143 -0.0214285714
v -0.00759897619 -0.0235662143 0.05
v -0.00759897619 -0.0125242619 -0.0214285714
v -0.00759897619 -0.0125242619 0.0214285714
v -0.00594783333 0.00407285714 -0.05
v -0.00594783333 0.00407285714 -0.0214285714
v -0.00594783333 0.0204457143 -0.05
v -0.00594783333 0.0204457143 -0.0214285714
v -0.00552142857 -0.0256452381 -0.05
v -0.00552142857 -0.0256452381 -0.0214285714
v -0.00552097619 -0.0256442143 -0.0214285714
v -0.00552097619 -0.0256442143 0.05
v -0.00552097619 -0.0104462619 -0.0214285714
v -0.00552097619 -0.0104462619 0.0214285714
v -0.00469047619 0.0266952381 -0.05
v -0.00469047619 0.0266952381 -0.0214285714
v -0.00312695238 0.00263554762 -0.05
v -0.00312695238 0.00263554762 -0.0214285714
v -0.00312695238 0.0218830952 -0.05
v -0.00312695238 0.0218830952 -0.0214285714
v -0.00290254762 -0.026978381 -0.0214285714
v -0.00290254762 -0.026978381 0.05
v -0.00290254762 -0.00911209524 -0.0214285714
v -0.00290254762 -0.00911209524 0.0214285714
v -0.00290238095 -0.0269785714 -0.05
v -0.00290238095 -0.0269785714 -0.0214285714
v 0 -0.0274380952 -0.05
v 0 -0.0274380952 -0.0214285714
v 0 -0.0274380952 0.05
v 0 -0.00865238095 -0.0214285714
v 0 -0.00865238095 0.0214285714
v 0 0.00214028571 -0.05
v 0 0.00214028571 -0.0214285714
v 0 0.0223783333 -0.05
v 0 0.0223783333 -0.0214285714
v 0 0.0274380952 -0.05
v 0 0.0274380952 -0.0214285714
v 0.00290238095 -0.0269785714 -0.05
v 0.00290238095 -0.0269785714 -0.0214285714
v 0.00290254762 -0.026978381 -0.0214285714
v 0.00290254762 -0.026978381 0.05
v 0.00290254762 -0.00911209524 -0.0214285714
v 0.00290254762 -0.00911209524 0.0214285714
v 0.00312695238 0.00263554762 -0.05
v 0.00312695238 0.00263554762 -0.0214285714
v 0.00312695238 0.0218830952 -0.05
v 0.00312695238 0.0218830952 -0.0214285714
v 0.00469047619 0.0266952381 -0.05
v 0.00469047619 0.0266952381 -0.0214285714
v 0.00505952381 0.0036202381 -0.05
v 0.00505952381 0.0036202381 -0.0214285714
v 0.00505952381 0.0208983333 -0.05
v 0.00505952381 0.0208983333 -0.0214285714
v 0.00552097619 -0.0256442143 -0.0214285714
v 0.00552097619 -0.0256442143 0.05
v 0.00552097619 -0.0104462619 -0.0214285714
v 0.00552097619 -0.0104462619 0.0214285714
v 0.00552142857 -0.0256452381 -0.05
v 0.00552142857 -0.0256452381 -0.0214285714
v 0.00759897619 -0.0235662143 -0.0214285714
v 0.00759897619 -0.0235662143 0.05
v 0.00759897619 -0.0125242619 -0.0214285714
v 0.00759897619 -0.0125242619 0.0214285714
v 0.0076 -0.0235666667 -0.05
v 0.0076 -0.0235666667 -0.0214285714
v 0.00869545238 -0.0146761905 0.0214285714
v 0.00869545238 -0.0146761905 0.05
v 0.00892142857 0.0245380952 -0.05
v 0.00892142857 0.0245380952 -0.0214285714
v 0.00893314286 -0.0209477857 -0.0214285714
v 0.00893314286 -0.0209477857 0.05
v 0.00893314286 -0.0151426905 -0.0214285714
v 0.00893314286 -0.0151426905 0.05
v 0.00893333333 -0.020947619 -0.05
v 0.00893333333 -0.020947619 -0.0214285714
v 0.00939285714 -0.0180452381 -0.05
v 0.00939285714 -0.0180452381 -0.0214285714
v 0.00939285714 -0.0180452381 0.05
v 0.0122785714 0.0211809524 -0.05
v 0.0122785714 0.0211809524 -0.0214285714
v 0.0141928571 0.00709047619 -0.05
v 0.0141928571 0.00709047619 -0.0214285714
v 0.0144357143 0.00756904762 -0.05
v 0.0144357143 0.00756904762 -0.0214285714
v 0.0144357143 0.01695 -0.05
v 0.0144357143 0.01695 -0.0214285714
v 0.0151785714 0.0122595238 -0.05
v 0.0151785714 0.0122595238 -0.0214285714
f 1 3 2
f 2 3 4
f 1 5 3
f 3 5 9
f 3 9 26
f 3 26 50
f 42 50 71
f 69 71 83
f 81 83 103
f 87 103 114
f 87 122 118
f 87 120 122
f 79 116 111
f 111 109 3
f 3 109 99
f 3 99 93
f 7 93 73
f 81 103 87
f 17 34 20
f 3 93 7
f 11 3 15
f 13 3 11
f 30 3 13
f 87 118 116
f 87 114 120
f 3 30 111
f 30 40 111
f 40 52 111
f 52 67 111
f 85 116 79
f 67 79 111
f 87 116 85
f 54 71 69
f 42 71 54
f 32 50 42
f 3 50 32
f 3 32 15
f 69 83 81
f 7 73 62
f 7 62 60
f 7 60 44
f 7 44 34
f 7 34 17
f 1 2 5
f 5 2 6
f 6 2 4
f 18 6 8
f 8 6 4
f 24 6 18
f 38 6 24
f 48 6 38
f 58 6 48
f 65 6 58
f 31 6 65
f 12 16 6
f 53 91 97
f 117 97 107
f 117 107 112
f 88 121 115
f 70 82 104
f 33 43 6
f 72 6 84
f 51 6 72
f 27 6 51
f 10 6 27
f 16 33 6
f 53 77 91
f 88 123 121
f 84 6 43
f 84 55 104
f 84 43 55
f 55 70 104
f 104 82 115
f 82 88 115
f 117 86 97
f 86 80 97
f 80 68 97
f 68 53 97
f 53 41 77
f 14 6 31
f 41 31 65
f 41 65 77
f 14 12 6
f 88 119 123
f 88 117 119
f 88 86 117
f 3 7 4
f 4 7 8
f 7 17 8
f 8 17 18
f 17 20 18
f 18 20 21
f 20 34 21
f 21 34 35
f 35 34 44
f 45 35 44
f 45 44 60
f 61 45 60
f 61 60 62
f 63 61 62
f 63 62 73
f 74 63 73
f 74 73 93
f 94 74 93
f 94 93 99
f 100 94 99
f 100 99 109
f 110 100 109
f 110 109 111
f 112 110 111
f 112 111 116
f 117 112 116
f 117 116 118
f 119 117 118
f 119 118 122
f 123 119 122
f 122 120 121
f 123 122 121
f 120 114 115
f 121 120 115
f 103 104 114
f 114 104 115
f 83 84 103
f 103 84 104
f 71 72 83
f 83 72 84
f 50 51 71
f 71 51 72
f 26 27 50
f 50 27 51
f 9 10 26
f 26 10 27
f 5 6 9
f 9 6 10
f 15 16 12
f 11 15 12
f 12 14 13
f 11 12 13
f 32 33 16
f 15 32 16
f 42 43 33
f 32 42 33
f 54 55 43
f 42 54 43
f 69 70 55
f 54 69 55
f 81 82 70
f 69 81 70
f 87 88 82
f 81 87 82
f 85 86 87
f 87 86 88
f 86 85 80
f 80 85 79
f 80 79 68
f 68 79 67
f 68 67 53
f 53 67 52
f 53 52 41
f 41 52 40
f 41 40 31
f 31 40 30
f 14 31 30
f 13 14 30
f 75 63 74
f 94 75 74
f 89 94 100
f 105 100 110
f 95 89 100
f 95 100 105
f 112 105 110
f 89 75 94
f 106 105 112
f 113 106 112
f 112 107 108
f 113 112 108
f 107 97 98
f 102 107 101
f 101 107 98
f 108 107 102
f 91 92 97
f 97 92 98
f 77 78 91
f 91 78 92
f 65 66 77
f 77 66 78
f 58 59 65
f 65 59 66
f 48 49 58
f 58 49 59
f 38 39 48
f 48 39 49
f 39 38 28
f 24 25 28
f 24 28 38
f 28 25 29
f 18 19 24
f 24 19 25
f 18 22 19
f 19 22 23
f 22 18 21
f 35 22 21
f 36 35 45
f 56 45 61
f 46 36 45
f 46 45 56
f 63 56 61
f 36 22 35
f 57 56 63
f 64 57 63
f 64 63 75
f 76 64 75
f 76 75 89
f 90 76 89
f 90 89 95
f 96 90 95
f 96 95 105
f 106 96 105
f 25 19 23
f 47 25 37
f 37 25 23
f 57 25 47
f 64 25 57
f 76 25 64
f 90 25 76
f 96 25 90
f 106 25 96
f 113 25 106
f 108 25 113
f 102 25 108
f 29 25 102
f 102 101 29
f 29 101 28
f 101 98 92
f 66 101 78
f 78 101 92
f 59 101 66
f 49 101 59
f 39 101 49
f 28 101 39
f 22 36 23
f 23 36 37
f 37 36 46
f 47 37 46
f 47 46 56
f 57 47 56
