# Converted from Thingi10K 69128.stl
# welded vertices: 68, faces: 136
v -0.0462267066 -0.00393115765 -0.0308178044
v -0.0462267066 -0.00393115765 0.0308178044
v -0.0462267066 0.05 -0.0308178044
v -0.0462267066 0.05 0.0308178044
v -0.0455962359 -0.011539827 -0.0308178044
v -0.0455962359 -0.011539827 0.0308178044
v -0.0455962359 -0.00393115765 -0.0308178044
v -0.0455962359 -0.00393115765 0.0308178044
v -0.0406551788 -0.0259326045 -0.0308178044
v -0.0406551788 -0.0259326045 0.0308178044
v -0.0313085009 -0.0379412243 -0.0308178044
v -0.0313085009 -0.0379412243 0.0308178044
v -0.0291742138 -0.0111219607 0
v -0.0291742138 -0.0111219607 0.0308178044
v -0.0291742138 0.00325964539 0
v -0.0291742138 0.00325964539 0.0308178044
v -0.0224907566 -0.023856255 0
v -0.0224907566 -0.023856255 0.0308178044
v -0.0224907566 0.0159939397 0
v -0.0224907566 0.0159939397 0.0308178044
v -0.0185690369 -0.0462643428 -0.0308178044
v -0.0185690369 -0.0462643428 0.0308178044
v -0.0138829586 -0.0106168261 -0.0308178044
v -0.0138829586 -0.0106168261 0
v -0.0138829586 0.00275451076 -0.0308178044
v -0.0138829586 0.00275451076 0
v -0.0106549477 -0.0320259008 0
v -0.0106549477 -0.0320259008 0.0308178044
v -0.0106549477 0.0241635855 0
v -0.0106549477 0.0241635855 0.0308178044
v -0.00381740143 -0.05 -0.0308178044
v -0.00381740143 -0.05 0.0308178044
v -0.00342878891 -0.0189537587 -0.0308178044
v -0.00342878891 -0.0189537587 0
v -0.00342878891 0.0110914434 -0.0308178044
v -0.00342878891 0.0110914434 0
v 0.00362178541 -0.0337594023 0
v 0.00362178541 -0.0337594023 0.0308178044
v 0.00362178541 0.025897087 0
v 0.00362178541 0.025897087 0.0308178044
v 0.00960729642 -0.0159782996 -0.0308178044
v 0.00960729642 -0.0159782996 0
v 0.00960729642 0.00811598435 -0.0308178044
v 0.00960729642 0.00811598435 0
v 0.0113479631 -0.048743327 -0.0308178044
v 0.0113479631 -0.048743327 0.0308178044
v 0.0154089022 -0.00393115765 -0.0308178044
v 0.0154089022 -0.00393115765 0
v 0.0170688262 -0.0286596721 0
v 0.0170688262 -0.0286596721 0.0308178044
v 0.0170688262 0.0207973568 0
v 0.0170688262 0.0207973568 0.0308178044
v 0.0252836201 -0.0426306155 -0.0308178044
v 0.0252836201 -0.0426306155 0.0308178044
v 0.0266056269 -0.0178948589 0
v 0.0266056269 -0.0178948589 0.0308178044
v 0.0266056269 0.0100325436 0
v 0.0266056269 0.0100325436 0.0308178044
v 0.0300473593 -0.00393115765 0
v 0.0300473593 -0.00393115765 0.0308178044
v 0.036479035 -0.0323242172 -0.0308178044
v 0.036479035 -0.0323242172 0.0308178044
v 0.0437219895 -0.0189409693 -0.0308178044
v 0.0437219895 -0.0189409693 0.0308178044
v 0.0462267066 -0.00393115765 -0.0308178044
v 0.0462267066 -0.00393115765 0.0308178044
v 0.0462267066 0.05 -0.0308178044
v 0.0462267066 0.05 0.0308178044
f 1 2 3
f 3 2 4
f 2 1 7
f 8 2 7
f 1 3 7
f 7 3 67
f 43 67 65
f 47 65 63
f 23 7 25
f 47 63 41
f 43 65 47
f 61 53 33
f 63 61 41
f 35 67 43
f 7 67 35
f 7 35 25
f 33 7 23
f 41 61 33
f 7 33 53
f 7 53 45
f 7 45 31
f 7 31 21
f 7 21 11
f 7 11 9
f 7 9 5
f 3 4 67
f 67 4 68
f 4 2 8
f 10 4 8
f 6 10 8
f 10 12 4
f 38 28 46
f 50 38 54
f 30 40 4
f 40 68 4
f 12 14 4
f 12 22 14
f 60 56 64
f 52 68 40
f 66 68 52
f 66 52 58
f 56 50 62
f 64 66 60
f 58 60 66
f 62 64 56
f 54 62 50
f 28 18 32
f 46 54 38
f 32 46 28
f 22 32 18
f 14 16 4
f 18 14 22
f 16 20 4
f 20 30 4
f 5 6 7
f 7 6 8
f 5 9 6
f 6 9 10
f 9 11 10
f 10 11 12
f 12 11 21
f 22 12 21
f 22 21 31
f 32 22 31
f 32 31 45
f 46 32 45
f 46 45 53
f 54 46 53
f 54 53 61
f 62 54 61
f 62 61 63
f 64 62 63
f 64 63 65
f 66 64 65
f 66 65 67
f 68 66 67
f 35 36 26
f 25 35 26
f 25 26 24
f 23 25 24
f 43 44 36
f 35 43 36
f 48 44 47
f 47 44 43
f 48 47 42
f 42 47 41
f 42 41 34
f 34 41 33
f 34 33 24
f 24 33 23
f 15 16 14
f 13 15 14
f 14 18 17
f 13 14 17
f 28 27 18
f 18 27 17
f 38 37 28
f 28 37 27
f 50 49 38
f 38 49 37
f 56 55 50
f 50 55 49
f 60 59 56
f 56 59 55
f 60 58 59
f 59 58 57
f 58 52 57
f 57 52 51
f 51 52 40
f 39 51 40
f 39 40 30
f 29 39 30
f 29 30 20
f 19 29 20
f 19 20 16
f 15 19 16
f 17 27 37
f 55 17 49
f 49 17 37
f 42 17 55
f 34 24 17
f 44 48 57
f 19 17 29
f 15 17 19
f 13 17 15
f 29 26 39
f 29 17 26
f 39 36 51
f 51 44 57
f 57 48 59
f 59 42 55
f 34 17 42
f 48 42 59
f 36 44 51
f 26 36 39
f 24 26 17
