# Converted from Thingi10K 693468.stl
# welded vertices: 132, faces: 260
v -0.0478260842 -0.05 -0.00652174189
v -0.0478260842 -0.05 -0.00478261035
v -0.0478260842 0.05 -0.00652173637
v -0.0478260842 0.05 -0.00478260483
v -0.0478228915 -0.0499968156 -0.00465355196
v -0.0478228915 0.0499968045 -0.00465354643
v -0.0478101012 -0.0499840225 -0.00451008064
v -0.0478101012 0.049984017 -0.00451007511
v -0.047804639 -0.0499785603 -0.00444880776
v -0.047804639 0.0499785548 -0.00444880776
v -0.0477694746 -0.0499433987 -0.00424210645
v -0.0477694746 0.0499433932 -0.00424210645
v -0.0477690019 -0.0499429233 -0.00424024886
v -0.0477690019 0.0499429178 -0.00424024886
v -0.0477158947 -0.0498898161 -0.00403243079
v -0.0477158947 0.0498898105 -0.00403242526
v -0.0476966277 -0.0498705546 -0.00397709556
v -0.0476966277 0.0498705435 -0.00397709003
v -0.0476416132 -0.0498155345 -0.00381906758
v -0.0476416132 0.049815529 -0.00381906205
v -0.0475981007 -0.0497720248 -0.00372266631
v -0.0475981007 0.0497720138 -0.00372266078
v -0.0475435478 -0.0497174691 -0.00360181781
v -0.0475435478 0.0497174636 -0.00360181228
v -0.0474739351 -0.0496478537 -0.00347977514
v -0.0474739351 0.0496478482 -0.00347976961
v -0.0474177734 -0.0495916947 -0.00338132278
v -0.0474177734 0.0495916837 -0.00338131725
v -0.0473250596 -0.049498981 -0.00325126372
v -0.0473250596 0.0494989754 -0.00325125819
v -0.0472596431 -0.0494335562 -0.0031595009
v -0.0472596431 0.0494335562 -0.00315949537
v -0.0471529643 -0.0493268773 -0.00303978574
v -0.0471529643 0.0493268773 -0.00303978022
v -0.0470641288 -0.0492380446 -0.00294010052
v -0.0470641288 0.0492380446 -0.00294009499
v -0.0469597803 -0.0491336988 -0.00284753606
v -0.0469597803 0.0491336933 -0.00284753053
v -0.0468265202 -0.0490004387 -0.00272932467
v -0.0468265202 0.0490004387 -0.00272931914
v -0.0467481862 -0.0489221103 -0.00267584151
v -0.0467481862 0.0489220992 -0.00267583598
v -0.046543677 -0.0487175983 -0.00253622359
v -0.046543677 0.0487175872 -0.00253621806
v -0.0465210182 -0.0486949423 -0.00252480714
v -0.0465210182 0.0486949313 -0.00252480714
v -0.0462771927 -0.0484511113 -0.00240197389
v -0.0462771927 0.0484511058 -0.00240196836
v -0.0462332712 -0.0484071925 -0.00237984312
v -0.0462332712 0.048407187 -0.00237984312
v -0.046021796 -0.0481957145 -0.00230662304
v -0.046021796 0.048195709 -0.00230661752
v -0.0459048313 -0.0480787526 -0.00226612091
v -0.0459048313 0.0480787471 -0.00226611538
v -0.0457586288 -0.0479325447 -0.00223648237
v -0.0457586288 0.0479325447 -0.00223648237
v -0.0455641899 -0.0477381057 -0.00219706936
v -0.0455641899 0.0477381001 -0.00219706383
v -0.0454897867 -0.0476637025 -0.0021920992
v -0.0454897867 0.0476637025 -0.0021920992
v -0.0452173896 -0.047391311 -0.00217391581
v -0.0452173896 0.0473912999 -0.00217391028
v -0.0360869532 -0.0260869621 -0.00217391581
v -0.0360869532 -0.0260869621 0.00652174189
v -0.0360869532 0.0356521717 -0.00217391028
v -0.0360869532 0.0356521717 0.00652174189
v 0.0360869449 -0.0260869621 -0.00217391581
v 0.0360869449 -0.0260869621 0.00652174189
v 0.0360869449 0.0356521717 -0.00217391028
v 0.0360869449 0.0356521717 0.00652174189
v 0.0452173841 -0.047391311 -0.00217391581
v 0.0452173841 0.0473912999 -0.00217391028
v 0.0454897867 -0.0476637025 -0.0021920992
v 0.0454897867 0.0476637025 -0.0021920992
v 0.0455642009 -0.0477381057 -0.00219706936
v 0.0455642009 0.0477381001 -0.00219706383
v 0.0457586288 -0.0479325447 -0.00223648237
v 0.0457586288 0.0479325447 -0.00223648237
v 0.0459048257 -0.0480787526 -0.00226612091
v 0.0459048257 0.0480787471 -0.00226611538
v 0.0460217877 -0.0481957145 -0.00230662304
v 0.0460217877 0.048195709 -0.00230661752
v 0.0462332656 -0.0484071925 -0.00237984312
v 0.0462332656 0.048407187 -0.00237984312
v 0.0462771844 -0.0484511113 -0.00240197389
v 0.0462771844 0.0484511058 -0.00240196836
v 0.0465210154 -0.0486949423 -0.00252480714
v 0.0465210154 0.0486949313 -0.00252480714
v 0.0465436825 -0.0487175983 -0.00253622359
v 0.0465436825 0.0487175872 -0.00253621806
v 0.0467481724 -0.0489221103 -0.00267584151
v 0.0467481724 0.0489220992 -0.00267583598
v 0.0468265229 -0.0490004387 -0.00272932467
v 0.0468265229 0.0490004387 -0.00272931914
v 0.046959783 -0.0491336988 -0.00284753606
v 0.046959783 0.0491336933 -0.00284753053
v 0.0470641178 -0.0492380446 -0.00294010052
v 0.0470641178 0.0492380446 -0.00294009499
v 0.0471529726 -0.0493268773 -0.00303978574
v 0.0471529726 0.0493268773 -0.00303978022
v 0.0472596514 -0.0494335562 -0.0031595009
v 0.0472596514 0.0494335562 -0.00315949537
v 0.0473250431 -0.049498981 -0.00325126372
v 0.0473250431 0.0494989754 -0.00325125819
v 0.0474177678 -0.0495916947 -0.00338132278
v 0.0474177678 0.0495916837 -0.00338131725
v 0.0474739379 -0.0496478537 -0.00347977514
v 0.0474739379 0.0496478482 -0.00347976961
v 0.0475435533 -0.0497174691 -0.00360181781
v 0.0475435533 0.0497174636 -0.00360181228
v 0.0475980869 -0.0497720248 -0.00372266631
v 0.0475980869 0.0497720138 -0.00372266078
v 0.0476416076 -0.0498155345 -0.00381906758
v 0.0476416076 0.049815529 -0.00381906205
v 0.0476966277 -0.0498705546 -0.00397709556
v 0.0476966277 0.0498705435 -0.00397709003
v 0.0477158892 -0.0498898161 -0.00403243079
v 0.0477158892 0.0498898105 -0.00403242526
v 0.0477690075 -0.0499429233 -0.00424024886
v 0.0477690075 0.0499429178 -0.00424024886
v 0.0477694719 -0.0499433987 -0.00424210645
v 0.0477694719 0.0499433932 -0.00424210645
v 0.0478046334 -0.0499785603 -0.00444880776
v 0.0478046334 0.0499785548 -0.00444880776
v 0.0478100956 -0.0499840225 -0.00451008064
v 0.0478100956 0.049984017 -0.00451007511
v 0.0478228776 -0.0499968156 -0.00465355196
v 0.0478228776 0.0499968045 -0.00465354643
v 0.0478260842 -0.05 -0.00652174189
v 0.0478260842 -0.05 -0.00478261035
v 0.0478260842 0.05 -0.00652173637
v 0.0478260842 0.05 -0.00478260483
f 98 100 36
f 102 104 32
f 132 4 6
f 132 6 128
f 128 6 8
f 128 8 126
f 120 122 12
f 8 10 126
f 126 10 12
f 126 12 124
f 124 12 122
f 12 14 120
f 120 14 16
f 120 16 118
f 118 16 18
f 118 18 116
f 116 18 20
f 116 20 114
f 114 20 22
f 114 22 112
f 112 22 24
f 112 24 110
f 110 24 26
f 110 26 108
f 108 26 28
f 108 28 106
f 106 28 104
f 104 28 30
f 104 30 32
f 102 32 100
f 100 32 34
f 100 34 36
f 98 36 96
f 96 36 38
f 96 38 94
f 94 38 40
f 94 40 92
f 40 42 92
f 92 42 44
f 92 44 90
f 90 44 88
f 44 46 88
f 88 46 48
f 88 48 86
f 86 48 50
f 86 50 84
f 84 50 82
f 50 52 82
f 82 52 54
f 82 54 80
f 80 54 78
f 54 56 78
f 78 56 58
f 78 58 76
f 76 58 74
f 58 60 74
f 74 60 62
f 74 62 72
f 121 124 122
f 121 122 119
f 121 123 124
f 124 123 125
f 124 125 126
f 126 125 127
f 126 127 128
f 128 127 130
f 128 130 132
f 122 120 119
f 119 120 118
f 119 118 117
f 117 118 116
f 117 116 115
f 115 116 114
f 115 114 113
f 113 114 112
f 113 112 111
f 111 112 110
f 111 110 109
f 109 110 108
f 109 108 107
f 107 108 106
f 107 106 105
f 105 106 103
f 106 104 103
f 103 104 102
f 103 102 101
f 101 102 99
f 102 100 99
f 99 100 98
f 99 98 97
f 97 98 95
f 98 96 95
f 95 96 94
f 95 94 93
f 93 94 91
f 94 92 91
f 91 92 90
f 91 90 89
f 89 90 87
f 90 88 87
f 87 88 86
f 87 86 85
f 85 86 84
f 85 84 83
f 83 84 81
f 84 82 81
f 81 82 80
f 81 80 79
f 79 80 77
f 80 78 77
f 77 78 76
f 77 76 75
f 75 76 73
f 76 74 73
f 73 74 72
f 73 72 71
f 39 37 93
f 35 33 97
f 31 29 101
f 11 123 121
f 11 121 13
f 11 9 123
f 123 9 7
f 123 7 125
f 125 7 5
f 125 5 127
f 127 5 2
f 127 2 130
f 121 119 13
f 13 119 117
f 13 117 15
f 15 117 115
f 15 115 17
f 17 115 113
f 17 113 19
f 19 113 111
f 19 111 21
f 21 111 109
f 21 109 23
f 23 109 107
f 23 107 25
f 25 107 105
f 25 105 27
f 27 105 29
f 29 105 103
f 29 103 101
f 31 101 33
f 33 101 99
f 33 99 97
f 35 97 37
f 37 97 95
f 37 95 93
f 39 93 41
f 41 93 91
f 41 91 43
f 43 91 89
f 43 89 45
f 89 87 45
f 45 87 85
f 45 85 47
f 47 85 83
f 47 83 49
f 49 83 51
f 83 81 51
f 51 81 79
f 51 79 53
f 53 79 55
f 79 77 55
f 55 77 75
f 55 75 57
f 57 75 59
f 75 73 59
f 59 73 71
f 59 71 61
f 62 60 61
f 61 60 59
f 59 60 57
f 57 60 58
f 57 58 55
f 55 58 56
f 55 56 53
f 53 56 54
f 53 54 51
f 51 54 52
f 51 52 49
f 49 52 50
f 49 50 47
f 50 48 47
f 47 48 46
f 47 46 45
f 45 46 43
f 43 46 44
f 43 44 41
f 41 44 42
f 41 42 39
f 39 42 40
f 39 40 37
f 37 40 38
f 37 38 35
f 35 38 36
f 35 36 33
f 33 36 34
f 33 34 31
f 31 34 32
f 31 32 29
f 29 32 30
f 29 30 27
f 27 30 28
f 27 28 25
f 25 28 26
f 25 26 23
f 23 26 24
f 23 24 21
f 21 24 22
f 21 22 19
f 19 22 20
f 19 20 17
f 17 20 18
f 17 18 15
f 15 18 16
f 15 16 13
f 13 16 14
f 13 14 11
f 11 14 12
f 11 12 9
f 9 12 10
f 9 10 8
f 4 2 6
f 6 2 5
f 6 5 8
f 8 5 7
f 8 7 9
f 4 3 2
f 2 3 1
f 2 1 130
f 130 1 129
f 130 129 132
f 132 129 131
f 132 131 4
f 4 131 3
f 67 71 69
f 69 71 72
f 69 72 65
f 65 72 62
f 65 62 63
f 63 62 61
f 63 61 67
f 67 61 71
f 131 129 3
f 3 129 1
f 64 66 63
f 63 66 65
f 68 64 67
f 67 64 63
f 70 68 69
f 69 68 67
f 66 70 65
f 65 70 69
f 68 70 64
f 64 70 66
