# Converted from Thingi10K 74458.stl
# welded vertices: 88, faces: 188
v -0.05 -0.05 -0.0433012762
v -0.05 0.05 -0.0433012762
v -0.0451887404 -0.0355662488 -0.0349679426
v -0.0451887404 0.0355662488 -0.0349679426
v -0.0355662488 -0.0451887404 -0.0349679426
v -0.0355662488 -0.0355662488 -0.0349679426
v -0.0355662488 0.0355662488 -0.0349679426
v -0.0355662488 0.0451887404 -0.0349679426
v -0.0104986881 1.01375244e-08 -0.0433012762
v -0.0104986881 1.01375244e-08 -0.0349679426
v -0.0102969603 -0.00204818338 -0.0433012762
v -0.0102969603 -0.00204818338 -0.0349679426
v -0.0102969565 0.00204820325 -0.0433012762
v -0.0102969565 0.00204820325 -0.0349679426
v -0.0096995265 -0.0040176661 -0.0433012762
v -0.0096995265 -0.0040176661 -0.0349679426
v -0.00969951836 0.00401768488 -0.0433012762
v -0.00969951836 0.00401768488 -0.0349679426
v -0.00962250665 -9.99612411e-18 0.0266346079
v -0.00872934431 -0.00583275245 -0.0433012762
v -0.00872934431 -0.00583275245 -0.0349679426
v -0.00872933305 0.00583276935 -0.0433012762
v -0.00872933305 0.00583276935 -0.0349679426
v -0.00742369842 -0.00742368903 -0.0433012762
v -0.00742369842 -0.00742368903 -0.0349679426
v -0.00742369341 -0.00742369341 -0.0349679426
v -0.00742369279 0.00742369279 -0.0433012762
v -0.00742368402 0.0074237028 -0.0433012762
v -0.00742368402 0.0074237028 -0.0349679426
v -0.00583276372 -0.00872933681 -0.0433012762
v -0.00583276372 -0.00872933681 -0.0349679426
v -0.00583274682 0.00872934807 -0.0433012762
v -0.00583274682 0.00872934807 -0.0349679426
v -0.00401767862 -0.00969952086 -0.0433012762
v -0.00401767862 -0.00969952086 -0.0349679426
v -0.00401765985 0.009699529 -0.0433012762
v -0.00401765985 0.009699529 -0.0349679426
v -0.00204819668 -0.0102969578 -0.0433012762
v -0.00204819668 -0.0102969578 -0.0349679426
v -0.00204817666 0.0102969616 -0.0433012762
v -0.00204817666 0.0102969616 -0.0349679426
v -3.42090691e-09 -0.0104986881 -0.0433012762
v -3.42090691e-09 -0.0104986881 -0.0349679426
v -5.82794262e-18 -0.00962250665 0.0266346079
v -5.82794262e-18 3.46293455e-18 0.0266346079
v -1.34590528e-17 2.68030192e-18 0.0433012762
v -5.82794262e-18 0.00962250665 0.0266346079
v 0 0.0104986881 -0.0433012762
v 0 0.0104986881 -0.0349679426
v 0.00204818995 -0.0102969591 -0.0433012762
v 0.00204818995 -0.0102969591 -0.0349679426
v 0.00204819246 0.0102969584 -0.0433012762
v 0.00204819246 0.0102969584 -0.0349679426
v 0.00401767236 -0.00969952399 -0.0433012762
v 0.00401767236 -0.00969952399 -0.0349679426
v 0.00401767424 0.00969952274 -0.0433012762
v 0.00401767424 0.00969952274 -0.0349679426
v 0.00583275808 -0.00872934056 -0.0433012762
v 0.00583275808 -0.00872934056 -0.0349679426
v 0.00583275871 0.00872933993 -0.0433012762
v 0.00583275871 0.00872933993 -0.0349679426
v 0.00742369341 -0.00742369341 -0.0433012762
v 0.00742369341 -0.00742369341 -0.0349679426
v 0.00742369341 0.00742369341 -0.0433012762
v 0.00742369341 0.00742369341 -0.0349679426
v 0.00872934056 -0.00583275808 -0.0433012762
v 0.00872934056 -0.00583275808 -0.0349679426
v 0.00872934056 0.00583275808 -0.0433012762
v 0.00872934056 0.00583275808 -0.0349679426
v 0.00962250665 -9.99612411e-18 0.0266346079
v 0.00969952274 0.00401767393 -0.0433012762
v 0.00969952274 0.00401767393 -0.0349679426
v 0.00969952337 -0.00401767236 -0.0433012762
v 0.00969952337 -0.00401767236 -0.0349679426
v 0.0102969584 0.00204819277 -0.0433012762
v 0.0102969584 0.00204819277 -0.0349679426
v 0.0102969591 -0.00204819121 -0.0433012762
v 0.0102969591 -0.00204819121 -0.0349679426
v 0.0104986881 7.92628916e-10 -0.0433012762
v 0.0104986881 7.92628916e-10 -0.0349679426
v 0.0355662488 -0.0451887404 -0.0349679426
v 0.0355662488 -0.0355662488 -0.0349679426
v 0.0355662488 0.0355662488 -0.0349679426
v 0.0355662488 0.0451887404 -0.0349679426
v 0.0451887404 -0.0355662488 -0.0349679426
v 0.0451887404 0.0355662488 -0.0349679426
v 0.05 -0.05 -0.0433012762
v 0.05 0.05 -0.0433012762
f 8 47 7
f 7 47 45
f 84 83 47
f 47 83 45
f 5 6 44
f 44 6 45
f 81 44 82
f 82 44 45
f 45 70 82
f 82 70 85
f 45 83 70
f 70 83 86
f 45 19 7
f 7 19 4
f 4 3 7
f 7 3 6
f 39 35 82
f 82 43 39
f 82 51 43
f 82 55 51
f 82 59 55
f 82 63 59
f 82 67 63
f 82 74 67
f 82 78 74
f 82 80 78
f 82 76 80
f 82 72 76
f 31 6 82
f 82 35 31
f 82 83 69
f 69 72 82
f 31 26 6
f 83 65 69
f 86 82 85
f 86 83 82
f 6 5 82
f 82 5 81
f 49 53 7
f 7 41 49
f 7 37 41
f 7 33 37
f 7 29 33
f 7 23 29
f 7 18 23
f 7 14 18
f 7 10 14
f 7 12 10
f 7 16 12
f 7 6 21
f 21 16 7
f 53 57 7
f 6 25 21
f 61 83 7
f 7 57 61
f 6 26 25
f 61 65 83
f 7 83 84
f 8 7 84
f 45 6 19
f 19 6 3
f 44 46 5
f 44 81 46
f 46 81 87
f 87 81 5
f 1 5 46
f 1 87 5
f 8 2 47
f 8 84 2
f 2 84 88
f 88 84 47
f 46 47 2
f 46 88 47
f 19 2 4
f 19 46 2
f 19 1 46
f 19 3 1
f 1 3 4
f 2 1 4
f 85 70 46
f 87 85 46
f 87 88 85
f 85 88 86
f 86 88 46
f 70 86 46
f 1 50 54
f 1 42 50
f 1 38 42
f 1 34 38
f 1 30 34
f 1 24 30
f 1 20 24
f 1 15 20
f 1 11 15
f 1 9 11
f 1 13 9
f 1 17 13
f 1 2 22
f 22 17 1
f 58 87 1
f 1 54 58
f 2 27 22
f 58 62 87
f 40 36 88
f 88 48 40
f 88 52 48
f 88 56 52
f 88 60 56
f 88 64 60
f 88 68 64
f 88 71 68
f 88 75 71
f 88 79 75
f 88 77 79
f 88 73 77
f 32 2 88
f 88 36 32
f 32 28 2
f 88 87 66
f 66 73 88
f 28 27 2
f 87 62 66
f 48 52 53
f 53 49 48
f 56 57 53
f 53 52 56
f 60 61 57
f 57 56 60
f 64 65 61
f 61 60 64
f 68 69 65
f 65 64 68
f 71 72 69
f 69 68 71
f 75 76 72
f 72 71 75
f 79 80 76
f 76 75 79
f 77 78 80
f 80 79 77
f 73 74 78
f 78 77 73
f 73 66 67
f 67 74 73
f 62 63 67
f 67 66 62
f 58 59 63
f 63 62 58
f 54 55 59
f 59 58 54
f 54 50 51
f 51 55 54
f 42 43 51
f 51 50 42
f 38 39 43
f 43 42 38
f 38 34 35
f 35 39 38
f 30 31 35
f 35 34 30
f 24 25 26
f 26 31 24
f 31 30 24
f 24 20 21
f 21 25 24
f 15 16 21
f 21 20 15
f 11 12 16
f 16 15 11
f 11 9 10
f 10 12 11
f 13 14 10
f 10 9 13
f 17 18 14
f 14 13 17
f 17 22 23
f 23 18 17
f 28 29 23
f 23 27 28
f 23 22 27
f 32 33 29
f 29 28 32
f 36 37 33
f 33 32 36
f 41 40 48
f 48 49 41
f 40 41 37
f 37 36 40
