# Converted from Thingi10K 76202.stl
# welded vertices: 151, faces: 298
v -0.00493875329 0.0450710008 -0.00123468832
v -0.00493875329 0.0450710008 0.00123468832
v -0.00489981122 0.0444520515 -0.00123468832
v -0.00489981122 0.0444520515 0.00123468832
v -0.00489981122 0.04568995 -0.00123468832
v -0.00489981122 0.04568995 0.00123468832
v -0.00478359 0.0438427328 -0.00123468832
v -0.00478359 0.0438427328 0.00123468832
v -0.00478359 0.0462992687 -0.00123468832
v -0.00478359 0.0462992687 0.00123468832
v -0.00459194168 0.0432529222 -0.00123468832
v -0.00459194168 0.0432529222 0.00123468832
v -0.00459194168 0.0468890793 -0.00123468832
v -0.00459194168 0.0468890793 0.00123468832
v -0.00432786655 0.0426917564 -0.00123468832
v -0.00432786655 0.0426917564 0.00123468832
v -0.00432786655 0.0474502451 -0.00123468832
v -0.00432786655 0.0474502451 0.00123468832
v -0.00399553784 0.042168125 -0.00123468832
v -0.00399553784 0.042168125 0.00123468832
v -0.00399553784 0.0479738765 -0.00123468832
v -0.00399553784 0.0479738765 0.00123468832
v -0.00360019064 0.0416901772 -0.00123468832
v -0.00360019064 0.0416901772 0.00123468832
v -0.00360019064 0.0484518243 -0.00123468832
v -0.00360019064 0.0484518243 0.00123468832
v -0.00314808481 0.0412655679 -0.00123468832
v -0.00314808481 0.0412655679 0.00123468832
v -0.00314808481 0.0488764336 -0.00123468832
v -0.00314808481 0.0488764336 0.00123468832
v -0.00264631983 0.0409010879 -0.00123468832
v -0.00264631983 0.0409010879 0.00123468832
v -0.00264631983 0.0492409136 -0.00123468832
v -0.00264631983 0.0492409136 0.00123468832
v -0.00210282237 0.0406022933 -0.00123468832
v -0.00210282237 0.0406022933 0.00123468832
v -0.00210282237 0.0495397082 -0.00123468832
v -0.00210282237 0.0495397082 0.00123468832
v -0.00152616119 0.0403739994 -0.00123468832
v -0.00152616119 0.0403739994 0.00123468832
v -0.00152616119 0.0497680021 -0.00123468832
v -0.00152616119 0.0497680021 0.00123468832
v -0.00123468832 -0.0493158592 0
v -0.00123468832 -0.0493104266 -0.000155976941
v -0.00123468832 -0.0493104266 0.000155978176
v -0.00123468832 -0.0492937583 -0.000317013635
v -0.00123468832 -0.0492937583 0.000317018573
v -0.00123468832 -0.0492642492 -0.000488847678
v -0.00123468832 -0.0492642492 0.000488850147
v -0.00123468832 -0.0492193066 -0.000678776078
v -0.00123468832 -0.0492193066 0.000678769905
v -0.00123468832 -0.0491544854 -0.000897054157
v -0.00123468832 -0.0491544854 0.000897050453
v -0.00123468832 -0.0490615134 -0.0011594495
v -0.00123468832 -0.0490615134 0.00115944642
v -0.00123468832 -0.0490311401 -0.00123468832
v -0.00123468832 -0.0490311401 0.00123468832
v -0.00123468832 0.0402991773 -0.00123468832
v -0.00123468832 0.0402991773 0.00123468832
v -0.00102142308 -0.0491121356 -0.00123468832
v -0.00102142308 -0.0491121356 0.00123468832
v -0.000925429764 0.0499222146 -0.00123468832
v -0.000925429764 0.0499222146 0.00123468832
v -0.000783556668 -0.0491897975 -0.00123468832
v -0.000783556668 -0.0491897975 0.00123468832
v -0.000580999875 -0.0492440003 -0.00123468832
v -0.000580999875 -0.0492440003 0.00123468832
v -0.000401174929 -0.0492806706 -0.00123468832
v -0.000401174929 -0.0492806706 0.00123468832
v -0.000310106788 0.05 -0.00123468832
v -0.000310106788 0.05 0.00123468832
v -0.000235529144 -0.0493036358 -0.00123468832
v -0.000235529144 -0.0493036358 0.00123468832
v -7.76800453e-05 -0.0493146245 -0.00123468832
v -7.76800453e-05 -0.0493146245 0.00123468832
v 0 -0.05 0
v 7.76800453e-05 -0.0493146245 -0.00123468832
v 7.76800453e-05 -0.0493146245 0.00123468832
v 0.000235529144 -0.0493036358 -0.00123468832
v 0.000235529144 -0.0493036358 0.00123468832
v 0.000310106788 0.05 -0.00123468832
v 0.000310106788 0.05 0.00123468832
v 0.000401174929 -0.0492806706 -0.00123468832
v 0.000401174929 -0.0492806706 0.00123468832
v 0.000580999875 -0.0492440003 -0.00123468832
v 0.000580999875 -0.0492440003 0.00123468832
v 0.000783556668 -0.0491897975 -0.00123468832
v 0.000783556668 -0.0491897975 0.00123468832
v 0.000925429764 0.0499222146 -0.00123468832
v 0.000925429764 0.0499222146 0.00123468832
v 0.00102142308 -0.0491121356 -0.00123468832
v 0.00102142308 -0.0491121356 0.00123468832
v 0.00123468832 -0.0493158592 0
v 0.00123468832 -0.0493104266 -0.000155976941
v 0.00123468832 -0.0493104266 0.000155978176
v 0.00123468832 -0.0492937583 -0.000317013635
v 0.00123468832 -0.0492937583 0.000317018573
v 0.00123468832 -0.0492642492 -0.000488847678
v 0.00123468832 -0.0492642492 0.000488850147
v 0.00123468832 -0.0492193066 -0.000678776078
v 0.00123468832 -0.0492193066 0.000678769905
v 0.00123468832 -0.0491544854 -0.000897054157
v 0.00123468832 -0.0491544854 0.000897050453
v 0.00123468832 -0.0490615134 -0.0011594495
v 0.00123468832 -0.0490615134 0.00115944642
v 0.00123468832 -0.0490311401 -0.00123468832
v 0.00123468832 -0.0490311401 0.00123468832
v 0.00123468832 0.0402991773 -0.00123468832
v 0.00123468832 0.0402991773 0.00123468832
v 0.00152616119 0.0403739994 -0.00123468832
v 0.00152616119 0.0403739994 0.00123468832
v 0.00152616119 0.0497680021 -0.00123468832
v 0.00152616119 0.0497680021 0.00123468832
v 0.00210282237 0.0406022933 -0.00123468832
v 0.00210282237 0.0406022933 0.00123468832
v 0.00210282237 0.0495397082 -0.00123468832
v 0.00210282237 0.0495397082 0.00123468832
v 0.00264631983 0.0409010879 -0.00123468832
v 0.00264631983 0.0409010879 0.00123468832
v 0.00264631983 0.0492409136 -0.00123468832
v 0.00264631983 0.0492409136 0.00123468832
v 0.00314808481 0.0412655679 -0.00123468832
v 0.00314808481 0.0412655679 0.00123468832
v 0.00314808481 0.0488764336 -0.00123468832
v 0.00314808481 0.0488764336 0.00123468832
v 0.00360019064 0.0416901772 -0.00123468832
v 0.00360019064 0.0416901772 0.00123468832
v 0.00360019064 0.0484518243 -0.00123468832
v 0.00360019064 0.0484518243 0.00123468832
v 0.00399553784 0.042168125 -0.00123468832
v 0.00399553784 0.042168125 0.00123468832
v 0.00399553784 0.0479738765 -0.00123468832
v 0.00399553784 0.0479738765 0.00123468832
v 0.00432786655 0.0426917564 -0.00123468832
v 0.00432786655 0.0426917564 0.00123468832
v 0.00432786655 0.0474502451 -0.00123468832
v 0.00432786655 0.0474502451 0.00123468832
v 0.00459194168 0.0432529222 -0.00123468832
v 0.00459194168 0.0432529222 0.00123468832
v 0.00459194168 0.0468890793 -0.00123468832
v 0.00459194168 0.0468890793 0.00123468832
v 0.00478359 0.0438427328 -0.00123468832
v 0.00478359 0.0438427328 0.00123468832
v 0.00478359 0.0462992687 -0.00123468832
v 0.00478359 0.0462992687 0.00123468832
v 0.00489981122 0.0444520515 -0.00123468832
v 0.00489981122 0.0444520515 0.00123468832
v 0.00489981122 0.04568995 -0.00123468832
v 0.00489981122 0.04568995 0.00123468832
v 0.00493875329 0.0450710008 -0.00123468832
v 0.00493875329 0.0450710008 0.00123468832
f 1 5 3
f 3 5 9
f 3 9 13
f 3 13 17
f 3 17 21
f 3 21 25
f 3 25 29
f 3 29 33
f 3 33 37
f 3 37 41
f 3 41 62
f 3 62 70
f 3 70 81
f 3 81 89
f 3 89 112
f 3 112 116
f 3 116 120
f 3 120 124
f 3 124 128
f 3 128 132
f 3 132 136
f 3 136 140
f 3 140 144
f 3 144 148
f 3 148 150
f 3 150 146
f 3 146 142
f 3 142 138
f 3 138 134
f 3 134 130
f 3 130 126
f 3 126 122
f 3 122 118
f 3 118 114
f 3 114 110
f 3 110 108
f 58 108 106
f 3 108 58
f 3 58 39
f 3 39 35
f 3 35 31
f 3 31 27
f 3 27 23
f 3 23 19
f 3 19 15
f 3 15 11
f 3 11 7
f 58 106 91
f 58 91 87
f 58 87 85
f 58 85 83
f 58 83 79
f 58 79 77
f 58 77 74
f 58 74 72
f 58 72 68
f 58 68 66
f 58 66 64
f 58 64 60
f 58 60 56
f 1 2 5
f 5 2 6
f 1 3 2
f 2 3 4
f 3 7 4
f 4 7 8
f 7 11 8
f 8 11 12
f 11 15 12
f 12 15 16
f 15 19 16
f 16 19 20
f 19 23 20
f 20 23 24
f 24 23 27
f 28 24 27
f 28 27 31
f 32 28 31
f 32 31 35
f 36 32 35
f 36 35 39
f 40 36 39
f 40 39 58
f 59 40 58
f 43 45 44
f 44 45 47
f 44 47 49
f 44 49 51
f 44 51 53
f 44 53 55
f 44 55 57
f 44 57 59
f 44 59 58
f 44 58 56
f 44 56 54
f 44 54 52
f 44 52 50
f 44 50 48
f 44 48 46
f 76 54 56
f 60 76 56
f 76 60 64
f 76 64 66
f 76 66 68
f 76 68 72
f 76 72 74
f 76 74 77
f 79 76 77
f 83 76 79
f 85 76 83
f 87 76 85
f 91 76 87
f 104 76 91
f 106 104 91
f 95 93 94
f 98 95 96
f 96 95 94
f 100 95 98
f 102 95 100
f 104 95 102
f 106 95 104
f 108 95 106
f 109 95 108
f 107 95 109
f 105 95 107
f 103 95 105
f 101 95 103
f 99 95 101
f 97 95 99
f 109 108 110
f 111 109 110
f 111 110 114
f 115 111 114
f 115 114 118
f 119 115 118
f 119 118 122
f 123 119 122
f 123 122 126
f 127 123 126
f 127 126 130
f 131 127 130
f 131 130 134
f 135 131 134
f 135 134 138
f 139 135 138
f 139 138 142
f 143 139 142
f 143 142 146
f 147 143 146
f 147 146 150
f 151 147 150
f 150 148 149
f 151 150 149
f 148 144 145
f 149 148 145
f 144 140 141
f 145 144 141
f 140 136 137
f 141 140 137
f 136 132 133
f 137 136 133
f 132 128 129
f 133 132 129
f 124 125 128
f 128 125 129
f 120 121 124
f 124 121 125
f 116 117 120
f 120 117 121
f 112 113 116
f 116 113 117
f 89 90 112
f 112 90 113
f 81 82 89
f 89 82 90
f 70 71 81
f 81 71 82
f 62 63 70
f 70 63 71
f 41 42 62
f 62 42 63
f 37 38 41
f 41 38 42
f 33 34 37
f 37 34 38
f 29 30 33
f 33 30 34
f 25 26 29
f 29 26 30
f 21 22 25
f 25 22 26
f 17 18 21
f 21 18 22
f 13 14 17
f 17 14 18
f 9 10 13
f 13 10 14
f 5 6 9
f 9 6 10
f 6 2 4
f 12 6 8
f 8 6 4
f 16 6 12
f 20 6 16
f 24 6 20
f 28 6 24
f 32 6 28
f 36 6 32
f 40 6 36
f 59 6 40
f 109 6 59
f 61 59 57
f 65 59 61
f 67 59 65
f 69 59 67
f 73 59 69
f 75 59 73
f 78 59 75
f 80 59 78
f 84 59 80
f 86 59 84
f 88 59 86
f 92 59 88
f 107 59 92
f 109 59 107
f 111 6 109
f 115 6 111
f 119 6 115
f 123 6 119
f 127 6 123
f 131 6 127
f 135 6 131
f 139 6 135
f 143 6 139
f 147 6 143
f 151 6 147
f 149 6 151
f 145 6 149
f 141 6 145
f 137 6 141
f 133 6 137
f 129 6 133
f 125 6 129
f 121 6 125
f 117 6 121
f 113 6 117
f 90 6 113
f 82 6 90
f 71 6 82
f 63 6 71
f 42 6 63
f 38 6 42
f 34 6 38
f 30 6 34
f 26 6 30
f 22 6 26
f 18 6 22
f 14 6 18
f 10 6 14
f 76 44 46
f 76 43 44
f 76 46 48
f 76 48 50
f 76 50 52
f 76 52 54
f 57 55 76
f 61 57 76
f 55 53 76
f 53 51 76
f 51 49 76
f 49 47 76
f 47 45 76
f 45 43 76
f 65 61 76
f 67 65 76
f 69 67 76
f 73 69 76
f 75 73 76
f 78 75 76
f 78 76 80
f 80 76 84
f 84 76 86
f 86 76 88
f 88 76 92
f 92 76 105
f 107 92 105
f 105 76 103
f 103 76 101
f 101 76 99
f 99 76 97
f 97 76 95
f 95 76 93
f 93 76 94
f 94 76 96
f 96 76 98
f 98 76 100
f 100 76 102
f 102 76 104
