# Converted from Thingi10K 79184.stl
# welded vertices: 100, faces: 200
v -0.0499999527 -2.23932633e-16 -0.0200757937
v -0.0499999527 -2.23932633e-16 0.0135941433
v -0.0475528038 -0.0154508136 -0.0200757937
v -0.0475528038 -0.0154508136 0.0135941433
v -0.0475527881 0.0154509349 -0.0200757937
v -0.0475527881 0.0154509349 0.0135941433
v -0.0404508293 -0.0293892189 -0.0200757937
v -0.0404508293 -0.0293892189 0.0135941433
v -0.0404508293 0.0293892189 -0.0200757937
v -0.0404508293 0.0293892189 0.0135941433
v -0.0353570527 -2.23932633e-16 0.0200757937
v -0.0336265557 -0.0109258627 0.0200757937
v -0.0336265399 0.0109258627 0.0200757937
v -0.0293892347 -0.0404508136 -0.0200757937
v -0.0293892347 -0.0404508136 0.0135941433
v -0.0293892347 0.0404508136 -0.0200757937
v -0.0293892347 0.0404508136 0.0135941433
v -0.0286044616 -0.0207823369 0.0200757937
v -0.0286044616 0.0207823369 0.0200757937
v -0.0249999921 -2.23932633e-16 -0.0200757937
v -0.0249999921 -2.23932633e-16 0.0200757937
v -0.0237764098 -0.00772528623 -0.0200757937
v -0.0237764098 -0.00772528623 0.0200757937
v -0.0237764098 0.00772540757 -0.0200757937
v -0.0237764098 0.00772540757 0.0200757937
v -0.0207823685 -0.0286044143 0.0200757937
v -0.0207823685 0.0286045246 0.0200757937
v -0.0202254225 -0.0146944913 -0.0200757937
v -0.0202254225 -0.0146944913 0.0200757937
v -0.0202254225 0.014694611 -0.0200757937
v -0.0202254225 0.014694611 0.0200757937
v -0.0154508514 -0.0475527408 -0.0200757937
v -0.0154508514 -0.0475527408 0.0135941433
v -0.0154508372 0.0475528668 -0.0200757937
v -0.0154508372 0.0475528668 0.0135941433
v -0.0146946347 -0.0202253437 -0.0200757937
v -0.0146946347 -0.0202253437 0.0200757937
v -0.0146946347 0.0202254698 -0.0200757937
v -0.0146946347 0.0202254698 0.0200757937
v -0.0109259447 -0.0336264769 0.0200757937
v -0.0109259447 0.0336266029 0.0200757937
v -0.00772541387 -0.0237762522 -0.0200757937
v -0.00772541387 -0.0237762522 0.0200757937
v -0.00772541387 0.0237763783 -0.0200757937
v -0.00772541387 0.0237763783 0.0200757937
v -7.51393547e-09 -0.05 -0.0200757937
v -7.51393547e-09 -0.05 0.0135941433
v -7.51393547e-09 -0.0353569739 0.0200757937
v -7.51393547e-09 -0.0249998818 -0.0200757937
v -7.51393547e-09 -0.0249998818 0.0200757937
v -7.51393547e-09 0.0249998818 -0.0200757937
v -7.51393547e-09 0.0249998818 0.0200757937
v -7.51393547e-09 0.0353569739 0.0200757937
v -7.51393547e-09 0.05 -0.0200757937
v -7.51393547e-09 0.05 0.0135941433
v 0.00772541387 -0.0237762522 -0.0200757937
v 0.00772541387 -0.0237762522 0.0200757937
v 0.00772541387 0.0237763783 -0.0200757937
v 0.00772541387 0.0237763783 0.0200757937
v 0.0109259147 -0.0336264769 0.0200757937
v 0.0109259147 0.0336266029 0.0200757937
v 0.0146946047 -0.0202253437 -0.0200757937
v 0.0146946047 -0.0202253437 0.0200757937
v 0.0146946047 0.0202254698 -0.0200757937
v 0.0146946047 0.0202254698 0.0200757937
v 0.0154508214 -0.0475527408 -0.0200757937
v 0.0154508214 -0.0475527408 0.0135941433
v 0.0154508214 0.0475528668 -0.0200757937
v 0.0154508214 0.0475528668 0.0135941433
v 0.0202254068 -0.0146944913 -0.0200757937
v 0.0202254068 -0.0146944913 0.0200757937
v 0.0202254068 0.014694611 -0.0200757937
v 0.0202254068 0.014694611 0.0200757937
v 0.0207823369 -0.0286044143 0.0200757937
v 0.0207823369 0.0286045246 0.0200757937
v 0.0237763783 -0.00772528623 -0.0200757937
v 0.0237763783 -0.00772528623 0.0200757937
v 0.0237763783 0.00772540757 -0.0200757937
v 0.0237763783 0.00772540757 0.0200757937
v 0.0249999606 -2.23932633e-16 -0.0200757937
v 0.0249999606 -2.23932633e-16 0.0200757937
v 0.02860443 -0.0207823369 0.0200757937
v 0.02860443 0.0207823369 0.0200757937
v 0.0293892347 -0.0404508136 -0.0200757937
v 0.0293892347 -0.0404508136 0.0135941433
v 0.0293892347 0.0404508136 -0.0200757937
v 0.0293892347 0.0404508136 0.0135941433
v 0.0336265399 -0.0109258627 0.0200757937
v 0.0336265399 0.0109258627 0.0200757937
v 0.0353570212 -2.23932633e-16 0.0200757937
v 0.0404507978 -0.0293892189 -0.0200757937
v 0.0404507978 -0.0293892189 0.0135941433
v 0.0404507978 0.0293892189 -0.0200757937
v 0.0404507978 0.0293892189 0.0135941433
v 0.0475527723 -0.0154508136 -0.0200757937
v 0.0475527723 -0.0154508136 0.0135941433
v 0.0475527723 0.0154509349 -0.0200757937
v 0.0475527723 0.0154509349 0.0135941433
v 0.0499999527 -2.23932633e-16 -0.0200757937
v 0.0499999527 -2.23932633e-16 0.0135941433
f 56 49 57
f 57 49 50
f 62 56 63
f 63 56 57
f 70 62 71
f 71 62 63
f 76 70 77
f 77 70 71
f 80 76 81
f 81 76 77
f 78 80 79
f 79 80 81
f 72 78 73
f 73 78 79
f 64 72 65
f 65 72 73
f 58 64 59
f 59 64 65
f 51 58 52
f 52 58 59
f 44 51 45
f 45 51 52
f 38 44 39
f 39 44 45
f 30 38 31
f 31 38 39
f 24 30 25
f 25 30 31
f 20 24 21
f 21 24 25
f 22 20 23
f 23 20 21
f 28 22 29
f 29 22 23
f 36 28 37
f 37 28 29
f 42 36 43
f 43 36 37
f 49 42 50
f 50 42 43
f 57 50 60
f 60 50 48
f 63 57 74
f 74 57 60
f 71 63 82
f 82 63 74
f 77 71 88
f 88 71 82
f 81 77 90
f 90 77 88
f 79 81 89
f 89 81 90
f 73 79 83
f 83 79 89
f 65 73 75
f 75 73 83
f 59 65 61
f 61 65 75
f 52 59 53
f 53 59 61
f 45 52 41
f 41 52 53
f 39 45 27
f 27 45 41
f 31 39 19
f 19 39 27
f 25 31 13
f 13 31 19
f 21 25 11
f 11 25 13
f 23 21 12
f 12 21 11
f 29 23 18
f 18 23 12
f 37 29 26
f 26 29 18
f 43 37 40
f 40 37 26
f 50 43 48
f 48 43 40
f 60 48 67
f 67 48 47
f 74 60 85
f 85 60 67
f 82 74 92
f 92 74 85
f 88 82 96
f 96 82 92
f 90 88 100
f 100 88 96
f 89 90 98
f 98 90 100
f 83 89 94
f 94 89 98
f 75 83 87
f 87 83 94
f 61 75 69
f 69 75 87
f 53 61 55
f 55 61 69
f 41 53 35
f 35 53 55
f 27 41 17
f 17 41 35
f 19 27 10
f 10 27 17
f 13 19 6
f 6 19 10
f 11 13 2
f 2 13 6
f 12 11 4
f 4 11 2
f 18 12 8
f 8 12 4
f 26 18 15
f 15 18 8
f 40 26 33
f 33 26 15
f 48 40 47
f 47 40 33
f 66 46 56
f 56 46 49
f 84 66 62
f 62 66 56
f 91 84 70
f 70 84 62
f 95 91 76
f 76 91 70
f 99 95 80
f 80 95 76
f 97 99 78
f 78 99 80
f 93 97 72
f 72 97 78
f 86 93 64
f 64 93 72
f 68 86 58
f 58 86 64
f 54 68 51
f 51 68 58
f 34 54 44
f 44 54 51
f 16 34 38
f 38 34 44
f 9 16 30
f 30 16 38
f 5 9 24
f 24 9 30
f 1 5 20
f 20 5 24
f 3 1 22
f 22 1 20
f 7 3 28
f 28 3 22
f 14 7 36
f 36 7 28
f 32 14 42
f 42 14 36
f 46 32 49
f 49 32 42
f 94 98 93
f 93 98 97
f 87 94 86
f 86 94 93
f 69 87 68
f 68 87 86
f 55 69 54
f 54 69 68
f 35 55 34
f 34 55 54
f 17 35 16
f 16 35 34
f 10 17 9
f 9 17 16
f 6 10 5
f 5 10 9
f 2 6 1
f 1 6 5
f 4 2 3
f 3 2 1
f 8 4 7
f 7 4 3
f 15 8 14
f 14 8 7
f 33 15 32
f 32 15 14
f 47 33 46
f 46 33 32
f 67 47 66
f 66 47 46
f 85 67 84
f 84 67 66
f 92 85 91
f 91 85 84
f 96 92 95
f 95 92 91
f 100 96 99
f 99 96 95
f 98 100 97
f 97 100 99
