# Converted from Thingi10K 89913.stl
# welded vertices: 72, faces: 140
v -0.0459864621 3.65467571e-09 -0.0498949226
v -0.0306718115 3.65467571e-09 -0.0498949226
v -0.021460349 -0.0217428942 -0.0209282277
v -0.0214603369 0.0217428942 -0.0209282277
v -0.01958905 -0.0202083706 -0.021739412
v -0.01958905 0.0202083706 -0.021739412
v -0.0153429908 -0.0143649034 -0.0498949226
v -0.0153429908 0.0156243652 -0.0498949226
v -0.0153288207 -0.0459864621 -0.0498949226
v -0.0153288207 -0.0229932431 -0.0498949226
v -0.0153288207 0.0229932311 -0.0498949226
v -0.0153288207 0.0459864621 -0.0498949226
v -0.0130861056 -0.0164944146 -0.0454390048
v -0.0130861056 0.0164944025 -0.0454390048
v -0.0128839342 -0.0187190127 -0.0498949226
v -0.0128839221 -8.40538865e-05 -0.0498949226
v -0.0128839221 0.018260693 -0.0498949226
v -0.0116159932 -0.0153303053 -0.045820976
v -0.0116159908 0.0153303053 -0.045820976
v -0.0107301721 -0.0108714435 0.0304350416
v -0.0107301721 -3.65467571e-09 0.0304350416
v -0.0107301709 0.0108714435 0.0304350416
v -0.00971589781 -0.0101041949 0.0259988567
v -0.0097158966 -3.65467571e-09 0.0259988567
v -0.0097158954 0.0101041805 0.0259988567
v -0.00696218983 -0.0266709772 -0.0498949226
v -0.00659073871 0.028647333 -0.05
v -5.5694337e-09 -0.0374636499 -0.0322547295
v -5.48177337e-09 -0.036302546 -0.0498949226
v -4.48062274e-09 -0.0296601576 -0.0457802243
v -3.47188133e-09 -0.0459864621 -0.0498949226
v -3.24155071e-09 -0.018731831 0.0207411919
v -2.58636795e-09 -0.0403084376 -0.0322420319
v -2.40931886e-09 -0.0319123959 -0.0454390048
v -1.52160151e-09 -0.0201542128 0.0247781395
v 6.45077451e-18 -3.65467571e-09 0.0419388146
v 6.45065743e-18 -3.65467571e-09 0.05
v 1.52160151e-09 0.0201542248 0.0247781395
v 2.40931886e-09 0.0319123959 -0.0454390048
v 2.58636795e-09 0.0403084376 -0.0322420319
v 3.24155071e-09 0.0187318189 0.0207411919
v 3.47188133e-09 0.0459864621 -0.0498949226
v 4.48062395e-09 0.0296601576 -0.0457802243
v 5.49944134e-09 0.0364183812 -0.0498949226
v 5.5694337e-09 0.0374636499 -0.0322547295
v 0.00659074354 0.028647333 -0.05
v 0.00696218621 -0.0266709772 -0.0498949226
v 0.0097158954 -0.0101041949 0.0259988567
v 0.0097158966 -3.65467571e-09 0.0259988567
v 0.00971589781 0.0101041805 0.0259988567
v 0.0107301709 -0.0108714435 0.0304350416
v 0.0107301721 -3.65467571e-09 0.0304350416
v 0.0107301721 0.0108714362 0.0304350416
v 0.0116159908 -0.0153303053 -0.045820976
v 0.0116159932 0.0153303053 -0.045820976
v 0.0128839221 -0.0187190127 -0.0498949226
v 0.0128839221 -8.40538865e-05 -0.0498949226
v 0.0128839342 0.018260693 -0.0498949226
v 0.0130861056 -0.0164944146 -0.0454390048
v 0.0130861056 0.0164944025 -0.0454390048
v 0.0153288207 -0.0459864621 -0.0498949226
v 0.0153288207 -0.0229932431 -0.0498949226
v 0.0153288207 0.0229932311 -0.0498949226
v 0.0153288207 0.0459864621 -0.0498949226
v 0.0153429908 -0.0143649034 -0.0498949226
v 0.0153429908 0.0156243652 -0.0498949226
v 0.01958905 -0.0202083826 -0.021739412
v 0.01958905 0.0202083706 -0.021739412
v 0.0214603369 -0.0217428942 -0.0209282277
v 0.021460349 0.0217428942 -0.0209282277
v 0.0306718115 -3.65467571e-09 -0.0498949226
v 0.0459864621 -3.65467571e-09 -0.0498949226
f 37 53 38
f 37 35 51
f 37 52 53
f 37 51 52
f 31 61 59
f 60 64 39
f 39 64 42
f 52 69 70
f 52 51 69
f 71 65 57
f 71 57 66
f 29 61 31
f 72 71 66
f 70 69 59
f 53 52 70
f 43 44 46
f 68 45 43
f 43 55 68
f 58 55 43
f 43 46 58
f 66 58 46
f 46 63 66
f 67 54 30
f 30 28 67
f 51 35 33
f 51 33 69
f 72 66 63
f 55 57 54
f 71 72 65
f 58 66 57
f 64 63 46
f 30 54 56
f 56 47 30
f 59 62 72
f 38 53 70
f 70 40 38
f 70 60 39
f 39 40 70
f 36 41 50
f 36 48 32
f 36 50 49
f 36 49 48
f 49 68 67
f 49 67 48
f 68 54 67
f 50 68 49
f 48 28 32
f 48 67 28
f 41 45 68
f 68 50 41
f 34 31 59
f 62 59 61
f 69 33 34
f 34 59 69
f 63 64 60
f 60 72 63
f 70 59 60
f 60 59 72
f 68 55 54
f 47 29 30
f 61 29 47
f 55 58 57
f 54 57 56
f 61 47 56
f 61 56 62
f 42 64 44
f 44 64 46
f 72 62 65
f 56 65 62
f 56 57 65
f 37 38 22
f 37 20 35
f 37 22 21
f 37 21 20
f 31 13 9
f 39 12 14
f 39 42 12
f 21 4 3
f 21 3 20
f 2 16 7
f 2 8 16
f 29 31 9
f 1 8 2
f 4 13 3
f 22 4 21
f 43 27 44
f 6 19 43
f 43 45 6
f 17 27 43
f 43 19 17
f 8 11 27
f 27 17 8
f 5 28 30
f 30 18 5
f 20 33 35
f 20 3 33
f 1 11 8
f 19 18 16
f 2 7 1
f 17 16 8
f 12 27 11
f 30 26 15
f 15 18 30
f 13 1 10
f 38 40 4
f 4 22 38
f 4 40 39
f 39 14 4
f 36 25 41
f 36 32 23
f 36 24 25
f 36 23 24
f 24 5 6
f 24 23 5
f 6 5 18
f 25 24 6
f 23 32 28
f 23 28 5
f 41 25 6
f 6 45 41
f 34 13 31
f 10 9 13
f 3 13 34
f 34 33 3
f 14 12 11
f 14 11 1
f 4 14 13
f 14 1 13
f 6 18 19
f 26 30 29
f 9 26 29
f 19 16 17
f 18 15 16
f 9 15 26
f 9 10 15
f 44 12 42
f 27 12 44
f 1 7 10
f 15 10 7
f 15 7 16
