# Converted from Thingi10K 94733.stl
# welded vertices: 118, faces: 232
v -0.05 -0.0367623198 -0.0231258063
v -0.05 0.0367623198 -0.0231258063
v -0.0488086036 -0.0311423784 -0.0163690495
v -0.0488086036 0.0311423784 -0.0163690495
v -0.0464565766 -0.0401434099 -0.00303008108
v -0.0464565766 -0.0337837838 -0.00303008108
v -0.0464565766 -0.0333866532 -0.00303008108
v -0.0464565766 0.0333866532 -0.00303008108
v -0.0464565766 0.0337837838 -0.00303008108
v -0.0464565766 0.0401434099 -0.00303008108
v -0.0333333333 -0.0185810811 -0.0231258063
v -0.0333333333 -0.0185810811 -0.021774455
v -0.0333333333 0.0185810811 -0.0231258063
v -0.0333333333 0.0185810811 -0.021774455
v -0.00675675676 -0.0185810811 -0.0231258063
v -0.00675675676 -0.0185810811 -0.021774455
v -0.00675675676 0.0185810811 -0.0231258063
v -0.00675675676 0.0185810811 -0.021774455
v 0.0178642342 -0.0401434099 0.00831141441
v 0.0178642342 -0.0333866532 0.00831141441
v 0.0178642342 0.0333866532 0.00831141441
v 0.0178642342 0.0401434099 0.00831141441
v 0.0181489279 -0.0333871982 0.00836476577
v 0.0181489279 0.0333871982 0.00836476577
v 0.0184684685 -0.0290824324 -0.0163690495
v 0.0184684685 0.0290824324 -0.0163690495
v 0.0186674234 -0.0401477973 0.00847832432
v 0.0190187072 0.0401525315 0.00856751802
v 0.0193839685 -0.0334025631 0.00867101802
v 0.0193839685 0.0334025631 0.00867101802
v 0.0198055766 -0.0401695811 0.00880445946
v 0.0201461036 0.0401798243 0.00892348198
v 0.0205843243 -0.0334389009 0.00909192342
v 0.0205843243 0.0334389009 0.00909192342
v 0.0209103784 -0.0402094369 0.00922877477
v 0.0212375721 0.0402250495 0.00937638288
v 0.0217391216 -0.0334958423 0.00962347297
v 0.0217391216 0.0334958423 0.00962347297
v 0.0219731802 -0.0402670225 0.00974778378
v 0.0222846126 0.0402878198 0.0099224955
v 0.022837982 -0.0335728333 0.0102606081
v 0.022837982 0.0335728333 0.0102606081
v 0.0229857342 -0.0403418423 0.0103571982
v 0.0231995991 -0.0345210315 -0.0231258063
v 0.0231995991 0.0345210315 -0.0231258063
v 0.0232791441 0.0403676126 0.0105573468
v 0.0238711351 -0.0336691216 0.0109972883
v 0.0238711351 0.0336691216 0.0109972883
v 0.0239402613 -0.0404332658 0.0110520135
v 0.0242135721 0.0404637477 0.0112757523
v 0.024829527 -0.0405405405 0.0118265811
v 0.024829527 -0.0337837838 0.0118265811
v 0.024829527 0.0337837838 0.0118265811
v 0.024829527 0.0405405405 0.0118265811
v 0.025692527 -0.0405405405 0.0127265586
v 0.025692527 0.0405405405 0.0127265586
v 0.0256947973 -0.0339140225 0.0127291577
v 0.0256947973 0.0339140225 0.0127291577
v 0.0264689009 -0.0405405405 0.0137022477
v 0.0264689009 0.0405405405 0.0137022477
v 0.0264719324 -0.0340599324 0.0137064505
v 0.0264719324 0.0340599324 0.0137064505
v 0.0271520405 -0.0405405405 0.0147453423
v 0.0271520405 0.0405405405 0.0147453423
v 0.0271546622 -0.0342202027 0.0147497928
v 0.0271546622 0.0342202027 0.0147497928
v 0.0277361261 -0.0405405405 0.015846964
v 0.0277361261 0.0405405405 0.015846964
v 0.0277375811 -0.0343934099 0.0158500495
v 0.0277375811 0.0343934099 0.0158500495
v 0.0282161892 -0.0405405405 0.0169977342
v 0.0282161892 -0.0345780495 0.0169977342
v 0.0282161892 0.0345780495 0.0169977342
v 0.0282161892 0.0405405405 0.0169977342
v 0.0291056712 -0.0405405405 0.0194415676
v 0.0291056712 -0.0349751847 0.0194415676
v 0.0291056712 0.0349751847 0.0194415676
v 0.0291056712 0.0405405405 0.0194415676
v 0.0316668378 -0.0349751847 0.0198931757
v 0.0316668378 0.0349751847 0.0198931757
v 0.0340134324 -0.0393491441 0.00658495946
v 0.0340134324 0.0393491441 0.00658495946
v 0.034438527 -0.0395154955 0.00761790991
v 0.034438527 0.0395154955 0.00761790991
v 0.0349481396 -0.0396727568 0.00861338739
v 0.0349481396 0.0396727568 0.00861338739
v 0.0355390991 -0.0398198153 0.00956447297
v 0.0355390991 0.0398198153 0.00956447297
v 0.0362076577 -0.0399556306 0.010464473
v 0.0362076577 0.0399556306 0.010464473
v 0.036949482 -0.0405405405 0.0139636532
v 0.036949482 -0.0400792117 0.0113069685
v 0.036949482 0.0400792117 0.0113069685
v 0.036949482 0.0405405405 0.0139636532
v 0.0377594099 -0.0394168018 0.0120856351
v 0.0377594099 0.0394168018 0.0120856351
v 0.0381980811 -0.0405405405 0.0210448063
v 0.0381980811 0.0405405405 0.0210448063
v 0.0386061441 -0.0387027387 0.0127755721
v 0.0386061441 0.0387027387 0.0127755721
v 0.039481527 -0.037945527 0.0133795135
v 0.039481527 0.037945527 0.0133795135
v 0.040378545 -0.0371526036 0.0139005045
v 0.040378545 0.0371526036 0.0139005045
v 0.0409856216 -0.0366073333 0.0142033153
v 0.0409856216 0.0366073333 0.0142033153
v 0.0415981937 -0.0360506622 0.0144716306
v 0.0415981937 0.0360506622 0.0144716306
v 0.0428349414 -0.0349085631 0.014908473
v 0.0428349414 0.0349085631 0.014908473
v 0.0435992748 -0.0341913874 0.0151131982
v 0.0435992748 0.0341913874 0.0151131982
v 0.0443653874 -0.0334643649 0.0152712793
v 0.0443653874 0.0334643649 0.0152712793
v 0.0487514009 -0.0292792793 0.0160446532
v 0.0487514009 0.0292792793 0.0160446532
v 0.05 -0.0292792793 0.0231258063
v 0.05 0.0292792793 0.0231258063
f 15 44 11
f 11 44 1
f 11 1 13
f 13 1 2
f 13 2 17
f 17 2 45
f 17 45 15
f 15 45 44
f 11 12 15
f 15 12 16
f 18 17 16
f 16 17 15
f 17 18 13
f 13 18 14
f 12 11 14
f 14 11 13
f 14 18 12
f 12 18 16
f 71 72 67
f 67 72 69
f 67 69 63
f 63 69 65
f 63 65 59
f 59 65 61
f 59 61 55
f 55 61 57
f 55 57 51
f 51 57 52
f 51 52 49
f 49 52 47
f 49 47 43
f 43 47 41
f 43 41 39
f 39 41 37
f 39 37 35
f 35 37 33
f 35 33 31
f 31 33 29
f 31 29 27
f 27 29 23
f 27 23 19
f 19 23 20
f 73 74 70
f 70 74 68
f 70 68 66
f 66 68 64
f 66 64 62
f 62 64 60
f 62 60 58
f 58 60 56
f 58 56 53
f 53 56 54
f 53 54 48
f 48 54 50
f 48 50 42
f 42 50 46
f 42 46 38
f 38 46 40
f 38 40 36
f 38 36 34
f 34 36 32
f 34 32 30
f 30 32 28
f 30 28 24
f 24 28 22
f 24 22 21
f 115 113 116
f 116 113 114
f 81 44 82
f 82 44 45
f 91 92 95
f 91 95 99
f 91 99 101
f 91 101 103
f 91 103 97
f 97 103 105
f 97 105 107
f 97 107 109
f 97 109 111
f 97 111 113
f 97 113 115
f 97 115 117
f 44 81 51
f 44 51 49
f 44 49 43
f 44 43 39
f 44 39 35
f 44 35 31
f 44 31 27
f 44 27 19
f 44 19 5
f 44 5 1
f 51 81 83
f 51 83 85
f 51 85 87
f 51 87 89
f 51 89 92
f 51 92 91
f 45 2 10
f 45 10 22
f 45 22 28
f 45 28 32
f 45 32 36
f 45 36 40
f 45 40 46
f 45 46 50
f 45 50 54
f 45 54 82
f 54 94 93
f 54 93 90
f 54 90 88
f 54 88 86
f 54 86 84
f 54 84 82
f 94 98 104
f 94 104 102
f 94 102 100
f 94 100 96
f 94 96 93
f 98 118 116
f 98 116 114
f 98 114 112
f 98 112 110
f 98 110 108
f 98 108 106
f 98 106 104
f 91 97 75
f 91 75 71
f 91 71 67
f 91 67 63
f 91 63 59
f 91 59 55
f 91 55 51
f 94 54 56
f 94 56 60
f 94 60 64
f 94 64 68
f 94 68 74
f 94 74 78
f 94 78 98
f 114 113 112
f 112 113 111
f 112 111 110
f 110 111 109
f 110 109 108
f 108 109 107
f 108 107 106
f 106 107 105
f 106 105 104
f 104 105 103
f 104 103 102
f 102 103 101
f 102 101 100
f 100 101 99
f 100 99 96
f 96 99 95
f 96 95 93
f 93 95 92
f 93 92 90
f 90 92 89
f 90 89 88
f 88 89 87
f 88 87 86
f 86 87 85
f 86 85 84
f 84 85 83
f 84 83 82
f 82 83 81
f 77 80 78
f 98 78 118
f 118 78 80
f 118 80 117
f 117 80 79
f 117 79 97
f 75 97 76
f 76 97 79
f 117 115 118
f 118 115 116
f 25 3 7
f 25 7 20
f 25 20 23
f 25 23 29
f 25 29 33
f 25 33 37
f 25 37 41
f 25 41 47
f 25 47 52
f 25 52 57
f 25 57 61
f 25 61 65
f 25 65 69
f 25 69 72
f 25 72 76
f 25 76 79
f 80 26 79
f 79 26 25
f 4 3 26
f 26 3 25
f 71 75 72
f 72 75 76
f 8 9 4
f 5 6 1
f 9 10 4
f 4 10 2
f 4 2 3
f 3 2 1
f 3 1 7
f 7 1 6
f 20 7 19
f 19 7 6
f 19 6 5
f 26 80 77
f 26 77 73
f 26 73 70
f 26 70 66
f 26 66 62
f 26 62 58
f 26 58 53
f 26 53 48
f 26 48 42
f 26 42 38
f 26 38 34
f 26 34 30
f 26 30 24
f 26 24 21
f 26 21 8
f 26 8 4
f 73 77 74
f 74 77 78
f 22 10 21
f 21 10 9
f 21 9 8
