solid CATIA STL
  facet normal  0.000000e+000  0.000000e+000 -1.000000e+000
    outer loop
      vertex -4.400000e+000 -4.125000e+000 -1.500000e+000
      vertex  2.250311e+000 -7.663669e+000 -1.500000e+000
      vertex -1.030000e+001 -4.125000e+000 -1.500000e+000
    endloop
  endfacet
  facet normal  0.000000e+000  -0.000000e+000 -1.000000e+000
    outer loop
      vertex -1.030000e+001 -4.125000e+000 -1.500000e+000
      vertex  2.250311e+000 -7.663669e+000 -1.500000e+000
      vertex -1.400000e+001 -8.161235e+000 -1.500000e+000
    endloop
  endfacet
  facet normal  0.000000e+000  0.000000e+000 -1.000000e+000
    outer loop
      vertex -1.030000e+001 -4.125000e+000 -1.500000e+000
      vertex -1.400000e+001 -8.161235e+000 -1.500000e+000
      vertex -1.030000e+001  4.125000e+000 -1.500000e+000
    endloop
  endfacet
  facet normal  -0.000000e+000  0.000000e+000 -1.000000e+000
    outer loop
      vertex -1.030000e+001  4.125000e+000 -1.500000e+000
      vertex -1.400000e+001 -8.161235e+000 -1.500000e+000
      vertex -1.400000e+001  8.161235e+000 -1.500000e+000
    endloop
  endfacet
  facet normal  0.000000e+000  0.000000e+000 -1.000000e+000
    outer loop
      vertex -1.030000e+001  4.125000e+000 -1.500000e+000
      vertex -1.400000e+001  8.161235e+000 -1.500000e+000
      vertex -4.400000e+000  4.125000e+000 -1.500000e+000
    endloop
  endfacet
  facet normal  0.000000e+000  0.000000e+000 -9.999999e-001
    outer loop
      vertex -4.400000e+000  4.125000e+000 -1.500000e+000
      vertex -1.400000e+001  8.161235e+000 -1.500000e+000
      vertex  2.250311e+000  7.663669e+000 -1.500000e+000
    endloop
  endfacet
  facet normal  0.000000e+000  0.000000e+000 -1.000000e+000
    outer loop
      vertex -4.400000e+000  4.125000e+000 -1.500000e+000
      vertex  2.250311e+000  7.663669e+000 -1.500000e+000
      vertex -4.400000e+000 -4.125000e+000 -1.500000e+000
    endloop
  endfacet
  facet normal  0.000000e+000  0.000000e+000 -1.000000e+000
    outer loop
      vertex -4.400000e+000 -4.125000e+000 -1.500000e+000
      vertex  2.250311e+000  7.663669e+000 -1.500000e+000
      vertex  2.250311e+000 -7.663669e+000 -1.500000e+000
    endloop
  endfacet
  facet normal  0.000000e+000  9.999999e-001  0.000000e+000
    outer loop
      vertex -1.030000e+001 -4.125000e+000 -1.500000e+000
      vertex -1.030000e+001 -4.125000e+000 -1.200000e+000
      vertex -4.400000e+000 -4.125000e+000 -1.500000e+000
    endloop
  endfacet
  facet normal  0.000000e+000  9.999999e-001  -0.000000e+000
    outer loop
      vertex -4.400000e+000 -4.125000e+000 -1.500000e+000
      vertex -1.030000e+001 -4.125000e+000 -1.200000e+000
      vertex -4.400000e+000 -4.125000e+000 -1.200000e+000
    endloop
  endfacet
  facet normal -1.000000e+000  0.000000e+000  0.000000e+000
    outer loop
      vertex -4.400000e+000  4.125000e+000 -1.200000e+000
      vertex -4.400000e+000  4.125000e+000 -1.500000e+000
      vertex -4.400000e+000 -4.125000e+000 -1.200000e+000
    endloop
  endfacet
  facet normal -1.000000e+000  0.000000e+000  0.000000e+000
    outer loop
      vertex -4.400000e+000 -4.125000e+000 -1.200000e+000
      vertex -4.400000e+000  4.125000e+000 -1.500000e+000
      vertex -4.400000e+000 -4.125000e+000 -1.500000e+000
    endloop
  endfacet
  facet normal  0.000000e+000 -9.999999e-001  -0.000000e+000
    outer loop
      vertex -4.400000e+000  4.125000e+000 -1.500000e+000
      vertex -4.400000e+000  4.125000e+000 -1.200000e+000
      vertex -1.030000e+001  4.125000e+000 -1.500000e+000
    endloop
  endfacet
  facet normal  0.000000e+000 -9.999999e-001  0.000000e+000
    outer loop
      vertex -1.030000e+001  4.125000e+000 -1.500000e+000
      vertex -4.400000e+000  4.125000e+000 -1.200000e+000
      vertex -1.030000e+001  4.125000e+000 -1.200000e+000
    endloop
  endfacet
  facet normal  1.000000e+000  0.000000e+000  0.000000e+000
    outer loop
      vertex -1.030000e+001 -4.125000e+000 -1.200000e+000
      vertex -1.030000e+001 -4.125000e+000 -1.500000e+000
      vertex -1.030000e+001  4.125000e+000 -1.200000e+000
    endloop
  endfacet
  facet normal  1.000000e+000  0.000000e+000  0.000000e+000
    outer loop
      vertex -1.030000e+001  4.125000e+000 -1.200000e+000
      vertex -1.030000e+001 -4.125000e+000 -1.500000e+000
      vertex -1.030000e+001  4.125000e+000 -1.500000e+000
    endloop
  endfacet
  facet normal  -0.000000e+000  0.000000e+000 -1.000000e+000
    outer loop
      vertex -1.030000e+001  4.125000e+000 -1.200000e+000
      vertex -4.400000e+000  4.125000e+000 -1.200000e+000
      vertex -1.030000e+001 -4.125000e+000 -1.200000e+000
    endloop
  endfacet
  facet normal  0.000000e+000  0.000000e+000 -1.000000e+000
    outer loop
      vertex -1.030000e+001 -4.125000e+000 -1.200000e+000
      vertex -4.400000e+000  4.125000e+000 -1.200000e+000
      vertex -4.400000e+000 -4.125000e+000 -1.200000e+000
    endloop
  endfacet
  facet normal -9.229131e-001  0.000000e+000  3.850084e-001
    outer loop
      vertex  3.363994e+000 -9.000000e+000  7.407426e+000
      vertex  3.363994e+000 -7.676327e+000  7.407426e+000
      vertex  3.257420e+000 -9.000000e+000  7.151955e+000
    endloop
  endfacet
  facet normal -9.229597e-001  2.536563e-005  3.848964e-001
    outer loop
      vertex  3.257420e+000 -9.000000e+000  7.151955e+000
      vertex  3.363994e+000 -7.676327e+000  7.407426e+000
      vertex  3.257743e+000 -7.635337e+000  7.152640e+000
    endloop
  endfacet
  facet normal -8.834972e-001 -2.589367e-005  4.684363e-001
    outer loop
      vertex  3.257420e+000 -9.000000e+000  7.151955e+000
      vertex  3.257743e+000 -7.635337e+000  7.152640e+000
      vertex  3.127753e+000 -9.000000e+000  6.907395e+000
    endloop
  endfacet
  facet normal -8.836421e-001  3.701538e-005  4.681631e-001
    outer loop
      vertex  3.127753e+000 -9.000000e+000  6.907395e+000
      vertex  3.257743e+000 -7.635337e+000  7.152640e+000
      vertex  3.128335e+000 -7.596885e+000  6.908383e+000
    endloop
  endfacet
  facet normal -8.365604e-001 -3.861510e-005  5.478748e-001
    outer loop
      vertex  3.127753e+000 -9.000000e+000  6.907395e+000
      vertex  3.128335e+000 -7.596885e+000  6.908383e+000
      vertex  2.976096e+000 -9.000000e+000  6.675828e+000
    endloop
  endfacet
  facet normal -8.367680e-001  3.648308e-005  5.475576e-001
    outer loop
      vertex  2.976096e+000 -9.000000e+000  6.675828e+000
      vertex  3.128335e+000 -7.596885e+000  6.908383e+000
      vertex  2.976769e+000 -7.561305e+000  6.676761e+000
    endloop
  endfacet
  facet normal -7.825009e-001 -3.758568e-005  6.226494e-001
    outer loop
      vertex  2.976096e+000 -9.000000e+000  6.675828e+000
      vertex  2.976769e+000 -7.561305e+000  6.676761e+000
      vertex  2.803741e+000 -9.000000e+000  6.459225e+000
    endloop
  endfacet
  facet normal -7.826992e-001  2.392711e-005  6.224002e-001
    outer loop
      vertex  2.803741e+000 -9.000000e+000  6.459225e+000
      vertex  2.976769e+000 -7.561305e+000  6.676761e+000
      vertex  2.804245e+000 -7.528913e+000  6.459802e+000
    endloop
  endfacet
  facet normal -7.217792e-001 -2.428113e-005  6.921234e-001
    outer loop
      vertex  2.803741e+000 -9.000000e+000  6.459225e+000
      vertex  2.804245e+000 -7.528913e+000  6.459802e+000
      vertex  2.612155e+000 -9.000000e+000  6.259430e+000
    endloop
  endfacet
  facet normal -7.218682e-001  0.000000e+000  6.920304e-001
    outer loop
      vertex  2.612155e+000 -9.000000e+000  6.259430e+000
      vertex  2.804245e+000 -7.528913e+000  6.459802e+000
      vertex  2.612155e+000 -7.500000e+000  6.259430e+000
    endloop
  endfacet
  facet normal -6.568011e-001  0.000000e+000  7.540637e-001
    outer loop
      vertex  2.612155e+000 -9.000000e+000  6.259430e+000
      vertex  2.612155e+000 -7.500000e+000  6.259430e+000
      vertex  2.414738e+000 -8.976185e+000  6.087476e+000
    endloop
  endfacet
  facet normal -6.543759e-001 -5.696020e-004  7.561693e-001
    outer loop
      vertex  2.414738e+000 -8.976185e+000  6.087476e+000
      vertex  2.612155e+000 -7.500000e+000  6.259430e+000
      vertex  2.399392e+000 -7.474545e+000  6.075327e+000
    endloop
  endfacet
  facet normal -5.884807e-001  5.272713e-004  8.085110e-001
    outer loop
      vertex  2.414738e+000 -8.976185e+000  6.087476e+000
      vertex  2.399392e+000 -7.474545e+000  6.075327e+000
      vertex  2.202833e+000 -8.955889e+000  5.933227e+000
    endloop
  endfacet
  facet normal -5.806316e-001 -1.056649e-003  8.141657e-001
    outer loop
      vertex  2.202833e+000 -8.955889e+000  5.933227e+000
      vertex  2.399392e+000 -7.474545e+000  6.075327e+000
      vertex  2.170032e+000 -7.453169e+000  5.911784e+000
    endloop
  endfacet
  facet normal -5.156131e-001  9.712261e-004  8.568209e-001
    outer loop
      vertex  2.202833e+000 -8.955889e+000  5.933227e+000
      vertex  2.170032e+000 -7.453169e+000  5.911784e+000
      vertex  1.978046e+000 -8.939279e+000  5.797937e+000
    endloop
  endfacet
  facet normal -5.016752e-001 -1.460140e-003  8.650548e-001
    outer loop
      vertex  1.978046e+000 -8.939279e+000  5.797937e+000
      vertex  2.170032e+000 -7.453169e+000  5.911784e+000
      vertex  1.926085e+000 -7.436077e+000  5.770340e+000
    endloop
  endfacet
  facet normal -4.387524e-001  1.330903e-003  8.986070e-001
    outer loop
      vertex  1.978046e+000 -8.939279e+000  5.797937e+000
      vertex  1.926085e+000 -7.436077e+000  5.770340e+000
      vertex  1.742104e+000 -8.926495e+000  5.682717e+000
    endloop
  endfacet
  facet normal -4.182011e-001 -1.778961e-003  9.083529e-001
    outer loop
      vertex  1.742104e+000 -8.926495e+000  5.682717e+000
      vertex  1.926085e+000 -7.436077e+000  5.770340e+000
      vertex  1.669720e+000 -7.423436e+000  5.652336e+000
    endloop
  endfacet
  facet normal -3.584820e-001  1.606007e-003  9.335353e-001
    outer loop
      vertex  1.742104e+000 -8.926495e+000  5.682717e+000
      vertex  1.669720e+000 -7.423436e+000  5.652336e+000
      vertex  1.496838e+000 -8.917647e+000  5.588519e+000
    endloop
  endfacet
  facet normal -3.309488e-001 -2.011470e-003  9.436466e-001
    outer loop
      vertex  1.496838e+000 -8.917647e+000  5.588519e+000
      vertex  1.669720e+000 -7.423436e+000  5.652336e+000
      vertex  1.403241e+000 -7.415369e+000  5.558895e+000
    endloop
  endfacet
  facet normal -2.754293e-001  1.796085e-003  9.613196e-001
    outer loop
      vertex  1.496838e+000 -8.917647e+000  5.588519e+000
      vertex  1.403241e+000 -7.415369e+000  5.558895e+000
      vertex  1.244168e+000 -8.912811e+000  5.516117e+000
    endloop
  endfacet
  facet normal -2.407062e-001 -2.157543e-003  9.705957e-001
    outer loop
      vertex  1.244168e+000 -8.912811e+000  5.516117e+000
      vertex  1.403241e+000 -7.415369e+000  5.558895e+000
      vertex  1.129062e+000 -7.411958e+000  5.490907e+000
    endloop
  endfacet
  facet normal -2.034560e-001  8.418891e-004  9.790837e-001
    outer loop
      vertex  1.244168e+000 -8.912811e+000  5.516117e+000
      vertex  1.129062e+000 -7.411958e+000  5.490907e+000
      vertex  1.065860e+000 -8.911837e+000  5.479063e+000
    endloop
  endfacet
  facet normal -1.841899e-001  0.000000e+000  9.828907e-001
    outer loop
      vertex  1.065860e+000 -8.911837e+000  5.479063e+000
      vertex  1.129062e+000 -7.411958e+000  5.490907e+000
      vertex  1.065860e+000 -7.411837e+000  5.479063e+000
    endloop
  endfacet
  facet normal -9.229612e-001  0.000000e+000  3.848929e-001
    outer loop
      vertex  3.363994e+000  7.676327e+000  7.407426e+000
      vertex  3.363994e+000  9.000000e+000  7.407426e+000
      vertex  3.257743e+000  7.635337e+000  7.152640e+000
    endloop
  endfacet
  facet normal -9.229131e-001 -2.529840e-005  3.850084e-001
    outer loop
      vertex  3.257743e+000  7.635337e+000  7.152640e+000
      vertex  3.363994e+000  9.000000e+000  7.407426e+000
      vertex  3.257420e+000  9.000000e+000  7.151955e+000
    endloop
  endfacet
  facet normal -8.836462e-001  2.571743e-005  4.681554e-001
    outer loop
      vertex  3.257743e+000  7.635337e+000  7.152640e+000
      vertex  3.257420e+000  9.000000e+000  7.151955e+000
      vertex  3.128335e+000  7.596885e+000  6.908383e+000
    endloop
  endfacet
  facet normal -8.834972e-001 -3.676295e-005  4.684363e-001
    outer loop
      vertex  3.128335e+000  7.596885e+000  6.908383e+000
      vertex  3.257420e+000  9.000000e+000  7.151955e+000
      vertex  3.127753e+000  9.000000e+000  6.907395e+000
    endloop
  endfacet
  facet normal -8.367733e-001  3.829790e-005  5.475495e-001
    outer loop
      vertex  3.128335e+000  7.596885e+000  6.908383e+000
      vertex  3.127753e+000  9.000000e+000  6.907395e+000
      vertex  2.976769e+000  7.561305e+000  6.676761e+000
    endloop
  endfacet
  facet normal -8.365604e-001 -3.618032e-005  5.478747e-001
    outer loop
      vertex  2.976769e+000  7.561305e+000  6.676761e+000
      vertex  3.127753e+000  9.000000e+000  6.907395e+000
      vertex  2.976096e+000  9.000000e+000  6.675828e+000
    endloop
  endfacet
  facet normal -7.827036e-001  3.732571e-005  6.223946e-001
    outer loop
      vertex  2.976769e+000  7.561305e+000  6.676761e+000
      vertex  2.976096e+000  9.000000e+000  6.675828e+000
      vertex  2.804245e+000  7.528913e+000  6.459802e+000
    endloop
  endfacet
  facet normal -7.825010e-001 -2.376151e-005  6.226494e-001
    outer loop
      vertex  2.804245e+000  7.528913e+000  6.459802e+000
      vertex  2.976096e+000  9.000000e+000  6.675828e+000
      vertex  2.803741e+000  9.000000e+000  6.459225e+000
    endloop
  endfacet
  facet normal -7.218700e-001  2.421289e-005  6.920286e-001
    outer loop
      vertex  2.804245e+000  7.528913e+000  6.459802e+000
      vertex  2.803741e+000  9.000000e+000  6.459225e+000
      vertex  2.612155e+000  7.500000e+000  6.259430e+000
    endloop
  endfacet
  facet normal -7.217792e-001  0.000000e+000  6.921234e-001
    outer loop
      vertex  2.612155e+000  7.500000e+000  6.259430e+000
      vertex  2.803741e+000  9.000000e+000  6.459225e+000
      vertex  2.612155e+000  9.000000e+000  6.259430e+000
    endloop
  endfacet
  facet normal -6.543370e-001  0.000000e+000  7.562031e-001
    outer loop
      vertex  2.612155e+000  7.500000e+000  6.259430e+000
      vertex  2.612155e+000  9.000000e+000  6.259430e+000
      vertex  2.399392e+000  7.474545e+000  6.075327e+000
    endloop
  endfacet
  facet normal -6.668100e-001  3.065031e-003  7.452214e-001
    outer loop
      vertex  2.399392e+000  7.474545e+000  6.075327e+000
      vertex  2.612155e+000  9.000000e+000  6.259430e+000
      vertex  2.475413e+000  8.982952e+000  6.137146e+000
    endloop
  endfacet
  facet normal -5.803065e-001 -4.129236e-003  8.143876e-001
    outer loop
      vertex  2.399392e+000  7.474545e+000  6.075327e+000
      vertex  2.475413e+000  8.982952e+000  6.137146e+000
      vertex  2.170032e+000  7.453169e+000  5.911784e+000
    endloop
  endfacet
  facet normal -6.098191e-001  4.982898e-003  7.925250e-001
    outer loop
      vertex  2.170032e+000  7.453169e+000  5.911784e+000
      vertex  2.475413e+000  8.982952e+000  6.137146e+000
      vertex  2.267970e+000  8.961610e+000  5.977660e+000
    endloop
  endfacet
  facet normal -5.013177e-001 -5.237680e-003  8.652475e-001
    outer loop
      vertex  2.170032e+000  7.453169e+000  5.911784e+000
      vertex  2.267970e+000  8.961610e+000  5.977660e+000
      vertex  1.926085e+000  7.436077e+000  5.770340e+000
    endloop
  endfacet
  facet normal -5.384017e-001  6.142006e-003  8.426660e-001
    outer loop
      vertex  1.926085e+000  7.436077e+000  5.770340e+000
      vertex  2.267970e+000  8.961610e+000  5.977660e+000
      vertex  2.047184e+000  8.943896e+000  5.836723e+000
    endloop
  endfacet
  facet normal -4.623642e-001 -1.902996e-003  8.866880e-001
    outer loop
      vertex  1.926085e+000  7.436077e+000  5.770340e+000
      vertex  2.047184e+000  8.943896e+000  5.836723e+000
      vertex  1.814741e+000  8.929961e+000  5.715486e+000
    endloop
  endfacet
  facet normal -4.182172e-001  2.182648e-003  9.083444e-001
    outer loop
      vertex  1.926085e+000  7.436077e+000  5.770340e+000
      vertex  1.814741e+000  8.929961e+000  5.715486e+000
      vertex  1.669720e+000  7.423436e+000  5.652336e+000
    endloop
  endfacet
  facet normal -3.831953e-001 -1.830829e-003  9.236655e-001
    outer loop
      vertex  1.669720e+000  7.423436e+000  5.652336e+000
      vertex  1.814741e+000  8.929961e+000  5.715486e+000
      vertex  1.572435e+000  8.919921e+000  5.614942e+000
    endloop
  endfacet
  facet normal -3.309502e-001  2.064868e-003  9.436460e-001
    outer loop
      vertex  1.669720e+000  7.423436e+000  5.652336e+000
      vertex  1.572435e+000  8.919921e+000  5.614942e+000
      vertex  1.403241e+000  7.415369e+000  5.558895e+000
    endloop
  endfacet
  facet normal -3.010497e-001 -1.668643e-003  9.536070e-001
    outer loop
      vertex  1.403241e+000  7.415369e+000  5.558895e+000
      vertex  1.572435e+000  8.919921e+000  5.614942e+000
      vertex  1.322153e+000  8.913862e+000  5.535918e+000
    endloop
  endfacet
  facet normal -2.407028e-001  1.857404e-003  9.705970e-001
    outer loop
      vertex  1.403241e+000  7.415369e+000  5.558895e+000
      vertex  1.322153e+000  8.913862e+000  5.535918e+000
      vertex  1.129062e+000  7.411958e+000  5.490907e+000
    endloop
  endfacet
  facet normal -2.165610e-001 -1.416334e-003  9.762680e-001
    outer loop
      vertex  1.129062e+000  7.411958e+000  5.490907e+000
      vertex  1.322153e+000  8.913862e+000  5.535918e+000
      vertex  1.065860e+000  8.911837e+000  5.479063e+000
    endloop
  endfacet
  facet normal -1.841899e-001  0.000000e+000  9.828907e-001
    outer loop
      vertex  1.129062e+000  7.411958e+000  5.490907e+000
      vertex  1.065860e+000  8.911837e+000  5.479063e+000
      vertex  1.065860e+000  7.411837e+000  5.479063e+000
    endloop
  endfacet
  facet normal  1.736485e-001  0.000000e+000 -9.848077e-001
    outer loop
      vertex  7.922811e+000 -6.500000e+000  7.195842e+000
      vertex  6.949116e+000 -7.429089e+000  7.024153e+000
      vertex  7.922811e+000  6.500000e+000  7.195842e+000
    endloop
  endfacet
  facet normal  1.736485e-001  0.000000e+000 -9.848077e-001
    outer loop
      vertex  7.922811e+000  6.500000e+000  7.195842e+000
      vertex  6.949116e+000 -7.429089e+000  7.024153e+000
      vertex  6.949116e+000  7.429089e+000  7.024153e+000
    endloop
  endfacet
  facet normal  9.396926e-001  0.000000e+000 -3.420201e-001
    outer loop
      vertex  4.650982e+000 -8.735510e+000  5.095790e+000
      vertex  2.250311e+000 -7.663669e+000 -1.500000e+000
      vertex  4.650982e+000  8.735510e+000  5.095790e+000
    endloop
  endfacet
  facet normal  9.396926e-001  0.000000e+000 -3.420201e-001
    outer loop
      vertex  4.650982e+000  8.735510e+000  5.095790e+000
      vertex  2.250311e+000 -7.663669e+000 -1.500000e+000
      vertex  2.250311e+000  7.663669e+000 -1.500000e+000
    endloop
  endfacet
  facet normal  6.963632e-001 -7.071077e-001 -1.227880e-001
    outer loop
      vertex  5.302785e+000 -9.000000e+000  6.733860e+000
      vertex  5.302785e+000 -8.897585e+000  6.144076e+000
      vertex  5.482589e+000 -8.750530e+000  6.316940e+000
    endloop
  endfacet
  facet normal  6.963646e-001 -7.071065e-001 -1.227867e-001
    outer loop
      vertex  5.302785e+000 -9.000000e+000  6.733860e+000
      vertex  5.482589e+000 -8.750530e+000  6.316940e+000
      vertex  5.670564e+000 -8.592008e+000  6.470106e+000
    endloop
  endfacet
  facet normal  6.963645e-001 -7.071066e-001 -1.227871e-001
    outer loop
      vertex  5.302785e+000 -9.000000e+000  6.733860e+000
      vertex  5.670564e+000 -8.592008e+000  6.470106e+000
      vertex  5.864899e+000 -8.423907e+000  6.604181e+000
    endloop
  endfacet
  facet normal  6.963647e-001 -7.071066e-001 -1.227862e-001
    outer loop
      vertex  5.302785e+000 -9.000000e+000  6.733860e+000
      vertex  5.864899e+000 -8.423907e+000  6.604181e+000
      vertex  6.064037e+000 -8.247878e+000  6.719841e+000
    endloop
  endfacet
  facet normal  6.963645e-001 -7.071065e-001 -1.227879e-001
    outer loop
      vertex  5.302785e+000 -9.000000e+000  6.733860e+000
      vertex  6.064037e+000 -8.247878e+000  6.719841e+000
      vertex  5.579974e+000 -9.000000e+000  8.305876e+000
    endloop
  endfacet
  facet normal  6.963629e-001 -7.071080e-001 -1.227891e-001
    outer loop
      vertex  5.579974e+000 -9.000000e+000  8.305876e+000
      vertex  6.064037e+000 -8.247878e+000  6.719841e+000
      vertex  6.198808e+000 -8.126828e+000  6.787065e+000
    endloop
  endfacet
  facet normal  6.963637e-001 -7.071072e-001 -1.227883e-001
    outer loop
      vertex  5.579974e+000 -9.000000e+000  8.305876e+000
      vertex  6.198808e+000 -8.126828e+000  6.787065e+000
      vertex  6.334799e+000 -8.003247e+000  6.846631e+000
    endloop
  endfacet
  facet normal  6.963644e-001 -7.071066e-001 -1.227876e-001
    outer loop
      vertex  5.579974e+000 -9.000000e+000  8.305876e+000
      vertex  6.334799e+000 -8.003247e+000  6.846631e+000
      vertex  6.609357e+000 -7.749701e+000  6.943610e+000
    endloop
  endfacet
  facet normal  6.963645e-001 -7.071066e-001 -1.227874e-001
    outer loop
      vertex  5.579974e+000 -9.000000e+000  8.305876e+000
      vertex  6.609357e+000 -7.749701e+000  6.943610e+000
      vertex  6.779039e+000 -7.590488e+000  6.989059e+000
    endloop
  endfacet
  facet normal  6.963648e-001 -7.071065e-001 -1.227870e-001
    outer loop
      vertex  5.579974e+000 -9.000000e+000  8.305876e+000
      vertex  6.779039e+000 -7.590488e+000  6.989059e+000
      vertex  6.949116e+000 -7.429089e+000  7.024153e+000
    endloop
  endfacet
  facet normal  6.963642e-001 -7.071068e-001 -1.227880e-001
    outer loop
      vertex  5.579974e+000 -9.000000e+000  8.305876e+000
      vertex  6.949116e+000 -7.429089e+000  7.024153e+000
      vertex  7.922811e+000 -6.500000e+000  7.195842e+000
    endloop
  endfacet
  facet normal  6.963643e-001 -7.071068e-001 -1.227878e-001
    outer loop
      vertex  5.579974e+000 -9.000000e+000  8.305876e+000
      vertex  7.922811e+000 -6.500000e+000  7.195842e+000
      vertex  8.200000e+000 -6.500000e+000  8.767858e+000
    endloop
  endfacet
  facet normal  3.015352e-002 -9.848078e-001 -1.710100e-001
    outer loop
      vertex  2.250311e+000 -7.663669e+000 -1.500000e+000
      vertex  4.650982e+000 -8.735510e+000  5.095790e+000
      vertex  2.612155e+000 -9.000000e+000  6.259430e+000
    endloop
  endfacet
  facet normal  3.015153e-002 -9.848078e-001 -1.710099e-001
    outer loop
      vertex  2.250311e+000 -7.663669e+000 -1.500000e+000
      vertex  2.612155e+000 -9.000000e+000  6.259430e+000
      vertex  2.414738e+000 -8.976185e+000  6.087476e+000
    endloop
  endfacet
  facet normal  3.015737e-002 -9.848076e-001 -1.710100e-001
    outer loop
      vertex  2.250311e+000 -7.663669e+000 -1.500000e+000
      vertex  2.414738e+000 -8.976185e+000  6.087476e+000
      vertex  2.202833e+000 -8.955889e+000  5.933227e+000
    endloop
  endfacet
  facet normal  3.015349e-002 -9.848078e-001 -1.710101e-001
    outer loop
      vertex  2.250311e+000 -7.663669e+000 -1.500000e+000
      vertex  2.202833e+000 -8.955889e+000  5.933227e+000
      vertex  1.978046e+000 -8.939279e+000  5.797937e+000
    endloop
  endfacet
  facet normal  3.015121e-002 -9.848078e-001 -1.710102e-001
    outer loop
      vertex  2.250311e+000 -7.663669e+000 -1.500000e+000
      vertex  1.978046e+000 -8.939279e+000  5.797937e+000
      vertex  1.742104e+000 -8.926495e+000  5.682717e+000
    endloop
  endfacet
  facet normal  3.015530e-002 -9.848078e-001 -1.710099e-001
    outer loop
      vertex  2.250311e+000 -7.663669e+000 -1.500000e+000
      vertex  1.742104e+000 -8.926495e+000  5.682717e+000
      vertex  1.496838e+000 -8.917647e+000  5.588519e+000
    endloop
  endfacet
  facet normal  3.015339e-002 -9.848077e-001 -1.710101e-001
    outer loop
      vertex  2.250311e+000 -7.663669e+000 -1.500000e+000
      vertex  1.496838e+000 -8.917647e+000  5.588519e+000
      vertex  1.244168e+000 -8.912811e+000  5.516117e+000
    endloop
  endfacet
  facet normal  3.015400e-002 -9.848077e-001 -1.710100e-001
    outer loop
      vertex  2.250311e+000 -7.663669e+000 -1.500000e+000
      vertex  1.244168e+000 -8.912811e+000  5.516117e+000
      vertex  1.065860e+000 -8.911837e+000  5.479063e+000
    endloop
  endfacet
  facet normal  3.015369e-002 -9.848078e-001 -1.710101e-001
    outer loop
      vertex  2.250311e+000 -7.663669e+000 -1.500000e+000
      vertex  1.065860e+000 -8.911837e+000  5.479063e+000
      vertex -1.321336e+001 -8.911837e+000  2.961251e+000
    endloop
  endfacet
  facet normal  3.015370e-002 -9.848078e-001 -1.710100e-001
    outer loop
      vertex  2.250311e+000 -7.663669e+000 -1.500000e+000
      vertex -1.321336e+001 -8.911837e+000  2.961251e+000
      vertex -1.400000e+001 -8.161235e+000 -1.500000e+000
    endloop
  endfacet
  facet normal  3.015467e-002 -9.848081e-001 -1.710081e-001
    outer loop
      vertex  2.612155e+000 -9.000000e+000  6.259430e+000
      vertex  4.650982e+000 -8.735510e+000  5.095790e+000
      vertex  4.745353e+000 -8.772440e+000  5.325105e+000
    endloop
  endfacet
  facet normal  3.015267e-002 -9.848074e-001 -1.710125e-001
    outer loop
      vertex  2.612155e+000 -9.000000e+000  6.259430e+000
      vertex  4.745353e+000 -8.772440e+000  5.325105e+000
      vertex  4.858487e+000 -8.807352e+000  5.546101e+000
    endloop
  endfacet
  facet normal  3.015370e-002 -9.848079e-001 -1.710094e-001
    outer loop
      vertex  2.612155e+000 -9.000000e+000  6.259430e+000
      vertex  4.858487e+000 -8.807352e+000  5.546101e+000
      vertex  4.989680e+000 -8.839999e+000  5.757242e+000
    endloop
  endfacet
  facet normal  3.015361e-002 -9.848078e-001 -1.710098e-001
    outer loop
      vertex  2.612155e+000 -9.000000e+000  6.259430e+000
      vertex  4.989680e+000 -8.839999e+000  5.757242e+000
      vertex  5.138100e+000 -8.870150e+000  5.957042e+000
    endloop
  endfacet
  facet normal  3.015380e-002 -9.848081e-001 -1.710083e-001
    outer loop
      vertex  2.612155e+000 -9.000000e+000  6.259430e+000
      vertex  5.138100e+000 -8.870150e+000  5.957042e+000
      vertex  5.302785e+000 -8.897585e+000  6.144076e+000
    endloop
  endfacet
  facet normal  3.015370e-002 -9.848077e-001 -1.710102e-001
    outer loop
      vertex  2.612155e+000 -9.000000e+000  6.259430e+000
      vertex  5.302785e+000 -8.897585e+000  6.144076e+000
      vertex  5.302785e+000 -9.000000e+000  6.733860e+000
    endloop
  endfacet
  facet normal  3.015371e-002  9.848078e-001 -1.710100e-001
    outer loop
      vertex  2.250311e+000  7.663669e+000 -1.500000e+000
      vertex -1.400000e+001  8.161235e+000 -1.500000e+000
      vertex -1.321336e+001  8.911837e+000  2.961251e+000
    endloop
  endfacet
  facet normal  3.015369e-002  9.848078e-001 -1.710101e-001
    outer loop
      vertex  2.250311e+000  7.663669e+000 -1.500000e+000
      vertex -1.321336e+001  8.911837e+000  2.961251e+000
      vertex  1.065860e+000  8.911837e+000  5.479063e+000
    endloop
  endfacet
  facet normal  3.015295e-002  9.848078e-001 -1.710102e-001
    outer loop
      vertex  2.250311e+000  7.663669e+000 -1.500000e+000
      vertex  1.065860e+000  8.911837e+000  5.479063e+000
      vertex  1.322153e+000  8.913862e+000  5.535918e+000
    endloop
  endfacet
  facet normal  3.015460e-002  9.848077e-001 -1.710100e-001
    outer loop
      vertex  2.250311e+000  7.663669e+000 -1.500000e+000
      vertex  1.322153e+000  8.913862e+000  5.535918e+000
      vertex  1.572435e+000  8.919921e+000  5.614942e+000
    endloop
  endfacet
  facet normal  3.015311e-002  9.848077e-001 -1.710101e-001
    outer loop
      vertex  2.250311e+000  7.663669e+000 -1.500000e+000
      vertex  1.572435e+000  8.919921e+000  5.614942e+000
      vertex  1.814741e+000  8.929961e+000  5.715486e+000
    endloop
  endfacet
  facet normal  3.015563e-002  9.848077e-001 -1.710099e-001
    outer loop
      vertex  2.250311e+000  7.663669e+000 -1.500000e+000
      vertex  1.814741e+000  8.929961e+000  5.715486e+000
      vertex  2.047184e+000  8.943896e+000  5.836723e+000
    endloop
  endfacet
  facet normal  3.015221e-002  9.848078e-001 -1.710101e-001
    outer loop
      vertex  2.250311e+000  7.663669e+000 -1.500000e+000
      vertex  2.047184e+000  8.943896e+000  5.836723e+000
      vertex  2.267970e+000  8.961610e+000  5.977660e+000
    endloop
  endfacet
  facet normal  3.015590e-002  9.848077e-001 -1.710101e-001
    outer loop
      vertex  2.250311e+000  7.663669e+000 -1.500000e+000
      vertex  2.267970e+000  8.961610e+000  5.977660e+000
      vertex  2.475413e+000  8.982952e+000  6.137146e+000
    endloop
  endfacet
  facet normal  3.015081e-002  9.848078e-001 -1.710099e-001
    outer loop
      vertex  2.250311e+000  7.663669e+000 -1.500000e+000
      vertex  2.475413e+000  8.982952e+000  6.137146e+000
      vertex  2.612155e+000  9.000000e+000  6.259430e+000
    endloop
  endfacet
  facet normal  3.015352e-002  9.848078e-001 -1.710100e-001
    outer loop
      vertex  2.250311e+000  7.663669e+000 -1.500000e+000
      vertex  2.612155e+000  9.000000e+000  6.259430e+000
      vertex  4.650982e+000  8.735510e+000  5.095790e+000
    endloop
  endfacet
  facet normal  3.015370e-002  9.848077e-001 -1.710102e-001
    outer loop
      vertex  2.612155e+000  9.000000e+000  6.259430e+000
      vertex  5.302785e+000  9.000000e+000  6.733860e+000
      vertex  5.302785e+000  8.897585e+000  6.144076e+000
    endloop
  endfacet
  facet normal  3.015380e-002  9.848081e-001 -1.710083e-001
    outer loop
      vertex  2.612155e+000  9.000000e+000  6.259430e+000
      vertex  5.302785e+000  8.897585e+000  6.144076e+000
      vertex  5.138100e+000  8.870150e+000  5.957042e+000
    endloop
  endfacet
  facet normal  3.015361e-002  9.848078e-001 -1.710098e-001
    outer loop
      vertex  2.612155e+000  9.000000e+000  6.259430e+000
      vertex  5.138100e+000  8.870150e+000  5.957042e+000
      vertex  4.989680e+000  8.839999e+000  5.757242e+000
    endloop
  endfacet
  facet normal  3.015370e-002  9.848079e-001 -1.710094e-001
    outer loop
      vertex  2.612155e+000  9.000000e+000  6.259430e+000
      vertex  4.989680e+000  8.839999e+000  5.757242e+000
      vertex  4.858487e+000  8.807352e+000  5.546101e+000
    endloop
  endfacet
  facet normal  3.015267e-002  9.848074e-001 -1.710125e-001
    outer loop
      vertex  2.612155e+000  9.000000e+000  6.259430e+000
      vertex  4.858487e+000  8.807352e+000  5.546101e+000
      vertex  4.745353e+000  8.772440e+000  5.325105e+000
    endloop
  endfacet
  facet normal  3.015467e-002  9.848081e-001 -1.710081e-001
    outer loop
      vertex  2.612155e+000  9.000000e+000  6.259430e+000
      vertex  4.745353e+000  8.772440e+000  5.325105e+000
      vertex  4.650982e+000  8.735510e+000  5.095790e+000
    endloop
  endfacet
  facet normal  6.963645e-001  7.071065e-001 -1.227879e-001
    outer loop
      vertex  5.302785e+000  9.000000e+000  6.733860e+000
      vertex  5.579974e+000  9.000000e+000  8.305876e+000
      vertex  6.064037e+000  8.247878e+000  6.719841e+000
    endloop
  endfacet
  facet normal  6.963647e-001  7.071066e-001 -1.227862e-001
    outer loop
      vertex  5.302785e+000  9.000000e+000  6.733860e+000
      vertex  6.064037e+000  8.247878e+000  6.719841e+000
      vertex  5.864899e+000  8.423907e+000  6.604181e+000
    endloop
  endfacet
  facet normal  6.963645e-001  7.071066e-001 -1.227871e-001
    outer loop
      vertex  5.302785e+000  9.000000e+000  6.733860e+000
      vertex  5.864899e+000  8.423907e+000  6.604181e+000
      vertex  5.670564e+000  8.592008e+000  6.470106e+000
    endloop
  endfacet
  facet normal  6.963646e-001  7.071065e-001 -1.227867e-001
    outer loop
      vertex  5.302785e+000  9.000000e+000  6.733860e+000
      vertex  5.670564e+000  8.592008e+000  6.470106e+000
      vertex  5.482589e+000  8.750530e+000  6.316940e+000
    endloop
  endfacet
  facet normal  6.963632e-001  7.071077e-001 -1.227880e-001
    outer loop
      vertex  5.302785e+000  9.000000e+000  6.733860e+000
      vertex  5.482589e+000  8.750530e+000  6.316940e+000
      vertex  5.302785e+000  8.897585e+000  6.144076e+000
    endloop
  endfacet
  facet normal  6.963643e-001  7.071068e-001 -1.227878e-001
    outer loop
      vertex  5.579974e+000  9.000000e+000  8.305876e+000
      vertex  8.200000e+000  6.500000e+000  8.767858e+000
      vertex  7.922811e+000  6.500000e+000  7.195842e+000
    endloop
  endfacet
  facet normal  6.963642e-001  7.071068e-001 -1.227880e-001
    outer loop
      vertex  5.579974e+000  9.000000e+000  8.305876e+000
      vertex  7.922811e+000  6.500000e+000  7.195842e+000
      vertex  6.949116e+000  7.429089e+000  7.024153e+000
    endloop
  endfacet
  facet normal  6.963648e-001  7.071065e-001 -1.227870e-001
    outer loop
      vertex  5.579974e+000  9.000000e+000  8.305876e+000
      vertex  6.949116e+000  7.429089e+000  7.024153e+000
      vertex  6.779039e+000  7.590488e+000  6.989059e+000
    endloop
  endfacet
  facet normal  6.963645e-001  7.071066e-001 -1.227874e-001
    outer loop
      vertex  5.579974e+000  9.000000e+000  8.305876e+000
      vertex  6.779039e+000  7.590488e+000  6.989059e+000
      vertex  6.609357e+000  7.749701e+000  6.943610e+000
    endloop
  endfacet
  facet normal  6.963644e-001  7.071066e-001 -1.227876e-001
    outer loop
      vertex  5.579974e+000  9.000000e+000  8.305876e+000
      vertex  6.609357e+000  7.749701e+000  6.943610e+000
      vertex  6.334799e+000  8.003247e+000  6.846631e+000
    endloop
  endfacet
  facet normal  6.963637e-001  7.071072e-001 -1.227883e-001
    outer loop
      vertex  5.579974e+000  9.000000e+000  8.305876e+000
      vertex  6.334799e+000  8.003247e+000  6.846631e+000
      vertex  6.198808e+000  8.126828e+000  6.787065e+000
    endloop
  endfacet
  facet normal  6.963629e-001  7.071080e-001 -1.227891e-001
    outer loop
      vertex  5.579974e+000  9.000000e+000  8.305876e+000
      vertex  6.198808e+000  8.126828e+000  6.787065e+000
      vertex  6.064037e+000  8.247878e+000  6.719841e+000
    endloop
  endfacet
  facet normal  0.000000e+000 -9.999999e-001  0.000000e+000
    outer loop
      vertex  5.302785e+000 -9.000000e+000  6.733860e+000
      vertex  5.579974e+000 -9.000000e+000  8.305876e+000
      vertex  3.561459e+000 -9.000000e+000  7.949957e+000
    endloop
  endfacet
  facet normal  0.000000e+000 -1.000000e+000  -0.000000e+000
    outer loop
      vertex  5.302785e+000 -9.000000e+000  6.733860e+000
      vertex  3.561459e+000 -9.000000e+000  7.949957e+000
      vertex  3.363994e+000 -9.000000e+000  7.407426e+000
    endloop
  endfacet
  facet normal  0.000000e+000 -1.000000e+000  -0.000000e+000
    outer loop
      vertex  5.302785e+000 -9.000000e+000  6.733860e+000
      vertex  3.363994e+000 -9.000000e+000  7.407426e+000
      vertex  3.257420e+000 -9.000000e+000  7.151955e+000
    endloop
  endfacet
  facet normal  0.000000e+000 -1.000000e+000  -0.000000e+000
    outer loop
      vertex  5.302785e+000 -9.000000e+000  6.733860e+000
      vertex  3.257420e+000 -9.000000e+000  7.151955e+000
      vertex  3.127753e+000 -9.000000e+000  6.907395e+000
    endloop
  endfacet
  facet normal  0.000000e+000 -1.000000e+000  -0.000000e+000
    outer loop
      vertex  5.302785e+000 -9.000000e+000  6.733860e+000
      vertex  3.127753e+000 -9.000000e+000  6.907395e+000
      vertex  2.976096e+000 -9.000000e+000  6.675828e+000
    endloop
  endfacet
  facet normal  0.000000e+000 -9.999999e-001  -0.000000e+000
    outer loop
      vertex  5.302785e+000 -9.000000e+000  6.733860e+000
      vertex  2.976096e+000 -9.000000e+000  6.675828e+000
      vertex  2.803741e+000 -9.000000e+000  6.459225e+000
    endloop
  endfacet
  facet normal  0.000000e+000 -1.000000e+000  -0.000000e+000
    outer loop
      vertex  5.302785e+000 -9.000000e+000  6.733860e+000
      vertex  2.803741e+000 -9.000000e+000  6.459225e+000
      vertex  2.612155e+000 -9.000000e+000  6.259430e+000
    endloop
  endfacet
  facet normal  0.000000e+000  1.000000e+000  0.000000e+000
    outer loop
      vertex  5.302785e+000  9.000000e+000  6.733860e+000
      vertex  2.612155e+000  9.000000e+000  6.259430e+000
      vertex  2.803741e+000  9.000000e+000  6.459225e+000
    endloop
  endfacet
  facet normal  0.000000e+000  9.999999e-001  0.000000e+000
    outer loop
      vertex  5.302785e+000  9.000000e+000  6.733860e+000
      vertex  2.803741e+000  9.000000e+000  6.459225e+000
      vertex  2.976096e+000  9.000000e+000  6.675828e+000
    endloop
  endfacet
  facet normal  0.000000e+000  1.000000e+000  0.000000e+000
    outer loop
      vertex  5.302785e+000  9.000000e+000  6.733860e+000
      vertex  2.976096e+000  9.000000e+000  6.675828e+000
      vertex  3.127753e+000  9.000000e+000  6.907395e+000
    endloop
  endfacet
  facet normal  -0.000000e+000  1.000000e+000  0.000000e+000
    outer loop
      vertex  5.302785e+000  9.000000e+000  6.733860e+000
      vertex  3.127753e+000  9.000000e+000  6.907395e+000
      vertex  3.257420e+000  9.000000e+000  7.151955e+000
    endloop
  endfacet
  facet normal  -0.000000e+000  1.000000e+000  0.000000e+000
    outer loop
      vertex  5.302785e+000  9.000000e+000  6.733860e+000
      vertex  3.257420e+000  9.000000e+000  7.151955e+000
      vertex  3.363994e+000  9.000000e+000  7.407426e+000
    endloop
  endfacet
  facet normal  -0.000000e+000  1.000000e+000  0.000000e+000
    outer loop
      vertex  5.302785e+000  9.000000e+000  6.733860e+000
      vertex  3.363994e+000  9.000000e+000  7.407426e+000
      vertex  3.561459e+000  9.000000e+000  7.949957e+000
    endloop
  endfacet
  facet normal  -0.000000e+000  9.999999e-001  0.000000e+000
    outer loop
      vertex  5.302785e+000  9.000000e+000  6.733860e+000
      vertex  3.561459e+000  9.000000e+000  7.949957e+000
      vertex  5.579974e+000  9.000000e+000  8.305876e+000
    endloop
  endfacet
  facet normal  2.020815e-001  0.000000e+000 -9.793687e-001
    outer loop
      vertex  6.949116e+000  7.429089e+000  7.024153e+000
      vertex  6.949116e+000 -7.429089e+000  7.024153e+000
      vertex  6.779039e+000  7.590488e+000  6.989059e+000
    endloop
  endfacet
  facet normal  2.020815e-001  0.000000e+000 -9.793687e-001
    outer loop
      vertex  6.779039e+000  7.590488e+000  6.989059e+000
      vertex  6.949116e+000 -7.429089e+000  7.024153e+000
      vertex  6.779039e+000 -7.590488e+000  6.989059e+000
    endloop
  endfacet
  facet normal  2.587286e-001  0.000000e+000 -9.659501e-001
    outer loop
      vertex  6.779039e+000  7.590488e+000  6.989059e+000
      vertex  6.779039e+000 -7.590488e+000  6.989059e+000
      vertex  6.609357e+000  7.749701e+000  6.943610e+000
    endloop
  endfacet
  facet normal  2.587286e-001  0.000000e+000 -9.659501e-001
    outer loop
      vertex  6.609357e+000  7.749701e+000  6.943610e+000
      vertex  6.779039e+000 -7.590488e+000  6.989059e+000
      vertex  6.609357e+000 -7.749701e+000  6.943610e+000
    endloop
  endfacet
  facet normal  3.330545e-001  0.000000e+000 -9.429075e-001
    outer loop
      vertex  6.609357e+000  7.749701e+000  6.943610e+000
      vertex  6.609357e+000 -7.749701e+000  6.943610e+000
      vertex  6.334799e+000  8.003247e+000  6.846631e+000
    endloop
  endfacet
  facet normal  3.330545e-001  0.000000e+000 -9.429075e-001
    outer loop
      vertex  6.334799e+000  8.003247e+000  6.846631e+000
      vertex  6.609357e+000 -7.749701e+000  6.943610e+000
      vertex  6.334799e+000 -8.003247e+000  6.846631e+000
    endloop
  endfacet
  facet normal  4.012126e-001  0.000000e+000 -9.159850e-001
    outer loop
      vertex  6.334799e+000  8.003247e+000  6.846631e+000
      vertex  6.334799e+000 -8.003247e+000  6.846631e+000
      vertex  6.198808e+000  8.126828e+000  6.787065e+000
    endloop
  endfacet
  facet normal  4.012125e-001  0.000000e+000 -9.159849e-001
    outer loop
      vertex  6.198808e+000  8.126828e+000  6.787065e+000
      vertex  6.334799e+000 -8.003247e+000  6.846631e+000
      vertex  6.198808e+000 -8.126828e+000  6.787065e+000
    endloop
  endfacet
  facet normal  4.463573e-001  0.000000e+000 -8.948549e-001
    outer loop
      vertex  6.198808e+000  8.126828e+000  6.787065e+000
      vertex  6.198808e+000 -8.126828e+000  6.787065e+000
      vertex  6.064037e+000  8.247878e+000  6.719841e+000
    endloop
  endfacet
  facet normal  4.463573e-001  0.000000e+000 -8.948548e-001
    outer loop
      vertex  6.064037e+000  8.247878e+000  6.719841e+000
      vertex  6.198808e+000 -8.126828e+000  6.787065e+000
      vertex  6.064037e+000 -8.247878e+000  6.719841e+000
    endloop
  endfacet
  facet normal  5.022350e-001  0.000000e+000 -8.647312e-001
    outer loop
      vertex  6.064037e+000  8.247878e+000  6.719841e+000
      vertex  6.064037e+000 -8.247878e+000  6.719841e+000
      vertex  5.864899e+000  8.423907e+000  6.604181e+000
    endloop
  endfacet
  facet normal  5.022350e-001  0.000000e+000 -8.647313e-001
    outer loop
      vertex  5.864899e+000  8.423907e+000  6.604181e+000
      vertex  6.064037e+000 -8.247878e+000  6.719841e+000
      vertex  5.864899e+000 -8.423907e+000  6.604181e+000
    endloop
  endfacet
  facet normal  5.678818e-001  0.000000e+000 -8.231101e-001
    outer loop
      vertex  5.864899e+000  8.423907e+000  6.604181e+000
      vertex  5.864899e+000 -8.423907e+000  6.604181e+000
      vertex  5.670564e+000  8.592008e+000  6.470106e+000
    endloop
  endfacet
  facet normal  5.678818e-001  0.000000e+000 -8.231102e-001
    outer loop
      vertex  5.670564e+000  8.592008e+000  6.470106e+000
      vertex  5.864899e+000 -8.423907e+000  6.604181e+000
      vertex  5.670564e+000 -8.592008e+000  6.470106e+000
    endloop
  endfacet
  facet normal  6.316756e-001  0.000000e+000 -7.752329e-001
    outer loop
      vertex  5.670564e+000  8.592008e+000  6.470106e+000
      vertex  5.670564e+000 -8.592008e+000  6.470106e+000
      vertex  5.482589e+000  8.750530e+000  6.316940e+000
    endloop
  endfacet
  facet normal  6.316755e-001  0.000000e+000 -7.752329e-001
    outer loop
      vertex  5.482589e+000  8.750530e+000  6.316940e+000
      vertex  5.670564e+000 -8.592008e+000  6.470106e+000
      vertex  5.482589e+000 -8.750530e+000  6.316940e+000
    endloop
  endfacet
  facet normal  6.930570e-001  0.000000e+000 -7.208828e-001
    outer loop
      vertex  5.482589e+000  8.750530e+000  6.316940e+000
      vertex  5.482589e+000 -8.750530e+000  6.316940e+000
      vertex  5.302785e+000  8.897585e+000  6.144076e+000
    endloop
  endfacet
  facet normal  6.930569e-001  0.000000e+000 -7.208827e-001
    outer loop
      vertex  5.302785e+000  8.897585e+000  6.144076e+000
      vertex  5.482589e+000 -8.750530e+000  6.316940e+000
      vertex  5.302785e+000 -8.897585e+000  6.144076e+000
    endloop
  endfacet
  facet normal  7.505240e-001  0.000000e+000 -6.608432e-001
    outer loop
      vertex  5.302785e+000  8.897585e+000  6.144076e+000
      vertex  5.302785e+000 -8.897585e+000  6.144076e+000
      vertex  5.138100e+000  8.870150e+000  5.957042e+000
    endloop
  endfacet
  facet normal  7.505240e-001  0.000000e+000 -6.608433e-001
    outer loop
      vertex  5.138100e+000  8.870150e+000  5.957042e+000
      vertex  5.302785e+000 -8.897585e+000  6.144076e+000
      vertex  5.138100e+000 -8.870150e+000  5.957042e+000
    endloop
  endfacet
  facet normal  8.027496e-001  0.000000e+000 -5.963162e-001
    outer loop
      vertex  5.138100e+000  8.870150e+000  5.957042e+000
      vertex  5.138100e+000 -8.870150e+000  5.957042e+000
      vertex  4.989680e+000  8.839999e+000  5.757242e+000
    endloop
  endfacet
  facet normal  8.027496e-001  0.000000e+000 -5.963162e-001
    outer loop
      vertex  4.989680e+000  8.839999e+000  5.757242e+000
      vertex  5.138100e+000 -8.870150e+000  5.957042e+000
      vertex  4.989680e+000 -8.839999e+000  5.757242e+000
    endloop
  endfacet
  facet normal  8.493877e-001  0.000000e+000 -5.277696e-001
    outer loop
      vertex  4.989680e+000  8.839999e+000  5.757242e+000
      vertex  4.989680e+000 -8.839999e+000  5.757242e+000
      vertex  4.858487e+000  8.807352e+000  5.546101e+000
    endloop
  endfacet
  facet normal  8.493876e-001  0.000000e+000 -5.277696e-001
    outer loop
      vertex  4.858487e+000  8.807352e+000  5.546101e+000
      vertex  4.989680e+000 -8.839999e+000  5.757242e+000
      vertex  4.858487e+000 -8.807352e+000  5.546101e+000
    endloop
  endfacet
  facet normal  8.901404e-001  0.000000e+000 -4.556865e-001
    outer loop
      vertex  4.858487e+000  8.807352e+000  5.546101e+000
      vertex  4.858487e+000 -8.807352e+000  5.546101e+000
      vertex  4.745353e+000  8.772440e+000  5.325105e+000
    endloop
  endfacet
  facet normal  8.901403e-001  0.000000e+000 -4.556865e-001
    outer loop
      vertex  4.745353e+000  8.772440e+000  5.325105e+000
      vertex  4.858487e+000 -8.807352e+000  5.546101e+000
      vertex  4.745353e+000 -8.772440e+000  5.325105e+000
    endloop
  endfacet
  facet normal  9.247535e-001  0.000000e+000 -3.805667e-001
    outer loop
      vertex  4.745353e+000  8.772440e+000  5.325105e+000
      vertex  4.745353e+000 -8.772440e+000  5.325105e+000
      vertex  4.650982e+000  8.735510e+000  5.095790e+000
    endloop
  endfacet
  facet normal  9.247535e-001  0.000000e+000 -3.805667e-001
    outer loop
      vertex  4.650982e+000  8.735510e+000  5.095790e+000
      vertex  4.745353e+000 -8.772440e+000  5.325105e+000
      vertex  4.650982e+000 -8.735510e+000  5.095790e+000
    endloop
  endfacet
  facet normal -1.736492e-001  0.000000e+000  9.848076e-001
    outer loop
      vertex  3.561459e+000  7.764491e+000  7.949957e+000
      vertex  4.130038e+000  7.764491e+000  8.050214e+000
      vertex  3.561459e+000  9.000000e+000  7.949957e+000
    endloop
  endfacet
  facet normal -1.736481e-001  2.827266e-007  9.848078e-001
    outer loop
      vertex  5.579974e+000  9.000000e+000  8.305876e+000
      vertex  3.561459e+000  9.000000e+000  7.949957e+000
      vertex  8.200000e+000  6.500000e+000  8.767858e+000
    endloop
  endfacet
  facet normal -1.736479e-001  5.868187e-007  9.848078e-001
    outer loop
      vertex  8.200000e+000  6.500000e+000  8.767858e+000
      vertex  3.561459e+000  9.000000e+000  7.949957e+000
      vertex  4.130038e+000  7.764491e+000  8.050214e+000
    endloop
  endfacet
  facet normal -1.736481e-001  0.000000e+000  9.848078e-001
    outer loop
      vertex  8.200000e+000  6.500000e+000  8.767858e+000
      vertex  4.130038e+000  7.764491e+000  8.050214e+000
      vertex  8.200000e+000 -6.500000e+000  8.767858e+000
    endloop
  endfacet
  facet normal -1.736481e-001  0.000000e+000  9.848077e-001
    outer loop
      vertex  8.200000e+000 -6.500000e+000  8.767858e+000
      vertex  4.130038e+000  7.764491e+000  8.050214e+000
      vertex  4.130038e+000 -7.764491e+000  8.050214e+000
    endloop
  endfacet
  facet normal -1.736480e-001 -3.905996e-007  9.848078e-001
    outer loop
      vertex  8.200000e+000 -6.500000e+000  8.767858e+000
      vertex  4.130038e+000 -7.764491e+000  8.050214e+000
      vertex  5.579974e+000 -9.000000e+000  8.305876e+000
    endloop
  endfacet
  facet normal -1.736481e-001  0.000000e+000  9.848077e-001
    outer loop
      vertex  3.561459e+000 -9.000000e+000  7.949957e+000
      vertex  5.579974e+000 -9.000000e+000  8.305876e+000
      vertex  3.561459e+000 -7.764491e+000  7.949957e+000
    endloop
  endfacet
  facet normal -1.736492e-001 -1.815504e-006  9.848076e-001
    outer loop
      vertex  3.561459e+000 -7.764491e+000  7.949957e+000
      vertex  5.579974e+000 -9.000000e+000  8.305876e+000
      vertex  4.130038e+000 -7.764491e+000  8.050214e+000
    endloop
  endfacet
  facet normal  9.848077e-001  0.000000e+000 -1.736482e-001
    outer loop
      vertex  8.200000e+000 -6.500000e+000  8.767858e+000
      vertex  7.922811e+000 -6.500000e+000  7.195842e+000
      vertex  8.200000e+000  6.500000e+000  8.767858e+000
    endloop
  endfacet
  facet normal  9.848077e-001  0.000000e+000 -1.736482e-001
    outer loop
      vertex  8.200000e+000  6.500000e+000  8.767858e+000
      vertex  7.922811e+000 -6.500000e+000  7.195842e+000
      vertex  7.922811e+000  6.500000e+000  7.195842e+000
    endloop
  endfacet
  facet normal -3.015369e-002  9.848077e-001  1.710102e-001
    outer loop
      vertex  1.200000e+000 -6.456300e+000  1.150194e-015
      vertex -1.373551e+001 -6.913608e+000  1.332268e-015
      vertex -1.321336e+001 -7.411837e+000  2.961251e+000
    endloop
  endfacet
  facet normal -3.015370e-002  9.848078e-001  1.710102e-001
    outer loop
      vertex  1.200000e+000 -6.456300e+000  1.150194e-015
      vertex -1.321336e+001 -7.411837e+000  2.961251e+000
      vertex  1.065860e+000 -7.411837e+000  5.479063e+000
    endloop
  endfacet
  facet normal -3.015197e-002  9.848078e-001  1.710102e-001
    outer loop
      vertex  1.200000e+000 -6.456300e+000  1.150194e-015
      vertex  1.065860e+000 -7.411837e+000  5.479063e+000
      vertex  1.129062e+000 -7.411958e+000  5.490907e+000
    endloop
  endfacet
  facet normal -3.015440e-002  9.848077e-001  1.710102e-001
    outer loop
      vertex  1.200000e+000 -6.456300e+000  1.150194e-015
      vertex  1.129062e+000 -7.411958e+000  5.490907e+000
      vertex  1.403241e+000 -7.415369e+000  5.558895e+000
    endloop
  endfacet
  facet normal -3.015305e-002  9.848078e-001  1.710101e-001
    outer loop
      vertex  1.200000e+000 -6.456300e+000  1.150194e-015
      vertex  1.403241e+000 -7.415369e+000  5.558895e+000
      vertex  1.669720e+000 -7.423436e+000  5.652336e+000
    endloop
  endfacet
  facet normal -3.015455e-002  9.848077e-001  1.710102e-001
    outer loop
      vertex  1.200000e+000 -6.456300e+000  1.150194e-015
      vertex  1.669720e+000 -7.423436e+000  5.652336e+000
      vertex  1.926085e+000 -7.436077e+000  5.770340e+000
    endloop
  endfacet
  facet normal -3.015343e-002  9.848078e-001  1.710101e-001
    outer loop
      vertex  1.200000e+000 -6.456300e+000  1.150194e-015
      vertex  1.926085e+000 -7.436077e+000  5.770340e+000
      vertex  2.170032e+000 -7.453169e+000  5.911784e+000
    endloop
  endfacet
  facet normal -3.015420e-002  9.848077e-001  1.710102e-001
    outer loop
      vertex  1.200000e+000 -6.456300e+000  1.150194e-015
      vertex  2.170032e+000 -7.453169e+000  5.911784e+000
      vertex  2.399392e+000 -7.474545e+000  6.075327e+000
    endloop
  endfacet
  facet normal -3.015360e-002  9.848077e-001  1.710101e-001
    outer loop
      vertex  1.200000e+000 -6.456300e+000  1.150194e-015
      vertex  2.399392e+000 -7.474545e+000  6.075327e+000
      vertex  2.612155e+000 -7.500000e+000  6.259430e+000
    endloop
  endfacet
  facet normal -3.015427e-002  9.848077e-001  1.710102e-001
    outer loop
      vertex  1.200000e+000 -6.456300e+000  1.150194e-015
      vertex  2.612155e+000 -7.500000e+000  6.259430e+000
      vertex  2.804245e+000 -7.528913e+000  6.459802e+000
    endloop
  endfacet
  facet normal -3.015385e-002  9.848077e-001  1.710101e-001
    outer loop
      vertex  1.200000e+000 -6.456300e+000  1.150194e-015
      vertex  2.804245e+000 -7.528913e+000  6.459802e+000
      vertex  2.976769e+000 -7.561305e+000  6.676761e+000
    endloop
  endfacet
  facet normal -3.015213e-002  9.848078e-001  1.710097e-001
    outer loop
      vertex  1.200000e+000 -6.456300e+000  1.150194e-015
      vertex  2.976769e+000 -7.561305e+000  6.676761e+000
      vertex  3.128335e+000 -7.596885e+000  6.908383e+000
    endloop
  endfacet
  facet normal -3.015089e-002  9.848080e-001  1.710094e-001
    outer loop
      vertex  1.200000e+000 -6.456300e+000  1.150194e-015
      vertex  3.128335e+000 -7.596885e+000  6.908383e+000
      vertex  3.257743e+000 -7.635337e+000  7.152640e+000
    endloop
  endfacet
  facet normal -3.016760e-002  9.848067e-001  1.710140e-001
    outer loop
      vertex  1.200000e+000 -6.456300e+000  1.150194e-015
      vertex  3.257743e+000 -7.635337e+000  7.152640e+000
      vertex  3.363994e+000 -7.676327e+000  7.407426e+000
    endloop
  endfacet
  facet normal -3.014322e-002  9.848086e-001  1.710072e-001
    outer loop
      vertex  1.200000e+000 -6.456300e+000  1.150194e-015
      vertex  3.363994e+000 -7.676327e+000  7.407426e+000
      vertex  3.561459e+000 -7.764491e+000  7.949957e+000
    endloop
  endfacet
  facet normal -3.015388e-002  9.848077e-001  1.710102e-001
    outer loop
      vertex  1.200000e+000 -6.456300e+000  1.150194e-015
      vertex  3.561459e+000 -7.764491e+000  7.949957e+000
      vertex  4.130038e+000 -7.764491e+000  8.050214e+000
    endloop
  endfacet
  facet normal -9.396926e-001  0.000000e+000  3.420202e-001
    outer loop
      vertex  4.130038e+000  7.764491e+000  8.050214e+000
      vertex  1.200000e+000  6.456300e+000  1.150194e-015
      vertex  4.130038e+000 -7.764491e+000  8.050214e+000
    endloop
  endfacet
  facet normal -9.396926e-001  0.000000e+000  3.420202e-001
    outer loop
      vertex  4.130038e+000 -7.764491e+000  8.050214e+000
      vertex  1.200000e+000  6.456300e+000  1.150194e-015
      vertex  1.200000e+000 -6.456300e+000  1.150194e-015
    endloop
  endfacet
  facet normal  1.219063e-017  -0.000000e+000  9.999999e-001
    outer loop
      vertex -1.373551e+001  6.913608e+000  1.332268e-015
      vertex -1.373551e+001 -6.913608e+000  1.332268e-015
      vertex  1.200000e+000  6.456300e+000  1.150194e-015
    endloop
  endfacet
  facet normal  1.219063e-017  0.000000e+000  1.000000e+000
    outer loop
      vertex  1.200000e+000  6.456300e+000  1.150194e-015
      vertex -1.373551e+001 -6.913608e+000  1.332268e-015
      vertex  1.200000e+000 -6.456300e+000  1.150194e-015
    endloop
  endfacet
  facet normal -9.396926e-001  0.000000e+000  3.420203e-001
    outer loop
      vertex  3.363994e+000 -9.000000e+000  7.407426e+000
      vertex  3.561459e+000 -9.000000e+000  7.949957e+000
      vertex  3.363994e+000 -7.676327e+000  7.407426e+000
    endloop
  endfacet
  facet normal -9.396926e-001  0.000000e+000  3.420203e-001
    outer loop
      vertex  3.363994e+000 -7.676327e+000  7.407426e+000
      vertex  3.561459e+000 -9.000000e+000  7.949957e+000
      vertex  3.561459e+000 -7.764491e+000  7.949957e+000
    endloop
  endfacet
  facet normal -9.848077e-001  0.000000e+000  1.736484e-001
    outer loop
      vertex -1.321336e+001  7.411837e+000  2.961251e+000
      vertex -1.321336e+001  7.500000e+000  2.961251e+000
      vertex -1.373551e+001  6.913608e+000  1.332268e-015
    endloop
  endfacet
  facet normal -9.848078e-001  0.000000e+000  1.736482e-001
    outer loop
      vertex -1.321336e+001 -8.911837e+000  2.961251e+000
      vertex -1.321336e+001 -7.500000e+000  2.961251e+000
      vertex -1.400000e+001 -8.161235e+000 -1.500000e+000
    endloop
  endfacet
  facet normal -9.848078e-001  0.000000e+000  1.736484e-001
    outer loop
      vertex -1.321336e+001  7.500000e+000  2.961251e+000
      vertex -1.321336e+001  8.911837e+000  2.961251e+000
      vertex -1.373551e+001  6.913608e+000  1.332268e-015
    endloop
  endfacet
  facet normal -9.848077e-001  2.897460e-007  1.736482e-001
    outer loop
      vertex -1.373551e+001  6.913608e+000  1.332268e-015
      vertex -1.321336e+001  8.911837e+000  2.961251e+000
      vertex -1.400000e+001  8.161235e+000 -1.500000e+000
    endloop
  endfacet
  facet normal -9.848078e-001  0.000000e+000  1.736480e-001
    outer loop
      vertex -1.373551e+001  6.913608e+000  1.332268e-015
      vertex -1.400000e+001  8.161235e+000 -1.500000e+000
      vertex -1.373551e+001 -6.913608e+000  1.332268e-015
    endloop
  endfacet
  facet normal -9.848078e-001  0.000000e+000  1.736480e-001
    outer loop
      vertex -1.373551e+001 -6.913608e+000  1.332268e-015
      vertex -1.400000e+001  8.161235e+000 -1.500000e+000
      vertex -1.400000e+001 -8.161235e+000 -1.500000e+000
    endloop
  endfacet
  facet normal -9.848077e-001 -4.225337e-007  1.736483e-001
    outer loop
      vertex -1.373551e+001 -6.913608e+000  1.332268e-015
      vertex -1.400000e+001 -8.161235e+000 -1.500000e+000
      vertex -1.321336e+001 -7.411837e+000  2.961251e+000
    endloop
  endfacet
  facet normal -9.848078e-001  0.000000e+000  1.736482e-001
    outer loop
      vertex -1.321336e+001 -7.411837e+000  2.961251e+000
      vertex -1.400000e+001 -8.161235e+000 -1.500000e+000
      vertex -1.321336e+001 -7.500000e+000  2.961251e+000
    endloop
  endfacet
  facet normal -1.736482e-001  0.000000e+000  9.848077e-001
    outer loop
      vertex  1.065860e+000 -7.411837e+000  5.479063e+000
      vertex -1.321336e+001 -7.411837e+000  2.961251e+000
      vertex  1.065860e+000 -8.911837e+000  5.479063e+000
    endloop
  endfacet
  facet normal -1.736482e-001  0.000000e+000  9.848078e-001
    outer loop
      vertex  1.065860e+000 -8.911837e+000  5.479063e+000
      vertex -1.321336e+001 -7.411837e+000  2.961251e+000
      vertex -1.321336e+001 -7.500000e+000  2.961251e+000
    endloop
  endfacet
  facet normal -1.736482e-001  0.000000e+000  9.848078e-001
    outer loop
      vertex  1.065860e+000 -8.911837e+000  5.479063e+000
      vertex -1.321336e+001 -7.500000e+000  2.961251e+000
      vertex -1.321336e+001 -8.911837e+000  2.961251e+000
    endloop
  endfacet
  facet normal -3.015388e-002 -9.848077e-001  1.710102e-001
    outer loop
      vertex  1.200000e+000  6.456300e+000  1.150194e-015
      vertex  4.130038e+000  7.764491e+000  8.050214e+000
      vertex  3.561459e+000  7.764491e+000  7.949957e+000
    endloop
  endfacet
  facet normal -3.014322e-002 -9.848086e-001  1.710072e-001
    outer loop
      vertex  1.200000e+000  6.456300e+000  1.150194e-015
      vertex  3.561459e+000  7.764491e+000  7.949957e+000
      vertex  3.363994e+000  7.676327e+000  7.407426e+000
    endloop
  endfacet
  facet normal -3.016760e-002 -9.848067e-001  1.710140e-001
    outer loop
      vertex  1.200000e+000  6.456300e+000  1.150194e-015
      vertex  3.363994e+000  7.676327e+000  7.407426e+000
      vertex  3.257743e+000  7.635337e+000  7.152640e+000
    endloop
  endfacet
  facet normal -3.015089e-002 -9.848080e-001  1.710094e-001
    outer loop
      vertex  1.200000e+000  6.456300e+000  1.150194e-015
      vertex  3.257743e+000  7.635337e+000  7.152640e+000
      vertex  3.128335e+000  7.596885e+000  6.908383e+000
    endloop
  endfacet
  facet normal -3.015213e-002 -9.848078e-001  1.710097e-001
    outer loop
      vertex  1.200000e+000  6.456300e+000  1.150194e-015
      vertex  3.128335e+000  7.596885e+000  6.908383e+000
      vertex  2.976769e+000  7.561305e+000  6.676761e+000
    endloop
  endfacet
  facet normal -3.015385e-002 -9.848077e-001  1.710101e-001
    outer loop
      vertex  1.200000e+000  6.456300e+000  1.150194e-015
      vertex  2.976769e+000  7.561305e+000  6.676761e+000
      vertex  2.804245e+000  7.528913e+000  6.459802e+000
    endloop
  endfacet
  facet normal -3.015427e-002 -9.848077e-001  1.710102e-001
    outer loop
      vertex  1.200000e+000  6.456300e+000  1.150194e-015
      vertex  2.804245e+000  7.528913e+000  6.459802e+000
      vertex  2.612155e+000  7.500000e+000  6.259430e+000
    endloop
  endfacet
  facet normal -3.015360e-002 -9.848077e-001  1.710101e-001
    outer loop
      vertex  1.200000e+000  6.456300e+000  1.150194e-015
      vertex  2.612155e+000  7.500000e+000  6.259430e+000
      vertex  2.399392e+000  7.474545e+000  6.075327e+000
    endloop
  endfacet
  facet normal -3.015420e-002 -9.848077e-001  1.710102e-001
    outer loop
      vertex  1.200000e+000  6.456300e+000  1.150194e-015
      vertex  2.399392e+000  7.474545e+000  6.075327e+000
      vertex  2.170032e+000  7.453169e+000  5.911784e+000
    endloop
  endfacet
  facet normal -3.015343e-002 -9.848078e-001  1.710101e-001
    outer loop
      vertex  1.200000e+000  6.456300e+000  1.150194e-015
      vertex  2.170032e+000  7.453169e+000  5.911784e+000
      vertex  1.926085e+000  7.436077e+000  5.770340e+000
    endloop
  endfacet
  facet normal -3.015455e-002 -9.848077e-001  1.710102e-001
    outer loop
      vertex  1.200000e+000  6.456300e+000  1.150194e-015
      vertex  1.926085e+000  7.436077e+000  5.770340e+000
      vertex  1.669720e+000  7.423436e+000  5.652336e+000
    endloop
  endfacet
  facet normal -3.015305e-002 -9.848078e-001  1.710101e-001
    outer loop
      vertex  1.200000e+000  6.456300e+000  1.150194e-015
      vertex  1.669720e+000  7.423436e+000  5.652336e+000
      vertex  1.403241e+000  7.415369e+000  5.558895e+000
    endloop
  endfacet
  facet normal -3.015440e-002 -9.848077e-001  1.710102e-001
    outer loop
      vertex  1.200000e+000  6.456300e+000  1.150194e-015
      vertex  1.403241e+000  7.415369e+000  5.558895e+000
      vertex  1.129062e+000  7.411958e+000  5.490907e+000
    endloop
  endfacet
  facet normal -3.015197e-002 -9.848078e-001  1.710102e-001
    outer loop
      vertex  1.200000e+000  6.456300e+000  1.150194e-015
      vertex  1.129062e+000  7.411958e+000  5.490907e+000
      vertex  1.065860e+000  7.411837e+000  5.479063e+000
    endloop
  endfacet
  facet normal -3.015370e-002 -9.848078e-001  1.710102e-001
    outer loop
      vertex  1.200000e+000  6.456300e+000  1.150194e-015
      vertex  1.065860e+000  7.411837e+000  5.479063e+000
      vertex -1.321336e+001  7.411837e+000  2.961251e+000
    endloop
  endfacet
  facet normal -3.015369e-002 -9.848077e-001  1.710102e-001
    outer loop
      vertex  1.200000e+000  6.456300e+000  1.150194e-015
      vertex -1.321336e+001  7.411837e+000  2.961251e+000
      vertex -1.373551e+001  6.913608e+000  1.332268e-015
    endloop
  endfacet
  facet normal -9.396926e-001  0.000000e+000  3.420203e-001
    outer loop
      vertex  3.363994e+000  7.676327e+000  7.407426e+000
      vertex  3.561459e+000  7.764491e+000  7.949957e+000
      vertex  3.363994e+000  9.000000e+000  7.407426e+000
    endloop
  endfacet
  facet normal -9.396926e-001  0.000000e+000  3.420203e-001
    outer loop
      vertex  3.363994e+000  9.000000e+000  7.407426e+000
      vertex  3.561459e+000  7.764491e+000  7.949957e+000
      vertex  3.561459e+000  9.000000e+000  7.949957e+000
    endloop
  endfacet
  facet normal -1.736482e-001  0.000000e+000  9.848077e-001
    outer loop
      vertex  1.065860e+000  8.911837e+000  5.479063e+000
      vertex -1.321336e+001  8.911837e+000  2.961251e+000
      vertex  1.065860e+000  7.411837e+000  5.479063e+000
    endloop
  endfacet
  facet normal -1.736482e-001  0.000000e+000  9.848078e-001
    outer loop
      vertex  1.065860e+000  7.411837e+000  5.479063e+000
      vertex -1.321336e+001  8.911837e+000  2.961251e+000
      vertex -1.321336e+001  7.500000e+000  2.961251e+000
    endloop
  endfacet
  facet normal -1.736482e-001  0.000000e+000  9.848078e-001
    outer loop
      vertex  1.065860e+000  7.411837e+000  5.479063e+000
      vertex -1.321336e+001  7.500000e+000  2.961251e+000
      vertex -1.321336e+001  7.411837e+000  2.961251e+000
    endloop
  endfacet
endsolid CATIA STL
